<svg viewBox="0 0 1620 1028" xmlns="http://www.w3.org/2000/svg"><g id="a"></g><g id="b"><g id="c"><g><path fill="#e8f2fa" d="M1573.48,578c.01,5.41-.01,10.81-.08,16.23-.11,10.03-.37,20.05-.74,30.03-7.72,207.91-67.16,401.81-67.16,401.81l-348.21,.13h-29.68l-54.92,.03-87.33,.03-74.91,.03h0l-150.55,.06h-32.95l-74.83,.04-107.78,.03-107.78,.04-333.77,.12c-67.14-139.75-6.99-190.1,37.38-261.44,23.77-38.2,43-82.42,35.77-149.59-2.51-23.3-8.21-49.36-18-78.88-4.39-13.22-5.8-27.04-7.86-40.22-.94-5.94-1.76-11.82-2.47-17.66-.2-1.55-.38-3.1-.55-4.65C112.66,170.63,256.57,27.66,480.4,3.68c175.63-18.82,248.49,38.3,294.61,83.61,152.62,149.92,164.3,8.36,491.02,39.71,177.16,17.01,258.89,134.68,290.55,279.61h0c2.17,9.89,4.09,19.91,5.8,30.03,.91,5.36,1.75,10.76,2.54,16.19,1.44,9.93,2.68,19.95,3.73,30.03,.6,5.7,1.14,11.42,1.61,17.16,.84,9.96,1.5,19.99,2,30.03,.3,5.96,.54,11.93,.73,17.91,.31,10,.47,20.01,.5,30.03Z"></path><g><path fill="#d1e4fc" d="M1573.48,578c.01,5.41-.01,10.81-.08,16.23-.11,10.03-.37,20.05-.74,30.03-7.72,207.91-67.16,401.81-67.16,401.81l-377.9,.14-367.71,.13h-32.95l-74.83,.04-107.78,.03-107.78,.04-333.77,.12c-67.14-139.75-6.99-190.1,37.38-261.44,23.77-38.2,43-82.42,35.77-149.59h15.52v-78.35h17.48v-36.55h2.65v36.55h41.9v-68.5h4.11v68.5h27.72v-.95h-.04v-8.69h.04v-8.24h-.04v-13.68h.04v-8.76h-.04v-13.68h.04v-8.76h-.04v-13.69h.04v-9.45h-.04v-13.69h.04v-12.02h-.04v-13.69h.04v-9.08h8.26v-10.25h1.33v10.25h61.19v-10.25h1.32v10.25h11.16v71.61l7.86,.06v-.06h-.06v-13.69h.06v-9.45h-.06v-13.69h.06v-9.41h-.06v-13.69h.06v-.03h74.21v.03h12.75c.66,.38,1.32,.72,1.98,1.09v78.16h54.25v102.63h43.8v-189.8h9.54v-13.28h1.71v13.28h34.61v-13.28h1.72v13.28h48.99v-13.28h1.72v13.28h30.83v-13.28h1.71v13.28h12.68v177.17h48.42v-28.66l57.13,.26v-46.45h11.5v-9.18h1.51v9.18h52.92v-9.18h1.54v9.2h10.63v92.36h68.02v33.97h37.79v-19.74h35.06v-78.35h17.48v-36.55h2.65v36.55h41.9v-68.5h4.11v68.5h27.72v-.95h-.04v-8.69h.04v-8.24h-.04v-13.68h.04v-8.76h-.04v-13.68h.04v-8.76h-.04v-13.69h.04v-9.45h-.04v-13.69h.04v-12.02h-.04v-13.69h.04v-9.08h8.27v-10.25h1.32v10.25h61.18v-10.25h1.33v10.25h11.16v71.61l7.76,.06h.1v-.06h-.06v-13.69h.06v-9.45h-.06v-13.69h.06v-9.41h-.06v-13.69h.06v-.03h74.21v.03h12.74c.67,.38,1.32,.72,1.98,1.09v78.16l1.81,101.31,89.23,1.33h43.84v-189.81h9.53v-13.28h1.71v13.28h34.61v-13.28h1.7v13.28h49.02v-13.28h1.71v13.28h18.01c2.17,9.89,4.09,19.9,5.8,30.03,.91,5.36,1.75,10.76,2.54,16.19,1.44,9.93,2.68,19.95,3.73,30.03,.6,5.7,1.14,11.42,1.61,17.16,.84,9.96,1.5,19.99,2,30.03,.3,5.96,.54,11.93,.73,17.91,.31,10,.47,20.01,.5,30.03Z"></path><g><rect fill="#dfedff" height="30.03" width="109.48" y="406.61" x="597.49"></rect><rect fill="#dfedff" height="30.03" width="109.48" y="452.84" x="597.49"></rect><rect fill="#dfedff" height="30.03" width="109.48" y="500.03" x="597.49"></rect><rect fill="#dfedff" height="30.03" width="109.48" y="547.97" x="597.49"></rect><rect fill="#dfedff" height="30.03" width="109.48" y="594.23" x="597.49"></rect><g><rect fill="#dfedff" height="18.24" width="51.08" y="402.85" x="1125.5"></rect><rect fill="#dfedff" height="18.24" width="51.08" y="430.92" x="1125.5"></rect><rect fill="#dfedff" height="18.24" width="51.08" y="459.58" x="1125.5"></rect><rect fill="#dfedff" height="18.24" width="51.08" y="488.7" x="1125.5"></rect><rect fill="#dfedff" height="18.24" width="51.08" y="516.79" x="1125.5"></rect></g><g><rect fill="#dfedff" height="18.24" width="51.08" y="547.71" x="1125.5"></rect><rect fill="#dfedff" height="18.24" width="51.08" y="575.79" x="1125.5"></rect><rect fill="#dfedff" height="18.24" width="51.08" y="604.45" x="1125.5"></rect><rect fill="#dfedff" height="18.24" width="51.08" y="633.56" x="1125.5"></rect><rect fill="#dfedff" height="18.24" width="51.08" y="661.66" x="1125.5"></rect></g><g><rect fill="#dfedff" height="18.24" width="54.74" y="414.81" x="1216.36"></rect><rect fill="#dfedff" height="18.24" width="54.74" y="442.88" x="1216.36"></rect><rect fill="#dfedff" height="18.24" width="54.74" y="471.55" x="1216.36"></rect><rect fill="#dfedff" height="18.24" width="54.74" y="500.66" x="1216.36"></rect><rect fill="#dfedff" height="18.24" width="54.74" y="528.76" x="1216.36"></rect></g><g><rect fill="#dfedff" height="18.24" width="54.74" y="558.04" x="1216.36"></rect><rect fill="#dfedff" height="18.24" width="54.74" y="586.12" x="1216.36"></rect><rect fill="#dfedff" height="18.24" width="54.74" y="614.78" x="1216.36"></rect><rect fill="#dfedff" height="18.24" width="54.74" y="643.9" x="1216.36"></rect><rect fill="#dfedff" height="18.24" width="54.74" y="671.99" x="1216.36"></rect></g><g><rect fill="#dfedff" height="18.24" width="54.74" y="704.21" x="1216.36"></rect><rect fill="#dfedff" height="18.24" width="54.74" y="732.28" x="1216.36"></rect><rect fill="#dfedff" height="18.24" width="54.74" y="760.94" x="1216.36"></rect><rect fill="#dfedff" height="18.24" width="54.74" y="790.06" x="1216.36"></rect><rect fill="#dfedff" height="18.24" width="54.74" y="818.15" x="1216.36"></rect></g><path fill="#dfedff" d="M1556.58,406.61h-72.47v30.03h78.28c-1.71-10.12-3.64-20.14-5.8-30.03h0Z"></path><path fill="#dfedff" d="M1568.64,482.87h-84.54v-30.03h80.81c1.44,9.93,2.68,19.95,3.73,30.03Z"></path><path fill="#dfedff" d="M1572.25,530.06h-88.15v-30.03h86.15c.84,9.96,1.5,19.99,2,30.03Z"></path><path fill="#dfedff" d="M1573.48,578h-89.38v-30.03h88.88c.31,10,.47,20.01,.5,30.03Z"></path><path fill="#dfedff" d="M1573.4,594.23c-.11,10.03-.37,20.05-.74,30.03h-88.56v-30.03h89.29Z"></path><g><rect fill="#dfedff" height="18.24" width="54.74" y="402.85" x="284.81"></rect><rect fill="#dfedff" height="18.24" width="54.74" y="430.92" x="284.81"></rect><rect fill="#dfedff" height="18.24" width="54.74" y="459.58" x="284.81"></rect><rect fill="#dfedff" height="18.24" width="54.74" y="488.7" x="284.81"></rect><rect fill="#dfedff" height="18.24" width="54.74" y="516.79" x="284.81"></rect></g><g><rect fill="#dfedff" height="18.59" width="54.74" y="547.71" x="284.81"></rect><rect fill="#dfedff" height="18.59" width="54.74" y="576.32" x="284.81"></rect></g><g><rect fill="#dfedff" height="18.24" width="62.22" y="414.81" x="377.51"></rect><rect fill="#dfedff" height="18.24" width="62.22" y="442.88" x="377.51"></rect><rect fill="#dfedff" height="18.24" width="62.22" y="471.55" x="377.51"></rect><rect fill="#dfedff" height="18.24" width="62.22" y="500.66" x="377.51"></rect><rect fill="#dfedff" height="18.24" width="62.22" y="528.76" x="377.51"></rect></g><g><rect fill="#dfedff" height="18.24" width="62.22" y="558.04" x="377.51"></rect><rect fill="#dfedff" height="18.24" width="62.22" y="586.12" x="377.51"></rect><rect fill="#dfedff" height="18.24" width="62.22" y="614.78" x="377.51"></rect><rect fill="#dfedff" height="18.24" width="62.22" y="643.9" x="377.51"></rect><rect fill="#dfedff" height="18.24" width="62.22" y="671.99" x="377.51"></rect></g></g></g><g><path fill="#d6e4fd" d="M465.61,119.5l102.81-.16c3.35-6.54,4.86-13.3,4.22-20.07-.47-5.04-2.11-9.81-4.75-14.24l-102.44,31.45,.16,3.01Z"></path><path fill="#d6e4fd" d="M455.19,121.46l-100.66,23.16c-4.49-5.64-7.21-11.92-7.85-18.69-.47-5.04,.24-10.08,2.02-15.02l106.09,7.56,.4,2.98Z"></path><path fill="#d6e4fd" d="M423.69,59.39l32.37,61.5,6.37-.73,20.23-67.65c-9.4-.13-19.19,.35-29.2,1.49-10.35,1.19-20.32,3.01-29.78,5.39Z"></path><path fill="#d6e4fd" d="M437.31,178.69c8.94,.07,18.21-.42,27.68-1.51,9.14-1.05,17.99-2.6,26.44-4.57l-29.52-52.4-5.55,.64-19.06,57.85Z"></path><path fill="#1e3865" d="M528.38,253.72c.61,6.49-111.02,19.46-111.65,12.79-.03-.37-.07-.74-.1-1.12-.79-10.29,.73-20.23,4.1-29.17,7.67-20.31,24.87-35.46,46.04-37.89,21-2.41,40.49,8.33,51.8,26.21,5.15,8.15,8.6,17.78,9.72,28.33,.03,.27,.06,.56,.09,.84Z"></path><polygon fill="#1e3865" points="456.83 144.16 457.72 239.75 487.16 236.37 467.11 142.99 456.83 144.16"></polygon><path fill="#d6e4fd" d="M232.61,234.5l-100.66,23.16c-4.49-5.64-7.22-11.92-7.85-18.69-.47-5.04,.24-10.08,2.02-15.02l106.09,7.56,.4,2.98Z"></path><path fill="#d6e4fd" d="M244.97,231.35l102.81-.16c3.35-6.54,4.86-13.3,4.22-20.07-.47-5.04-2.11-9.81-4.75-14.24l-102.44,31.45,.16,3.01Z"></path><path fill="#d6e4fd" d="M262.76,164.84l-20.3,67.53-6.37,.73-32.33-61.62c9.18-2.26,18.85-4.01,28.86-5.16,10.35-1.19,20.45-1.66,30.14-1.48Z"></path><path fill="#d6e4fd" d="M271.51,284.71c-8.74,2.1-17.9,3.72-27.37,4.8-9.14,1.05-18.09,1.53-26.73,1.52l19.2-57.98,5.55-.64,29.36,52.3Z"></path><polygon fill="#1e3865" points="472.01 260.18 240.61 254.57 241.6 242.44 469.9 231.76 472.01 260.18"></polygon><g><path fill="#ff9841" d="M253.44,261.46l-23.66,2.71c-6.07,.7-11.51-4.19-12.13-10.91h0c-.63-6.72,3.79-12.74,9.86-13.43l23.66-2.71c6.07-.7,11.51,4.19,12.13,10.91h0c.63,6.72-3.79,12.74-9.86,13.43Z"></path><path fill="#ff9841" d="M249.23,234.42l-20.32,2.33-.04-.46c-.42-4.5,2.53-8.52,6.59-8.98l6.75-.77c3.43-.39,6.51,2.37,6.86,6.17l.16,1.71Z"></path><polygon fill="#ff9841" points="243.27 238.02 234.72 239 234.45 236.11 243 235.13 243.27 238.02"></polygon></g><path fill="#d6e4fd" d="M701.81,179.72l102.81-.16c3.35-6.54,4.86-13.3,4.22-20.07-.47-5.04-2.1-9.81-4.75-14.24l-102.44,31.45,.16,3.01Z"></path><path fill="#d6e4fd" d="M689.94,180.78l-100.66,23.16c-4.49-5.64-7.22-11.92-7.85-18.69-.47-5.04,.24-10.08,2.02-15.02l106.09,7.56,.4,2.98Z"></path><path fill="#d6e4fd" d="M660.16,116.08l32.37,61.5,6.37-.73,20.23-67.65c-9.4-.13-19.19,.35-29.2,1.49-10.35,1.19-20.32,3.01-29.78,5.39Z"></path><path fill="#d6e4fd" d="M673.78,235.39c8.94,.07,18.21-.42,27.68-1.51,9.14-1.05,17.99-2.6,26.44-4.57l-29.52-52.4-5.55,.64-19.06,57.85Z"></path><polygon fill="#1e3865" points="473.59 260 699.05 202.04 695.83 190.39 470.4 231.7 473.59 260"></polygon><g><path fill="#ff9841" d="M686.59,209.99l25.67-2.94c5.52-.63,9.53-6.1,8.96-12.21l-.04-.4c-.57-6.11-5.51-10.55-11.03-9.92l-25.66,2.94c-5.52,.63-9.53,6.1-8.96,12.21l.04,.4c.57,6.11,5.51,10.55,11.03,9.92Z"></path><path fill="#ff9841" d="M687.84,184.16l18.41-2.11-.08-.83c-.4-4.29-3.87-7.41-7.74-6.96l-5.45,.62c-3.28,.38-5.66,3.62-5.32,7.25l.19,2.03Z"></path><polygon fill="#ff9841" points="693.52 186.42 701.38 185.52 701.11 182.64 693.25 183.54 693.52 186.42"></polygon></g><polygon fill="#1e3865" points="403.42 452.65 401.65 433.74 401.74 433.29 434.13 273.79 448.8 272.11 449.33 277.76 438.33 279.03 406.84 434.08 408 446.41 421.01 444.92 421.54 450.57 403.42 452.65"></polygon><polygon fill="#1e3865" points="346.28 471.46 344.51 452.55 344.6 452.1 376.99 292.6 391.66 290.92 392.19 296.57 381.19 297.83 349.71 452.89 350.86 465.22 363.88 463.72 364.4 469.38 346.28 471.46"></polygon><path fill="#8eaff1" d="M618.24,227.06l2.02,46.47-130.46,29.92c-4.42,1.09-11.95,1.89-16.48,1.79l-128.34-.47-13.62-26.75c-.74-7.86,4.93-14.65,12.06-14.47l73.22,1.86,56.72,1.44-.04-.42,54.98-13.54,89.95-25.82Z"></path><path fill="#a9c2ff" d="M462.05,225.71l-122.8,31.24c-5.51,1.4-9.21,7.13-8.62,13.35l2.34,24.96c.61,6.52,6.24,10.97,12.01,9.5l124.66-31.82c2.78-.71,5.64-1.05,8.49-1.01l138.52,1.93c5.69,.08,10.18-5.35,9.59-11.62l-2.46-26.34c-.53-5.64-4.79-9.95-9.92-10.03l-137.05-1.91c-4.96-.07-9.91,.52-14.75,1.75Z"></path><path fill="#1e3865" d="M441.92,263.05l-81.32,20.98c-3.24,.84-6.17-1.45-6.51-5.09l-.63-6.69c-.34-3.63,2.03-7.29,5.27-8.13l81.32-20.98c3.24-.84,6.17,1.45,6.51,5.09l.63,6.69c.34,3.63-2.03,7.29-5.27,8.13Z"></path><g><polygon fill="#fb7c1d" points="357.4 567.69 567.82 529.09 539.07 337.05 328.64 375.65 357.4 567.69"></polygon><polygon fill="#ff9841" points="462.61 548.39 673.03 509.79 644.28 317.76 433.85 356.35 462.61 548.39"></polygon><polygon fill="#eb6c00" points="350.23 518.96 383.57 512.85 379.08 503 380.9 495.04 347.56 501.16 350.23 518.96"></polygon><polygon fill="#ffae73" points="442.75 415.78 476.1 409.67 471.6 399.82 473.43 391.86 440.09 397.98 442.75 415.78"></polygon><polygon fill="#eb6c00" points="440.09 397.98 406.74 404.09 411.24 413.94 409.41 421.9 442.75 415.78 440.09 397.98"></polygon><polygon fill="#ffae73" points="666.06 463.15 632.71 469.27 637.2 479.11 635.38 487.07 668.72 480.96 666.06 463.15"></polygon><polygon fill="#fff" points="636.36 359.38 575.8 370.48 571.9 344.41 632.45 333.3 636.36 359.38"></polygon></g><path fill="#1e3865" d="M549.93,413.37c-1.3,0-2.41-1.09-2.55-2.55-.15-1.56,.88-2.96,2.29-3.12l5.74-.66c4.01-.46,6.94-4.45,6.53-8.89l-.28-2.95c-.08-.87-.29-1.72-.62-2.52l-56.84-138.12c-1.3-3.17-4.28-5.06-7.41-4.7l-5.77,.66c-1.41,.16-2.67-.97-2.82-2.53-.15-1.56,.88-2.96,2.29-3.12l5.77-.66c5.32-.61,10.4,2.6,12.62,8l56.84,138.12c.56,1.36,.92,2.81,1.05,4.29l.28,2.95c.71,7.56-4.27,14.35-11.1,15.13l-5.74,.66c-.09,.01-.18,.02-.27,.02Z"></path><path fill="#1e3865" d="M630,404.11c-1.26,0-2.34-1.05-2.47-2.47-.14-1.51,.85-2.87,2.22-3.02l5.74-.66c4.06-.46,7.02-4.5,6.6-8.99l-.18-1.89c-.09-.94-.32-1.85-.69-2.7l-55.84-128.97c-1.35-3.11-4.33-4.96-7.43-4.61l-5.91,.68c-1.36,.15-2.59-.94-2.73-2.46-.14-1.51,.85-2.87,2.22-3.02l5.91-.68c5.18-.59,10.18,2.5,12.43,7.7l55.84,128.97c.62,1.42,1,2.94,1.15,4.51l.18,1.89c.7,7.51-4.25,14.26-11.03,15.03l-5.74,.66c-.09,0-.17,.01-.26,.01Z"></path><polygon fill="#1e3865" points="555.39 376.39 554.58 370.74 635.95 356.55 636.76 362.2 555.39 376.39"></polygon><g><path fill="#ff9841" d="M448.83,151.09l28.4-3.25c4.76-.55,8.23-5.26,7.73-10.54l-.4-4.29c-.49-5.27-4.76-9.11-9.52-8.56l-28.4,3.25c-4.76,.55-8.23,5.26-7.73,10.54l.4,4.29c.49,5.27,4.76,9.11,9.52,8.56Z"></path><path fill="#ff9841" d="M450.97,124.29l19.21-2.2-.06-.67c-.41-4.38-3.95-7.56-7.9-7.1l-5.99,.69c-3.34,.38-5.77,3.69-5.43,7.4l.18,1.89Z"></path><polygon fill="#ff9841" points="456.89 126.53 465.08 125.59 464.81 122.7 456.62 123.64 456.89 126.53"></polygon></g></g><g><rect fill="#8eaff1" transform="translate(918.93 1600.49) rotate(180)" height="148.47" width="162.69" y="726.01" x="378.12"></rect><rect fill="#a9c2ff" transform="translate(1081.62 1600.49) rotate(180)" height="148.47" width="162.69" y="726.01" x="459.47"></rect><polygon fill="#214d9a" points="378.21 836.83 403.99 836.83 401.72 828.8 403.99 823.06 378.21 823.06 378.21 836.83"></polygon><polygon fill="#568cc5" points="459.47 771.96 485.25 771.96 482.97 763.93 485.25 758.19 459.47 758.19 459.47 771.96"></polygon><polygon fill="#214d9a" points="459.47 758.19 433.69 758.19 435.96 766.22 433.69 771.96 459.47 771.96 459.47 758.19"></polygon><polygon fill="#568cc5" points="622.16 838.42 596.38 838.42 598.65 846.45 596.38 852.19 622.16 852.19 622.16 838.42"></polygon><rect fill="#fff" height="20.16" width="46.82" y="736.08" x="564.69"></rect></g><g><rect fill="#8eaff1" transform="translate(1150.53 1897.26) rotate(180)" height="148.47" width="162.69" y="874.39" x="493.92"></rect><rect fill="#a9c2ff" transform="translate(1313.22 1897.26) rotate(180)" height="148.47" width="162.69" y="874.39" x="575.27"></rect><polygon fill="#214d9a" points="494.02 985.21 519.8 985.21 517.52 977.18 519.8 971.45 494.02 971.45 494.02 985.21"></polygon><polygon fill="#568cc5" points="575.27 920.34 601.05 920.34 598.78 912.31 601.05 906.57 575.27 906.57 575.27 920.34"></polygon><polygon fill="#214d9a" points="575.27 906.57 549.49 906.57 551.76 914.6 549.49 920.34 575.27 920.34 575.27 906.57"></polygon><polygon fill="#568cc5" points="737.96 986.81 712.18 986.81 714.45 994.83 712.18 1000.57 737.96 1000.57 737.96 986.81"></polygon><rect fill="#fff" height="20.16" width="46.82" y="884.46" x="680.49"></rect></g><g><rect fill="#8eaff1" transform="translate(2500.13 1829.06) rotate(180)" height="211.45" width="231.69" y="808.81" x="1134.22"></rect><rect fill="#a9c2ff" transform="translate(2731.82 1829.06) rotate(180)" height="211.45" width="231.69" y="808.81" x="1250.06"></rect><polygon fill="#568cc5" points="1250.06 874.24 1286.78 874.24 1283.54 862.81 1286.78 854.64 1250.06 854.64 1250.06 874.24"></polygon><polygon fill="#214d9a" points="1250.06 854.64 1213.35 854.64 1216.58 866.07 1213.35 874.24 1250.06 874.24 1250.06 854.64"></polygon><polygon fill="#568cc5" points="1481.76 968.9 1445.05 968.9 1448.28 980.33 1445.05 988.5 1481.76 988.5 1481.76 968.9"></polygon><rect fill="#fff" height="28.71" width="66.67" y="823.14" x="1399.91"></rect></g><g><rect fill="#fb7c1d" transform="translate(2584.52 1485.46) rotate(180)" height="130.06" width="142.52" y="677.7" x="1221"></rect><rect fill="#ff9841" transform="translate(2727.04 1485.46) rotate(180)" height="130.06" width="142.52" y="677.7" x="1292.26"></rect><polygon fill="#eb6c00" points="1221.08 774.78 1243.67 774.78 1241.68 767.75 1243.67 762.72 1221.08 762.72 1221.08 774.78"></polygon><polygon fill="#ffae73" points="1292.26 717.95 1314.85 717.95 1312.86 710.92 1314.85 705.89 1292.26 705.89 1292.26 717.95"></polygon><polygon fill="#eb6c00" points="1292.26 705.89 1269.68 705.89 1271.67 712.92 1269.68 717.95 1292.26 717.95 1292.26 705.89"></polygon><polygon fill="#ffae73" points="1434.78 776.18 1412.2 776.18 1414.19 783.21 1412.2 788.23 1434.78 788.23 1434.78 776.18"></polygon><rect fill="#fff" height="17.66" width="41.01" y="686.52" x="1384.44"></rect></g><g><polygon fill="#fb7c1d" points="433.07 873.14 433.07 1026.39 325.29 1026.42 217.51 1026.47 217.51 873.14 433.07 873.14"></polygon><polygon fill="#ff9841" points="540.84 873.14 540.84 1026.35 507.9 1026.36 433.07 1026.39 325.29 1026.42 325.29 873.14 540.84 873.14"></polygon><polygon fill="#eb6c00" points="217.64 1019.97 251.79 1019.97 248.78 1009.33 251.79 1001.73 217.64 1001.73 217.64 1019.97"></polygon><polygon fill="#ffae73" points="325.29 934.02 359.45 934.02 356.44 923.38 359.45 915.78 325.29 915.78 325.29 934.02"></polygon><polygon fill="#eb6c00" points="325.29 915.78 291.13 915.78 294.14 926.42 291.13 934.02 325.29 934.02 325.29 915.78"></polygon><polygon fill="#ffae73" points="540.85 1026.35 540.85 1022.08 540.84 1022.08 506.7 1022.08 507.9 1026.36 540.84 1026.35 540.85 1026.35"></polygon><rect fill="#fff" height="26.71" width="62.03" y="886.48" x="464.7"></rect></g><g><path fill="#ff7536" d="M866.4,708.19c-3.15-.7-68.61,35.53-65.46,56.43,3.15,20.9,34.62,39.01,47.21,29.96,12.59-9.06,15.74-51.55,15.74-51.55l2.52-34.83Z"></path><path fill="#ff7536" d="M928.45,486.72s-34.43,17.9-44.43,91.19c-15.11,110.77-30.84,138.64-31.47,195.76-.36,32.81,18.07,51.25,35.65,12.76,17.59-38.49,40.24-299.72,40.24-299.72Z"></path><path fill="#25468f" d="M1077.93,921.71s-.01,.26-.04,.79c0,.05,0,.1,0,.16-.01,.17-.02,.36-.03,.59,0,.08-.01,.15-.01,.23-.03,.64-.07,1.46-.12,2.45-.01,.22-.02,.45-.03,.7,0,.06,0,.12-.01,.18,0,.14-.01,.28-.02,.42-.01,.22-.02,.45-.04,.68-.01,.38-.03,.78-.06,1.19-.03,.49-.05,1-.08,1.53-.03,.54-.05,1.1-.08,1.69-.01,.22-.02,.43-.03,.65-.05,1.09-.11,2.26-.18,3.51-.02,.47-.04,.95-.07,1.44-.05,1-.1,2.04-.15,3.13-.03,.43-.05,.87-.07,1.32-.02,.41-.04,.82-.06,1.25-.03,.56-.06,1.13-.08,1.71,0,.06,0,.12-.01,.17-.03,.69-.06,1.39-.1,2.1-.03,.55-.06,1.11-.08,1.69,0,.06,0,.12-.01,.18-.02,.47-.04,.94-.07,1.42-.08,1.51-.15,3.06-.23,4.66-.06,1.18-.12,2.4-.18,3.64-.08,1.72-.17,3.5-.26,5.32-.04,.85-.08,1.71-.13,2.58-.09,1.68-.17,3.39-.26,5.13-.03,.54-.06,1.07-.08,1.61-.03,.66-.06,1.31-.1,1.97-.07,1.38-.14,2.79-.21,4.21-.03,.5-.05,1.01-.08,1.51-.05,1.02-.11,2.04-.16,3.08-.05,1.04-.1,2.08-.16,3.14-.08,1.58-.16,3.19-.25,4.81-.02,.54-.06,1.09-.08,1.64,0,.15-.01,.29-.02,.43-.05,.95-.09,1.91-.14,2.88-.08,1.53-.16,3.07-.23,4.64-.12,2.42-.25,4.88-.38,7.37-.04,.79-.08,1.6-.12,2.4-.1,1.99-.21,4.01-.31,6.05-.14,2.72-.28,5.48-.42,8.28l-87.33,.03-74.91,.03c-.02-.22-.04-.45-.05-.67-.04-.49-.07-.99-.11-1.48-.06-.77-.11-1.53-.16-2.3-.38-5.34-.76-10.6-1.13-15.75-.16-2.13-.31-4.21-.45-6.26,0-.17-.02-.35-.04-.52-.11-1.54-.21-3.07-.33-4.59-.04-.5-.07-1-.11-1.5-.05-.75-.11-1.48-.16-2.22-.08-1.09-.16-2.19-.23-3.27-.15-2.12-.3-4.23-.45-6.3-.09-1.37-.19-2.72-.29-4.06-.05-.64-.09-1.28-.14-1.91-.03-.41-.06-.82-.09-1.22-.04-.6-.09-1.19-.13-1.78-.02-.2-.03-.4-.04-.6-.06-.78-.11-1.56-.17-2.33-.03-.38-.05-.76-.08-1.14-.04-.52-.08-1.03-.11-1.54-.06-.95-.13-1.91-.2-2.85,0-.05,0-.09-.01-.14-.06-.92-.13-1.83-.19-2.72,0-.05,0-.09-.01-.14-.06-.9-.13-1.79-.19-2.67-.03-.47-.07-.93-.1-1.39-.13-1.79-.25-3.55-.38-5.27-.02-.41-.06-.81-.09-1.22-.08-1.06-.15-2.1-.23-3.13-.64-8.83-.99-13.71-.99-13.71h.02l47.23-3.23,23.4-1.6,103.5-7.09Z"></path><path fill="#1e3865" d="M1077.93,921.71s-.01,.26-.04,.79c0,.05,0,.1,0,.16-.01,.17-.02,.36-.03,.59,0,.08-.01,.15-.01,.23-.03,.64-.07,1.46-.12,2.45-.01,.22-.02,.45-.03,.7,0,.06,0,.12-.01,.18,0,.14-.01,.28-.02,.42-.01,.22-.02,.45-.04,.68-.01,.38-.03,.78-.06,1.19-.03,.49-.05,1-.08,1.53-.03,.54-.05,1.1-.08,1.69-.01,.22-.02,.43-.03,.65-.05,1.09-.11,2.26-.18,3.51-.02,.47-.04,.95-.07,1.44-.05,1-.1,2.04-.15,3.13-.03,.43-.04,.88-.07,1.32-.02,.41-.04,.82-.06,1.25-.03,.56-.06,1.13-.08,1.71,0,.06,0,.12-.01,.17-.03,.69-.06,1.39-.1,2.1-.03,.55-.06,1.11-.08,1.69,0,.06,0,.12-.01,.18-.02,.47-.04,.94-.07,1.42-.08,1.51-.15,3.06-.23,4.66-.06,1.18-.12,2.4-.18,3.64-.08,1.72-.17,3.5-.26,5.32-.04,.85-.08,1.71-.13,2.58-.09,1.68-.17,3.39-.26,5.13-.03,.54-.06,1.07-.08,1.61-.03,.66-.06,1.31-.1,1.97-.06,1.38-.14,2.79-.21,4.21-.03,.5-.05,1.01-.08,1.51-.05,1.02-.11,2.04-.16,3.08-.05,1.04-.1,2.08-.16,3.14-.08,1.58-.16,3.19-.25,4.81-.02,.54-.06,1.09-.08,1.64,0,.15-.01,.29-.02,.43-.05,.95-.09,1.91-.14,2.88-.08,1.53-.16,3.07-.23,4.64-.13,2.42-.25,4.88-.38,7.37-.04,.79-.08,1.6-.12,2.4-.1,1.99-.21,4.01-.31,6.05-.14,2.72-.28,5.48-.42,8.28l-87.33,.03-74.91,.03c.03,.36,.05,.72,.08,1.09-.03-.36-.05-.72-.08-1.09-.01-.22-.03-.45-.04-.67-.04-.49-.07-.99-.11-1.48-.06-.77-.11-1.53-.16-2.3-.38-5.34-.76-10.6-1.13-15.75-.15-2.1-.3-4.19-.45-6.26,0-.17-.02-.35-.04-.52-.11-1.54-.21-3.07-.33-4.59-.04-.5-.07-1-.11-1.5-.05-.75-.11-1.48-.16-2.22-.08-1.09-.16-2.19-.23-3.27-.15-2.12-.3-4.23-.45-6.3-.09-1.37-.19-2.72-.29-4.06-.05-.64-.09-1.28-.14-1.91-.03-.41-.06-.82-.09-1.22-.04-.6-.09-1.19-.13-1.78-.02-.2-.03-.4-.04-.6-.06-.78-.11-1.56-.17-2.33-.03-.38-.05-.76-.08-1.14-.04-.52-.08-1.03-.11-1.54-.06-.95-.13-1.91-.2-2.85,0-.05,0-.09-.01-.14-.06-.92-.13-1.83-.19-2.72,0-.05,0-.09-.01-.14-.06-.9-.13-1.79-.19-2.67-.03-.47-.07-.93-.1-1.39-.13-1.79-.25-3.55-.38-5.27-.02-.41-.06-.81-.09-1.22-.08-1.06-.15-2.1-.23-3.13-.35-4.92-.67-9.5-.98-13.71-.82-11.43-1.45-20.06-1.81-25-.22-3.09-.34-4.74-.34-4.74l41.3,4.17,134.97,13.65Z"></path><path fill="#25468f" d="M1157.29,1026.2h-29.68l-54.92,.03-87.33,.03c-13.97-39.28-26.32-73.64-34.33-95.87-.91-2.52-1.76-4.88-2.56-7.09-2.44-6.76-4.32-11.95-5.51-15.25-.99-2.72-1.51-4.17-1.51-4.17,0,0,31.68-55.75,134.48-52.58,26.24,.81,44.54,25.59,57.67,62.7,10.98,31.04,18.34,70.7,23.69,112.19Z"></path><path fill="#ffae73" d="M985.68,501.72c15.12,8.81,29.87,9.36,42.66,6.36,11.7-2.72,21.75-8.44,28.9-13.5,7.34-5.19,11.66-9.72,11.66-9.72,0,0-.51-.82-1.37-2.43-4.46-8.45-18.01-38.85-11.98-87.69,.08-.64-4.29,.27-10.89,1.99-19.65,5.15-59.15,17.55-60.9,18.1h-.07s-.48,10.27-2.11,28.68c-.13,1.62-.28,3.32-.44,5.08-.2,2.16-.4,4.45-.65,6.8-1.83,19.14,5.19,46.32,5.19,46.32Z"></path><path fill="#f9924f" d="M981.58,443.52c29.33,7.44,73.11-40.49,73.11-40.49-3.2-2.63-6.56-4.72-10.03-6.3-19.65,5.15-59.15,17.55-60.9,18.1h-.07s-.48,10.27-2.11,28.68Z"></path><path fill="#ffae73" d="M971.62,412.24s12.06,4.79,27.44,7.08c22.49,3.36,52.06,1.38,61.35-28.73,15.65-50.69,35.63-81.08-10.41-101.77-24.65-11.08-40.42-11.67-51.13-7.44-9.31,3.65-14.79,10.94-18.94,18.15-8.94,15.51-26.93,103.84-8.3,112.71Z"></path><path fill="#1e3865" d="M971.51,281.83c-5.74,4.29,.69,11.19,6.83,14.74,18.93,10.95,30.86,8.29,40.34,12.96,11.45,5.63,13.51,26.89,13.71,33.64,.21,6.76,1.01,12.46,16.56,8.42,2.55-.66,4.38-.47,5.65,.37,6.45,4.24-1.79,24.77-4.28,29.21,0,0-3.58,14.71,4.36,21.87,.96,.86,16.56,8.4,54.15-55.27,5.91-9.99,11.55-32.51,2.42-54.19-9.11-21.68-39.98-37.18-68.93-44.84-18.59-4.92-28.95-4.88-41.23,8.36-5.27,5.68-17.94,16.02-29.58,24.73Z"></path><path fill="#ff7536" d="M1115.21,922.96s-12.9,3.09-29.21,6.14c-15.96,2.96-35.2,5.87-48.79,5.77-69.53-.61-127.71-23.26-127.71-23.26-13.07,0-19.05-22.4-21.19-53.66-1.45-21.17-1.14-46.41-.1-71.51,.34-8.14,.76-16.27,1.22-24.24,.91-15.81,1.98-30.97,2.96-44.4,.91-12.6,1.74-23.63,2.24-32.19,0-.01-1.86-59.9-1.13-112.59,.52-37.82,19.69-72.24,24.49-77.85,13.92-16.29,62.29-29,62.29-29,33.16,20.61,78.78-6.41,78.78-6.41,1.01,.19,2,.45,2.99,.69,3.28-.78,36.79,4.72,44.6,9.43,19.28,11.63,30.48,140.68,30.48,140.68,1.75,47.74,1.35,111.11,1.63,167.59,.08,16.94,.23,33.25,.52,48.34,.51,27,1.46,50.06,3.29,65.71,2.07,17.65-13.37,27.2-27.34,30.77Z"></path><path fill="#f25923" d="M1061.81,460.49s-49.41,56.4-84.73,44.85c0,0-4.71-7.62,11.2-10.06,15.91-2.44,33.08-1.44,73.53-34.79Z"></path><path fill="#fff" d="M971.27,379.52s-.96,6.56,12.82,11.8c0,0,11.57,4.4,13.69-2.33,0,0-9.19-9.69-26.5-9.47Z"></path><path fill="#f25923" d="M874.58,780.64c1.89-9.06,11.54-119.59,20.77-149.32,1.93-6.22,1.89,117.97,8.81,143.74,6.92,25.78-29.58,5.57-29.58,5.57Z"></path><g><path fill="#25468f" d="M918.59,771.86h32.57c3.72,0,6.18-3.37,5.47-7.49l-3.15-18.07c-.72-4.12-4.35-7.49-8.08-7.49h-32.57c-3.72,0-6.18,3.37-5.47,7.49l3.15,18.07c.72,4.12,4.35,7.49,8.08,7.49Z"></path><path fill="#25468f" d="M781.8,771.86h32.57c3.72,0,6.18-3.37,5.47-7.49l-3.15-18.07c-.72-4.12-4.35-7.49-8.08-7.49h-32.57c-3.72,0-6.18,3.37-5.47,7.49l3.15,18.07c.72,4.12,4.35,7.49,8.08,7.49Z"></path><polygon fill="#25468f" points="922.53 738.81 935.14 738.81 890.8 502.21 885.04 502.21 922.53 738.81"></polygon><path fill="#25468f" d="M896.48,496.82c-1.02-5.85-6.13-10.59-11.41-10.59s-8.74,4.74-7.72,10.59c1.02,5.85,6.13,10.59,11.41,10.59s8.74-4.74,7.73-10.59Z"></path><polygon fill="#25468f" points="785.8 738.81 798.41 738.81 754.07 502.21 748.32 502.21 785.8 738.81"></polygon><path fill="#25468f" d="M759.76,496.82c-1.02-5.85-6.13-10.59-11.41-10.59s-8.74,4.74-7.73,10.59c1.02,5.85,6.13,10.59,11.41,10.59s8.74-4.74,7.73-10.59Z"></path><path fill="#25468f" d="M834.38,761.18l.85-29.51h46.95c4.94,11.21,11.99,27.4,12.56,29.16-.05-.16-.07-.27-.08-.35h5.75c-.09-.54-.31-1.81-14.03-32.9l-1.01-2.28h-55.86l-.99,34.48,5.86,1.39Z"></path><path fill="#25468f" d="M795.35,865.15h174.75c2.24,0,3.72-2.03,3.29-4.51l-16.89-96.99c-.43-2.48-2.62-4.51-4.86-4.51h-174.75c-2.24,0-3.72,2.03-3.29,4.51l16.89,96.99c.43,2.48,2.62,4.51,4.86,4.51Z"></path></g><path fill="#ffae73" d="M1004.76,786.39s-.3,25.42-6.96,21.74c-6.67-3.69-39.13,4.84-51.93,6.42-12.8,1.58-20.48-12.21-20.69-17.92-.21-5.71,33.35-14.37,33.91-19.77,.11-1.01-.3-1.99-.84-3.1l-2.53-14.63c4.99,2.24,12.43,7.89,16.98,9.49,6.91,2.42,32.06,17.77,32.06,17.77Z"></path><path fill="#ffae73" d="M769.36,766.23s-3.62,17,.82,25.02c4.44,8.02,26.61,9.25,30.11,3.11,3.5-6.15-8.91-18.91-13.76-24.32-4.85-5.41-13.44-12.06-17.16-3.81Z"></path><path fill="#f25923" d="M1139.26,826.48c-67.49,16.82-143.62-13.56-143.62-13.56l143.1-34.78c.08,16.94,.23,33.25,.52,48.34Z"></path><path fill="#f25923" d="M997.95,770.89s71.13-23.69,84.35-52.25c13.22-28.56,10.28-106.36,10.28-106.36l55.81,75.01-10.07,84.99-46.58,4.88-93.79-6.27Z"></path><path fill="#ff7536" d="M1106.63,469.87s31.41,5.36,54.07,59.69c22.66,54.34,39.65,243.47-1.89,271.68-41.54,28.21-163.17,11.67-163.17,11.67,0,0-10.59-20.55-2.1-40.41,0,0,109.57-39.19,111.45-46.5,1.89-7.31-16.99-96.13-14.16-130.62,2.83-34.48,15.8-125.53,15.8-125.53Z"></path><path fill="#ff7536" d="M1029.65,359.67c3.13-20.94,20.04-35.28,37.76-32.04,17.72,3.25,29.55,22.85,26.41,43.8-3.13,20.94-20.04,35.28-37.76,32.04-17.72-3.25-29.55-22.85-26.41-43.8Z"></path><path fill="#ff9841" d="M1040.37,363.53c2.25-15.01,14.36-25.3,27.07-22.97,12.7,2.33,21.18,16.38,18.94,31.4-2.25,15.01-14.36,25.3-27.07,22.97-12.7-2.33-21.18-16.38-18.94-31.4Z"></path><path fill="#fb7c1d" d="M1057.37,367.63c0-4.68,3.43-8.48,7.66-8.48s7.67,3.8,7.67,8.48-3.43,8.48-7.67,8.48-7.66-3.8-7.66-8.48Z"></path><path fill="#ff7536" d="M1067.22,370.52c-.29,0-.57-.03-.86-.09-2.48-.53-4.1-3.17-3.63-5.91,.04-.25,4.29-25.19,3.72-51.6-.5-23.23-2.48-52.49-19.35-62.48-1.93-1.14-8.87-2.71-8.86-2.74,.19-1.86,12.19-2.57,17.47-.52,45.32,17.59,16.74,114.94,15.99,119.24-.42,2.42-2.33,4.1-4.48,4.1Z"></path></g><path fill="#a9c2ff" d="M1349.21,479.32c-32.67,0-59.16,31.02-59.16,69.29s59.16,104.6,59.16,104.6c0,0,59.17-66.33,59.17-104.6s-26.49-69.29-59.17-69.29Zm0,104.34c-20.55,0-37.21-18.44-37.21-41.19s16.66-41.19,37.21-41.19,37.21,18.44,37.21,41.19-16.66,41.19-37.21,41.19Z"></path><path fill="#ff9841" d="M786.85,407.66c-13.22,0-23.94,12.56-23.94,28.04s23.94,42.33,23.94,42.33c0,0,23.95-26.84,23.95-42.33s-10.72-28.04-23.95-28.04Zm0,42.23c-8.32,0-15.06-7.46-15.06-16.67s6.74-16.67,15.06-16.67,15.06,7.46,15.06,16.67-6.74,16.67-15.06,16.67Z"></path><path fill="#ff9841" d="M266.89,662.27c-25.74,0-46.61,24.44-46.61,54.6s46.61,82.41,46.61,82.41c0,0,46.62-52.26,46.62-82.41s-20.87-54.6-46.62-54.6Zm0,82.21c-16.19,0-29.32-14.53-29.32-32.45s13.13-32.45,29.32-32.45,29.32,14.52,29.32,32.45-13.12,32.45-29.32,32.45Z"></path><path fill="#f6fbff" d="M1092.36,217.72s13.71-25.5,46.48-22.67c0,0,47.59-42.51,98.33-5.67,0,0,53.94-9.13,93.89,7.9,26.63,11.36,35.43,23.27,35.43,23.27l-274.14-2.83Z"></path><path fill="#f6fbff" d="M1296.26,287.7s7.96-15.55,27-13.82c0,0,27.64-25.92,57.11-3.46,0,0,31.33-5.57,54.53,4.82,15.47,6.92,20.58,14.19,20.58,14.19l-159.22-1.73Z"></path><path fill="#f6fbff" d="M695.25,343.04s6.4-12.51,21.71-11.12c0,0,22.23-20.84,45.93-2.78,0,0,25.19-4.48,43.85,3.88,12.44,5.57,16.55,11.41,16.55,11.41l-128.04-1.39Z"></path><rect fill="#2d3554" transform="translate(1620 2048.51) rotate(-180)" ry="3.32" rx="3.32" height="7.49" width="1620" y="1020.51" x="0"></rect></g></g></g></svg>