<svg xml:space="preserve" viewBox="0 0 4500 3500" height="3500px" width="4500px" y="0px" x="0px" xmlns:xlink="http://www.w3.org/1999/xlink" xmlns="http://www.w3.org/2000/svg" id="svg8" version="1.1">
<defs>
	
	
		
		
</defs>

	
	
	
		
	

<g id="layer2">
	<path d="M3574.927,965.875
		c-23.702,0-37.46,19.248-34.655,42.783l42.145,353.758c2.803,23.536,19.08,42.783,42.782,42.783h221.696
		c23.701,0,39.979-19.248,42.783-42.783l42.145-353.758c2.803-23.536-10.953-42.783-34.655-42.783H3574.927z" fill="#B7BBFF" id="path4631"></path>
	<path d="M2363.57,409.868c285.713-0.828,637.905,80.167,868.184,353.018c108.057,128.034,162.174,248.326,184.959,359.507
		c131.664,110.532,207.796,273.566,208.024,445.474c-0.201,106.313-29.485,210.546-84.681,301.408
		c225.367,86.316,374.195,302.632,374.256,543.963c-0.275,162.411-68.324,317.337-187.738,427.417
		c-3.753,6.108-6.038,9.466-6.038,9.466l265.185,248.522H490.791c0,0,141.773-38.433,265.562-104.089
		c-76.424-67.566-120.262-164.621-120.431-266.629c0.163-147.064,90.572-278.953,227.683-332.139
		c-115.698-112.819-180.954-267.565-180.977-429.164c0.561-212.527,113.592-408.873,297.095-516.085
		c-35.684-73.735-54.333-154.55-54.57-236.466c0.001-301.8,244.658-546.456,546.457-546.455
		c67.799,0.002,135.005,12.623,198.188,37.215c76.076-93.026,167.741-155.041,254.133-209.455
		C1992.958,451.898,2161.665,410.453,2363.57,409.868L2363.57,409.868z" fill="#F2F4FF" id="path20057-52"></path>
	<path d="M838.954,1971.242
		c154.189,0.376,289.205,32.43,366.432,120.896c274.584,314.545,224.187,467.057,560.467,490.408
		c336.281,23.354,560.163-57.193,684.085,229.451c103.323,238.996,445.173,137.5,618.237,286.646H490.791
		c0,0,141.774-38.433,265.562-104.089c-76.424-67.566-120.262-164.621-120.431-266.629
		c0.163-147.064,90.572-278.953,227.683-332.139c-112.156-109.633-176.888-258.849-180.313-415.649
		C736.324,1974.378,788.66,1971.12,838.954,1971.242L838.954,1971.242z" fill="#E7EAFF" id="path20059-1"></path>
	<path d="M1011.545,401.395
		h2074.781c130.075,0,234.793,104.718,234.793,234.793v2227.664c0,130.074-104.718,234.792-234.793,234.792h-539.997H1011.545
		c-130.075,0-234.793-104.718-234.793-234.792V636.188C776.752,506.112,881.47,401.395,1011.545,401.395z" fill="#CECFFF" id="rect25806-8"></path>
	<path d="M698.044,2904.045
		c-65.293,0-117.856,52.564-117.856,117.857v76.741h2918.419v-76.741c0-65.293-52.566-117.857-117.858-117.857H698.044z" fill="#A5A3FF" id="path4567"></path>
	<path d="M1004.322,401.395h282.485
		v435.802H697.284C731.702,633.144,738.588,401.395,1004.322,401.395z" fill="#B7BBFF" id="rect25808-5"></path>
	<path d="M1286.807,401.395h524.503
		v435.802h-524.503V401.395z" fill="#CECFFF" id="rect25810-2"></path>
	<path d="M697.842,837.197
		c7.966,113.37,103.794,202.283,219.38,202.283h152.01c115.587,0,209.609-88.913,217.574-202.283H697.842z" fill="#A5A3FF" id="rect25816-6"></path>
	<path d="M1286.807,837.197
		c7.966,113.37,101.988,202.283,217.575,202.283h88.796c115.586,0,209.609-88.913,217.574-202.283H1286.807z" fill="#E3E1FF" id="path25821-3"></path>
	<path d="M3080.104,401.395h-282.486
		v435.802h589.523C3352.723,633.144,3345.837,401.395,3080.104,401.395z" fill="#B7BBFF" id="path25828-5"></path>
	<path d="M3386.583,837.197
		c-7.966,113.37-103.794,202.283-219.382,202.283h-152.01c-115.586,0-209.607-88.913-217.574-202.283H3386.583z" fill="#A5A3FF" id="path25830-3"></path>
	<path d="M2273.672,401.395h524.504
		v435.802h-524.504V401.395z" fill="#CECFFF" id="path4531"></path>
	<path d="M2273.672,837.197
		c7.966,113.37,101.988,202.283,217.574,202.283h88.797c115.587,0,209.609-88.913,217.574-202.283H2273.672z" fill="#E3E1FF" id="path4533"></path>
	<path d="M1749.168,401.395h524.503
		v435.802h-524.503V401.395z" fill="#E3E1FF" id="path4535"></path>
	<path d="M1749.168,837.197
		c7.966,113.37,101.988,202.283,217.575,202.283h88.795c115.587,0,209.609-88.913,217.575-202.283H1749.168z" fill="#B7BBFF" id="path4537"></path>
	<path d="M2336.655,1183.276
		c-103.798,0-187.363,83.563-187.363,187.361v1728.007h377.702h490.604V1370.637c0-103.798-83.563-187.361-187.361-187.361H2336.655
		z" fill="#E3E1FF" id="path4539"></path>
	<path d="M1141.955,1187.397
		h609.858c74.489,0,134.457,59.968,134.457,134.457v1054.291c0,74.488-59.968,134.457-134.457,134.457h-609.858
		c-74.489,0-134.457-59.967-134.457-134.457V1321.854C1007.499,1247.365,1067.466,1187.397,1141.955,1187.397z" fill="#F2F4FF" id="rect4541"></path>
	<path d="M2128.539,2709.445
		c-65.292,0-120.926,52.638-117.856,117.857v76.742h1145.646v-76.742c0-65.293-52.564-117.857-117.857-117.857H2128.539z" fill="#A5A3FF" id="path4565"></path>
	<path d="M2009.275,2904.045
		c-65.293,0-117.856,52.564-117.856,117.857v76.741h1384.052v-76.741c0-65.293-52.566-117.857-117.857-117.857H2009.275z" fill="#B7BBFF" id="rect4559"></path>
	<path d="M1395.8,1187.396v1323.206
		h102.168V1187.396H1395.8z" fill="#E3E1FF" id="rect4580"></path>
	<path d="M1007.499,1797.914v102.168
		h878.771v-102.168H1007.499z" fill="#E3E1FF" id="path4585"></path>
	<path d="M2330.885,1560.94
		c41.188,0,74.348,33.159,74.348,74.348v178.434c0,41.188-33.159,74.347-74.348,74.347s-74.348-33.158-74.348-74.347v-178.434
		C2256.537,1594.1,2289.696,1560.94,2330.885,1560.94z" fill="#B7BBFF" id="rect4594"></path>
	<path d="M2332.397,1693.137h152.753
		c19.482,0,35.166,15.683,35.166,35.164c0,19.482-15.684,35.165-35.166,35.165h-152.753c-19.48,0-35.164-15.683-35.164-35.165
		C2297.233,1708.819,2312.917,1693.137,2332.397,1693.137z" fill="#A5A3FF" id="rect4592"></path>
	<path d="M3736.047,682.358
		c23.701,0,42.783,19.081,42.783,42.783v85.566c0,23.702-19.082,42.783-42.783,42.783c-23.703,0-42.783-19.082-42.783-42.783
		v-85.566C3693.264,701.438,3712.344,682.358,3736.047,682.358z" fill="#CECFFF" id="rect4624"></path>
	<path d="M3736.047,756.43
		c-99.761,0-180.072,80.313-180.072,180.072v21.711h360.145v-21.711C3916.119,836.743,3835.807,756.43,3736.047,756.43z" fill="#B7BBFF" id="rect4619"></path>
	<path d="M3538.733,923.731h394.626
		c29.008,0,52.361,23.353,52.361,52.361c0,29.008-23.354,52.362-52.361,52.362h-394.626c-29.008,0-52.361-23.354-52.361-52.362
		C3486.372,947.084,3509.726,923.731,3538.733,923.731L3538.733,923.731z" fill="#A5A3FF" id="rect4617"></path>
	<path d="M3618.328,1076.12h65.941
		c14.859,0,26.82,11.963,26.82,26.821v157.04c0,14.858-11.961,26.821-26.82,26.821h-34.427c-14.858,0-24.355-12.167-26.821-26.821
		l-26.421-157.04C3594.137,1088.288,3603.469,1076.12,3618.328,1076.12z" fill="#E3E1FF" id="rect4626"></path>
	<path d="M3858.574,1076.12h-65.942
		c-14.858,0-26.821,11.963-26.821,26.821v157.04c0,14.858,11.963,26.821,26.821,26.821h34.427c14.858,0,24.355-12.167,26.82-26.821
		l26.421-157.04C3882.765,1088.288,3873.433,1076.12,3858.574,1076.12z" fill="#E3E1FF" id="path4629"></path>
	<path d="M3727.745,1377.104
		c-23.701,0-42.782,19.082-42.782,42.783v1678.757h112.385V1419.887c0-23.701-19.08-42.783-42.782-42.783H3727.745z" fill="#B7BBFF" id="rect4640"></path>
	<path d="M3557.891,1343.899h366.529
		c29.008,0,52.361,23.353,52.361,52.361c0,29.008-23.354,52.361-52.361,52.361h-366.529c-29.008,0-52.361-23.354-52.361-52.361
		C3505.529,1367.252,3528.883,1343.899,3557.891,1343.899z" fill="#CECFFF" id="rect4636"></path>
	<path d="M675.795,2415.688
		c3.152,44.898-30.691,83.852-75.59,87.004c-44.899,3.151-83.852-30.691-87.004-75.59c-3.152-44.899,30.691-83.852,75.59-87.004
		S672.644,2370.789,675.795,2415.688z" fill="#CECFFF" id="circle4667"></path>
	<path d="M757.688,2564.754
		c4.584,65.303-44.638,121.959-109.942,126.543c-65.303,4.584-121.958-44.639-126.542-109.941
		c-4.584-65.304,44.639-121.959,109.942-126.543S753.104,2499.451,757.688,2564.754z" fill="#CECFFF" id="circle4665"></path>
	<path d="M733.144,2247.243
		c-14.617-0.798-26.302,11.989-24.193,26.476c0,0,38.154,292.857,29.619,501.068c-0.787,12.951,9.215,24.025,22.179,24.557
		c12.965,0.531,23.84-9.687,24.116-22.659c8.836-215.556-29.968-508.997-29.968-508.997
		C753.586,2256.488,744.403,2247.857,733.144,2247.243z" fill="#A5A3FF" id="path10232"></path>
	<path d="M625.428,2479.279
		c-14.63,0.475-25.161,14.229-21.802,28.477c0,0,63.446,288.437,73.026,496.603c0.34,12.972,11.266,23.137,24.229,22.54
		c12.963-0.596,22.909-11.722,22.056-24.67c-9.919-215.508-74.063-504.472-74.063-504.472
		C646.597,2486.713,636.699,2478.914,625.428,2479.279L625.428,2479.279z" fill="#CECFFF" id="path10228"></path>
	<path d="M890.275,2510.063
		c14.616,0.802,24.837,14.786,21.162,28.955c0,0-69.861,286.95-84.08,494.851c-0.629,12.963-11.779,22.881-24.725,21.996
		c-12.947-0.886-22.643-12.23-21.501-25.157c14.721-215.233,85.292-502.694,85.292-502.694
		C868.947,2517.023,879.016,2509.445,890.275,2510.063z" fill="#B7BBFF" id="path10224"></path>
	<path d="M966.063,2643.949
		c-5.042,54.43-53.253,94.466-107.684,89.424c-54.43-5.043-94.466-53.255-89.423-107.684c5.042-54.43,53.254-94.467,107.684-89.424
		C931.069,2541.309,971.105,2589.521,966.063,2643.949L966.063,2643.949z" fill="#B7BBFF" id="circle10222"></path>
	<path d="M556.25,2869.17
		l28.952,175.862c4.019,29.428,23.911,53.611,53.612,53.611h238.201c29.701,0,49.057-24.262,53.611-53.611l27.293-175.862H556.25z" fill="#CECFFF" id="path7278-8-3"></path>
	<path d="M556.25,2869.17
		l6.613,40.174h388.821l6.235-40.174H556.25z" fill="#A5A3FF" id="path7282-1-9"></path>
	<path d="M543.152,2761.947
		h429.257c29.701,0,53.611,23.91,53.611,53.611s-23.911,53.611-53.611,53.611H543.152c-29.701,0-53.612-23.91-53.612-53.611
		S513.451,2761.947,543.152,2761.947z" fill="#B7BBFF" id="path7286-5-1"></path>
	<path d="M809.485,2241.034
		c-4.383,47.306-46.285,82.104-93.592,77.721c-47.307-4.384-82.104-46.285-77.721-93.593c4.383-47.306,46.285-82.104,93.592-77.721
		S813.868,2193.728,809.485,2241.034z" fill="#A5A3FF" id="circle10230"></path>
	<path d="M866.294,2391.404
		c-6.039,65.185-63.777,113.132-128.962,107.093c-65.184-6.038-113.132-63.777-107.093-128.962s63.777-113.132,128.962-107.093
		C824.386,2268.481,872.333,2326.219,866.294,2391.404z" fill="#A5A3FF" id="circle4663"></path>
	<path d="M978.457,2496.318
		c-3.806,41.086-40.199,71.307-81.284,67.5c-41.085-3.806-71.307-40.198-67.5-81.283c3.806-41.086,40.199-71.307,81.284-67.5
		C952.042,2418.842,982.264,2455.233,978.457,2496.318z" fill="#B7BBFF" id="circle4673"></path>
	<path d="M2880.018,1487.171
		c0,0-58.861,0.259-102.965-52.714s22.024-156.364,89.765-131.974s80.556,28.763,149.728,19.494
		c82.453-12.477,150.906,49.04,161.492,102.868c7.935,46.271,1.482,69.388,1.482,69.388s6.76,63.901,21.142,90.031
		s0.595,53.127-31.474,58.567c-32.068,5.441-73.627-63.1-75.453-65.851c-1.828-2.751-79.494-113.718-79.494-113.718
		S2917.746,1523.743,2880.018,1487.171L2880.018,1487.171z" fill="#3D3D3D" id="path4028-8"></path>
	<path d="M3175.96,1580.145
		l89.369,107.989l-122.603,110.342l-56.393-94.889L3175.96,1580.145z" fill="#F6C6C0" id="path4030-4"></path>
	<path d="M3175.96,1580.145
		l-78.771,58.948l14.418,109.794l16.443,28.537C3183.9,1728.239,3175.96,1580.145,3175.96,1580.145L3175.96,1580.145z" fill="#F69CB3" id="path4032-4"></path>
	<path d="M3164.133,1597.096
		c79.535-31.437-9.313-207.03-39.514-52.529c-26.508-25.361-76.738-59.382-72.229-123.635
		c-55.582,36.676-101.99,66.003-172.373,66.24C2932.376,1779.595,3123.211,1913.652,3164.133,1597.096L3164.133,1597.096z" fill="#F6C6C0" id="path4024-0"></path>
	<path d="M3149.875,1559.49
		c-0.764-1.357-2.204-23.683,5.81-41.558c8.013-17.874,23.019-3.196,23.019-3.196s-11.828-0.273-15.215,11.628
		c-3.389,11.901,20.879,18.939,4.979,36.631c-15.898,17.692-18.595-3.506-18.595-3.506H3149.875z" fill="#F69CB3" id="path4026-4"></path>
	<path d="M3282.479,1683.481
		c0-4.127-11.578-43.208-11.578-43.208c-37.876-40.951-172.781,133.777-144.468,181.092L3282.479,1683.481z" fill="#FFFFFF" id="path4037-5"></path>
	<path d="M2105.454,2902.738
		l628.856,1.306c80.006,0.167,132.345-64.746,122.213-144.108l-55.32-433.385c-10.131-79.362-64.045-144.625-144.052-144.777
		l-459.621-0.88c-80.006-0.155-134.654,64.688-144.777,144.05l-55.246,433.107
		C1987.384,2837.414,2025.449,2902.572,2105.454,2902.738L2105.454,2902.738z" fill="#B7BBFF" id="path10190-7"></path>
	<path d="M2619.826,1938.135
		c-12.91,10.714-12.243,49.264-16.184,47.72c-24.425-9.588-39.408,11.387-39.408,11.387s-39.087-10.313-53.082-13.501
		c-11.859-0.021-25.617,4.632-34.778,22.599c-25.067,48.905,18.075,135.729,74.61,152.362c18.176,4.035,122.68-11.484,122.68-11.484
		l2.951,0.336l20.887-89.473c-8.41-6.921-16.01-17.504-29.391-32.824C2670.424,2002.971,2684.429,1950.754,2619.826,1938.135
		L2619.826,1938.135z" fill="#F6CDC1" id="path19664-6-5"></path>
	<path d="M2331.852,1931.926c-80.797-0.093-147.522,66.18-147.726,146.976l-0.709,282.183c-0.449,26.91,21.206,48.985,48.121,49.053
		s48.68-21.898,48.368-48.81l0.71-282.183c0.073-29.012,21.983-50.764,50.995-50.731l165.741,0.188
		c29.011,0.032,50.812,21.976,50.738,50.987l-0.71,282.183c-0.449,26.911,21.207,48.984,48.121,49.052
		c26.914,0.069,48.68-21.896,48.366-48.809l0.71-282.183c0.205-80.797-66.188-147.626-146.983-147.718L2331.852,1931.926z" fill="#A5A3FF" id="rect10192-5"></path>
	<path d="M2349.027,2386.273
		c0,48.879-39.624,88.503-88.502,88.503s-88.502-39.624-88.502-88.503c0-48.878,39.624-88.502,88.502-88.502
		S2349.027,2337.396,2349.027,2386.273z" fill="#A5A3FF" id="circle9175-6"></path>
	<path d="M2184.87,2386.273
		c0,48.879-39.624,88.503-88.502,88.503c-48.878,0-88.502-39.624-88.502-88.503c0-48.878,39.624-88.502,88.502-88.502
		C2145.246,2297.771,2184.87,2337.396,2184.87,2386.273z" fill="#A5A3FF" id="path9173-1"></path>
	<path d="M1959.334,2371.312
		h460.59c24.516,0,44.252,19.735,44.252,44.251v444.23c0,24.515-19.736,44.252-44.252,44.252h-460.59
		c-24.515,0-44.251-19.737-44.251-44.252v-444.23C1915.083,2391.047,1934.819,2371.312,1959.334,2371.312z" fill="#E3E1FF" id="rect9111-4"></path>
	<path d="M1915.083,2591.024v105.631
		h549.093v-105.631H1915.083z" fill="#A5A3FF" id="path9168-4"></path>
	<path d="M2130.585,2371.313v532.732
		h102.777v-532.732H2130.585z" fill="#B7BBFF" id="rect9163-9"></path>
	<path d="M2517.518,2321.293
		c-4.953-6.605-37.566-24.355-62.336-38.393c-24.77-14.036-61.098,0.826-102.38,27.246c-41.282,26.422-42.107,41.283-30.549,80.088
		c11.56,38.807,32.2,84.217,62.749,81.74c30.549-2.478,25.595-61.098,74.309-67.703c91.133,36.459,113.07,12.963,171.109,40.303
		l-57.93-132.775L2517.518,2321.293z" fill="#F6CDC1" id="path4043-5"></path>
	<path d="M3907.305,2887.506
		l-59.258,7.637v94.512l52.453-14.055C3900.5,2975.6,3946.748,2924.686,3907.305,2887.506z" fill="#F6CDC1" id="path4172-9"></path>
	<path d="M3739.313,2426.242
		c-14.186,68.313-66.518,126.16-175.517,165.797c-35.249,12.818-79.268,16.623-125.483,15.115
		c-23.156,159.74-67.476,392.951-37.537,440.697c48.457,86.405,180.984,36.781,180.984,36.781l266.287-94.979v-94.512
		l-295.479,38.865c0,0,113.262-232.362,150.625-325.773C3740.557,2514.828,3739.313,2426.251,3739.313,2426.242L3739.313,2426.242z" fill="#FF6853" id="path4143-9"></path>
	<path d="M3187.361,1819.801
		c-66.771,73.44-186.352,210.654-186.352,210.654l-247.24,14.673l-29.02,142.813l247.591,10.291c0,0,57.899,6.782,109.11-36.292
		c51.212-43.073,231.384-161.161,231.384-161.161L3187.361,1819.801z" fill="#6584F7" id="path6006"></path>
	<path d="M3026.975,2005.656
		c-13.158,15.043-21.498,24.61-21.498,24.61l-116.012,6.885l-21.913,156.351l70.946,2.948l125.439-188.421L3026.975,2005.656z" fill="#3362C4" id="path6011"></path>
	<path d="M3332.627,1679.325c-15.91-0.064-32.628,1.228-50.148,4.157l-156.046,137.882c0,0-89.171,73.482-108.16,100.729
		c-18.99,27.246-158.524,302.188-158.524,302.188l-236.135,74.72l6.805,145.573l242.584-50.602c0,0,57.799-7.59,96.914-61.885
		c39.117-54.296,184.92-212.877,184.92-212.877s204.43,126.536,205.254,160.388c0.826,33.851-46.234,42.107-52.015,62.749
		l-5.78,20.641h440.07c0,0,13.211-131.277-42.934-279.068c-56.144-147.791-134.581-276.592-134.581-276.592
		S3486.43,1679.952,3332.627,1679.325L3332.627,1679.325z" fill="#6584F7" id="path4039-9"></path>
	<path d="M2572.49,2311.799
		l-33.05,5.164c6.26,29.919,26.025,74.343,33.438,112.268c17.849,1.771,34.965,4.709,57.541,15.344L2572.49,2311.799z" fill="#F69CB3" id="path4179-0"></path>
	<path d="M3742.365,2362.988
		h-672.032c0,0-57.214,0.043-91.076,46.748c-33.86,46.705-24.521,134.278-10.509,186.822
		c14.012,52.543,116.229,350.291,116.229,350.291h98.71l-43.311-396.846c0,0,282.135,93.412,423.419,42.035
		C3705.08,2540.663,3751.176,2458.693,3742.365,2362.988z" fill="#FF6853" id="path4136-7"></path>
	<path d="M3302.294,2362.988
		l437.019,63.252c4.2-20.234,5.065-41.383,3.053-63.252H3302.294z" fill="#FFFFFF" id="path4138-6"></path>
	<path d="M3739.313,2426.242
		c-14.186,68.313-66.518,126.16-175.517,165.797c-35.249,12.818-79.268,16.623-125.483,15.115
		c-4.313,29.755-9.4,62.352-14.566,95.532c107.524-16.86,266.271-66.21,310.133-210.522
		C3739.668,2452.818,3739.313,2426.247,3739.313,2426.242L3739.313,2426.242z" fill="#E0523C" id="path4148-8"></path>
	<path d="M3200.617,3013.386
		l-16.93-66.536h-79.719h-18.991l23.453,93.753L3200.617,3013.386z" fill="#F6C6C0" id="path4153-4"></path>
	<path d="M3091.551,2973.121
		l16.88,67.481l92.188-27.217l-10.246-40.265H3091.551z" fill="#FFFFFF" id="rect4159-9"></path>
	<path d="M2950.049,3098.643
		h274.088l-23.52-85.257l-30.976-8.473c-21.087-20.358-59.686-25.351-86.027,4.651c0,0-48.214,34.689-71.731,35.277
		C2964.234,3044.842,2946.424,3053.961,2950.049,3098.643z" fill="#3D3D3D" id="path4157-7"></path>
	<path d="M3907.306,2887.506
		l-33.771,4.352l9.219,88.498l17.746-4.756C3900.5,2975.6,3946.748,2924.686,3907.306,2887.506z" fill="#FFFFFF" id="path4174-5"></path>
	<path d="M3907.305,2887.506
		c6.523,25.344-6.563,67.872-15.676,73.134c-10.121,4.267-35.672,19.923-25.641,36.884c6.596,68.298-68.67,40.611-66.35,101.119
		h140.795c25.193,0,60.908-181.624,45.287-219.117c0,0-13.84,0.934-23.261,1.945L3907.305,2887.506z" fill="#3D3D3D" id="path4169-7-6"></path>
	<path d="M3154.836,2119.211
		l-73.503-42.438l-85.335,222.62L3154.836,2119.211z" fill="#3362C4" id="path10068-1"></path>
	<path d="M2999.793,2694.641
		c34.871,105.632,85.186,252.209,85.186,252.209h98.709l-27.525-252.209H2999.793z" fill="#E0523C" id="path15767-5"></path>
	<path d="M3848.047,2895.143
		l-204.594,26.91v140.575l204.594-72.974V2895.143z" fill="#E0523C" id="path15772-7"></path>
	<path d="M2671.128,2171.061
		l30.886-132.294l51.756,6.361l-29.02,142.813L2671.128,2171.061z" fill="#FFFFFF" id="path19666-4-0"></path>
	<path d="M2673.664,2147.219
		l-6.844-123.626l30.682,34.49l-20.887,89.47L2673.664,2147.219z" fill="#F69CB3" id="path19668-7-9"></path>
	<path d="M2569.223,2000.919
		c-2.854-2.549-4.988-3.678-4.988-3.678l-53.082-13.501c-11.859-0.021-25.617,4.632-34.778,22.599
		c-25.067,48.905,18.075,135.729,74.61,152.362c53.073-15.425,20.625-64.344,30.44-105.755
		C2588.479,2023.184,2576.512,2007.427,2569.223,2000.919L2569.223,2000.919z" fill="#F6CDC1" id="path19670-44-4"></path>
	<path d="M2623.613,2299.001
		l-51.123,12.798l24.65,139.352l33.279-6.576L2623.613,2299.001z" fill="#FFFFFF" id="path6313"></path>
</g>
</svg>
