<svg viewBox="0 0 1620 1028" xmlns="http://www.w3.org/2000/svg"><g id="a"></g><g id="b"><g id="c"><g><path fill="#ebf3fa" d="M110.62,1025.41s-180.38-216.36-30.51-450.6c132.98-207.83,288.02-193.63,401.77-109.29,48.45,35.92,188.13,4.43,307.02-207.05,162.13-288.4,724.12-113.48,621.66,330.22-49.59,214.72,150.92,222.53,48.75,437.16l-1348.69-.45Z"></path><path fill="#dfebfd" d="M1573.38,738.23c-12.7-52.39-91.84-36.02-91.84-36.02,0,0-53.74,91.68-69.37,93.87-15.63,2.18,32.24-88.41,32.24-88.41-30.29-3.27-107.47,38.2-107.47,38.2,0,0,4.89,106.96-10.75,104.78-15.63-2.18,0-94.96,0-94.96-29.31,9.82-56.67,48.02-56.67,48.02-34.2,62.21,39.08,108.06,39.08,108.06,0,0,.98,37.11-19.54,79.68h0s-4.63,7.86-9.34,21.22h7.99c.65-2.39,1.37-4.71,2.17-6.93,0-.02,0-.03,.02-.04,.01-.03,.02-.06,.04-.1,.55-1.38,1.33-3.34,2.31-5.73h0s0-.01,0-.02c2.44-5.34,4.09-9.28,5.13-12.13,0,0,0-.02,0-.03,7.32-16.76,17.85-38.6,24.88-43.18,0,0-.88-1.39-1.71-4.09,.55,1.31,1.11,2.67,1.71,4.09,13.68,32.74,82.07,38.2,120.17,29.47,38.1-8.73,21.49-20.74,.98-40.22-20.52-19.49-63.51-14.35-76.21-21.99-12.7-7.64,5.86-15.28,31.26-13.1,25.4,2.18,38.1,30.56,79.14,34.93,41.03,4.37,72.3-81.86,72.3-81.86-28.33,9.82-79.14-7.64-81.09-18.56-1.95-10.91,73.28-9.82,85-13.1,11.72-3.27,32.24-29.47,19.54-81.86Z"></path><path fill="#afcdfb" d="M494.85,752.52s3.49,31.12-1.73,31.49c-5.22,.37-1.65-34.99-1.65-34.99,0,0-24.84-15.51-34.95-15.11,0,0,14.23,31.13,9.08,30.05-5.14-1.08-21.29-32.71-21.29-32.71,0,0-25.95-7.23-31.11,9.86-5.17,17.09,1.16,26.24,4.99,27.59,3.83,1.35,28.8,2.7,27.95,6.28-.85,3.58-18.01,8.21-27.23,4.31,0,0,8.8,29.31,22.48,28.79,13.69-.51,18.42-9.64,26.88-9.78,8.46-.15,14.48,2.81,10.13,5.06-4.35,2.24-18.51-.44-25.67,5.56-7.16,5.99-12.89,9.6-.41,13.36,12.48,3.76,35.26,3.51,40.39-7.04,.22-.46,.44-.9,.64-1.32-.32,.88-.64,1.32-.64,1.32,2.25,1.68,5.35,9.16,7.47,14.89,.29,.97,.77,2.32,1.48,4.15h0c.29,.83,.51,1.5,.67,1.97,3.77,12.76,.23,34.1,.23,34.1l2.66,1c7.17-21.26-2.34-39.78-2.34-39.78-6.03-14.58-5.03-26.87-5.03-26.87,0,0,25.14-13.54,14.93-34.95,0,0-8.38-13.29-17.92-17.22Z"></path><path fill="#cde0fb" d="M306.87,891.43c-2.25-38.39,54.18-47.71,54.18-47.71,0,0,54.88,47.7,65.81,45.15,10.93-2.55-39.79-51.01-39.79-51.01,19.64-9.96,79.92-1.95,79.92-1.95,0,0,18.71,72.98,28.74,67.51,10.03-5.47-19.52-63.67-19.52-63.67,21.67-.93,47.87,17.67,47.87,17.67,35.72,32.95-4,82.48-4,82.48,0,0,6.97,25.13,29.48,48.42h0s4.72,4.08,10.62,11.83l-5.36,2.05c-.93-1.44-1.89-2.8-2.88-4.09,0-.01,0-.02-.02-.02-.01-.02-.03-.04-.04-.06-.65-.78-1.58-1.9-2.73-3.25h-.01c-2.73-2.97-4.65-5.19-5.94-6.83v-.02c-8.36-9.36-19.92-21.3-25.57-22.57,0,0,.31-1.16,.31-3.18-.1,1.02-.2,2.07-.31,3.18-2.44,25.47-47.18,46.67-74.53,50.59-27.35,3.92-18.68-8.39-8.92-26.72,9.75-18.33,39.64-25.91,46.58-34.29,6.95-8.38-7.07-8.74-23.66-.76-16.59,7.98-19.27,30.27-45.89,43.72-26.62,13.45-65.31-36.35-65.31-36.35,21.02-.68,51.5-25.42,50.56-33.24-.93-7.82-51.16,12.21-59.69,13.02-8.53,.81-27.68-11.49-29.93-49.88Z"></path><g><path fill="#6bb7bf" d="M1363.74,202.91s-6.02-5.08-7.57-12.66c-1.15-5.63,1.74-12.69,1.97-13.01l-8.06-1.79s-2.39,11.95,1.65,19.89c1.24,2.43,4.83,5.79,7.14,7.04,2.55,1.38,4.86,.52,4.86,.52Z"></path><path fill="#86d1cd" d="M1377.74,197.43l7.33,9.37s-20.73,6.15-32.58-10.23c0,0,17.45,6.59,25.24,.86Z"></path></g><g><path fill="#f99746" d="M999.8,79.78s7.48-13.87,20.68-5.38l7.23-8.79s-7.55-5.59-23.53,6.56c-10.45,7.95-4.38,7.61-4.38,7.61Z"></path><path fill="#f99746" d="M992.41,93.38s-2.51-15.12,19.77-26.28c0,0-7.99,5.06-9.66,20.44l-10.11,5.84Z"></path></g><g><path fill="#5685d8" d="M538.28,529.96s-12.25-5.39-7.44-19.88l-8.14-5.91s-3.34,8.4,8.82,22.55c7.95,9.26,6.76,3.24,6.76,3.24Z"></path><path fill="#739af0" d="M550.3,535.3s-11.74,4.8-24.05-15.81c0,0,5.27,7.23,17.84,6.58l6.21,9.23Z"></path></g><path fill="#f1a34f" d="M573.58,340.19s6.76-4.77,7.47-10.54c0,0,6.58,.4,8.01,2.78,0,0-3.03,9.54-6.58,11.33,0,0-8.01,.6-8.9-3.58Z"></path><path fill="#f1a34f" d="M129.77,685s-7.21-5.09-7.97-11.24c0,0-7.02,.42-8.54,2.97,0,0,3.23,10.18,7.02,12.09,0,0,8.54,.64,9.49-3.82Z"></path><path fill="#86d1cd" d="M938.01,235.7s-10.08-7.11-11.14-15.7c0,0-9.81,.59-11.93,4.15,0,0,4.51,14.22,9.81,16.88,0,0,11.93,.89,13.26-5.33Z"></path><g><path fill="#cde0fb" d="M1556.59,202.65l62.63,219.06c2.76,9.67-2.06,20.1-10.71,23.19l-344,122.74c-8.65,3.09-18-2.3-20.76-11.96l-62.63-219.06c-2.76-9.67,2.06-20.1,10.71-23.19l344-122.74c8.65-3.09,18,2.3,20.76,11.96Z"></path><g><path fill="#afcdfb" d="M1358.76,481.11l-91.68,32.71c-3.88,1.38-8.07-1.03-9.31-5.36l-.28-.98c-1.24-4.33,.92-9.01,4.8-10.4l91.68-32.71c3.88-1.38,8.07,1.03,9.31,5.36l.28,.98c1.24,4.33-.92,9.01-4.8,10.4Z"></path><path fill="#afcdfb" d="M1479.58,438l-91.68,32.71c-3.88,1.38-8.07-1.03-9.31-5.36l-.28-.98c-1.24-4.33,.92-9.01,4.8-10.4l91.68-32.71c3.88-1.38,8.07,1.03,9.31,5.36l.28,.98c1.24,4.33-.92,9.01-4.8,10.4Z"></path><g><path fill="#afcdfb" d="M1370.45,363.99c1.07,3.73,1.36,7,.88,9.8-.61,3.53-2.44,5.85-5.5,6.94-3.06,1.09-5.76,.39-8.08-2.09-1.85-1.97-3.3-4.82-4.37-8.56-1.07-3.73-1.37-6.98-.9-9.75,.61-3.53,2.45-5.85,5.53-6.95,3.08-1.1,5.79-.41,8.12,2.08,1.82,1.95,3.26,4.8,4.33,8.53Zm-4.21,1.48c-.67-2.34-1.47-4.22-2.4-5.65-1.42-2.13-2.95-2.9-4.62-2.3-1.7,.61-2.57,2.22-2.61,4.84-.04,1.77,.28,3.84,.95,6.2,1.82,6.37,4.19,9.04,7.1,8,1.68-.6,2.53-2.23,2.55-4.9,.03-1.74-.3-3.8-.99-6.19Z"></path><path fill="#afcdfb" d="M1389.28,357.27c1.07,3.73,1.36,7,.88,9.8-.61,3.53-2.44,5.85-5.5,6.94-3.06,1.09-5.76,.4-8.08-2.09-1.85-1.97-3.3-4.82-4.37-8.56-1.07-3.73-1.37-6.98-.9-9.75,.61-3.53,2.45-5.85,5.53-6.95,3.08-1.1,5.79-.41,8.12,2.08,1.82,1.95,3.26,4.8,4.33,8.53Zm-4.21,1.48c-.67-2.34-1.47-4.22-2.4-5.65-1.42-2.13-2.95-2.9-4.62-2.3-1.7,.61-2.57,2.22-2.61,4.84-.04,1.77,.28,3.84,.95,6.2,1.82,6.37,4.19,9.04,7.1,8,1.68-.6,2.53-2.23,2.56-4.9,.03-1.74-.3-3.8-.99-6.19Z"></path><path fill="#afcdfb" d="M1417.81,347.1c1.07,3.73,1.36,7,.88,9.8-.61,3.53-2.44,5.85-5.5,6.94-3.06,1.09-5.76,.4-8.08-2.09-1.85-1.97-3.3-4.82-4.37-8.56-1.07-3.73-1.37-6.98-.9-9.75,.61-3.53,2.45-5.85,5.53-6.95,3.08-1.1,5.79-.41,8.12,2.08,1.82,1.95,3.26,4.8,4.33,8.53Zm-4.21,1.48c-.67-2.34-1.47-4.22-2.4-5.65-1.42-2.13-2.95-2.9-4.62-2.3-1.7,.61-2.57,2.22-2.61,4.84-.04,1.77,.28,3.84,.95,6.2,1.82,6.37,4.19,9.04,7.1,8,1.68-.6,2.53-2.23,2.56-4.9,.03-1.74-.3-3.8-.99-6.19Z"></path><path fill="#afcdfb" d="M1436.63,340.38c1.07,3.73,1.36,7,.88,9.8-.61,3.53-2.44,5.85-5.5,6.94-3.06,1.09-5.76,.4-8.08-2.09-1.85-1.97-3.3-4.82-4.37-8.56-1.07-3.73-1.37-6.98-.9-9.75,.6-3.53,2.45-5.85,5.53-6.95,3.08-1.1,5.79-.41,8.12,2.08,1.82,1.95,3.26,4.8,4.33,8.53Zm-4.21,1.48c-.67-2.34-1.47-4.22-2.4-5.65-1.42-2.13-2.95-2.9-4.62-2.3-1.7,.61-2.57,2.22-2.61,4.84-.04,1.77,.28,3.84,.95,6.2,1.82,6.37,4.19,9.04,7.1,8,1.68-.6,2.53-2.23,2.56-4.9,.03-1.74-.3-3.8-.99-6.19Z"></path><path fill="#afcdfb" d="M1455.46,333.66c1.07,3.73,1.36,7,.88,9.8-.61,3.53-2.44,5.85-5.5,6.94-3.06,1.09-5.76,.39-8.08-2.09-1.85-1.97-3.3-4.82-4.37-8.56-1.07-3.73-1.37-6.98-.9-9.75,.61-3.53,2.45-5.85,5.53-6.95,3.08-1.1,5.79-.41,8.12,2.08,1.82,1.95,3.26,4.8,4.33,8.53Zm-4.21,1.48c-.67-2.34-1.47-4.22-2.4-5.65-1.42-2.13-2.95-2.9-4.62-2.3-1.7,.61-2.57,2.22-2.61,4.84-.04,1.77,.28,3.84,.95,6.2,1.82,6.37,4.19,9.04,7.1,8,1.68-.6,2.53-2.23,2.55-4.9,.03-1.74-.3-3.8-.99-6.19Z"></path><path fill="#afcdfb" d="M1474.28,326.95c1.07,3.73,1.36,7,.88,9.8-.61,3.53-2.44,5.85-5.5,6.94-3.06,1.09-5.76,.39-8.08-2.09-1.85-1.97-3.3-4.82-4.37-8.56-1.07-3.73-1.37-6.98-.9-9.75,.61-3.53,2.45-5.85,5.53-6.95,3.08-1.1,5.79-.41,8.12,2.08,1.82,1.95,3.26,4.8,4.33,8.53Zm-4.21,1.48c-.67-2.34-1.47-4.22-2.4-5.65-1.42-2.13-2.95-2.9-4.62-2.3-1.7,.61-2.57,2.22-2.61,4.84-.04,1.77,.28,3.84,.95,6.2,1.82,6.37,4.19,9.04,7.1,8,1.68-.6,2.53-2.23,2.55-4.9,.03-1.74-.3-3.8-.99-6.19Z"></path><path fill="#afcdfb" d="M1502.81,316.77c1.07,3.73,1.36,7,.88,9.8-.61,3.53-2.44,5.85-5.5,6.94-3.06,1.09-5.76,.39-8.08-2.09-1.85-1.97-3.3-4.82-4.37-8.56-1.07-3.73-1.37-6.98-.9-9.75,.61-3.53,2.45-5.85,5.53-6.95,3.08-1.1,5.79-.41,8.12,2.08,1.82,1.95,3.26,4.8,4.33,8.53Zm-4.21,1.48c-.67-2.34-1.47-4.22-2.4-5.65-1.42-2.13-2.95-2.9-4.62-2.3-1.7,.61-2.57,2.22-2.61,4.84-.04,1.77,.28,3.84,.95,6.2,1.82,6.37,4.19,9.04,7.1,8,1.68-.6,2.53-2.23,2.56-4.9,.03-1.74-.3-3.8-.99-6.19Z"></path><path fill="#afcdfb" d="M1521.64,310.05c1.07,3.73,1.36,7,.88,9.8-.61,3.53-2.44,5.85-5.5,6.94-3.06,1.09-5.76,.4-8.08-2.09-1.85-1.97-3.3-4.82-4.37-8.56-1.07-3.73-1.37-6.98-.9-9.75,.6-3.53,2.45-5.85,5.53-6.95,3.08-1.1,5.79-.41,8.12,2.08,1.82,1.95,3.26,4.8,4.33,8.53Zm-4.21,1.48c-.67-2.34-1.47-4.22-2.4-5.65-1.42-2.13-2.95-2.9-4.62-2.3-1.7,.61-2.57,2.22-2.61,4.84-.04,1.77,.28,3.84,.95,6.2,1.82,6.37,4.19,9.04,7.1,8,1.68-.6,2.53-2.23,2.55-4.9,.03-1.74-.3-3.8-.99-6.19Z"></path><path fill="#afcdfb" d="M1540.46,303.33c1.07,3.73,1.36,7,.88,9.8-.61,3.53-2.44,5.85-5.5,6.94-3.06,1.09-5.76,.4-8.08-2.09-1.85-1.97-3.3-4.82-4.37-8.56-1.07-3.73-1.37-6.98-.9-9.75,.61-3.53,2.45-5.85,5.53-6.95,3.08-1.1,5.79-.41,8.12,2.08,1.82,1.95,3.26,4.8,4.33,8.53Zm-4.21,1.48c-.67-2.34-1.47-4.22-2.4-5.65-1.42-2.13-2.95-2.9-4.62-2.3-1.7,.61-2.57,2.22-2.61,4.84-.04,1.77,.28,3.84,.95,6.2,1.82,6.37,4.19,9.04,7.1,8,1.68-.6,2.53-2.23,2.56-4.9,.03-1.74-.3-3.8-.99-6.19Z"></path><path fill="#afcdfb" d="M1559.29,296.62c1.07,3.73,1.36,7,.88,9.8-.61,3.53-2.44,5.85-5.5,6.94-3.06,1.09-5.76,.4-8.08-2.09-1.85-1.97-3.3-4.82-4.37-8.56-1.07-3.73-1.37-6.98-.9-9.75,.61-3.53,2.45-5.85,5.53-6.95,3.08-1.1,5.79-.41,8.12,2.08,1.82,1.95,3.26,4.8,4.33,8.53Zm-4.21,1.48c-.67-2.34-1.47-4.22-2.4-5.65-1.42-2.13-2.95-2.9-4.61-2.3-1.7,.61-2.57,2.22-2.61,4.84-.04,1.77,.28,3.84,.95,6.2,1.82,6.37,4.19,9.04,7.1,8,1.68-.6,2.53-2.23,2.56-4.9,.03-1.74-.3-3.8-.99-6.19Z"></path></g><path fill="#afcdfb" d="M1307.42,309.09l-89.72,32.01c-3.88,1.38-8.07-1.03-9.31-5.36h0c-1.24-4.33,.92-9.01,4.8-10.4l89.72-32.01c3.88-1.38,8.07,1.03,9.31,5.36h0c1.24,4.33-.92,9.01-4.8,10.4Z"></path><g><path fill="#afcdfb" d="M1525.34,249.81c-.82-2.86-2.46-5.17-4.54-6.72-.61-.45-1.43-.21-1.75,.52l-.28,.63c-.27,.6-.11,1.34,.39,1.72,1.51,1.13,2.69,2.81,3.29,4.89,.59,2.08,.5,4.22-.14,6.11-.21,.63,.04,1.34,.57,1.66l.56,.33c.64,.38,1.44,.04,1.7-.71,.9-2.61,1.03-5.56,.22-8.42Z"></path><path fill="#afcdfb" d="M1531.16,247.74c-1.34-4.7-4.14-8.44-7.67-10.8-.6-.4-1.37-.13-1.69,.56l-.16,.36c-.29,.64-.08,1.4,.47,1.77,2.94,1.98,5.28,5.12,6.4,9.05,1.12,3.93,.85,8-.52,11.52-.25,.65-.03,1.42,.54,1.75l.32,.19c.62,.36,1.39,.08,1.67-.63,1.65-4.2,1.99-9.06,.65-13.76Z"></path><path fill="#afcdfb" d="M1536.25,245.92c-1.8-6.29-5.59-11.27-10.36-14.33-.6-.39-1.37-.12-1.68,.57h0c-.29,.64-.08,1.42,.48,1.78,4.26,2.74,7.65,7.18,9.26,12.81,1.61,5.62,1.15,11.44-.9,16.43-.27,.65-.03,1.42,.53,1.76h0c.61,.36,1.38,.08,1.66-.62,2.29-5.58,2.8-12.09,1-18.38Z"></path><path fill="#afcdfb" d="M1541.77,243.95c-2.29-8.01-7.16-14.32-13.27-18.14-.6-.38-1.37-.12-1.68,.57l-.28,.61c-.29,.64-.08,1.43,.49,1.78,5.45,3.42,9.79,9.05,11.84,16.21,2.05,7.16,1.43,14.56-1.24,20.87-.27,.65-.04,1.43,.53,1.77l.55,.32c.61,.36,1.37,.08,1.66-.62,2.99-7.06,3.69-15.36,1.4-23.37Z"></path></g></g></g><g><rect fill="#ffa412" height="630.2" width="195.85" y="392.86" x="1114.42"></rect><rect fill="#ffb93e" height="630.2" width="517.41" y="392.86" x="597.01"></rect><rect fill="#ffa412" transform="translate(1578.91 -132.52) rotate(90)" height="517.41" width="44.11" y="464.49" x="833.66"></rect><rect fill="#fa9712" transform="translate(1935.54 -489.15) rotate(90)" height="195.85" width="44.11" y="625.27" x="1190.3"></rect><path fill="#f99746" d="M953.75,399.61s116.89-84.86,196.35-57.59l-16.39,17.1,7.39,28.74s-88.36-32.15-189.77,16.58l2.42-4.84Z"></path><path fill="#f99746" d="M947.21,380.39s-20.62-2.78-51.36-7.51c-81.61-12.54-234.47-38.78-261.9-63.05-43.11-38.14,59.05-200.11,103.27-222.6,44.22-22.46,210,293.16,210,293.16Z"></path><path fill="#f99746" d="M1270.62,178.69c7.37,40.13-326.45,213.48-326.45,213.48,0,0,6.07-18.34,15.95-47.07l.03-.05C996.25,240.14,1083.19-3.34,1111.76,.03c2.87,.33,6.23,1.48,9.98,3.31,43.88,21.57,142.1,138.39,148.89,175.34Z"></path><path fill="#ed7d2b" d="M1118.92,39.03c-20.38,39.56-156.63,301.93-158.76,306.02C996.25,240.14,1083.19-3.34,1111.76,.03c0,0,5.66-.18,9.98,3.31,5.21,4.24,8.44,13.84-2.82,35.68Z"></path><path fill="#ed7d2b" d="M895.9,372.88h-.05c-81.61-12.54-234.47-38.78-261.9-63.05-12.39-38.98,19.76-42.16,43.15-44.9,23.37-2.74,218.81,107.96,218.81,107.96Z"></path><path fill="#ed7d2b" d="M884.96,392.81s18.71-47.56,55.54-50.19c38.47-2.75,60.31,50.19,60.31,50.19h-115.86Z"></path><rect fill="#ffc261" height="86.68" width="541.4" y="392.86" x="581.32"></rect><rect fill="#fa9712" height="86.68" width="204.06" y="392.86" x="1122.72"></rect><path fill="#f99746" d="M903.92,385.6s-106.04-37.52-177.59-12.72c-82.48,28.6-77.59,142.29-77.59,142.29l19.4-8.91,26.19,13.72s4.42-120.39,71.66-137.24c58.14-14.57,137.94,2.85,137.94,2.85Z"></path><rect fill="#ffa412" height="630.14" width="39.48" y="392.86" x="810.04"></rect></g><g><polygon fill="#ed7d2b" points="522.04 320.31 485.79 333.88 450.79 217.24 487.04 203.67 522.04 320.31"></polygon><polygon fill="#f99746" points="485.79 333.88 390.02 369.74 355.03 253.1 450.79 217.24 485.79 333.88"></polygon><polygon fill="#ffb93e" points="374.6 318.32 372.15 310.16 467.91 274.3 470.36 282.47 374.6 318.32"></polygon><polygon fill="#f69b34" points="470.36 282.47 467.91 274.3 504.16 260.73 506.61 268.89 470.36 282.47"></polygon><path fill="#ffb93e" d="M424.35,225.15s24.89-25.88,47.06-27.89l-3.17,4.58,3.68,4.62s-24.76,1.9-47.89,19.78l.32-1.1Z"></path><g><path fill="#ffb93e" d="M419.15,226.52s-3.97,.91-9.92,2.17c-15.8,3.33-45.55,9.07-51.98,6.48-10.1-4.07-.18-41.13,6.75-48.36,6.94-7.22,55.15,39.71,55.15,39.71Z"></path><g><path fill="#ffb93e" d="M467.81,166.78c3.59,6.92-48.57,62.14-48.57,62.14,0,0,.11-3.82,.34-9.82h0c.85-21.93,3.43-73.02,8.9-74.38,.55-.14,1.23-.16,2.03-.08,9.32,.95,33.98,15.77,37.29,22.14Z"></path><path fill="#f69b34" d="M431.98,151.44c-1.58,8.73-12.22,66.74-12.39,67.64,.85-21.92,3.43-73.01,8.9-74.36,0,0,1.04-.43,2.03-.08,1.2,.42,2.33,1.98,1.46,6.8Z"></path></g><path fill="#f69b34" d="M409.24,228.69h-.01c-15.8,3.34-45.55,9.08-51.98,6.48-4.46-6.36,1.32-9.17,5.49-11.3,4.17-2.13,46.49,4.82,46.49,4.82Z"></path><path fill="#f69b34" d="M408.32,233.14s.82-10.1,7.49-13.14c6.97-3.17,13.95,5.11,13.95,5.11l-21.44,8.03Z"></path></g><polygon fill="#ffa15a" points="457.14 232.71 356.94 270.23 352.13 254.19 452.33 216.67 457.14 232.71"></polygon><polygon fill="#f78639" points="494.91 218.57 457.14 232.71 452.33 216.67 490.1 202.53 494.91 218.57"></polygon><path fill="#ffbe55" d="M411.43,230.49s-21.71,.4-33.58,9.95c-13.68,11.01-6.46,31.71-6.46,31.71l3.1-2.99,5.61,.73s-5.87-22.59,5.64-30.37c9.95-6.73,25.69-9.03,25.69-9.03Z"></path><polygon fill="#ffb93e" points="437.06 353.25 429.75 355.98 394.46 238.34 401.76 235.6 437.06 353.25"></polygon></g><g><path fill="#233862" d="M1118.52,459.71s-14.33,9.43-5.54,27.71c0,0-12.55-2.57-15.26-6.75,0,0,.32,1.74,.78,2.62,0,0-11.54-2.92-15.31-8.3-3.77-5.38,14.74-69.81,44.73-53.12,0,0,27.43,5.68,16.68,39.7-10.74,34.01-.59,37.02-.59,37.02,0,0-3.19,.72-4.55,.32,0,0-1.79-1.44-1.89-2.78,0,0-.06,2.05,.3,2.82,0,0-11.23-2.08-15.61-8.32-4.38-6.24-7-24.2-3.74-30.9Z"></path><path fill="#ffb27d" d="M1097.82,514.47s-.03,.01-.05,.02c-.09-.01-.07-.02,.05-.02Z"></path><path fill="#ffb27d" d="M1132.66,503.27c.42,4.22,.92,8,1.15,9.8,.5,4.04-33.8,1.41-35.99,1.4,1.52-.74,6.18-17.23,7.65-23.52,1.79-7.63,3.19-15.87,3.19-15.87l24.22,1.71,1.44,.1c-.89,3.69-1.53,7.17-1.97,10.41-.06,.43-.11,.88-.17,1.3-.44,3.59-.05,9.46,.47,14.67Z"></path><path fill="#233862" d="M1105.32,472.35s-3.93-13.91-3.13-24.58c.57-7.62,10.27-33.6,33.61-22.54,0,0,6.86,2.86,12.3,9.81,4.32,5.53,9.89,16.36-4.18,37.38l-4.09,7.3-34.5-7.36Z"></path><path fill="#ed975d" d="M1132.66,503.27c-16.95-5.55-24.14-27.41-24.14-27.41,7.17,.24,16.5,5.79,23.83,11.44-.06,.43-.11,.88-.17,1.3-.44,3.59-.05,9.46,.47,14.67Z"></path><path fill="#ffb27d" d="M1133.86,495.59s-30.61-8.45-25.61-29.67c5.01-21.22,4.43-36.6,24.18-32.1,19.76,4.5,21.63,13.71,21.5,21.25-.13,7.54-11.98,42.17-20.08,40.52Z"></path><path fill="#233862" d="M1146.44,437.4s-14.24,22.42-27.92,22.31c-13.68-.11-18.33-5.59-18.33-5.59,0,0,11.89-5.81,17.54-20.43,0,0,25.23-10,28.71,3.71Z"></path><path fill="#233862" d="M1143.89,438.81s4.92,7.4,5.16,13.25c.24,5.85-1.71,17.17,1.28,17.65,0,0,10.3-15.05,5.5-26.71-5.09-12.36-11.93-4.19-11.93-4.19Z"></path><path fill="#233862" d="M1144.85,440s-12.12,24.3-30.26,27.87c0,0,19.96-11.23,25.4-28.03,5.45-16.8,4.86,.16,4.86,.16Z"></path><path fill="#fff" d="M1129.08,481.98s.38,3.23,2.23,3.99c1.84,.76,6.74,2.15,7.24,1.8s2.33-2.86,2.33-2.86c0,0-7.72-3.31-11.79-2.94Z"></path><path fill="#ffb27d" d="M1117.65,806.54c-.39,1.82-.78,3.61-1.16,5.39-2.31,10.71-4.46,20.65-5.81,28.96-1.76,10.82-2.17,18.87,.13,22.25,9.51,13.93,0,124.44,0,124.44l-10.82,12.45s-18.81-109.11-23.91-126.21c-2.32-7.77-5.7-40.97-8.69-74.85-.15-1.7-.3-3.39-.45-5.09-.52-5.93-1.01-11.83-1.49-17.59-2.68-32.06-4.68-59.52-4.68-59.52,0,0,19.95-15.67,38.08-17.42,10.68-1.04,20.72,2.76,25.68,17.42,7.22,21.33-.1,58.16-6.89,89.76Z"></path><path fill="#ed975d" d="M1117.65,806.54c-14.83-11.96-35.68-33.24-43.25-68.14-1.45-17.35,10.8-33.83,24.46-39.04,10.68-1.04,20.72,2.76,25.68,17.42,7.22,21.33-.1,58.16-6.89,89.76Z"></path><path fill="#ffb27d" d="M1171.71,595.8l72.86,21.02v9.5s-72.5-.95-77.18-9.97c-4.68-9.02,4.32-20.55,4.32-20.55Z"></path><path fill="#ffb27d" d="M1244.57,909.05l-3.4,15.71s-98.56-56.87-111.3-67.79c-5.12-4.39-11.89-28.22-18.15-55.17-9.33-40.18-17.56-87.3-17.56-87.3,0,0,13.82-59.36,50.8-23.03,22.13,21.74,18.69,63.63,16.27,96.22-1.61,21.86-2.77,39.53,4.57,44.12,14.32,8.93,56.32,50.04,69.62,78.33l9.17-1.08Z"></path><path fill="#ffb27d" d="M1077.38,645.19c-25.74-7.32-54.03-51.93-54.03-51.93l7.25-7.02c7.5,9.88,38.7,26.9,38.7,26.9-.17-9.04,.04-17.29,.56-24.8,3.46-51.03,20.68-68.03,25.38-71.76,.76-.61,1.19-.86,1.19-.86,0,0,.02,.37,.04,1.07,.07,1.52,.19,4.57,.32,8.76,.95,31.23,2.1,125.75-19.41,119.63Z"></path><path fill="#fff" d="M1097.76,583.95c-1.33,36.4-6.21,72.45-20.4,70.13-17.39-2.84-21.92-20.97-22.84-34.45-.57-8.39,.25-14.98,.25-14.98,0,0,8.56-.04,9.94-1.47,6.57-6.78,4.62-73.31,7.88-80.21,3.25-6.91,24.37-11.34,24.37-11.34,0,0,2.13,36.34,.8,72.32Z"></path><path fill="#dfebfd" d="M1097.76,583.95c-1.33,36.4-6.21,72.45-20.4,70.13-17.39-2.84-21.92-20.97-22.84-34.45,4.27-.24,11.79-1.4,14.77-6.49,4.28-7.28,17.62-54.18,17.62-54.18,0,0,5.25,10.53,10.85,24.99Z"></path><path fill="#fff" d="M1207.47,595.8c4.71,7.48,2.12,21.98-7.77,33.65-6.14,7.25-14.45,11.54-27.99,9.31-5.9-.97-22.38-11.37-24.11-24.04-.31-2.3-.48-3.64-.48-3.64,0,0-7.5,8.39-7.78,9.98-.13,.71-.77,7.05-.88,7.92-.12,1.05,.55,4.9,.55,4.9,0,0-35.85,17.51-65.48-2.43,0,0-8.45-80.89-2.38-94.35,3.02-6.69,19.93-19.71,25.82-25.46,1.32-1.29,2.67-5.2,2.3-7.71-.3-2.12,1.89-5.7,3.72-5.05,3.54,1.27,13.56,6.81,20.62,4.69,3.51-1.04,7.97-5.58,11.37-4.54,4.16,1.27-.23,12.46,2.12,12.6,3.25,.18,20.81,4.1,22.28,7.27,.51,1.1,5.56,16.03,11.88,35.78,0,0,0,.01,0,.05,11.87,37.05,29.28,30.1,36.19,41.07Z"></path><path fill="#dfebfd" d="M1147.11,611.08s-.87-30.86-3.1-30.48c-2.23,.38-34.43,35-26.78,48.85,7.65,13.85,29.89-18.37,29.89-18.37Z"></path><path fill="#2b478b" d="M1171.71,737.61s-12.41,4.28-30.69,7.11c-22.64,3.5-54.28,4.76-82.55-7.11,0,0-2.33-46.98,4.37-71.47,6.7-24.5,9.83-36.21,9.83-36.21,0,0,26.83,7.52,54.08,1.69,3.83-.81,7.66-1.9,11.43-3.3,0,0,16.81,39.87,21.43,56.95,4.62,17.08,12.11,52.35,12.11,52.35Z"></path><path fill="#233862" d="M1171.71,737.61s-12.41,4.28-30.69,7.11c-33.53-21.24-17.18-110.61-17.18-110.61,1-.9,1.97-1.73,2.91-2.5,3.83-.81,7.66-1.9,11.43-3.3,0,0,16.81,39.87,21.43,56.95,4.62,17.08,12.11,52.35,12.11,52.35Z"></path><path fill="#b64c41" d="M1101.16,638.77c-19.88,0-28.07-7.64-28.67-8.16l-1.29-10.46c.19,.16,26.86,18.05,68.13,.91l-.88,7.92c-15.87,6.59-26.97,9.78-37.3,9.78Z"></path><path fill="#ffb27d" d="M1244.57,616.83s13.37-7.36,18.68-8.07c5.31-.71,14.24-.95,14.24,0s-9.56,7.59-12.12,8.07c-2.55,.48-7.44,4.52-5.95,4.99,1.49,.48,9.35-1.54,9.46,0,.11,1.54-4.78,2.49-5.63,3.68-.85,1.19-3.83,2.61-8.61,1.9-4.78-.71-10.07-1.07-10.07-1.07v-9.5Z"></path><path fill="#ffb27d" d="M1030.58,586.22l-7.27,7.08s-12.91-10.53-13.53-14.85v-.43c0-4.49,8.19-13.82,14.99-14.16,.7,0,1.31,.17,1.85,.52,3.62,2.53,4.05,13.08,4.02,18.54-.01,1.99-.08,3.3-.08,3.3Z"></path><path fill="#2b478b" d="M1244.57,909.05l-3.4,15.71s-98.56-56.87-111.3-67.79c-5.12-4.39-11.89-28.22-18.15-55.17,8.41,1.93,26.58,2.96,49.51-14.11-1.61,21.86-2.77,39.53,4.57,44.12,14.32,8.93,56.32,50.04,69.62,78.33l9.17-1.08Z"></path><path fill="#233862" d="M1264.05,915.15s-.03,0-.09-.02c-.44-.12-2.47-.87-3.81-4.47-.89-2.37-1.15-4.32-1.96-6.66l-3.33-6.42c-3.48-5.12-4.7-3.92-4.7-3.92,0,0-.91,1.3-2.25,3.02-2.22,2.84-5.63,6.79-8.04,7.81-1.71,.72-2.78,1.91-3.44,3.01-.84,1.39-1.03,2.64-1.03,2.64,0,0,7.15,1.39,6.52,5.33-1.21,7.61-.93,9-.8,9.25l.04,.05s12.19,7.13,16.09,8.53c6.94,2.48,10.56,7.75,12.81,10.15,.91,.97,2.17,1.42,3.41,1.2,1.83-.32,4.2-.98,4.72-2.23l-14.14-27.26Z"></path><path fill="#233862" d="M1110.81,863.15c9.51,13.93,0,124.44,0,124.44l-10.82,12.45s-18.81-109.11-23.91-126.21c-2.32-7.77-5.7-40.97-8.69-74.85,9.02,4.49,31.02,14.28,49.09,12.95-2.31,10.71-4.46,20.65-5.81,28.96-1.76,10.82-2.17,18.87,.13,22.25Z"></path><path fill="#233862" d="M1121.69,1005.58l-5.84,3.53c-2.12,.84-3.87,1.08-6.02,2-3.26,1.4-5.56,4.14-5.67,4.63-1.65,7.48-3.99,7-3.99,7l-23.45,.25c-1.11-.62,.77-5.91,1.67-6.89,2.22-2.44,8.85-1.21,11.27-8.89,1.36-4.31,8.09-17.71,8.09-17.71l.05-.05c.23-.13,1.47-.41,8.25,1.16,3.5,.81,4.95-7.13,4.95-7.13,0,0,1.11,.25,2.33,1.22,.97,.77,2,2,2.59,3.93,.84,2.72,4.28,6.64,6.75,9.2,1.5,1.55,2.64,2.61,2.64,2.61,0,0,1.04,1.4-3.64,5.14Z"></path></g><g><rect fill="#4a75cb" height="320.5" width="99.6" y="703.36" x="786.32"></rect><rect fill="#739af0" height="320.5" width="263.14" y="703.36" x="523.18"></rect><rect fill="#afcdfb" transform="translate(1526.11 216.6) rotate(90)" height="263.14" width="22.43" y="739.79" x="643.54"></rect><rect fill="#88b3ff" transform="translate(1707.48 35.23) rotate(90)" height="99.6" width="22.43" y="821.56" x="824.91"></rect><path fill="#4a75cb" d="M715.14,698.43s80.67-40.9,136.9-25.36l-11.23,8.39,5.66,14.82s-62.56-18.22-132.95,4.57l1.62-2.42Z"></path><g><path fill="#72a9f7" d="M701.32,696.86s-10.49-1.42-26.12-3.82c-41.5-6.38-119.24-19.72-133.19-32.07-21.93-19.4,30.03-101.77,52.52-113.2,22.49-11.42,106.8,149.09,106.8,149.09Z"></path><path fill="#72a9f7" d="M865.79,594.28c3.75,20.41-166.02,108.57-166.02,108.57,0,0,3.09-9.33,8.11-23.94v-.03c18.37-53.36,62.58-177.18,77.11-175.46,1.46,.17,3.17,.75,5.07,1.69,22.32,10.97,72.27,70.38,75.72,89.17Z"></path><path fill="#4a75cb" d="M788.64,523.26c-10.37,20.12-79.66,153.55-80.74,155.63,18.35-53.36,62.57-177.18,77.1-175.46,0,0,2.88-.09,5.07,1.69,2.65,2.16,4.29,7.04-1.43,18.15Z"></path><path fill="#4a75cb" d="M675.22,693.04h-.03c-41.5-6.38-119.24-19.72-133.19-32.07-6.3-19.82,10.05-21.44,21.94-22.84,11.89-1.39,111.28,54.9,111.28,54.9Z"></path><path fill="#4a75cb" d="M669.65,703.17s9.52-24.19,28.25-25.52c19.56-1.4,30.67,25.52,30.67,25.52h-58.92Z"></path></g><rect fill="#88b3ff" height="44.08" width="275.33" y="703.36" x="515.21"></rect><rect fill="#3969b7" height="44.08" width="103.78" y="703.36" x="790.54"></rect><path fill="#4a75cb" d="M679.27,699.67s-53.93-19.08-90.32-6.47c-41.94,14.54-39.46,72.36-39.46,72.36l9.86-4.53,13.32,6.98s2.25-61.22,36.44-69.79c29.57-7.41,70.15,1.45,70.15,1.45Z"></path><rect fill="#afcdfb" height="323.26" width="20.08" y="703.36" x="631.52"></rect></g><g><path fill="#233862" d="M204.54,571.76s74.17,60.72,92.31,59.26c18.14-1.46,82.39-45.75,82.39-45.75l-13.59-18.05s-58.19,24.08-68.84,17.44c-10.65-6.64-52.27-63-69.73-59.99-17.46,3.01-34.71,25.27-22.54,47.1Z"></path><g><path fill="#233862" d="M160.8,1028h-22.17c-2.79-1.69-5.28-5.57-6.06-11.35-1.08-7.98-9.09-12.33-10.82-18.86-1.73-6.52,7.14-15.71,7.14-15.71l1.48-2.14,1.54-2.22,14.72,3.87s.36,3.92,.59,8.9c.16,3.6,.24,7.76,.06,11.4-.43,8.7,2.18,18.07,9.1,19.77,5.12,1.25,4.89,4.64,4.42,6.33Z"></path><path fill="#233862" d="M289.47,1028h-50.7c-2.44-3.32-1.54-15.59-1.17-19.6,.08-.81,.13-1.28,.13-1.28,0,0,17.31-15.47,19.69-3.62,.07,.37,.16,.73,.26,1.09,3,11.08,16.44,16.12,24.2,17.52,5.05,.91,6.91,3.84,7.6,5.89Z"></path><path fill="#f99746" d="M279.81,711.82s-2.63,36.64-5.72,80.69c-4.2,59.84-9.25,133.34-9.75,147.26-.86,24.18-4.33,62.85-4.33,62.85,0,0-8.22,9.19-24.67,5.32,0,0-14.66-55.21-18.85-113.63-.07-.96-.13-1.92-.19-2.89-3.89-59.47-9.95-184.69-9.95-184.69l73.46,5.08Z"></path><path fill="#ed7d2b" d="M279.81,711.82s-2.63,36.64-5.72,80.69l-57.59,101.8c-.07-.96-.13-1.92-.19-2.89-3.89-59.47-9.95-184.69-9.95-184.69l73.46,5.08Z"></path><path fill="#f99746" d="M267.8,716.17s-47.39,132.71-78.55,195.08c-31.16,62.37-40.9,79.77-40.9,79.77,0,0-17.85-7.98-19.47-13.42,0,0,11.92-120.4,32.78-149.75,11.79-16.59,25.64-66.36,26.29-83.76,.65-17.4,4.22-51.85,4.22-51.85l75.63,23.93Z"></path></g><path fill="#ffb27d" d="M236.57,527.21c-17.69,8.96-51.38-4.25-51.38-4.25,0,0,15.42-16.49,11.34-45.93l15.6,10.88,10.59,7.39s.51,5.13,.43,14.25c-.02,2.4-.09,5.08-.21,8.02,8.41,3.78,13.64,9.63,13.64,9.63Z"></path><path fill="#ed975d" d="M222.71,495.31s.51,5.13,.43,14.25c-10.92-.61-25.14-18.3-25.14-18.3,5.26-2.49,9.99-3.45,14.12-3.35l10.59,7.39Z"></path><path fill="#ffb27d" d="M228.28,494.07s-29.76,9.72-34.9-11.07c-5.14-20.8-12.44-33.55,6.35-40.64,18.78-7.09,24.45-.29,27.68,6.18,3.23,6.48,8.48,42.46,.87,45.53Z"></path><path fill="#2b478b" d="M281.66,698.75c.93,9.58,1.36,15.56,1.15,15.79-.5,.59-1.11,.99-1.85,1.09-6.91,.83-26.58,7.82-43.83,8.16-14.53,.39-27.75-2.65-42.14-7.65-1.91-.66-6.35-2.59-6.5-4.87-.21-2.48-.37-6.11-.59-10.67-.73-15.87-1.97-43.17-6.98-74.18-.92-5.77-1.69-11.53-2.33-17.2-4.71-42.31-1.21-80.55,12.52-95.19,1.18-1.2,9.56,2.05,17.27,5.08,7.12,2.8,13.89,2.31,20.08,.01l7.03,5.42c8.6,6.98,18.25,16.75,23.71,32.81,4.66,13.67,9.23,38.83,13.09,65.01,1.74,11.87,3.42,23.85,4.74,35.26l.04,.41c.21,1.12,.35,2.36,.47,3.49,.25,2.03,.48,4.02,.71,5.98,1.43,12.18,2.59,23.05,3.39,31.26Z"></path><path fill="#2b478b" d="M193.14,480.96s3.05-1,2.03-5.73c-1.02-4.73-1.69-11,1.93-10.3,3.62,.7,4.13,3.8,5.36,1.78,1.24-2.02,.43-9.7,10.76-11.63,10.33-1.93,14.98,1.54,19.56-1.48,4.57-3.02,3.95-11.22,3.95-11.22,0,0-1.06,3.1-3.03,4.31,0,0,6.73-13.39-3.51-20.58-10.24-7.19-19.15-.38-24.51,.71-11.81,2.41-19.4,4.24-22.35,13.49-2.94,9.25,1.27,33.28,9.81,40.65Z"></path><path fill="#233862" d="M281.66,698.75c-1.46,.3-26.84,5.39-44.09-7.31-17.77-13.07-38.58-90.58-38.58-90.58,0,0,39.9,49.58,40.68,51.53,.65,1.65,29.42,11.87,38.6,15.1,1.43,12.18,2.59,23.05,3.39,31.26Z"></path><g><g><polygon fill="#ed7d2b" points="491.27 670.52 293.88 673.66 291.07 453.15 488.46 450.01 491.27 670.52"></polygon><polygon fill="#f99746" points="449.14 671.19 251.76 674.33 248.95 453.82 446.33 450.68 449.14 671.19"></polygon></g><path fill="#fff" d="M274.82,521.53c-.27-20.81,12.51-37.84,31.7-38.14,19.01-.3,32.02,16.1,32.28,37.13,.26,20.6-12.51,37.84-31.7,38.14-19.01,.3-32.02-16.1-32.28-37.13Zm108.88-37.69l22.4-.36-94.29,148.7-22.4,.36,94.29-148.7Zm-64.66,36.99c-.13-9.88-5.13-18.42-12.66-18.3-7.9,.13-11.94,8.6-11.81,18.69,.13,9.88,5.13,18.42,12.66,18.3,7.9-.13,11.93-8.81,11.81-18.69Zm37.66,74.68c-.27-20.81,12.51-37.84,31.7-38.14,19.01-.3,32.02,16.1,32.28,37.13,.26,20.6-12.51,37.84-31.7,38.14-19.01,.3-32.02-16.1-32.28-37.13Zm44.23-.7c-.13-9.88-5.13-18.42-12.66-18.3-7.9,.13-11.94,8.6-11.81,18.69,.13,9.88,5.13,18.42,12.66,18.3,7.9-.13,11.93-8.81,11.81-18.69Z"></path></g><path fill="#ffb27d" d="M348.37,681.3c-6.66-.14-15.21-3.34-17.95-4.86-4.63-2.57-6.99-5.07-6.99-5.07l.7-4.9,.84-5.85s.51-.09,1.37-.19c.85-.1,2.05-.2,3.41-.23,0,0,2.19,.74,4.01-1.07,1.81-1.81,5.15-3.04,7.67-2.36,2.52,.68,7.95,.05,8.12,1.03,.43,2.39-7.48,1.95-8.41,3.45-.84,1.35-.07,2.27,.08,2.43,.01,0,.02,.02,.03,.03,4.63,5.22,20.57,7.11,19.93,11.25-.24,1.55-10,6.39-12.82,6.33Z"></path><path fill="#2b478b" d="M186.83,571.17s36.51,94.28,52.82,103.27c16.32,8.99,90.76,2,90.76,2l.49-16.09s-64.12-14.19-70.31-25.93c-6.19-11.75-16.58-83.88-33.01-91.15-16.43-7.27-41.38,2.19-40.76,27.9Z"></path></g><g><path fill="#ffb93e" d="M1477.96,823.57c-.81,.55-1.63,1.08-2.46,1.6-.28,.17-.57,.35-.85,.51-.65,.38-1.29,.76-1.94,1.12-31.23,17.13-69.32,3.98-86.3-30.42-16.19-32.82-7.49-73.46,19.08-94.81,2.12-1.7,4.35-3.28,6.69-4.72,.84-.52,1.69-1.01,2.54-1.48,.83-.46,1.66-.9,2.5-1.32,2.57-1.28,5.18-2.36,7.81-3.24,3.92-1.32,7.89-2.21,11.87-2.67,12.35-1.46,24.78,1.06,35.8,7.08,11.69,6.39,21.8,16.72,28.57,30.42,17.02,34.5,6.53,77.65-23.31,97.93Z"></path><path fill="#ffa412" d="M1444.26,828.52c-21.8,0-41.87-13.23-52.38-34.54-7.7-15.61-9.51-33.65-5.07-50.77,4.44-17.13,14.58-31.3,28.55-39.91,8.82-5.43,18.78-8.31,28.79-8.31,21.8,0,41.87,13.23,52.38,34.54,7.7,15.61,9.51,33.65,5.07,50.77-4.44,17.13-14.58,31.3-28.55,39.91-8.82,5.43-18.78,8.31-28.79,8.31Zm-.1-129.54c-9.41,0-18.78,2.7-27.07,7.81-13.14,8.09-22.68,21.42-26.85,37.53-4.17,16.11-2.48,33.06,4.77,47.74,9.89,20.03,28.76,32.48,49.26,32.48,9.41,0,18.78-2.7,27.07-7.81,13.14-8.09,22.68-21.42,26.85-37.53,4.17-16.11,2.48-33.06-4.77-47.74-9.89-20.03-28.76-32.48-49.26-32.48Z"></path><polygon fill="#ffa412" points="1444.21 712.61 1457.38 742.44 1486.85 747.22 1465.53 770.44 1470.56 803.22 1444.21 787.74 1417.85 803.22 1422.89 770.44 1401.56 747.22 1431.03 742.44 1444.21 712.61"></polygon></g><g><path fill="#ffb93e" d="M1517.26,645.27c-.46,.31-.92,.61-1.39,.9-.16,.1-.32,.2-.48,.29-.37,.22-.73,.43-1.1,.63-17.63,9.67-39.12,2.25-48.71-17.17-9.14-18.52-4.23-41.46,10.77-53.51,1.2-.96,2.45-1.85,3.78-2.67,.47-.29,.95-.57,1.43-.84,.47-.26,.94-.51,1.41-.74,1.45-.72,2.92-1.33,4.41-1.83,2.21-.74,4.45-1.24,6.7-1.51,6.97-.83,13.99,.6,20.21,4,6.6,3.6,12.31,9.44,16.12,17.17,9.61,19.47,3.69,43.83-13.16,55.27Z"></path><path fill="#ffa412" d="M1498.24,648.07c-12.3,0-23.63-7.47-29.56-19.49-4.35-8.81-5.36-18.99-2.86-28.66,2.5-9.67,8.23-17.67,16.11-22.52,4.98-3.07,10.6-4.69,16.25-4.69,12.3,0,23.63,7.47,29.56,19.49,4.35,8.81,5.37,18.99,2.86,28.66-2.5,9.67-8.23,17.67-16.11,22.52-4.98,3.07-10.6,4.69-16.25,4.69Zm-.06-73.11c-5.31,0-10.6,1.52-15.28,4.41-7.42,4.57-12.8,12.09-15.15,21.18-2.35,9.09-1.4,18.66,2.69,26.95,5.58,11.31,16.23,18.33,27.8,18.33,5.31,0,10.6-1.52,15.28-4.41,7.42-4.57,12.8-12.09,15.15-21.18,2.35-9.09,1.4-18.66-2.69-26.95-5.58-11.31-16.23-18.33-27.8-18.33Z"></path><polygon fill="#ffa412" points="1498.21 582.65 1505.64 599.49 1522.27 602.19 1510.24 615.29 1513.08 633.79 1498.21 625.06 1483.33 633.79 1486.17 615.29 1474.14 602.19 1490.77 599.49 1498.21 582.65"></polygon></g><g><path fill="#cde0fb" d="M882.41,109.49c-.27,.37-.55,.74-.84,1.1-.1,.12-.19,.24-.29,.36-.22,.27-.45,.54-.68,.8-11.01,12.55-29.02,13.35-40.89,1.53-11.32-11.27-13.09-30.06-4.63-43.63,.67-1.08,1.41-2.13,2.22-3.14,.29-.36,.58-.72,.88-1.06,.29-.34,.59-.66,.89-.98,.92-.98,1.89-1.87,2.89-2.69,1.49-1.22,3.07-2.27,4.7-3.14,5.07-2.7,10.71-3.71,16.22-3,5.85,.76,11.55,3.46,16.28,8.17,11.91,11.85,13.24,32.01,3.25,45.67Z"></path><path fill="#afcdfb" d="M859.66,118.99c-6.63,0-12.95-2.68-17.94-7.65-5.39-5.36-8.58-12.75-9-20.8-.42-8.05,2-15.8,6.8-21.81,4.8-6.02,11.41-9.59,18.62-10.05,7.2-.47,14.14,2.23,19.53,7.6s8.58,12.75,9,20.8c.42,8.05-2,15.8-6.8,21.81-4.8,6.02-11.41,9.59-18.62,10.05-.53,.03-1.06,.05-1.59,.05Zm.07-58.56c-.5,0-1,.02-1.5,.05-6.77,.44-12.99,3.79-17.51,9.45-4.51,5.66-6.78,12.95-6.39,20.51,.39,7.57,3.4,14.51,8.46,19.56,5.07,5.04,11.59,7.58,18.36,7.14,6.77-.44,12.99-3.79,17.51-9.45,4.51-5.66,6.78-12.95,6.39-20.51-.39-7.57-3.4-14.51-8.46-19.56-4.69-4.67-10.63-7.19-16.87-7.19Z"></path><polygon fill="#afcdfb" points="853.07 67.85 862.71 78.36 875.92 75.44 869.95 88.93 876.51 102.06 863.19 99.89 854.04 110.92 851.77 96.09 839.55 89.78 851.47 82.79 853.07 67.85"></polygon></g><g><path fill="#cde0fb" d="M795.7,1001.29c-.48,.66-.98,1.31-1.49,1.96-.17,.22-.35,.43-.52,.64-.4,.49-.8,.96-1.21,1.43-19.66,22.43-51.84,23.85-73.04,2.74-20.23-20.13-23.38-53.7-8.27-77.93,1.2-1.93,2.52-3.81,3.96-5.61,.52-.65,1.04-1.28,1.58-1.89,.52-.6,1.05-1.18,1.59-1.75,1.65-1.74,3.38-3.35,5.17-4.81,2.67-2.18,5.48-4.05,8.4-5.6,9.06-4.82,19.13-6.63,28.97-5.35,10.44,1.35,20.63,6.19,29.07,14.59,21.27,21.17,23.66,57.18,5.81,81.58Z"></path><path fill="#afcdfb" d="M755.07,1018.27c-11.84,0-23.12-4.79-32.04-13.66-9.62-9.58-15.33-22.77-16.08-37.15-.74-14.38,3.57-28.21,12.14-38.96,8.57-10.75,20.38-17.13,33.25-17.96,12.86-.84,25.25,3.99,34.88,13.57,9.62,9.58,15.33,22.77,16.08,37.15,.74,14.38-3.57,28.21-12.15,38.97-8.57,10.75-20.38,17.13-33.25,17.96-.95,.06-1.9,.09-2.84,.09Zm.12-104.61c-.89,0-1.78,.03-2.67,.09-12.1,.78-23.21,6.78-31.27,16.89-8.06,10.11-12.12,23.12-11.42,36.64,.7,13.52,6.07,25.92,15.12,34.93,9.05,9.01,20.7,13.54,32.8,12.76,12.1-.78,23.2-6.78,31.27-16.89,8.06-10.11,12.12-23.12,11.42-36.64-.7-13.52-6.07-25.92-15.12-34.93-8.38-8.34-18.99-12.84-30.13-12.84Z"></path><polygon fill="#afcdfb" points="743.31 926.92 760.52 945.68 784.11 940.48 773.46 964.56 785.18 988.02 761.38 984.14 745.03 1003.84 740.98 977.37 719.16 966.08 740.45 953.59 743.31 926.92"></polygon></g><path fill="#2e3552" d="M1.58,1022.99H1548.6c.87,0,1.58,.71,1.58,1.58v1.44c0,.87-.71,1.58-1.58,1.58H1.58C.71,1027.59,0,1026.88,0,1026.01v-1.44c0-.87,.71-1.58,1.58-1.58Z"></path><g><path fill="#6bb7bf" d="M961.65,619.83s-7.33,5.59-15.49,4.67c-6.05-.68-12.02-6.94-12.25-7.36l-4.83,9.37s11.03,7.47,20.49,5.43c2.9-.63,7.6-3.84,9.72-6.25,2.34-2.66,2.35-5.85,2.35-5.85Z"></path><path fill="#86d1cd" d="M961.45,600.31l12.12-5.61s-1.66,28.15-22.48,36.75c0,0,13.15-19.27,10.36-31.14Z"></path></g><path fill="#f99746" d="M1046.51,936.78s5.29,6.7,10.5,6.57c0,0,.7,7.32-1.19,9.27,0,0-8.91-1.82-11.06-5.46,0,0-1.8-8.74,1.75-10.38Z"></path><g><path fill="#cde0fb" d="M963.45,844.68s-4.79-6.5-4.72-14.28c.05-5.77,4.33-11.89,4.63-12.14l-7.47-3.84s-4.81,11-2.53,19.78c.7,2.69,3.49,6.88,5.48,8.7,2.19,2,4.61,1.77,4.61,1.77Z"></path><path fill="#cde0fb" d="M978.22,842.99l5.18,11.02s-21.44,.59-29.55-18.42c0,0,15.6,10.95,24.37,7.4Z"></path></g></g></g></g></svg>