<?xml version="1.0" standalone="no"?><!DOCTYPE svg PUBLIC "-//W3C//DTD SVG 1.1//EN" "http://www.w3.org/Graphics/SVG/1.1/DTD/svg11.dtd"><svg height="3500" legacy-metrics="false" node-id="1" sillyvg="true" template-height="3500" template-width="4500" version="1.1" viewBox="0 0 4500 3500" width="4500" xmlns="http://www.w3.org/2000/svg" xmlns:xlink="http://www.w3.org/1999/xlink"><defs node-id="77"></defs><path d="M 2341.65 415.42 C 2626.18 414.60 2976.91 495.26 3206.23 766.98 C 3313.84 894.48 3367.73 1014.27 3390.42 1124.99 C 3521.54 1235.06 3597.35 1397.42 3597.58 1568.61 C 3597.38 1674.48 3568.22 1778.29 3513.25 1868.77 C 3737.68 1954.73 3885.89 2170.14 3885.95 2410.47 C 3885.68 2572.21 3817.91 2726.49 3698.99 2836.12 C 3695.26 2842.20 3692.98 2845.54 3692.98 2845.54 L 3976.65 3093.03 L 476.65 3093.03 C 476.65 3093.03 617.84 3054.76 741.11 2989.38 C 665.00 2922.09 621.35 2825.44 621.18 2723.86 C 621.34 2577.40 711.38 2446.06 847.91 2393.10 C 732.70 2280.74 667.71 2126.64 667.69 1965.71 C 668.25 1754.07 780.81 1558.54 963.55 1451.77 C 928.01 1378.34 909.44 1297.87 909.21 1216.29 C 909.21 915.75 1152.85 672.10 1453.39 672.10 C 1453.39 672.10 1453.39 672.10 1453.39 672.10 C 1520.91 672.11 1587.84 684.67 1650.76 709.16 C 1726.52 616.52 1817.80 554.77 1903.84 500.58 C 1972.58 457.28 2140.59 416.01 2341.65 415.42 L 2341.65 415.42 Z" fill="#f2f4ff" fill-rule="nonzero" id="path20057-52" node-id="4" stroke="none" target-height="2677.608" target-width="3500" target-x="476.651" target-y="415.424"></path><path d="M 823.37 1970.31 C 976.92 1970.69 1111.37 2002.61 1188.28 2090.71 C 1461.72 2403.95 1411.54 2555.82 1746.42 2579.08 C 2081.30 2602.34 2304.25 2522.12 2427.66 2807.58 C 2530.56 3045.58 2870.99 2944.50 3043.33 3093.03 L 476.65 3093.03 C 476.65 3093.03 617.84 3054.76 741.11 2989.38 C 665.00 2922.09 621.35 2825.44 621.18 2723.85 C 621.34 2577.40 711.38 2446.06 847.91 2393.09 C 736.22 2283.92 671.76 2135.32 668.35 1979.17 C 721.17 1973.44 773.28 1970.19 823.37 1970.31 L 823.37 1970.31 Z" fill="#e7eaff" fill-rule="nonzero" id="path20059-1" node-id="5" stroke="none" target-height="1122.717" target-width="2566.679" target-x="476.652" target-y="1970.314"></path><path d="M 1274.10 406.99 L 2373.43 406.99 C 2502.97 406.99 2607.25 511.27 2607.25 640.80 L 2607.25 2859.21 C 2607.25 2988.75 2502.92 3089.59 2373.43 3093.03 L 1835.68 3093.03 L 1274.10 3093.03 C 1144.56 3093.03 1040.28 2988.75 1040.28 2859.21 L 1040.28 640.80 C 1040.28 511.27 1144.56 406.99 1274.10 406.99 Z" fill="#b7bbff" fill-rule="nonzero" id="rect25806-8" node-id="6" stroke="none" target-height="2686.044" target-width="1566.9729" target-x="1040.279" target-y="406.986"></path><path d="M 1385.14 622.34 L 2262.39 622.34 C 2365.76 622.34 2448.98 705.55 2448.98 808.92 L 2448.98 2579.18 C 2448.98 2682.55 2365.72 2763.01 2262.39 2765.76 L 1833.27 2765.76 L 1385.14 2765.76 C 1281.77 2765.76 1198.56 2682.55 1198.56 2579.18 L 1198.56 808.92 C 1198.56 705.55 1281.77 622.34 1385.14 622.34 Z" fill="#f2f4ff" fill-rule="nonzero" id="path25898-5" node-id="7" stroke="none" target-height="2143.4219" target-width="1250.421" target-x="1198.555" target-y="622.339"></path><path d="M 1281.29 406.99 L 1562.60 406.99 L 1562.60 840.98 L 975.53 840.98 C 1009.80 637.77 1016.66 406.99 1281.29 406.99 Z" fill="#b7bbff" fill-rule="nonzero" id="rect25808-5" node-id="8" stroke="none" target-height="433.99203" target-width="587.07404" target-x="975.529" target-y="406.986"></path><path d="M 1562.60 406.99 L 2084.93 406.99 L 2084.93 840.98 L 1562.60 840.98 L 1562.60 406.99 Z" fill="#e3e1ff" fill-rule="nonzero" id="rect25810-2" node-id="9" stroke="none" target-height="433.99203" target-width="522.32495" target-x="1562.603" target-y="406.986"></path><path d="M 976.08 840.98 C 984.02 953.88 1079.45 1042.42 1194.55 1042.42 L 1345.93 1042.42 C 1461.04 1042.42 1554.67 953.88 1562.60 840.98 L 976.08 840.98 Z" fill="#a5a3ff" fill-rule="nonzero" id="rect25816-6" node-id="10" stroke="none" target-height="201.443" target-width="586.51807" target-x="976.084" target-y="840.978"></path><path d="M 1562.60 840.98 C 1570.54 953.88 1664.17 1042.42 1779.27 1042.42 L 1867.70 1042.42 C 1982.81 1042.42 2076.44 953.88 2084.37 840.98 L 1562.60 840.98 Z" fill="#b7bbff" fill-rule="nonzero" id="path25821-3" node-id="11" stroke="none" target-height="201.443" target-width="521.76904" target-x="1562.603" target-y="840.978"></path><path d="M 2366.24 406.99 L 2084.93 406.99 L 2084.93 840.98 L 2672.00 840.98 C 2637.73 637.77 2630.87 406.99 2366.24 406.99 Z" fill="#b7bbff" fill-rule="nonzero" id="path25828-5" node-id="12" stroke="none" target-height="433.99203" target-width="587.074" target-x="2084.928" target-y="406.986"></path><path d="M 2671.45 840.98 C 2663.51 953.88 2568.08 1042.42 2452.98 1042.42 L 2301.60 1042.42 C 2186.49 1042.42 2092.86 953.88 2084.93 840.98 L 2671.45 840.98 Z" fill="#a5a3ff" fill-rule="nonzero" id="path25830-3" node-id="13" stroke="none" target-height="201.443" target-width="586.51904" target-x="2084.928" target-y="840.978"></path><path d="M 1921.69 2927.70 C 1921.69 2981.78 1877.85 3025.63 1823.77 3025.63 C 1769.68 3025.63 1725.84 2981.78 1725.84 2927.70 C 1725.84 2873.61 1769.68 2829.77 1823.77 2829.77 C 1877.85 2829.77 1921.69 2873.61 1921.69 2927.70 Z" fill="#e3e1ff" fill-rule="nonzero" id="path25902-9" node-id="14" stroke="none" target-height="195.854" target-width="195.854" target-x="1725.838" target-y="2829.772"></path><path d="M 3315.23 2893.05 L 3259.10 2900.29 L 3259.10 2989.81 L 3308.78 2976.50 C 3308.78 2976.50 3352.59 2928.27 3315.23 2893.05 Z" fill="#f6cdc1" fill-rule="nonzero" id="path4172-9-42" node-id="15" stroke="none" target-height="96.75195" target-width="71.18823" target-x="3259.098" target-y="2893.055"></path><path d="M 3156.11 2456.16 C 3142.67 2520.86 3093.10 2575.66 2989.86 2613.20 C 2956.47 2625.34 2914.78 2628.94 2871.01 2627.51 C 2849.07 2778.81 2807.10 2999.70 2835.45 3044.93 C 2881.35 3126.77 3006.88 3079.77 3006.88 3079.77 L 3259.10 2989.81 L 3259.10 2900.29 L 2979.23 2937.10 C 2979.23 2937.10 3086.51 2717.01 3121.90 2628.54 C 3157.28 2540.06 3156.11 2456.17 3156.11 2456.16 L 3156.11 2456.16 Z" fill="#6584f7" fill-rule="nonzero" id="path4143-0-9" node-id="16" stroke="none" target-height="636.9983" target-width="433.12085" target-x="2825.977" target-y="2456.157"></path><path d="M 3159.00 2396.24 L 2522.47 2396.24 C 2522.47 2396.24 2468.28 2396.28 2436.20 2440.52 C 2404.13 2484.76 2412.98 2567.71 2426.25 2617.48 C 2439.52 2667.24 2536.34 2949.27 2536.34 2949.27 L 2629.83 2949.27 L 2588.81 2573.38 C 2588.81 2573.38 2856.04 2661.86 2989.86 2613.20 C 3123.68 2564.53 3167.34 2486.90 3159.00 2396.24 L 3159.00 2396.24 Z" fill="#6584f7" fill-rule="nonzero" id="path4136-2-9" node-id="17" stroke="none" target-height="553.021" target-width="745.76855" target-x="2414.2207" target-y="2396.245"></path><path d="M 3156.11 2456.16 C 3142.67 2520.86 3093.10 2575.66 2989.86 2613.20 C 2956.47 2625.34 2914.78 2628.94 2871.01 2627.51 C 2866.92 2655.70 2862.10 2686.57 2857.21 2718.00 C 2959.05 2702.03 3109.42 2655.28 3150.96 2518.60 C 3156.45 2481.33 3156.11 2456.16 3156.11 2456.16 Z" fill="#3362c4" fill-rule="nonzero" id="path4148-5-7" node-id="18" stroke="none" target-height="261.84106" target-width="298.89404" target-x="2857.212" target-y="2456.157"></path><path d="M 2645.87 3012.29 L 2629.83 2949.27 L 2554.32 2949.27 L 2536.34 2949.27 L 2558.55 3038.07 L 2645.87 3012.29 Z" fill="#f6c6c0" fill-rule="nonzero" id="path4153-0-90" node-id="19" stroke="none" target-height="88.799805" target-width="109.531006" target-x="2536.338" target-y="2949.266"></path><path d="M 2542.56 2974.15 L 2558.55 3038.07 L 2645.87 3012.29 L 2636.16 2974.15 L 2542.56 2974.15 Z" fill="#ffffff" fill-rule="nonzero" id="rect4159-1-3" node-id="20" stroke="none" target-height="63.91797" target-width="103.30713" target-x="2542.563" target-y="2974.148"></path><path d="M 2408.54 3093.04 L 2668.14 3093.04 L 2645.87 3012.29 L 2616.53 3004.26 C 2596.56 2984.98 2560.00 2980.25 2535.05 3008.67 C 2535.05 3008.67 2489.38 3041.52 2467.10 3042.08 C 2421.97 3042.08 2405.10 3050.72 2408.54 3093.04 Z" fill="#3d3d3d" fill-rule="nonzero" id="path4157-5-1" node-id="21" stroke="none" target-height="104.38965" target-width="260.0293" target-x="2408.1157" target-y="2988.6514"></path><path d="M 3315.23 2893.05 L 3283.24 2897.18 L 3291.97 2981.00 L 3308.78 2976.50 C 3308.78 2976.50 3352.59 2928.27 3315.23 2893.05 L 3315.23 2893.05 Z" fill="#ffffff" fill-rule="nonzero" id="path4174-3-45" node-id="22" stroke="none" target-height="87.94507" target-width="47.04712" target-x="3283.239" target-y="2893.055"></path><path d="M 3315.23 2893.05 C 3321.41 2917.06 3309.01 2957.34 3300.38 2962.33 C 3290.79 2966.37 3266.59 2981.20 3276.09 2997.26 C 3278.43 3021.48 3277.10 3033.85 3265.63 3041.74 C 3246.46 3054.93 3211.87 3057.18 3213.25 3093.04 L 3336.26 3093.04 C 3355.25 3093.04 3390.89 2984.11 3392.98 2921.72 C 3394.80 2888.33 3391.42 2884.98 3360.72 2888.24 L 3315.23 2893.05 Z" fill="#3d3d3d" fill-rule="nonzero" id="path4169-1-2" node-id="23" stroke="none" target-height="205.77588" target-width="180.10669" target-x="3213.247" target-y="2887.2651"></path><path d="M 2455.65 2710.38 C 2488.68 2810.43 2536.34 2949.27 2536.34 2949.27 L 2629.83 2949.27 L 2603.76 2710.38 L 2455.65 2710.38 Z" fill="#3362c4" fill-rule="nonzero" id="path15767-2-98" node-id="24" stroke="none" target-height="238.88818" target-width="174.17993" target-x="2455.654" target-y="2710.379"></path><path d="M 3259.10 2900.29 L 3065.31 2925.78 L 3065.31 3058.93 L 3259.10 2989.81 L 3259.10 2900.29 Z" fill="#3362c4" fill-rule="nonzero" id="path15772-5-06" node-id="25" stroke="none" target-height="158.63403" target-width="193.78491" target-x="3065.313" target-y="2900.291"></path><path d="M 3735.75 1797.32 C 3735.75 1951.65 3610.65 2076.76 3456.32 2076.76 C 3301.99 2076.76 3176.88 1951.65 3176.88 1797.32 C 3176.88 1642.99 3301.99 1517.89 3456.32 1517.89 C 3610.65 1517.89 3735.75 1643.00 3735.75 1797.32 L 3735.75 1797.32 Z" fill="#a5a3ff" fill-rule="nonzero" id="circle10041" node-id="26" stroke="none" target-height="558.8711" target-width="558.87085" target-x="3176.883" target-y="1517.888"></path><path d="M 3021.80 1350.32 C 3046.37 1437.25 3060.73 1539.37 3169.24 1662.80 C 3295.38 1756.96 3195.46 1961.27 3073.36 1953.13 C 2951.27 1944.99 2757.45 1953.31 2757.45 1953.31 L 2660.93 1920.75 C 2660.93 1920.75 2598.14 1816.10 2663.26 1734.71 C 2728.38 1653.31 2678.01 1421.74 2678.01 1421.74 C 2678.01 1421.74 2914.77 1307.11 3021.80 1350.32 L 3021.80 1350.32 Z" fill="#3d3d3d" fill-rule="nonzero" id="path25742-7" node-id="27" stroke="none" target-height="612.7803" target-width="593.8679" target-x="2633.7156" target-y="1340.575"></path><path d="M 2839.44 1672.64 C 2797.76 1672.51 2745.86 1680.81 2719.78 1718.13 C 2680.44 1760.16 2631.70 1786.42 2563.56 1861.51 C 2539.80 1887.69 2510.75 1953.43 2494.71 1988.64 C 2461.41 2061.71 2420.61 2144.13 2389.47 2229.27 L 2528.01 2238.02 L 2540.39 2216.19 C 2540.95 2216.93 2544.42 2213.55 2544.42 2213.55 L 2617.14 2138.84 C 2625.61 2163.84 2648.11 2183.04 2686.16 2192.16 L 2772.94 2396.25 L 3159.00 2396.25 C 3138.23 2276.78 3117.37 2157.32 3096.68 2037.84 C 3102.43 2037.08 3131.89 2077.61 3138.15 2076.70 C 3190.23 2069.12 3249.26 2004.99 3243.28 1989.78 C 3233.39 1964.60 3119.35 1744.55 3063.60 1711.28 C 3029.54 1690.95 2976.65 1683.30 2940.61 1680.41 C 2928.82 1678.89 2915.85 1678.29 2901.49 1678.66 C 2901.49 1678.66 2873.98 1672.76 2839.44 1672.64 L 2839.44 1672.64 Z" fill="#ff6853" fill-rule="nonzero" id="path25744-0" node-id="28" stroke="none" target-height="723.60706" target-width="854.178" target-x="2389.466" target-y="1672.64"></path><path d="M 2693.82 1450.49 L 2669.75 1511.36 C 2585.08 1502.18 2624.03 1310.12 2693.82 1450.49 Z" fill="#f69cb3" fill-rule="nonzero" id="path25746-3" node-id="29" stroke="none" target-height="111.999756" target-width="72.25464" target-x="2621.5684" target-y="1399.3643"></path><path d="M 2887.87 1511.36 C 2887.87 1511.36 2881.85 1594.12 2883.36 1630.23 C 2884.86 1666.35 2884.11 1685.91 2884.11 1685.91 L 2795.88 1766.13 L 2749.82 1723.15 L 2774.72 1630.21 L 2887.87 1511.36 Z" fill="#f6c6c0" fill-rule="nonzero" id="path25748-5" node-id="30" stroke="none" target-height="254.76196" target-width="138.05518" target-x="2749.816" target-y="1511.364"></path><path d="M 2887.87 1511.36 L 2774.72 1630.21 L 2755.88 1700.50 C 2774.22 1704.34 2794.29 1703.62 2808.88 1689.67 C 2843.48 1656.57 2854.02 1572.30 2854.02 1572.30 L 2887.87 1511.36 Z" fill="#f69cb3" fill-rule="nonzero" id="path25750-1" node-id="31" stroke="none" target-height="191.14185" target-width="131.98804" target-x="2755.883" target-y="1511.364"></path><path d="M 2887.87 1511.36 C 2972.54 1502.18 2933.60 1310.11 2863.80 1450.49 C 2845.05 1419.14 2805.80 1373.21 2827.09 1312.70 C 2764.04 1333.25 2711.73 1349.15 2644.09 1330.79 C 2617.15 1625.40 2764.99 1804.51 2887.87 1511.36 L 2887.87 1511.36 Z" fill="#f6c6c0" fill-rule="nonzero" id="path25752-4" node-id="32" stroke="none" target-height="348.2379" target-width="295.18848" target-x="2640.8662" target-y="1312.705"></path><path d="M 2884.11 1471.49 C 2883.73 1469.98 2888.25 1448.17 2900.66 1433.12 C 2913.07 1418.07 2923.61 1436.13 2923.61 1436.13 C 2923.61 1436.13 2912.32 1432.74 2905.93 1443.28 C 2899.53 1453.81 2920.97 1466.98 2901.04 1479.77 C 2881.10 1492.56 2884.11 1471.49 2884.11 1471.49 Z" fill="#f69cb3" fill-rule="nonzero" id="path25754-4" node-id="33" stroke="none" target-height="56.693848" target-width="39.628418" target-x="2883.9785" target-y="1427.1819"></path><path d="M 2795.88 1766.13 L 2884.06 1677.94 L 2883.70 1647.76 C 2914.55 1669.47 2918.44 1703.65 2913.60 1721.84 L 2857.75 1837.45 L 2795.88 1766.13 Z" fill="#ffffff" fill-rule="nonzero" id="path25756-3" node-id="34" stroke="none" target-height="189.69397" target-width="119.436035" target-x="2795.876" target-y="1647.758"></path><path d="M 2749.82 1723.15 L 2765.00 1666.55 C 2732.79 1674.23 2703.18 1719.35 2710.59 1749.15 C 2712.97 1757.96 2734.43 1834.62 2734.43 1834.62 L 2795.88 1766.13 L 2749.82 1723.15 Z" fill="#ffffff" fill-rule="nonzero" id="path25758-1" node-id="35" stroke="none" target-height="168.06494" target-width="86.40747" target-x="2709.4685" target-y="1666.552"></path><path d="M 2644.09 1345.33 C 2663.30 1417.03 2786.20 1512.31 2855.92 1481.62 L 2863.80 1450.49 C 2863.80 1450.49 2884.02 1405.68 2908.89 1399.52 C 2933.77 1393.35 3021.80 1350.32 3021.80 1350.32 C 3021.80 1350.32 2989.92 1212.60 2913.18 1159.69 C 2836.44 1106.79 2716.81 1161.74 2647.05 1204.19 C 2606.93 1228.59 2616.97 1279.30 2616.97 1279.30 C 2598.95 1318.83 2569.29 1351.39 2593.71 1397.90 C 2618.13 1444.41 2642.91 1452.35 2642.91 1452.35 C 2642.91 1452.35 2638.69 1392.94 2644.09 1345.33 L 2644.09 1345.33 Z" fill="#3d3d3d" fill-rule="nonzero" id="path25760-8" node-id="36" stroke="none" target-height="349.52942" target-width="437.30078" target-x="2584.5042" target-y="1137.9832"></path><path d="M 2686.16 2192.16 C 2720.89 2192.16 2765.04 2188.73 2809.97 2113.26 C 2845.49 2149.33 2888.29 2183.59 2974.91 2166.75 L 2750.57 2343.45 L 2686.16 2192.16 Z" fill="#e0523c" fill-rule="nonzero" id="path25764-0" node-id="37" stroke="none" target-height="230.19385" target-width="288.74902" target-x="2686.164" target-y="2113.257"></path><path d="M 2617.14 2138.84 L 2617.14 2066.68 L 2544.42 2213.55 L 2617.14 2138.84 Z" fill="#e0523c" fill-rule="nonzero" id="path25766-4" node-id="38" stroke="none" target-height="146.875" target-width="72.71484" target-x="2544.422" target-y="2066.675"></path><path d="M 3159.00 2396.24 C 3159.00 2396.24 3161.05 2413.25 3159.78 2425.02 C 3158.51 2436.78 3157.23 2446.32 3157.23 2446.32 L 2772.94 2396.24 L 3159.00 2396.24 Z" fill="#ffffff" fill-rule="nonzero" id="path25776-8" node-id="39" stroke="none" target-height="50.076904" target-width="387.24976" target-x="2772.943" target-y="2396.245"></path><path d="M 1979.07 1743.46 L 1853.34 1743.46 C 1820.04 1743.46 1793.23 1770.27 1793.23 1803.57 C 1793.23 1836.87 1820.04 1863.68 1853.34 1863.68 L 1979.07 1863.68 C 2012.37 1863.68 2039.17 1836.87 2039.17 1803.57 C 2039.17 1770.27 2012.37 1743.46 1979.07 1743.46 L 1979.07 1743.46 Z" fill="#b7bbff" fill-rule="nonzero" id="rect25787-8" node-id="40" stroke="none" target-height="120.21692" target-width="245.948" target-x="1793.226" target-y="1743.461"></path><path d="M 829.41 1154.81 L 1968.31 1154.81 C 2029.21 1154.81 2078.23 1203.84 2078.23 1264.73 L 2078.23 1963.56 C 2078.23 2024.46 2029.21 2073.48 1968.31 2073.48 L 829.41 2073.48 C 768.52 2073.48 719.49 2024.46 719.49 1963.56 L 719.49 1264.73 C 719.49 1203.84 768.52 1154.81 829.41 1154.81 L 829.41 1154.81 Z" fill="#e3e1ff" fill-rule="nonzero" id="rect8753" node-id="41" stroke="none" target-height="918.66504" target-width="1358.736" target-x="719.494" target-y="1154.814"></path><path d="M 2054.25 1958.26 C 2053.08 1953.08 2033.31 1917.81 2028.35 1896.15 C 2022.59 1870.98 2039.04 1852.56 2046.75 1865.90 C 2084.15 1919.75 2128.28 1958.34 2146.89 2021.81 C 2150.28 2031.12 2154.75 2042.27 2158.36 2050.22 C 2215.84 2081.29 2315.18 2130.28 2398.25 2180.98 C 2439.22 2205.99 2472.42 2236.55 2502.16 2255.51 C 2462.45 2297.00 2409.57 2314.56 2373.82 2299.34 C 2268.72 2253.16 2208.01 2178.65 2120.64 2100.25 L 2067.52 2075.79 C 2043.12 2060.46 2013.66 2003.71 2054.25 1958.26 Z" fill="#f6cdc1" fill-rule="nonzero" id="path14707" node-id="42" stroke="none" target-height="443.23706" target-width="475.01013" target-x="2027.1459" target-y="1861.5068"></path><path d="M 2509.14 2260.64 L 2528.01 2238.02 L 2411.18 2124.48 L 2398.25 2180.98 L 2509.14 2260.64 Z" fill="#ffffff" fill-rule="nonzero" id="path14709" node-id="43" stroke="none" target-height="136.16089" target-width="129.76587" target-x="2398.248" target-y="2124.478"></path><path d="M 3204.72 2002.96 C 3252.60 2005.55 3303.89 2060.57 3292.05 2097.59 C 3255.97 2206.16 3116.92 2270.21 3047.30 2363.74 C 3053.44 2390.17 3020.28 2397.60 2994.91 2397.60 L 2850.85 2396.75 C 2847.87 2396.87 2845.03 2396.74 2842.59 2395.40 C 2831.28 2388.82 2841.00 2374.96 2862.50 2362.18 C 2921.06 2332.92 2948.49 2333.59 2996.11 2325.08 C 3056.38 2251.76 3102.73 2175.57 3158.02 2096.13 C 3181.06 2063.04 3190.73 2030.20 3204.72 2002.96 L 3204.72 2002.96 Z" fill="#f6c6c0" fill-rule="nonzero" id="path4286-8" node-id="44" stroke="none" target-height="394.6349" target-width="455.9104" target-x="2837.8635" target-y="2002.961"></path><path d="M 3158.02 2096.14 L 3123.89 2076.02 L 3258.18 1948.32 L 3284.77 2022.36 L 3158.02 2096.14 Z" fill="#ffffff" fill-rule="nonzero" id="path4288-0" node-id="45" stroke="none" target-height="147.81897" target-width="160.875" target-x="3123.895" target-y="1948.316"></path><path d="M 1524.20 2289.53 L 2088.55 2289.53 C 2137.49 2289.53 2176.89 2328.92 2176.89 2377.86 L 2176.89 2506.95 C 2176.89 2555.89 2137.49 2595.29 2088.55 2595.29 L 1524.20 2595.29 C 1475.26 2595.29 1435.87 2555.89 1435.87 2506.95 L 1435.87 2377.86 C 1435.87 2328.92 1475.26 2289.53 1524.20 2289.53 Z" fill="#b7bbff" fill-rule="nonzero" id="rect9511" node-id="46" stroke="none" target-height="305.7622" target-width="741.02295" target-x="1435.866" target-y="2289.525"></path><path d="M 957.90 1888.23 L 1246.76 1888.95 C 1291.29 1889.07 1320.42 1852.92 1314.78 1808.74 L 1283.99 1567.53 C 1278.35 1523.36 1248.35 1487.06 1203.82 1486.94 L 1009.14 1486.45 C 964.62 1486.34 934.20 1522.46 928.56 1566.63 L 897.81 1807.70 C 892.18 1851.87 913.37 1888.11 957.90 1888.23 L 957.90 1888.23 Z" fill="#a5a3ff" fill-rule="nonzero" id="path9984" node-id="47" stroke="none" target-height="402.49805" target-width="418.52393" target-x="896.92444" target-y="1486.455"></path><path d="M 1086.85 1333.84 C 1041.88 1333.73 1004.74 1370.67 1004.63 1415.64 L 1004.23 1572.70 C 1003.98 1587.68 1016.03 1599.97 1031.02 1600.01 C 1046.00 1600.05 1058.11 1587.82 1057.94 1572.84 L 1058.33 1415.78 C 1058.37 1399.63 1070.57 1387.50 1086.71 1387.54 L 1128.36 1387.65 C 1144.50 1387.69 1156.64 1399.88 1156.60 1416.03 L 1156.20 1573.09 C 1155.95 1588.07 1168.01 1600.35 1182.99 1600.39 C 1197.97 1600.43 1210.08 1588.20 1209.91 1573.22 L 1210.30 1416.16 C 1210.41 1371.19 1173.46 1334.06 1128.49 1333.94 L 1086.85 1333.84 Z" fill="#cecfff" fill-rule="nonzero" id="path9986" node-id="48" stroke="none" target-height="266.55005" target-width="206.07" target-x="1004.232" target-y="1333.839"></path><path d="M 1835.84 1339.95 L 1835.39 1396.33 L 1431.43 1396.33 L 1431.87 1339.95 L 1835.84 1339.95 Z" fill="#b7bbff" fill-rule="nonzero" id="path9988" node-id="49" stroke="none" target-height="56.37793" target-width="404.41296" target-x="1431.426" target-y="1339.947"></path><path d="M 1660.36 1494.26 L 1660.22 1550.64 L 1431.43 1550.64 L 1431.57 1494.26 L 1660.36 1494.26 Z" fill="#b7bbff" fill-rule="nonzero" id="path9990" node-id="50" stroke="none" target-height="56.380005" target-width="228.93506" target-x="1431.427" target-y="1494.263"></path><path d="M 1787.54 1636.70 L 1787.33 1693.08 L 1431.43 1693.08 L 1431.65 1636.70 L 1787.54 1636.70 Z" fill="#b7bbff" fill-rule="nonzero" id="path9992" node-id="51" stroke="none" target-height="56.37903" target-width="356.115" target-x="1431.428" target-y="1636.705"></path><path d="M 1908.15 2352.98 L 1908.15 2352.98 C 1902.56 2352.98 1896.99 2355.03 1892.90 2358.81 C 1892.88 2358.83 1892.85 2358.86 1892.83 2358.88 C 1888.89 2362.62 1886.44 2368.02 1886.44 2373.46 C 1886.44 2377.15 1887.48 2380.59 1889.07 2384.10 C 1889.09 2384.14 1889.11 2384.19 1889.13 2384.24 C 1890.74 2387.61 1893.12 2391.74 1896.41 2396.99 C 1896.43 2397.02 1896.45 2397.04 1896.46 2397.07 L 1931.87 2451.95 L 1931.87 2497.26 C 1931.87 2504.68 1933.51 2511.46 1938.07 2516.46 C 1938.09 2516.48 1938.11 2516.50 1938.13 2516.52 C 1942.33 2521.03 1948.49 2523.47 1954.70 2523.47 C 1960.91 2523.47 1967.06 2520.94 1971.27 2516.42 C 1975.90 2511.46 1977.64 2504.65 1977.64 2497.26 L 1977.64 2451.97 L 2013.89 2396.35 L 2013.91 2396.33 C 2017.14 2391.49 2019.48 2387.64 2021.06 2384.40 C 2022.80 2380.83 2023.78 2376.96 2023.78 2373.05 C 2023.78 2367.78 2021.34 2362.60 2017.56 2358.97 C 2013.67 2355.11 2008.17 2352.98 2002.69 2352.98 C 1999.31 2352.98 1995.94 2353.59 1992.90 2355.18 C 1990.18 2356.59 1987.83 2358.59 1985.86 2360.94 C 1985.85 2360.95 1985.84 2360.96 1985.83 2360.97 C 1984.21 2362.91 1982.73 2365.00 1981.38 2367.22 C 1980.22 2369.12 1978.80 2371.47 1977.09 2374.27 L 1955.36 2409.19 L 1933.85 2374.26 L 1933.84 2374.24 C 1929.47 2367.11 1926.33 2362.40 1923.25 2359.10 C 1919.47 2354.89 1913.75 2352.98 1908.15 2352.98 Z M 1747.39 2352.98 C 1741.14 2352.98 1734.94 2355.51 1730.76 2360.09 C 1730.74 2360.12 1730.72 2360.14 1730.70 2360.16 C 1726.28 2365.14 1724.66 2371.81 1724.66 2379.09 L 1724.66 2451.22 C 1724.66 2463.10 1725.93 2473.57 1728.66 2482.69 C 1728.67 2482.70 1728.67 2482.70 1728.67 2482.71 C 1731.43 2491.84 1735.92 2499.75 1742.15 2505.97 C 1742.16 2505.99 1742.18 2506.00 1742.19 2506.01 C 1748.44 2512.18 1756.43 2516.64 1765.72 2519.46 C 1765.74 2519.46 1765.76 2519.47 1765.78 2519.48 C 1775.03 2522.21 1785.65 2523.47 1797.73 2523.47 C 1808.03 2523.47 1817.27 2522.25 1825.45 2519.63 C 1833.69 2516.98 1841.09 2512.70 1847.36 2506.90 C 1847.37 2506.89 1847.38 2506.88 1847.39 2506.87 C 1854.63 2500.09 1859.78 2491.89 1862.42 2482.70 C 1865.02 2473.87 1866.19 2463.43 1866.19 2451.22 L 1866.19 2379.09 C 1866.19 2371.73 1864.46 2364.95 1859.81 2360.04 C 1855.61 2355.47 1849.42 2352.98 1843.16 2352.98 C 1836.88 2352.98 1830.64 2355.50 1826.50 2360.14 C 1822.02 2365.09 1820.43 2371.77 1820.43 2379.09 L 1820.43 2453.47 C 1820.43 2465.31 1818.05 2473.14 1814.67 2477.50 C 1811.61 2481.40 1806.08 2483.94 1795.58 2483.94 C 1787.93 2483.94 1782.73 2482.50 1779.72 2480.57 C 1776.35 2478.34 1774.22 2475.61 1772.81 2471.51 C 1771.32 2466.91 1770.43 2460.67 1770.43 2452.86 L 1770.43 2379.09 C 1770.43 2371.80 1768.75 2365.09 1764.26 2360.14 C 1760.07 2355.45 1753.76 2352.98 1747.39 2352.98 L 1747.39 2352.98 Z M 1641.37 2355.54 L 1592.77 2355.54 C 1585.13 2355.54 1578.15 2357.26 1573.21 2362.19 C 1568.25 2367.15 1566.66 2374.12 1566.66 2381.85 L 1566.66 2494.60 C 1566.66 2502.19 1568.24 2509.05 1572.92 2514.07 C 1572.96 2514.11 1573.00 2514.15 1573.04 2514.19 C 1577.98 2519.24 1585.02 2520.91 1592.77 2520.91 L 1638.60 2520.91 C 1646.76 2520.91 1653.98 2520.53 1660.34 2519.73 C 1660.37 2519.72 1660.40 2519.72 1660.42 2519.71 C 1666.90 2518.82 1672.79 2517.32 1678.10 2515.10 C 1678.14 2515.08 1678.18 2515.07 1678.22 2515.05 C 1686.81 2511.27 1693.93 2505.21 1698.99 2497.33 C 1699.00 2497.32 1699.01 2497.31 1699.01 2497.30 C 1704.08 2489.33 1706.66 2480.15 1706.66 2470.45 C 1706.66 2459.99 1703.66 2450.41 1697.56 2442.86 C 1694.23 2438.73 1689.94 2435.39 1685.08 2432.53 C 1694.26 2424.41 1699.60 2413.49 1699.60 2400.88 C 1699.60 2395.68 1698.74 2390.62 1696.99 2385.87 C 1695.26 2381.09 1692.70 2376.68 1689.41 2372.80 C 1686.16 2368.91 1682.35 2365.64 1678.07 2363.08 C 1673.03 2360.03 1667.36 2358.00 1661.27 2356.97 C 1655.45 2355.99 1648.85 2355.54 1641.37 2355.54 Z M 1612.43 2393.74 L 1629.40 2393.74 C 1639.87 2393.74 1647.23 2395.13 1650.80 2396.79 C 1650.82 2396.81 1650.84 2396.82 1650.87 2396.83 C 1653.54 2398.05 1654.45 2399.12 1654.45 2404.87 C 1654.45 2407.18 1653.96 2408.89 1652.97 2410.55 C 1652.92 2410.64 1652.87 2410.73 1652.82 2410.82 C 1651.43 2413.39 1650.02 2414.56 1647.56 2415.40 C 1647.55 2415.41 1647.54 2415.41 1647.53 2415.42 C 1644.83 2416.36 1639.66 2417.13 1632.57 2417.13 L 1612.43 2417.13 L 1612.43 2393.74 Z M 1612.43 2454.31 C 1613.94 2454.75 1615.14 2454.69 1616.17 2454.31 L 1636.36 2454.31 C 1646.10 2454.31 1652.68 2456.05 1656.05 2458.21 C 1659.19 2460.22 1660.49 2462.43 1660.49 2468.21 C 1660.49 2473.83 1659.14 2476.34 1655.98 2478.62 C 1652.82 2480.90 1646.72 2482.72 1637.38 2482.72 L 1612.43 2482.72 L 1612.43 2454.31 Z" fill="#f2f4ff" fill-rule="nonzero" id="text9996" node-id="52" stroke="none" target-height="170.49292" target-width="457.11902" target-x="1566.662" target-y="2352.979"></path><g node-id="79"><path d="M 679.91 2412.69 L 680.10 2419.44 L 679.76 2425.98 L 678.92 2432.36 L 677.58 2438.57 L 675.74 2444.70 L 673.47 2450.56 L 670.78 2456.19 L 667.64 2461.61 L 664.10 2466.77 L 660.21 2471.61 L 655.97 2476.13 L 651.35 2480.36 L 646.43 2484.22 L 641.23 2487.67 L 635.74 2490.74 L 629.93 2493.41 L 623.96 2495.61 L 617.77 2497.34 L 611.34 2498.58 L 604.63 2499.34 L 597.89 2499.53 L 591.34 2499.19 L 584.97 2498.35 L 578.75 2497.01 L 572.63 2495.17 L 566.77 2492.90 L 561.13 2490.21 L 555.72 2487.07 L 550.56 2483.53 L 545.72 2479.64 L 541.19 2475.40 L 536.97 2470.78 L 533.11 2465.86 L 529.65 2460.66 L 526.59 2455.17 L 523.91 2449.36 L 521.71 2443.39 L 519.99 2437.20 L 518.75 2430.77 L 517.99 2424.06 L 517.80 2417.32 L 518.14 2410.77 L 518.98 2404.40 L 520.32 2398.18 L 522.16 2392.06 L 524.43 2386.20 L 527.12 2380.56 L 530.25 2375.15 L 533.79 2369.99 L 537.68 2365.15 L 541.93 2360.62 L 546.55 2356.40 L 551.47 2352.54 L 556.67 2349.08 L 562.16 2346.02 L 567.97 2343.34 L 573.94 2341.14 L 580.13 2339.42 L 586.56 2338.18 L 593.27 2337.42 L 600.01 2337.23 L 606.55 2337.56 L 612.93 2338.41 L 619.14 2339.75 L 625.27 2341.59 L 631.13 2343.86 L 636.76 2346.55 L 642.18 2349.68 L 647.34 2353.22 L 652.18 2357.11 L 656.70 2361.36 L 660.93 2365.98 L 664.79 2370.90 L 668.24 2376.10 L 671.31 2381.59 L 673.98 2387.40 L 676.18 2393.37 L 677.91 2399.56 L 679.15 2405.99 L 679.91 2412.69 L 679.91 2412.69 Z" fill="#cecfff" fill-rule="nonzero" group-id="1" id="path10011" node-id="54" stroke-linecap="butt" stroke-width="1" target-height="162.29346" target-width="162.2926" target-x="517.803" target-y="2337.2317"></path><path d="M 761.46 2561.14 L 761.75 2569.31 L 761.50 2577.29 L 760.74 2585.09 L 759.45 2592.74 L 757.66 2600.32 L 755.41 2607.66 L 752.71 2614.79 L 749.56 2621.70 L 745.96 2628.41 L 741.97 2634.83 L 737.59 2640.96 L 732.82 2646.83 L 727.68 2652.38 L 722.22 2657.57 L 716.42 2662.41 L 710.28 2666.91 L 703.87 2671.00 L 697.20 2674.67 L 690.24 2677.92 L 682.98 2680.76 L 675.59 2683.10 L 667.97 2684.95 L 660.10 2686.30 L 651.98 2687.16 L 643.81 2687.45 L 635.83 2687.20 L 628.03 2686.43 L 620.38 2685.15 L 612.80 2683.36 L 605.45 2681.11 L 598.33 2678.41 L 591.42 2675.25 L 584.71 2671.65 L 578.29 2667.67 L 572.16 2663.29 L 566.29 2658.52 L 560.74 2653.38 L 555.55 2647.91 L 550.71 2642.12 L 546.21 2635.98 L 542.12 2629.57 L 538.45 2622.90 L 535.20 2615.94 L 532.36 2608.68 L 530.02 2601.29 L 528.17 2593.67 L 526.82 2585.80 L 525.96 2577.68 L 525.67 2569.51 L 525.92 2561.53 L 526.69 2553.73 L 527.97 2546.08 L 529.76 2538.50 L 532.01 2531.15 L 534.71 2524.03 L 537.86 2517.12 L 541.46 2510.41 L 545.45 2503.99 L 549.83 2497.86 L 554.60 2491.99 L 559.74 2486.44 L 565.20 2481.25 L 571.00 2476.41 L 577.14 2471.91 L 583.55 2467.82 L 590.22 2464.15 L 597.18 2460.90 L 604.44 2458.06 L 611.83 2455.72 L 619.45 2453.87 L 627.32 2452.52 L 635.44 2451.66 L 643.61 2451.37 L 651.59 2451.62 L 659.39 2452.38 L 667.04 2453.67 L 674.62 2455.46 L 681.97 2457.71 L 689.09 2460.41 L 696.00 2463.56 L 702.71 2467.16 L 709.13 2471.15 L 715.26 2475.52 L 721.13 2480.30 L 726.68 2485.44 L 731.87 2490.90 L 736.71 2496.70 L 741.21 2502.84 L 745.30 2509.25 L 748.97 2515.92 L 752.22 2522.88 L 755.06 2530.13 L 757.40 2537.53 L 759.25 2545.15 L 760.60 2553.01 L 761.46 2561.14 Z" fill="#cecfff" fill-rule="nonzero" group-id="1" id="path10013" node-id="55" stroke-linecap="butt" stroke-width="1" target-height="236.07495" target-width="236.0744" target-x="525.6731" target-y="2451.3713"></path><path d="M 737.02 2244.95 L 733.39 2245.04 L 730.01 2245.63 L 726.82 2246.71 L 723.82 2248.24 L 721.13 2250.14 L 718.73 2252.43 L 716.67 2255.03 L 715.02 2257.87 L 713.76 2261.00 L 712.97 2264.27 L 712.69 2267.69 L 712.93 2271.32 L 713.98 2279.69 L 716.81 2303.30 L 720.90 2339.91 L 725.76 2387.24 L 728.27 2413.79 L 730.86 2443.05 L 733.33 2473.12 L 735.71 2505.09 L 737.87 2537.55 L 739.80 2571.08 L 741.40 2604.83 L 742.62 2638.79 L 743.40 2672.69 L 743.66 2705.95 L 743.53 2728.07 L 743.11 2749.51 L 742.42 2770.30 L 742.45 2773.52 L 742.89 2776.57 L 743.73 2779.49 L 744.94 2782.27 L 746.47 2784.82 L 748.33 2787.17 L 750.47 2789.25 L 752.86 2791.04 L 755.50 2792.53 L 758.32 2793.66 L 761.31 2794.40 L 764.51 2794.76 L 767.73 2794.66 L 770.77 2794.17 L 773.67 2793.27 L 776.43 2792.00 L 778.95 2790.42 L 781.26 2788.52 L 783.30 2786.33 L 785.03 2783.92 L 786.47 2781.24 L 787.54 2778.41 L 788.23 2775.40 L 788.52 2772.19 L 789.24 2750.67 L 789.68 2728.56 L 789.83 2705.84 L 789.57 2671.70 L 788.80 2637.05 L 787.57 2602.38 L 785.96 2568.04 L 784.01 2533.95 L 781.82 2501.04 L 779.40 2468.66 L 776.90 2438.25 L 774.27 2408.68 L 771.72 2381.91 L 766.79 2334.23 L 762.63 2297.42 L 759.75 2273.71 L 758.68 2265.31 L 757.95 2261.65 L 756.71 2258.30 L 754.98 2255.21 L 752.79 2252.42 L 750.25 2250.03 L 747.33 2248.02 L 744.14 2246.48 L 740.72 2245.46 L 737.02 2244.95 L 737.02 2244.95 Z" fill="#a5a3ff" fill-rule="nonzero" group-id="1" id="path10015" node-id="56" stroke-linecap="butt" stroke-width="1" target-height="549.80786" target-width="77.13904" target-x="712.6878" target-y="2244.95"></path><path d="M 629.75 2476.02 L 626.14 2476.43 L 622.82 2477.31 L 619.74 2478.66 L 616.89 2480.45 L 614.37 2482.58 L 612.18 2485.06 L 610.35 2487.83 L 608.95 2490.81 L 607.97 2494.03 L 607.47 2497.36 L 607.49 2500.79 L 608.04 2504.38 L 609.82 2512.63 L 614.69 2535.91 L 621.94 2572.02 L 630.89 2618.76 L 635.70 2644.98 L 640.82 2673.91 L 645.89 2703.66 L 651.04 2735.29 L 656.01 2767.44 L 660.85 2800.68 L 665.37 2834.16 L 669.54 2867.88 L 673.25 2901.59 L 676.41 2934.70 L 678.20 2956.75 L 679.64 2978.15 L 680.76 2998.92 L 681.07 3002.13 L 681.77 3005.13 L 682.86 3007.96 L 684.31 3010.63 L 686.06 3013.04 L 688.11 3015.21 L 690.43 3017.10 L 692.96 3018.67 L 695.72 3019.93 L 698.62 3020.81 L 701.67 3021.29 L 704.89 3021.37 L 708.09 3020.99 L 711.08 3020.23 L 713.89 3019.09 L 716.53 3017.59 L 718.90 3015.79 L 721.03 3013.70 L 722.88 3011.34 L 724.40 3008.78 L 725.60 3005.99 L 726.42 3003.07 L 726.84 3000.02 L 726.86 2996.80 L 725.70 2975.30 L 724.21 2953.23 L 722.39 2930.58 L 719.17 2896.59 L 715.39 2862.14 L 711.16 2827.71 L 706.57 2793.64 L 701.66 2759.85 L 696.63 2727.25 L 691.40 2695.20 L 686.27 2665.13 L 681.08 2635.90 L 676.22 2609.45 L 667.16 2562.37 L 659.82 2526.07 L 654.90 2502.69 L 653.10 2494.42 L 652.05 2490.84 L 650.53 2487.61 L 648.53 2484.68 L 646.11 2482.09 L 643.37 2479.94 L 640.29 2478.19 L 636.98 2476.93 L 633.48 2476.21 L 629.75 2476.02 L 629.75 2476.02 Z" fill="#cecfff" fill-rule="nonzero" group-id="1" id="path10017" node-id="57" stroke-linecap="butt" stroke-width="1" target-height="545.343" target-width="119.384094" target-x="607.4712" target-y="2476.024"></path><path d="M 893.50 2506.68 L 897.09 2507.16 L 900.39 2508.12 L 903.45 2509.54 L 906.26 2511.39 L 908.72 2513.57 L 910.86 2516.11 L 912.63 2518.91 L 913.96 2521.92 L 914.87 2525.17 L 915.29 2528.51 L 915.20 2531.94 L 914.57 2535.52 L 912.61 2543.72 L 907.22 2566.89 L 899.16 2602.83 L 889.18 2649.35 L 883.78 2675.46 L 878.02 2704.27 L 872.29 2733.90 L 866.43 2765.41 L 860.74 2797.44 L 855.17 2830.56 L 849.90 2863.94 L 844.99 2897.56 L 840.52 2931.17 L 836.62 2964.20 L 834.35 2986.20 L 832.42 3007.57 L 830.84 3028.31 L 830.46 3031.51 L 829.69 3034.50 L 828.54 3037.30 L 827.03 3039.94 L 825.23 3042.31 L 823.13 3044.43 L 820.77 3046.27 L 818.21 3047.79 L 815.42 3048.98 L 812.49 3049.79 L 809.44 3050.21 L 806.22 3050.21 L 803.03 3049.77 L 800.06 3048.94 L 797.27 3047.74 L 794.67 3046.18 L 792.34 3044.33 L 790.25 3042.18 L 788.46 3039.79 L 787.00 3037.20 L 785.86 3034.38 L 785.10 3031.45 L 784.75 3028.38 L 784.81 3025.16 L 786.44 3003.69 L 788.42 2981.66 L 790.75 2959.06 L 794.72 2925.15 L 799.27 2890.79 L 804.27 2856.47 L 809.62 2822.51 L 815.27 2788.84 L 821.04 2756.35 L 826.97 2724.43 L 832.77 2694.48 L 838.61 2665.37 L 844.07 2639.04 L 854.17 2592.18 L 862.32 2556.04 L 867.76 2532.79 L 869.74 2524.56 L 870.87 2521.00 L 872.47 2517.80 L 874.53 2514.92 L 877.01 2512.38 L 879.79 2510.29 L 882.91 2508.61 L 886.25 2507.43 L 889.77 2506.78 L 893.50 2506.68 Z" fill="#b7bbff" fill-rule="nonzero" group-id="1" id="path10019" node-id="58" stroke-linecap="butt" stroke-width="1" target-height="543.53296" target-width="130.54608" target-x="784.7486" target-y="2506.68"></path><path d="M 968.97 2640.01 L 967.87 2648.13 L 966.19 2655.91 L 963.93 2663.38 L 961.09 2670.57 L 957.69 2677.54 L 953.82 2684.13 L 949.48 2690.35 L 944.66 2696.22 L 939.41 2701.71 L 933.80 2706.75 L 927.82 2711.34 L 921.45 2715.50 L 914.79 2719.15 L 907.89 2722.27 L 900.70 2724.87 L 893.22 2726.93 L 885.63 2728.40 L 877.87 2729.25 L 869.92 2729.47 L 861.73 2729.06 L 853.61 2727.96 L 845.84 2726.28 L 838.36 2724.02 L 831.18 2721.19 L 824.20 2717.78 L 817.61 2713.91 L 811.40 2709.57 L 805.52 2704.76 L 800.03 2699.50 L 795.00 2693.89 L 790.41 2687.91 L 786.25 2681.54 L 782.59 2674.89 L 779.47 2667.98 L 776.88 2660.79 L 774.81 2653.31 L 773.35 2645.72 L 772.50 2637.96 L 772.27 2630.01 L 772.68 2621.82 L 773.78 2613.71 L 775.47 2605.93 L 777.73 2598.46 L 780.56 2591.27 L 783.97 2584.29 L 787.83 2577.71 L 792.17 2571.49 L 796.99 2565.62 L 802.25 2560.12 L 807.86 2555.09 L 813.84 2550.50 L 820.20 2546.34 L 826.86 2542.68 L 833.77 2539.56 L 840.95 2536.97 L 848.43 2534.90 L 856.02 2533.44 L 863.78 2532.59 L 871.74 2532.36 L 879.92 2532.77 L 888.04 2533.87 L 895.82 2535.56 L 903.29 2537.82 L 910.48 2540.65 L 917.45 2544.06 L 924.04 2547.93 L 930.26 2552.26 L 936.13 2557.08 L 941.62 2562.34 L 946.65 2567.95 L 951.24 2573.93 L 955.40 2580.29 L 959.06 2586.95 L 962.18 2593.86 L 964.77 2601.04 L 966.84 2608.53 L 968.30 2616.11 L 969.15 2623.87 L 969.38 2631.83 L 968.97 2640.01 Z" fill="#b7bbff" fill-rule="nonzero" group-id="1" id="path10021" node-id="59" stroke-linecap="butt" stroke-width="1" target-height="197.10938" target-width="197.1087" target-x="772.2715" target-y="2532.3633"></path><path d="M 560.86 2852.85 L 589.69 3039.43 L 590.64 3044.93 L 591.94 3050.20 L 593.58 3055.26 L 595.56 3060.13 L 597.92 3064.86 L 600.58 3069.25 L 603.54 3073.33 L 606.80 3077.11 L 610.39 3080.59 L 614.25 3083.65 L 618.39 3086.32 L 622.82 3088.59 L 627.44 3090.39 L 632.33 3091.70 L 637.53 3092.51 L 643.08 3092.82 L 880.29 3092.82 L 885.84 3092.51 L 891.03 3091.69 L 895.89 3090.38 L 900.48 3088.58 L 904.88 3086.30 L 908.98 3083.63 L 912.81 3080.57 L 916.38 3077.08 L 919.61 3073.30 L 922.56 3069.22 L 925.21 3064.83 L 927.59 3060.10 L 929.59 3055.24 L 931.28 3050.18 L 932.64 3044.91 L 933.68 3039.43 L 960.86 2852.85 L 560.86 2852.85 Z" fill="#cecfff" fill-rule="nonzero" group-id="1" id="path10023" node-id="60" stroke-linecap="butt" stroke-width="1" target-height="239.96704" target-width="400.003" target-x="560.8593" target-y="2852.848"></path><path d="M 560.86 2852.85 L 568.74 2904.30 L 953.53 2904.30 L 960.86 2852.85 L 560.86 2852.85 Z" fill="#a5a3ff" fill-rule="nonzero" group-id="1" id="path10025" node-id="61" stroke-linecap="butt" stroke-width="1" target-height="51.453125" target-width="400.002" target-x="560.8593" target-y="2852.848"></path><path d="M 547.82 2757.52 L 975.29 2757.52 L 980.85 2757.81 L 986.15 2758.61 L 991.23 2759.91 L 996.11 2761.70 L 1000.82 2763.97 L 1005.20 2766.62 L 1009.28 2769.67 L 1013.08 2773.12 L 1016.53 2776.92 L 1019.57 2781.00 L 1022.23 2785.38 L 1024.50 2790.09 L 1026.29 2794.96 L 1027.58 2800.04 L 1028.38 2805.34 L 1028.68 2810.91 L 1028.38 2816.47 L 1027.58 2821.77 L 1026.29 2826.85 L 1024.50 2831.73 L 1022.23 2836.43 L 1019.57 2840.81 L 1016.53 2844.89 L 1013.08 2848.69 L 1009.28 2852.14 L 1005.20 2855.19 L 1000.82 2857.84 L 996.11 2860.11 L 991.23 2861.90 L 986.15 2863.20 L 980.85 2864.00 L 975.29 2864.30 L 547.82 2864.30 L 542.25 2864.00 L 536.95 2863.20 L 531.87 2861.90 L 527.00 2860.11 L 522.29 2857.84 L 517.91 2855.19 L 513.83 2852.14 L 510.03 2848.69 L 506.58 2844.89 L 503.53 2840.81 L 500.88 2836.43 L 498.61 2831.73 L 496.82 2826.85 L 495.52 2821.77 L 494.72 2816.47 L 494.43 2810.91 L 494.72 2805.34 L 495.52 2800.04 L 496.82 2794.96 L 498.61 2790.09 L 500.88 2785.38 L 503.53 2781.00 L 506.58 2776.92 L 510.03 2773.12 L 513.83 2769.67 L 517.91 2766.62 L 522.29 2763.97 L 527.00 2761.70 L 531.87 2759.91 L 536.95 2758.61 L 542.25 2757.81 L 547.82 2757.52 Z" fill="#b7bbff" fill-rule="nonzero" group-id="1" id="path10027" node-id="62" stroke-linecap="butt" stroke-width="1" target-height="106.77905" target-width="534.253" target-x="494.42633" target-y="2757.5159"></path><path d="M 813.04 2238.77 L 812.09 2245.82 L 810.62 2252.58 L 808.66 2259.08 L 806.20 2265.33 L 803.24 2271.39 L 799.87 2277.11 L 796.10 2282.52 L 791.92 2287.62 L 787.35 2292.39 L 782.47 2296.77 L 777.27 2300.76 L 771.74 2304.37 L 765.96 2307.55 L 759.95 2310.26 L 753.71 2312.52 L 747.20 2314.31 L 740.61 2315.59 L 733.87 2316.32 L 726.95 2316.52 L 719.84 2316.16 L 712.78 2315.21 L 706.02 2313.74 L 699.53 2311.78 L 693.28 2309.32 L 687.22 2306.36 L 681.49 2302.99 L 676.09 2299.23 L 670.99 2295.04 L 666.21 2290.47 L 661.84 2285.59 L 657.85 2280.40 L 654.23 2274.86 L 651.06 2269.08 L 648.34 2263.07 L 646.09 2256.83 L 644.29 2250.33 L 643.02 2243.73 L 642.28 2236.99 L 642.09 2230.07 L 642.44 2222.96 L 643.40 2215.91 L 644.86 2209.14 L 646.83 2202.65 L 649.29 2196.40 L 652.25 2190.34 L 655.61 2184.62 L 659.38 2179.21 L 663.57 2174.11 L 668.14 2169.33 L 673.01 2164.96 L 678.21 2160.97 L 683.74 2157.35 L 689.53 2154.18 L 695.53 2151.47 L 701.78 2149.21 L 708.28 2147.41 L 714.88 2146.14 L 721.62 2145.40 L 728.53 2145.21 L 735.65 2145.56 L 742.70 2146.52 L 749.46 2147.98 L 755.96 2149.95 L 762.20 2152.41 L 768.27 2155.37 L 773.99 2158.73 L 779.40 2162.50 L 784.50 2166.69 L 789.27 2171.26 L 793.65 2176.14 L 797.64 2181.33 L 801.25 2186.87 L 804.43 2192.65 L 807.14 2198.66 L 809.40 2204.90 L 811.19 2211.40 L 812.47 2218.00 L 813.20 2224.74 L 813.40 2231.66 L 813.04 2238.77 L 813.04 2238.77 Z" fill="#a5a3ff" fill-rule="nonzero" group-id="1" id="path10029" node-id="63" stroke-linecap="butt" stroke-width="1" target-height="171.31348" target-width="171.3136" target-x="642.08594" target-y="2145.2073"></path><path d="M 869.62 2388.51 L 868.58 2396.62 L 867.04 2404.45 L 865.03 2412.03 L 862.52 2419.37 L 859.53 2426.56 L 856.12 2433.44 L 852.31 2440.04 L 848.07 2446.35 L 843.43 2452.39 L 838.46 2458.08 L 833.15 2463.42 L 827.49 2468.44 L 821.52 2473.08 L 815.29 2477.32 L 808.79 2481.16 L 802.00 2484.61 L 795.01 2487.61 L 787.83 2490.15 L 780.44 2492.23 L 772.82 2493.86 L 765.15 2494.97 L 757.33 2495.56 L 749.35 2495.63 L 741.19 2495.16 L 733.08 2494.12 L 725.25 2492.59 L 717.67 2490.57 L 710.33 2488.07 L 703.14 2485.07 L 696.26 2481.67 L 689.67 2477.85 L 683.35 2473.62 L 677.31 2468.98 L 671.63 2464.01 L 666.28 2458.70 L 661.27 2453.04 L 656.62 2447.07 L 652.38 2440.84 L 648.54 2434.33 L 645.09 2427.54 L 642.09 2420.56 L 639.55 2413.38 L 637.47 2405.99 L 635.85 2398.37 L 634.73 2390.69 L 634.14 2382.87 L 634.07 2374.89 L 634.54 2366.73 L 635.58 2358.63 L 637.11 2350.80 L 639.13 2343.22 L 641.63 2335.88 L 644.63 2328.69 L 648.04 2321.80 L 651.85 2315.21 L 656.08 2308.90 L 660.72 2302.86 L 665.69 2297.17 L 671.00 2291.83 L 676.67 2286.81 L 682.64 2282.17 L 688.87 2277.93 L 695.37 2274.09 L 702.16 2270.64 L 709.14 2267.64 L 716.32 2265.10 L 723.71 2263.01 L 731.33 2261.39 L 739.01 2260.28 L 746.83 2259.69 L 754.81 2259.62 L 762.97 2260.09 L 771.07 2261.12 L 778.90 2262.66 L 786.48 2264.68 L 793.82 2267.18 L 801.02 2270.18 L 807.90 2273.58 L 814.49 2277.40 L 820.80 2281.63 L 826.84 2286.27 L 832.53 2291.24 L 837.88 2296.55 L 842.89 2302.21 L 847.53 2308.18 L 851.77 2314.41 L 855.61 2320.91 L 859.06 2327.70 L 862.07 2334.69 L 864.61 2341.87 L 866.69 2349.26 L 868.31 2356.88 L 869.42 2364.56 L 870.02 2372.38 L 870.08 2380.35 L 869.62 2388.51 L 869.62 2388.51 Z" fill="#a5a3ff" fill-rule="nonzero" group-id="1" id="path10031" node-id="64" stroke-linecap="butt" stroke-width="1" target-height="236.0127" target-width="236.01086" target-x="634.07294" target-y="2259.6177"></path><path d="M 981.31 2492.99 L 980.48 2499.12 L 979.21 2504.99 L 977.51 2510.63 L 975.37 2516.06 L 972.80 2521.32 L 969.88 2526.29 L 966.60 2530.99 L 962.97 2535.42 L 959.00 2539.57 L 954.76 2543.37 L 950.25 2546.83 L 945.44 2549.97 L 940.42 2552.73 L 935.20 2555.09 L 929.78 2557.04 L 924.13 2558.60 L 918.40 2559.71 L 912.55 2560.35 L 906.54 2560.52 L 900.37 2560.21 L 894.24 2559.38 L 888.37 2558.11 L 882.73 2556.40 L 877.30 2554.27 L 872.03 2551.69 L 867.06 2548.77 L 862.37 2545.50 L 857.94 2541.87 L 853.79 2537.90 L 849.99 2533.66 L 846.53 2529.15 L 843.39 2524.34 L 840.63 2519.32 L 838.27 2514.10 L 836.31 2508.68 L 834.75 2503.03 L 833.65 2497.30 L 833.01 2491.45 L 832.84 2485.44 L 833.15 2479.27 L 833.98 2473.14 L 835.25 2467.27 L 836.95 2461.63 L 839.09 2456.20 L 841.66 2450.93 L 844.58 2445.96 L 847.86 2441.27 L 851.49 2436.84 L 855.46 2432.69 L 859.70 2428.89 L 864.21 2425.43 L 869.02 2422.29 L 874.04 2419.53 L 879.26 2417.17 L 884.68 2415.21 L 890.33 2413.65 L 896.05 2412.55 L 901.91 2411.91 L 907.92 2411.74 L 914.09 2412.05 L 920.22 2412.88 L 926.09 2414.15 L 931.73 2415.85 L 937.16 2417.99 L 942.42 2420.56 L 947.40 2423.48 L 952.09 2426.76 L 956.52 2430.39 L 960.67 2434.36 L 964.47 2438.60 L 967.93 2443.11 L 971.07 2447.92 L 973.83 2452.94 L 976.19 2458.16 L 978.15 2463.58 L 979.71 2469.23 L 980.81 2474.95 L 981.45 2480.81 L 981.62 2486.82 L 981.31 2492.99 L 981.31 2492.99 Z" fill="#b7bbff" fill-rule="nonzero" group-id="1" id="path10033" node-id="65" stroke-linecap="butt" stroke-width="1" target-height="148.78589" target-width="148.78558" target-x="832.8371" target-y="2411.7356"></path></g><path d="M 3583.01 1536.36 C 3602.41 1536.36 3618.03 1575.75 3618.03 1624.69 L 3618.03 2953.83 C 3618.03 3002.77 3602.41 3042.17 3583.01 3042.17 C 3563.60 3042.17 3547.98 3002.77 3547.98 2953.83 L 3547.98 1624.69 C 3547.98 1575.75 3563.60 1536.36 3583.01 1536.36 Z" fill="#a5a3ff" fill-rule="nonzero" id="rect10081" node-id="66" stroke="none" target-height="1505.813" target-width="70.04614" target-x="3547.982" target-y="1536.355"></path><path d="M 3883.74 1327.78 C 3883.74 1501.97 3742.52 1643.19 3568.33 1643.19 C 3394.14 1643.19 3252.92 1501.97 3252.92 1327.78 L 3252.92 1327.78 C 3252.92 1153.58 3394.14 1012.37 3568.33 1012.37 L 3568.33 1012.37 C 3742.52 1012.37 3883.74 1153.58 3883.74 1327.78 Z" fill="#e3e1ff" fill-rule="nonzero" id="path10037" node-id="67" stroke="none" target-height="630.814" target-width="630.813" target-x="3252.924" target-y="1012.372"></path><path d="M 3974.58 1660.63 C 3974.58 1814.96 3849.48 1940.07 3695.15 1940.07 C 3540.82 1940.07 3415.71 1814.96 3415.71 1660.63 C 3415.71 1506.30 3540.82 1381.19 3695.15 1381.19 C 3849.48 1381.19 3974.58 1506.30 3974.58 1660.63 Z" fill="#b7bbff" fill-rule="nonzero" id="circle10039" node-id="68" stroke="none" target-height="558.87" target-width="558.8711" target-x="3415.713" target-y="1381.195"></path><path d="M 3406.36 2849.03 L 3435.19 3039.43 C 3439.20 3068.73 3459.00 3092.82 3488.58 3092.82 L 3727.38 3092.82 C 3756.96 3092.82 3776.24 3068.66 3780.77 3039.43 L 3807.95 2849.03 L 3406.36 2849.03 Z" fill="#cecfff" fill-rule="nonzero" id="path10055" node-id="69" stroke="none" target-height="243.78296" target-width="401.5918" target-x="3406.361" target-y="2849.032"></path><path d="M 3406.36 2849.03 L 3414.54 2904.30 L 3800.15 2904.30 L 3807.95 2849.03 L 3406.36 2849.03 Z" fill="#b7bbff" fill-rule="nonzero" id="path10057" node-id="70" stroke="none" target-height="55.27002" target-width="401.59082" target-x="3406.361" target-y="2849.032"></path><path d="M 3787.77 2444.35 C 3804.96 2453.35 3800.52 2495.49 3777.82 2538.85 L 3663.91 2756.40 C 3641.21 2799.75 3609.09 2827.41 3591.91 2818.41 C 3574.72 2809.41 3579.15 2767.26 3601.85 2723.91 L 3715.77 2506.36 C 3738.47 2463.00 3770.58 2435.34 3787.77 2444.35 Z" fill="#a5a3ff" fill-rule="nonzero" id="rect10089" node-id="71" stroke="none" target-height="377.38794" target-width="216.78687" target-x="3581.4438" target-y="2442.6829"></path><path d="M 3394.91 2757.52 L 3822.38 2757.52 C 3851.96 2757.52 3875.77 2781.33 3875.77 2810.91 C 3875.77 2840.48 3851.96 2864.30 3822.38 2864.30 L 3394.91 2864.30 C 3365.33 2864.30 3341.52 2840.48 3341.52 2810.91 C 3341.52 2781.33 3365.33 2757.52 3394.91 2757.52 Z" fill="#cecfff" fill-rule="nonzero" id="path10059" node-id="72" stroke="none" target-height="106.77881" target-width="534.2529" target-x="3341.518" target-y="2757.517"></path><path d="M 3934.14 2478.20 C 3934.14 2535.62 3887.60 2582.16 3830.18 2582.16 L 3830.18 2582.16 C 3772.76 2582.16 3726.22 2535.62 3726.22 2478.20 C 3726.22 2420.78 3772.76 2374.23 3830.18 2374.23 C 3887.60 2374.23 3934.14 2420.78 3934.14 2478.20 L 3934.14 2478.20 Z" fill="#a5a3ff" fill-rule="nonzero" id="circle10083" node-id="73" stroke="none" target-height="207.93115" target-width="207.92993" target-x="3726.215" target-y="2374.234"></path><path d="M 3928.38 2278.96 C 3928.38 2369.55 3854.93 2443.00 3764.33 2443.00 L 3764.33 2443.00 C 3673.74 2443.00 3600.29 2369.55 3600.29 2278.96 C 3600.29 2188.36 3673.74 2114.91 3764.33 2114.91 C 3854.93 2114.91 3928.38 2188.36 3928.38 2278.96 L 3928.38 2278.96 Z" fill="#e3e1ff" fill-rule="nonzero" id="circle10085" node-id="74" stroke="none" target-height="328.08398" target-width="328.08496" target-x="3600.291" target-y="2114.914"></path><path d="M 3786.77 2441.28 C 3786.77 2521.55 3721.70 2586.61 3641.44 2586.61 C 3561.17 2586.61 3496.11 2521.55 3496.11 2441.28 C 3496.11 2361.01 3561.17 2295.95 3641.44 2295.95 C 3721.70 2295.95 3786.77 2361.01 3786.77 2441.28 Z" fill="#b7bbff" fill-rule="nonzero" id="circle10087" node-id="75" stroke="none" target-height="290.667" target-width="290.66602" target-x="3496.105" target-y="2295.945"></path></svg>