<svg viewBox="0 0 1620 1028" xmlns="http://www.w3.org/2000/svg"><g id="a"></g><g id="b"><g id="c"><g><path fill="#e8f2fa" d="M1543.84,1025.63c-92.65,0-1442.29,.34-1443.07-2.11l-.13-.31s-.13-.3-.13-.45c-.52-1.23-207.95-345.42,114.53-585.03,126.18-93.75-7.9-155.64,92.44-260.01,115.31-119.94,241.15,12.74,369.38-41.64,22.66-9.6,45.39-25.05,68.15-48.76,12.81-13.33,26.85-25,41.88-35.06,2.3-1.55,4.63-3.06,6.98-4.53,9-5.63,18.33-10.72,27.94-15.29,6.46-3.07,13.03-5.91,19.73-8.52h0c10.63-4.14,21.55-7.72,32.71-10.74,15.84-4.3,32.15-7.49,48.78-9.65,7.25-.95,14.57-1.69,21.94-2.26,143.27-10.86,304.51,50.24,387.71,139.53,16.75,17.98,92.93,111.02,32.88,238.91-37.91,80.74,120.91,157.86,177.35,250.06,143.49,234.42,2.24,392.82,.93,395.87Z"></path><path fill="#9bd399" d="M159.85,1023.47h61.05c3.27-2.82-2.26-9.21-8.05-9.64-2.51-.19-5.69,.34-9.32,1.12-.84-11.32-5.64-62.2-23.72-60.16-20.33,2.29,0,22.41,5.75,34.32,4.26,8.82,8.75,21.47,10.8,27.45-1.65,.36-3.36,.72-5.1,1.05-2.69-8.39-12.72-36.62-25.47-34.98-14.97,1.93-8.95,13.25,1.66,19.96,7.78,4.94,17.34,11.96,21.89,15.36-3.85,.64-7.86,1.07-11.94,.97-10.46-.25-15.56,2.87-17.54,4.56Z"></path><g opacity=".5"><path opacity=".5" fill="#a9c2ff" d="M687.83,470.59s-15.2-129.15-80.44-206.23c-8.67-10.24-25.26-3.72-24.98,9.78,0,.22,.01,.45,.02,.68,.84,23.04,73.89,120.22,105.41,195.77Z"></path><path opacity=".5" fill="#a9c2ff" d="M695.75,507.57s-65.01-161.43-176.05-232.82c-6.77-4.35-15.94-2.77-20.48,3.93-2.96,4.36-4.29,11.18-.97,21.83,8.85,28.39,132.69,123.97,197.5,207.06Z"></path></g><g opacity=".5"><path opacity=".5" fill="#a9c2ff" d="M711.95,784.52s9.33-79.26,49.37-126.56c5.32-6.29,15.5-2.28,15.33,6,0,.14,0,.28-.01,.42-.52,14.14-45.35,73.78-64.69,120.14Z"></path><path opacity=".5" fill="#a9c2ff" d="M707.09,807.21s39.9-99.07,108.04-142.88c4.16-2.67,9.78-1.7,12.57,2.41,1.81,2.68,2.63,6.86,.59,13.4-5.43,17.42-81.43,76.08-121.2,127.07Z"></path></g><path opacity=".3" fill="#a9c2ff" d="M534.2,706.74s36.07,100.45,17.23,106.11c-18.84,5.65-32.24-114.87-32.24-114.87,0,0-102.51-30.47-139.19-20.59,0,0,75.35,91.38,55.72,92.16-19.63,.78-102.4-90.62-102.4-90.62,0,0-100.36-2.02-106.48,59.13-6.12,61.15,23.88,86.2,38.9,87.45,15.02,1.25,107.4-15.44,106.98-2.85-.42,12.6-59.77,42.56-96.42,37.41,0,0,54.12,89.92,103.83,76.6,49.7-13.32,60.18-47.64,91.05-55.3,30.86-7.66,55.09-2.94,40.85,8.21-14.24,11.15-68.08,14.25-89.79,40.24-21.71,25.99-39.99,43.38,8.5,44.75,132.72,3.75,153.42-97.04,153.42-97.04,0,0,81.85-66.29,28.48-128.78,0,0-40.6-37.06-78.45-42.01Z"></path><path opacity=".5" fill="#a9c2ff" d="M1234.16,717.89c34.09-27.6-6.24-88.41-6.24-88.41,0,0-86.79-15.17-93.98-27.52-7.19-12.35,76.7-1.73,76.7-1.73-8.4-26.37-66.54-77.41-66.54-77.41,0,0-77.12,38.77-81.09,25-3.97-13.77,70.01-30.79,70.01-30.79-17.71-21.3-55.64-31.77-55.64-31.77-58.08-8.4-65.71,67.69-65.71,67.69,0,0-27.01,12.85-65.72,9.51h0s-7.45-1.32-18.98-.92l2.85,6.68c2-.23,3.96-.38,5.88-.44,.01,0,.02,0,.04,0,.03,0,.06,0,.08,0,1.21,.01,2.94,.03,5.05,.07h0s0,0,.01,0c4.81,.31,8.31,.41,10.78,.36,0,0,.02,0,.02,0,14.97,.68,34.83,2.4,40.72,6.79,0,0,.71-1.19,2.41-2.76-.77,.88-1.57,1.8-2.41,2.76-19.26,22.05,1.14,80.96,21.19,109.96,20.04,29,22.97,11.23,30-12.23,7.04-23.46-12.1-57.71-11-70.8,1.1-13.09,13.36-.06,20.82,21.87,7.46,21.93-8.92,41.75,2.51,77.45,11.43,35.7,86.17,33.86,86.17,33.86-17.36-20.49-22.63-68.6-15.28-73.77,7.35-5.17,33.41,58.04,40.01,66.77,6.6,8.73,33.24,17.38,67.33-10.22Z"></path><path opacity=".5" fill="#a9c2ff" d="M1158.61,268.23c-10.56-34.67-68.4-21.66-68.4-21.66,0,0-37.41,62.66-48.87,64.52-11.45,1.87,21.68-59.91,21.68-59.91-22.36-1.39-78.19,28.34-78.19,28.34,0,0,6.07,71.33-5.48,70.28-11.55-1.05-2.2-63.44-2.2-63.44-21.34,7.33-40.58,33.57-40.58,33.57-23.72,42.46,31.25,71.16,31.25,71.16,0,0,1.58,24.77-12.53,53.74h0s-3.22,5.37-6.38,14.42l5.88-.21c.43-1.62,.9-3.18,1.44-4.69,0-.01,0-.02,.01-.03l.02-.06c.37-.94,.9-2.27,1.57-3.89h0c1.67-3.64,2.79-6.32,3.5-8.25v-.02c5-11.39,12.25-26.25,17.31-29.5,0,0-.68-.91-1.35-2.69,.43,.86,.88,1.75,1.35,2.69,10.82,21.52,61.26,23.37,89.09,16.54,27.83-6.83,15.33-14.42-.21-26.9-15.55-12.48-47.05-7.92-56.58-12.69-9.52-4.77,3.96-10.36,22.7-9.57,18.74,.79,28.74,19.42,59.03,21.26,30.29,1.84,51.3-56.58,51.3-56.58-20.62,7.3-58.4-3.03-60.09-10.27-1.69-7.24,53.68-8.48,62.23-10.98,8.55-2.49,23.04-20.53,12.48-55.2Z"></path><path fill="#f6fbff" d="M724.06,185.72s16.37-31.26,55.51-27.78c0,0,56.83-52.09,117.43-6.95,0,0,64.42-11.19,112.13,9.69,31.81,13.92,42.31,28.52,42.31,28.52l-327.39-3.47Z"></path><path fill="#f6fbff" d="M977.7,133.8s11.61-23.68,39.37-21.05c0,0,40.3-39.46,83.27-5.26,0,0,45.68-8.47,79.51,7.34,22.56,10.54,30.01,21.6,30.01,21.6l-232.16-2.63Z"></path><path fill="#f6fbff" d="M330.32,431.58s10.47-23.68,35.5-21.05c0,0,36.34-39.46,75.09-5.26,0,0,41.19-8.47,71.69,7.34,20.34,10.54,27.06,21.6,27.06,21.6l-209.33-2.63Z"></path><path fill="#ff7536" d="M571.73,859.92h-90.01v-105.51h108.02l29.01-176.53h-100.02v-105.51h118.02l27-159.29h107.02l-27,159.29h164.03l26-159.29h107.02l-27,159.29h89.01v105.51h-107.02l-29,176.53h100.02v105.51h-118.02l-28,163.34h-107.02l28-163.34h-164.03l-27,163.34h-107.02l28-163.34Zm288.05-105.51l30-176.53h-164.03l-30,176.53h164.03Z"></path><g><path fill="#ffae73" d="M358.03,654.88c0-.33,4.76-10.31,3.25-11.08-1.51-.77-4.23-.65-4.54,1.1-.32,1.75,1.3,9.98,1.3,9.98Z"></path><path fill="#ffae73" d="M359.82,660.84c0-.98-1.11-15.93-3.6-18.9-2.49-2.98-7.56-7.21-9.16-7.08-1.6,.13-7.84,8.54-5.96,14.99,1.88,6.45,9.8,15.17,9.8,15.17l8.92-4.19Z"></path><g><path fill="#fc9f38" d="M369.3,642.73l-14.47,4.4c-.48,.15-.99-.13-1.13-.62l-8.27-27.99c-.14-.49,.13-1,.61-1.15l14.47-4.4c.48-.15,.99,.13,1.13,.62l8.27,27.99c.14,.49-.13,1-.61,1.15Z"></path><path fill="#e65f00" d="M365.54,643.88l-13.12,3.99c-.85,.26-1.75-.23-2-1.09l-7.87-26.62c-.26-.86,.23-1.77,1.08-2.03l13.12-3.99c.85-.26,1.75,.23,2,1.1l7.87,26.62c.26,.86-.23,1.77-1.08,2.03Z"></path></g><path fill="#ffae73" d="M345.57,635.95s6.03-9.4,7.5-8.88c2.1,.75-5.46,12.68-5.46,12.68,0,0,5.61-8.92,6.48-8.25,2,1.53-1.18,7.13-4.33,11.43,0,0,5.64-5.24,5.82-4.29,.64,3.3-6.19,11.31-6.19,11.31l-3.82-8.85v-5.15Z"></path><path fill="#ffae73" d="M341.05,644.68c.29-1.15,1.76-23.61,2.39-21.48,.63,2.13,2.13,13.91,2.13,13.91l-4.52,7.57Z"></path><path fill="#ff912b" d="M437.21,638.5s-.63,24.42-7.57,44.12c-5.48,15.56-14.9,28.19-31.07,23.52-1.65-.48-3.25-.99-4.8-1.54-.01,0-.02,0-.02,0-32.83-11.6-43.46-38.16-43.46-38.16,2.45-4.09,9.53-5.6,9.53-5.6,6.61,.36,35.67,12.88,37.52,13.26,6.72,1.37,12.15-36.09,16.52-49.07,4.37-12.98,22.24-18.79,22.24-18.79l1.11,32.26Z"></path><path fill="#fc7600" d="M430.27,665.03l-.63,17.59c-5.48,15.56-14.9,28.19-31.07,23.52-1.65-.48-3.25-.99-4.8-1.54,.52,.07,10.41,1.42,14.55-2.77,4.25-4.32,3.81-18.64,11.65-28.18,7.84-9.54,10.31-8.62,10.31-8.62Z"></path><path fill="#04294c" d="M431.17,986.79s8.08,7.48,6.5,12.8c-1.58,5.32-8.87,8.86-9.85,15.36-.99,6.5-4.93,10.04-8.47,10.04h-16.91s-2.61-4.57,3.7-5.95c6.31-1.38,8.68-9.01,8.29-16.1-.39-7.09,.59-16.54,.59-16.54l13.4-3.15,2.76,3.54Z"></path><path fill="#04294c" d="M342.14,1023.62h49.8c1.95,0,3.56-1.57,3.61-3.55,.08-2.96-.16-7.26-1.78-10.89-2.66-5.98-4.34-7.03,6.89-24.42-3.38,3.53-12.48,1.91-20.16,.87-.94,1.55-15.19,23.88-18.33,26.17-3.47,2.53-18.95,1.63-20.02,11.83Z"></path><path fill="#6f7deb" d="M419.74,743.49s-36.11,69.11-45.92,107.17c-7.62,29.54,38.86,143.83,38.86,143.83,0,0,3.8-.26,10-2.73,6.08-2.43,8.4-8.93,8.4-8.93,0,0-2.76-81.72-12.16-121.25-2.11-8.87,10.23-37.5,31.06-53.18,20.83-15.68,29.5-66.12,17.1-69.53-12.4-3.41-47.34,4.62-47.34,4.62Z"></path><path fill="#899bfa" d="M450.65,723.87s-37.96,141.14-49.47,172.84c-11.51,31.7-29.78,98.97-29.78,98.97,0,0,11.55,5.5,26.33,2.9,0,0,55.5-82.48,57.92-118.93,1.12-16.85,56.94-83.65,50.72-127.21l-55.72-28.56Z"></path><path fill="#ff912b" d="M506.28,767.91s-8.08,4.13-22.36,5.34h-.01c-16.35,1.39-40.84-1.05-70.66-17.89,0,0-8.32-6.95,1.9-36.52,7.73-22.39,11.5-69.58,20.95-112.59,0,0,30.63-9.75,55.2-1.32,18.77,6.44,16.91,35.67,20.37,66.11,.32,2.84,.69,5.69,1.13,8.53,5.13,33.32-6.52,88.35-6.52,88.35Z"></path><path fill="#1e3865" d="M425.3,542.57s20.91-34.52,37.09-16.76c0,0,10.58,2.74,16.65,19.46,6.19,17.05-3.45,32.11-9.88,29.68-4.13-1.56-6.06,5.65-6.06,5.65l-37.8-38.04Z"></path><path fill="#1e3865" d="M459.19,523.09s1.44-14.29,22.02-12.9c0,0-9.73,.18-11.82,4.3,0,0,7.08-4.63,12.24-2.38,5.16,2.25,7.35,12.05,7.07,15.17-.28,3.12-4.24,12.87-7.71,13.38-3.47,.51-8.02-1.98-8.02-1.98l-13.78-15.59Z"></path><path fill="#ffae73" d="M469.56,604.05c-1.93-5.23-4.81-10.72-7.12-27.41l-1.24,.44-20.78,7.42s1.46,6.76,2.39,13.19c.38,2.63,.65,7.32,.83,11.42,.18,4.19,4.24,4.59,8.37,4.39,10.99-.52,17.04-4.67,17.55-9.45Z"></path><path fill="#f48f4e" d="M440.42,584.5s1.46,6.76,2.39,13.19c11.92-2.09,16.67-14.09,18.39-20.61l-20.78,7.42Z"></path><path fill="#1e3865" d="M463.07,574.39s4.84-10.97,5.13-19.79c.2-6.3-6.11-28.59-28.18-22.02,0,0-6.45,1.61-12.01,6.73-4.42,4.07-10.45,12.34,.27,31.04l3,6.41,31.79-2.36Z"></path><path fill="#ffae73" d="M437.29,591.18s28.39-3.67,25.86-21.57c-2.52-17.9-.56-30.42-18.79-28.84-18.23,1.59-20.78,8.92-21.37,15.11-.59,6.18,6.85,35.79,14.3,35.3Z"></path><path fill="#1e3865" d="M431.4,542.22s10.74,19.86,23.08,21.22c12.34,1.36,17.04-2.63,17.04-2.63,0,0-10.17-6.02-13.89-18.58,0,0-21.8-10.86-26.23-.02Z"></path><path fill="#1e3865" d="M433.57,543.64s-5.12,5.53-5.89,10.3c-.76,4.76-.07,14.24-2.81,14.31,0,0-7.87-13.42-2.45-22.45,5.75-9.58,11.15-2.16,11.15-2.16Z"></path><path fill="#1e3865" d="M432.59,544.51s8.65,21.18,24.66,26.02c0,0-16.93-11.31-20.27-25.64-3.34-14.33-4.39-.38-4.39-.38Z"></path><path fill="#fc7600" d="M506.28,767.91s-8.08,4.13-22.36,5.34h-.01s-11.73-14.92,1.36-31.64c13.09-16.72-1.02-47.57,9.06-64.35,7.02-11.68,13.84-8.96,17.35-6.23,.32,2.84,.69,5.69,1.13,8.53,5.13,33.32-6.52,88.35-6.52,88.35Z"></path><path fill="#ffae73" d="M557.78,743.11s1.74,4.11,4.17,4.38c3.97,.45,11.53,3.82,12.72,4.54,3.22,1.94,3,10.6-.22,11.42-3.22,.82-4.83-6.46-14.88-8.41-3.41-.66-8.38,1.73-10.39-6.56l8.59-5.38Z"></path><path fill="#ff912b" d="M491.3,604.92c29.23,10.91,30.31,63.43,43.34,86.57,13.44,23.86,26.53,55.26,26.53,55.26,0,0-.24,.94-5.25,2.4-3.53,1.03-7.21,.59-7.21,.59,0,0-27.62-25.34-35.12-35.34-7.5-10-25.19-56.38-25.19-56.38,0,0-8.7-57.43,2.91-53.1Z"></path><path fill="#ffae73" d="M549.91,750.54s.71,3.53,5.02,6.38c4.31,2.85,7.77,5.71,8.18,3.94,.42-1.77-2.4-3.67-3.07-6.93-.67-3.26-10.14-3.39-10.14-3.39Z"></path></g><g id="d"><path fill="#102c54" d="M1008.37,714.92c-13.42-2.91-27.42,1.21-37.36,10.82-4.38,4.24-9.19,9.53-13.61,15.79-10.95,15.51,10.02,30.86,7.23,36.11-2.79,5.25-9.25,9.4-6.42,20.37,2.83,10.97,21.47,25.21,27.55,25.84,61.6,6.42,88.33-28.03,67.74-46.6-20.59-18.57-12.19-45.51-28.91-55.97-5.16-3.23-10.84-5.19-16.22-6.36Z"></path><path fill="#f99352" d="M976.17,812.92s-56.21,27.62-66.74,27.16c-10.53-.47-76.35-23.98-76.35-23.98l1.65,11.32s50.07,29.21,67.58,30.87c17.24,1.63,76.17-15.69,81.86-19.35,5.69-3.66,8.54-22.32-8-26.03Z"></path><path fill="#ffae73" d="M969.99,838.97c5.09,3.59,11.48,6.54,19.5,8.42,30.06,7.05,41.58-18.73,45.91-36.42-4.1-2.38-7.96-2.9-10.19-3.17-2.17-.26-4.46-.43-6.35-.53-3.38-2.62-8.4-13.36-9.52-30.02l-1.41,.38-23.69,6.58s1.09,7.64,1.62,14.86c.41,5.65,.48,11.05-.58,12.37-1.85,.41-2.96,.67-2.96,.67,0,0,0,0-.01,.02-.32,.53-7.19,11.99-12.32,26.83Z"></path><path fill="#f99352" d="M984.24,784.22s1.09,7.63,1.62,14.86c13.42-1.36,19.65-14.33,22.08-21.44l-23.69,6.58Z"></path><path fill="#ffae73" d="M980.23,791.39s31.86-1.78,30.46-21.89c-1.4-20.11,1.77-33.88-18.63-33.59-20.4,.29-23.81,8.24-24.96,15.07-1.14,6.83,4.81,40.36,13.13,40.41Z"></path><path fill="#102c54" d="M967.26,739.72c4.49-6.41,8.3-5.35,10.51-3.68,16.71-10.97,28.93,2.56,28.93,2.56,3.15,14.27,13.99,21.79,13.99,21.79,0,0-5.65,4.58-19.16,1.54-17.29-3.89-23.23-19.1-24.03-21.43-1.82,1.91-4.17,3.13-5.97,7.27-2.14,4.92-3.48,7.78-3.52,15.87,0,0-7.49-14.31-.75-23.92Z"></path><path fill="#889efa" d="M1044.47,904.68c2.88-14.92,12.26-74.53,2.88-93.71-3.37-6.89-16.59-7.51-31.09-6.91-4.51,2.96-21.71,14.13-28.78,12.73-.08-.01-.21-.05-.4-.09-3.33-.84-4.58-3.21-1.81-5.26,0,0-6.37,.46-15.29,2.16-5.04,.96-18.88,9.58-18.88,9.58,0,0,6.27,9.9,16.37,14.23-1.72,15.57,.84,22.44,16.76,58.41,13.46,30.4-1.82,57.77-1.82,57.77,0,0,79.22,64.61,79.66,31.71,.33-24.77-21.29-61.56-17.61-80.63Z"></path><path fill="#102c52" d="M978.5,1023.85c-4.31-.49-8.19-2.89-10.6-6.54-.38-.58-.79-1.2-1.22-1.87-9.02-13.85-12.53-56.25-32.81-101.43-4.94-11-22.67-12.98-27.51-25.41,0,0-11.9-40.3,22.78-41.49,34.68-1.19,92.88,112.13,93.8,124.01,.89,11.51,22.93,60.44-44.45,52.73Z"></path><path fill="#b73137" d="M840.65,1023.62h49.36s1.85-8.2-1.4-13.78c-2.87-4.94-1.77-7.75,.36-11.83-2.24,.95-5.13,1.82-8.31,1.63-2.46-.15-5.06-1.31-7.34-2.69-2.12,2.52-11.22,13.26-14.06,15.39-3.23,2.41-17.61,1.55-18.6,11.28Z"></path><path fill="#102c52" d="M905.23,858.76c-2.97,22.6-14.58,93.95-35.06,128.76-6.6,11.22,16.63,17.51,16.76,17.48,3.12-.83,8.31-5.87,10.7-8.05,16.62-15.2,50.37-58.23,50.37-92.73,0-16.82,.29-48.95-11.77-57.12-7.43-5.03-29.82,2.68-31,11.66Z"></path><path fill="#25468f" d="M1002.6,1023.9s-2.5-3.81-4.09-9.46c-2.65-9.45-3.6-16.32-8.69-31.03-5.35-15.45-11.71-34.45-19.64-54.22-2.45-6.1-5.05-12.28-7.82-18.45-4.94-11-18.53-9.48-23.37-21.91,0,0-18.87-43.1,15.82-44.29,34.68-1.19,100.59,115.3,104.37,126.59,4.15,12.35,19.04,64.61-56.58,52.78Z"></path><path fill="#cf4847" d="M876.89,1023.62h49.36s1.85-8.2-1.39-13.78c-2.87-4.94-1.77-7.75,.36-11.83-2.24,.95-5.13,1.82-8.31,1.63-2.46-.15-5.06-1.31-7.34-2.69-2.12,2.52-11.22,13.26-14.06,15.39-3.23,2.41-17.61,1.55-18.6,11.28Z"></path><path fill="#1e3865" d="M989.82,983.41c-5.35-15.45-11.71-34.45-19.64-54.22,2.07-14.98,6.54-28.09,14.06-33.37,0,0,18.24,57.33,5.58,87.59Z"></path><path fill="#25468f" d="M934.04,857.15c-2.97,22.6-7.16,95.55-27.63,130.36-6.6,11.22,16.63,17.51,16.76,17.48,3.12-.83,8.31-5.87,10.7-8.05,16.62-15.2,50.37-58.23,50.37-92.73,0-16.82-19.46-47.6-31.52-55.77-7.43-5.03-17.49-.27-18.67,8.71Z"></path><g><path fill="#1e3865" d="M827.19,786.96l50.55-5.45c1.47-.16,2.87,.71,3.39,2.11l18.09,48.21c.79,2.11-.69,4.39-2.92,4.48l-50.16,2.05c-1.36,.06-2.62-.75-3.14-2.03l-18.48-44.82c-.84-2.04,.49-4.33,2.67-4.57Z"></path><path fill="#25468f" d="M822.8,787.43l50.55-5.45c1.47-.16,2.87,.71,3.39,2.11l18.09,48.21c.79,2.11-.69,4.39-2.92,4.48l-50.16,2.05c-1.36,.06-2.62-.75-3.14-2.03l-18.48-44.82c-.84-2.04,.49-4.33,2.67-4.57Z"></path><path fill="#e8f2fa" d="M850.82,809.94c-.62-1.72,.26-3.12,1.95-3.12s3.57,1.4,4.19,3.12c.62,1.72-.26,3.12-1.95,3.12s-3.57-1.4-4.19-3.12Z"></path><path fill="#e8f2fa" d="M824.31,791.99c-.3-.85,.13-1.53,.96-1.53s1.76,.69,2.06,1.53c.3,.85-.13,1.53-.96,1.53s-1.76-.69-2.06-1.53Z"></path></g><path fill="#ffae73" d="M1035.4,810.97s-70.06,26.17-80.59,25.64c-6.8-.35-63.36-20.51-63.36-20.51l-5.08,9.74s55.05,35.89,70.18,35.71c29.88-.35,80.29-18.95,85.98-22.61,5.69-3.66,9.4-24.27-7.14-27.97Z"></path><path fill="#ffae73" d="M891.44,816.1s-5.08-7.93-10.13-8.16c-5.06-.23-13.79,3.5-16.78,4.08-2.99,.58-11.49,3.38-8.96,7.58,2.53,4.2,14.25,5.13,19.3,4.2,5.06-.93,11.49,2.05,11.49,2.05l5.08-9.74Z"></path><path fill="#ffae73" d="M882.69,808.18s-8.04-3.74-10.34-4.44c-2.3-.7-1.84,.01-1.15,2.22,.69,2.21,4.83,4.32,4.83,5.01s6.66-2.79,6.66-2.79Z"></path><path fill="#ffae73" d="M828.01,811.9s3.21-10.72,6.73-7.35c3.67,3.5,1.44,7.01,.99,11.48-.86,8.55-2.56,8.18-3.64,7.79-1.08-.39-5.27-7.62-4.08-11.92Z"></path><path fill="#ffae73" d="M827.81,813.53s-1.62,9.12,6.92,13.89l-2.53-6.28-4.39-7.61Z"></path><path fill="#fff" d="M974.26,779.82s3.01-1.21,11.49-.51c0,0-.45,3.35-6.7,3.69-3.54,.19-4.79-3.17-4.79-3.17Z"></path><path fill="#889efa" d="M999.3,823.88s6.27,20.12,27.79,24.7c0,0,35.54-11.11,17.84-35.67,0,0-17.5-13.19-45.63,10.97Z"></path><path fill="#ffae73" d="M827.81,814.82s-1.48-5.02-1.56-5.89c-.09-.87,.02-1.31,.78-.7,.76,.61,1.92,2.22,1.58,3.74-.34,1.52-.8,2.84-.8,2.84Z"></path></g><g><g><path fill="#ffae73" d="M806.87,567.81c-1.16,1.35-1.31,2.86-.73,4.47,0,0,0,.02,.01,.02,1.06,2.98,4.57,6.3,8.65,9.62,.52,.43,.98,.81,1.39,1.17,.11,.09,.21,.19,.31,.28,.08,.07,.16,.15,.24,.22,3.8,3.55,2.37,4.37,9.2,11.58,7.79,8.22,13.15,8.37,14.67,7.62,1.29-.64-1.33-5-4.24-9.9-.14-.24-.28-.47-.42-.71-.39-.65-.77-1.31-1.16-1.97-3.4-5.9-2.53-8.66-1.72-17.43,.66-7.13,10.93-39.83,10.93-39.83l-14.92-2.61s-4.49,26.04-9.44,30.05c-2.65,2.14-5.61,2.16-8.15,3.75-.18,.11-.36,.22-.53,.34-1.45,.97-2.92,1.98-4.08,3.33Z"></path><path fill="#1e3865" d="M806.87,567.81c-1.16,1.35-1.31,2.86-.73,4.47,0,0,0,.02,.01,.02,1.3,2.97,4.72,6.28,8.66,9.59,.51,.43,.97,.83,1.37,1.2,.11,.09,.21,.19,.31,.28,.08,.07,.16,.15,.24,.22,3.8,3.55,2.37,4.37,9.2,11.58,7.79,8.22,13.15,8.37,14.67,7.62,1.29-.64-1.33-5-4.24-9.9-1.52-.56-8.56-3.46-13.88-10.37-4.52-5.85-7.59-13.3-10.66-17.88-.34-.06-.54-.1-.88-.17-1.45,.97-2.92,1.98-4.08,3.33Z"></path><path fill="#ffae73" d="M927.18,558.36c.92,4.67,7.49,3.89,14.82,2.07,7.33-1.82,5.59,.34,16.03-.83,10.44-1.17,13.6-5.12,13.92-6.69,.29-1.4-4.87-1.89-10.41-2.54-.7-.08-1.39-.17-2.09-.25-6.25-.79-10.82-4.88-16.49-8.24-5.37-3.18-13.39-16.14-13.39-16.14l-14.32,1.15s7.51,11.57,10.42,16.61c1.71,2.96,1.62,6.87,1.41,9.9-.11,1.64-.22,3.32,.11,4.97Z"></path><path fill="#1e3865" d="M942,560.43c7.33-1.82,5.59,.34,16.03-.83,10.44-1.17,13.6-5.12,13.92-6.69,.29-1.4-4.87-1.89-10.41-2.54l-.05,.11s-6.26,4.5-14.95,4.71c-7.08,.17-14.58-1.88-19.47-1.8-.11,1.64-.22,3.32,.11,4.97,.92,4.67,7.49,3.89,14.82,2.07Z"></path><path fill="#6f7deb" d="M872.32,465.51l-13.38,36.53-17.47,47.7s-4.74,.46-9.28-.86c-4.18-1.23-8.98-4.43-8.98-4.43,0,0,4.85-51.21,13.9-80.61,2.32-7.55,4.92-13.65,7.79-17.08,14.03-16.82,27.42,18.76,27.42,18.76Z"></path><path fill="#899bfa" d="M858.71,407.49c-7.62-2.49-27.49-.04-49.05,3.92-5.96,1.09-11.96-1.67-15.1-6.92h0l-54.26-4.3s-17.9,40.27-8.1,65.94c1.44,3.77,4.6,6.13,9.48,6.2h0s32.79,.05,43.27,.05c26.98,0,57.1-18.81,61-19.6,6.38-1.29,8.93,11.65,15.31,25.23,6.38,13.59,59.95,60.17,59.95,60.17,0,0,8.23,.08,11.64-1.21,3.66-1.39,5-3.2,5-3.2,0,0-59.36-119.81-79.13-126.28Z"></path><path fill="#10294c" d="M788.8,242.88c-4.03-2.43-7.96-2.8-10.36-2.74-1.67,.05-3.35-.06-5-.31-20.71-3.08-33.18,27.43-33.91,36.65-1.34,16.93-10.17,19.51-22.59,30.11-24.91,21.25-17.61,45.95-3.98,55.13,8.17,5.51,22.58,0,22.58,0,.2,.14,39.4-22.23,58.72-33.02,28.96-4.18,6.19-78.8-5.45-85.82Z"></path><path fill="#ffae73" d="M778.05,319.52c.09,.06-9.51,3.38-15.92,.5-6.03-2.7-10.6-12.77-10.51-12.78,2.74-.13,5.76-2.56,8.08-18.53l1.17,.43,19.65,7.17s-1.42,6.4-2.34,12.49c-.78,5.11-1.19,10.01-.12,10.73Z"></path><path fill="#f9924f" d="M780.51,296.3s-.78,3.45-1.93,9.9c-11.29-2.06-16.13-10.88-17.72-17.07l19.65,7.17Z"></path><path fill="#ffae73" d="M783.44,302.65s-26.88-3.66-24.38-20.61c2.5-16.95,.72-28.83,17.99-27.21,17.27,1.62,19.64,8.59,20.16,14.46,.52,5.86-6.72,33.88-13.78,33.37Z"></path><path fill="#10294c" d="M796.24,259.99s-17.21,15.04-28.92,16.26c-11.71,1.21-16.14-2.6-16.14-2.6,0,0,6.9-5.81,11.05-15.19,1.22-2.76,3.81-4.66,6.79-4.92,8.36-.73,24.2-1.07,27.22,6.45Z"></path><path fill="#1e3865" d="M785.48,258.64s5.76,5.65,7.57,9.84c1.75,4.04,2.27,13.71,.88,17.55,0,0,8.97-17.69,3.89-26.29-5.39-9.12-12.34-1.09-12.34-1.09Z"></path><path fill="#25468f" d="M800.69,359.69c-.81,55.2-.22,43.67-6.18,48.91-1.43,1.26-5.47,2.01-10.77,2.37-16.69,1.12-46.02-1.67-47.14-4.79-3.85-10.82-1.13-14.19-4.34-30.76-.33-1.76-.75-3.67-1.24-5.75-2.68-11.38-5.28-15.25,4.22-33.54,8.61-16.56,17.56-30.01,18.37-29.52,22.73,13.69,24.56,2.18,24.56,2.18,0,0,22.92,23.98,22.52,50.9Z"></path><path fill="#899bfa" d="M858.94,502.04l-17.47,47.7s-4.74,.46-9.28-.86c-4.18-1.23-8.98-4.43-8.98-4.43,0,0,4.85-51.21,13.9-80.61l21.83,38.21Z"></path><path fill="#25468f" d="M778.17,308.79s23.39,4.02,26.13,14.24c2.75,10.21,11.79,72.21,11.79,72.21,0,0-6.59,6.53-12.09,.96-5.49-5.57-17.28-58.01-17.28-58.01l-8.55-29.4Z"></path><path fill="#102c52" d="M783.74,410.97c-16.69,1.12-46.02-1.67-47.14-4.79-3.85-10.82-1.13-14.19-4.34-30.76l8.05-22.99s-1.33,25.6,6.11,32.33c7.44,6.73,30.47,13,34.09,18.62,1.75,2.7,2.89,5.41,3.23,7.58Z"></path><path fill="#ffae73" d="M764.62,400.2s16.46-3.72,19.12-2.24c2.66,1.48,9.15,6.88,9.96,8.76s-5.91-1.43-8.1-2.02c-1.42-.39-5.15,.93-6.99,1.55-7.77,2.63-12.53,1.28-12.53,1.28l-1.45-7.33Z"></path><path fill="#25468f" d="M753.59,306.59s-22.11,1.38-29.76,12.21c-10.77,15.24-32.14,80.19-19.89,88.85,13.79,9.76,62.77,2.55,62.77,2.55,0,0,1.63-7.73-.64-11.47-2.27-3.74-39.12-9.78-40.82-11.5-1.7-1.73,21.26-33.64,21.26-38.82s7.08-41.83,7.08-41.83Z"></path><path fill="#ffae73" d="M784.53,402.61s3.45,4.51,4.58,5.05c1.13,.54,1.86,.4,1.86,.4l-2.32-4.24-4.12-1.21Z"></path><path fill="#ffae73" d="M783.74,397.96l10.03,4.94s-.43,.71-1.66,.65c-1.23-.06-4.35-1.21-4.35-1.21l-4.02-4.38Z"></path></g><g><polygon fill="#ff912b" points="869.38 409.58 764.62 409.58 764.62 411.92 868.45 411.92 869.38 409.58"></polygon><polygon fill="#ff912b" points="789.11 411.92 868.45 411.92 892.31 351.72 813.1 351.72 789.11 411.92"></polygon><path fill="#fff" d="M848.42,381.82c.6-2.12-.61-3.83-2.69-3.83s-4.26,1.72-4.86,3.83c-.6,2.12,.61,3.83,2.69,3.83s4.26-1.72,4.86-3.83Z"></path></g></g><g id="e"><path fill="#ffae73" d="M1408.14,589.44c-2.32,6.34-6.35,13.7-10.58,15.53-4.79,2.07-6.79,5.01-6.79,5.01l-3.87-2.28-4.62-2.73s.11-.52,.34-1.37c.22-.84,.57-2.02,1.04-3.32,0,0,1.42-1.85,.55-4.17-.87-2.32-.7-5.91,.79-8.1,1.48-2.19,2.91-7.57,3.81-7.41,2.16,.38-1.06,7.78-.14,9.15,.84,1.24,1.88,.82,2.08,.72,.01,0,.02-.01,.04-.02,6.07-2.71,13.42-17.29,16.68-15.32,1.22,.74,1.69,11.61,.7,14.32Z"></path><g><path fill="#25468f" d="M1387.15,598.27l7.6,5.42c.54,.38,1.28,.25,1.66-.29l19.47-28.1c.38-.54,.25-1.3-.29-1.69l-7.6-5.42c-.54-.38-1.28-.25-1.66,.29l-19.47,28.1c-.38,.54-.25,1.3,.29,1.69Z"></path><path fill="#1e3865" d="M1394.11,603.23l4.45,3.18c.41,.29,.98,.19,1.26-.22l19.79-28.57c.29-.41,.19-.99-.22-1.28l-4.45-3.18c-.41-.29-.98-.19-1.26,.22l-19.79,28.57c-.29,.41-.19,.99,.22,1.28Z"></path></g><path fill="#6f7deb" d="M1278.13,557.95s38.67,68.41,52.7,81l51.44-38.9s7.46,2.32,10.73,9.92c0,0-31.23,64.55-61.99,67.29-30.75,2.74-73.92-77.37-73.92-77.37l21.04-41.94Z"></path><g><path fill="#102c52" d="M1190.63,1023.26h-22.34c-2.81-1.55-5.32-5.1-6.11-10.38-1.09-7.3-9.16-11.28-10.9-17.26-1.74-5.97,7.2-14.37,7.2-14.37l1.5-1.96,1.56-2.03,14.83,3.54s.37,3.58,.59,8.15c.16,3.29,.25,7.1,.06,10.43-.44,7.96,2.19,16.54,9.17,18.09,5.16,1.14,4.93,4.25,4.45,5.79Z"></path><path fill="#102c52" d="M1320.29,1023.26h-51.09c-2.46-3.04-1.55-14.27-1.18-17.93,.08-.74,.13-1.17,.13-1.17,0,0,17.45-14.16,19.84-3.32,.07,.34,.16,.67,.26,1,3.02,10.14,16.56,14.75,24.38,16.03,5.08,.84,6.96,3.52,7.66,5.39Z"></path><path fill="#ff912b" d="M1310.56,733.96s-2.65,33.53-5.76,73.83c-4.23,54.75-9.32,122-9.82,134.74-.87,22.12-4.36,57.51-4.36,57.51,0,0-8.28,8.41-24.86,4.86,0,0-14.77-50.52-18.99-103.97-.07-.88-.13-1.76-.2-2.64-3.93-54.41-10.03-168.99-10.03-168.99l74.02,4.65Z"></path><path fill="#fc7600" d="M1310.56,733.96s-2.65,33.53-5.76,73.83l-58.03,93.15c-.07-.88-.13-1.76-.2-2.64-3.93-54.41-10.03-168.99-10.03-168.99l74.02,4.65Z"></path><path fill="#ff912b" d="M1298.46,737.94s-47.75,121.43-79.15,178.5c-31.4,57.07-41.21,72.99-41.21,72.99,0,0-17.99-7.3-19.62-12.28,0,0,12.01-110.17,33.03-137.02,11.88-15.17,25.84-60.72,26.49-76.64,.65-15.93,4.25-47.44,4.25-47.44l76.21,21.9Z"></path></g><path fill="#ffae73" d="M1286.57,560.92c-18.66,5.97-49.45-10.87-49.45-10.87,0,0,15.7-12.38,14.8-39.61l14.43,11.79,9.8,8.01s-.04,4.72-1.11,13c-.28,2.18-.8,5.57,.81,7.32,6.25,6.76,10.72,10.36,10.72,10.36Z"></path><path fill="#f9924f" d="M1276.16,530.25s-.04,4.72-1.11,13c-10.86-1.89-23.18-19.69-23.18-19.69,5.53-1.62,10.37-1.91,14.49-1.32l9.8,8.01Z"></path><path fill="#ffae73" d="M1281.86,529.8s-30.82,5.19-33.71-14.33c-2.89-19.52-8.82-32,10.74-36.14,19.56-4.14,24.49,2.72,27.02,9,2.53,6.28,3.9,39.61-4.04,41.47Z"></path><path fill="#899bfa" d="M1312.62,736.76c-.56,.47-1.21,.76-1.96,.76-7.01-.1-27.44,3.85-44.73,2.05-14.58-1.42-27.48-5.8-41.33-12.1-1.84-.84-6.07-3.13-5.98-5.22,.06-2.28,.29-5.6,.57-9.77,.98-14.51,2.69-39.46,1.02-68.24-.3-5.36-.46-10.68-.48-15.91-.14-39.01,7.48-73.33,22.81-84.94,1.31-.95,9.34,3.03,16.73,6.73,6.82,3.41,12.17,3.78,18.62,2.45l7.92,5.79c7.85,7.39,16.45,17.44,20.18,32.7,3.18,12.98,5.05,36.4,6.07,60.67,.47,11,.84,22.09,.94,32.61v.38c.09,1.04,.09,2.18,.09,3.23,.38,27.01,0,48.43-.47,48.82Z"></path><path fill="#6f7deb" d="M1219.18,712.48c.98-14.51,2.69-39.46,1.02-68.24-.3-5.36-.46-10.68-.48-15.91,6.38-15.71,11.6-27.1,11.6-27.1h16.09s11.8,81.73-28.24,111.25Z"></path><g><path fill="#1e3865" d="M1136.76,805.11l68.62,9.92c8.93,1.29,17.28-5.07,18.55-14.13l4.24-30.17c1.27-9.06-4.99-17.53-13.92-18.82l-68.62-9.92c-8.93-1.29-17.28,5.07-18.55,14.13l-4.24,30.17c-1.27,9.06,4.99,17.53,13.92,18.82Z"></path><path fill="#25468f" d="M1218.12,760.92h0c-1.93-4.9-6.09-8.77-11.37-10.08h0s0,0-.01,0c-.52-.13-1.04-.23-1.58-.31l-13.66-1.97,.91-6.51c.21-1.45-.16-2.9-1.03-4.08-.87-1.18-2.15-1.94-3.58-2.15l-3.56-.52-14.35-2.07-2.59-.37c-2.96-.43-5.72,1.67-6.14,4.68l-.91,6.51-23.59-3.41c-8.96-1.3-17.34,5.08-18.62,14.18l-4.28,30.52c-1.28,9.09,5.01,17.59,13.98,18.89l68.5,9.9c1.21,.18,2.4,.21,3.57,.12h.01c1.88-.14,3.68-.62,5.35-1.37,5.04-2.26,8.86-7.02,9.69-12.93l4.29-30.51c.42-2.98,.02-5.88-1.01-8.5Zm-53.6-22.91c.13-.91,.83-1.6,1.69-1.74,.2-.03,.4-.04,.61,0l3.05,.44,11.29,1.64,6.16,.89c1.11,.16,1.88,1.21,1.72,2.32l-.91,6.51-24.51-3.55,.91-6.51Z"></path></g><path fill="#ffae73" d="M1188.08,714.13s-3.22,3.35-2.89,7.98c.83,11.52-.52,16.74-7.83,17.93,0,0-8.67,1.65-8.78-3.52,0,0,4.08,.04,3.22-7.2-.98-8.35-.89-8.43,4.52-12.79l3.58-6,8.18,3.6Z"></path><path fill="#899bfa" d="M1179.78,719.02c5.79,1.15,12.07,.68,12.07,.68,0,0,17.2-53.9,19.42-58.83,2.21-4.92,51.09-63.2,51.09-63.2l-20.36-51.69s-52.87,89.58-58.24,102.17c-8.87,20.8-11.95,67.44-11.95,67.44,0,0,3.41,2.54,7.97,3.44Z"></path><path fill="#25468f" d="M1248.12,513.6s3.16-.54,2.65-4.96c-.51-4.42-.5-10.2,3.04-9.12,3.54,1.08,3.72,3.95,5.17,2.27,1.46-1.68,1.48-8.76,12.02-9.25,10.54-.49,14.82,3.23,19.72,1.04,4.9-2.19,5.16-9.71,5.16-9.71,0,0-1.39,2.69-3.5,3.54,0,0,8.18-11.35-1.29-19.12-9.47-7.78-19.12-2.69-24.6-2.35-12.07,.74-19.87,1.48-23.81,9.52-3.94,8.05-2.32,30.39,5.43,38.13Z"></path><path fill="#ffae73" d="M1183.26,721.09s3.47,3.67,3.69,5.2c.7,4.9,2.32,7.02,1.51,7.55-1.68,1.11-3.9-2.52-4.97-5.78-1.06-3.26-.23-6.97-.23-6.97Z"></path></g><path fill="#9bd399" d="M1430.9,1023.27h-46c-2.47-2.12,1.71-6.94,6.06-7.26,1.89-.15,4.29,.26,7.02,.84,.63-8.53,4.25-46.87,17.87-45.33,15.32,1.72,0,16.88-4.33,25.86-3.21,6.65-6.59,16.18-8.14,20.68,1.24,.27,2.53,.54,3.85,.79,2.03-6.32,9.59-27.6,19.19-26.36,11.28,1.45,6.75,9.98-1.25,15.04-5.87,3.72-13.07,9.01-16.49,11.57,2.9,.48,5.93,.8,9,.73,7.88-.19,11.73,2.17,13.22,3.43Z"></path><rect fill="#1e3865" ry="2.37" rx="2.37" height="4.74" width="1620" y="1023.26"></rect><g><path fill="#a8b7ff" d="M1334.7,354.28c-3.36-55.79-41.94-65.1-77.39-65.08-35.45,.01-70.11,18.67-68.43,60.62,.73,18.11,5.71,33.83,17.54,44.97l-13.33,33.83,27.14-24.48c10.91,5.22,25.14,8.15,43.46,8.14,54.32-.02,73.17-22.11,71.01-58Z"></path><path fill="#e8f2fa" d="M1240.85,368.93h-8.55v-10.02h10.26l2.75-16.77h-9.5v-10.02h11.21l2.56-15.13h10.16l-2.57,15.13h15.58l2.47-15.13h10.16l-2.56,15.13h8.45v10.02h-10.16l-2.75,16.77h9.5v10.02h-11.21l-2.66,15.51h-10.16l2.66-15.51h-15.58l-2.56,15.51h-10.16l2.66-15.51Zm27.36-10.02l2.85-16.77h-15.58l-2.85,16.77h15.58Z"></path></g><g opacity=".3"><path fill="#a9c2ff" d="M268.48,517.59c2.28-37.84,28.45-44.15,52.49-44.14,24.04,0,47.55,12.66,46.41,41.12-.49,12.28-3.87,22.94-11.89,30.5l9.04,22.95-18.41-16.6c-7.4,3.54-17.05,5.53-29.48,5.52-36.84-.01-49.63-15-48.16-39.34Z"></path></g><g><g><path fill="#9bd399" d="M648.56,1017.73l-1.11-.18c-4.38-57.44-21.67-98.66-21.91-99.22l1.01-.44c.24,.57,17.66,42.06,22.01,99.85Z"></path><g><path fill="#fff" d="M613.81,912.55c2.13,2.45,12.12,6.39,12.81,5.77,.69-.62-1.93-11.16-4.06-13.61-2.13-2.45-5.82-2.68-8.24-.52-2.42,2.16-2.65,5.9-.51,8.35Z"></path><path fill="#fff" d="M629.11,904c-1.93,2.62-3.67,13.34-2.94,13.9,.74,.56,10.37-4.21,12.29-6.83,1.93-2.62,1.39-6.33-1.19-8.28-2.58-1.95-6.24-1.41-8.16,1.21Z"></path><path fill="#fff" d="M640.6,915.4c-3.11-.86-13.59,1.41-13.83,2.31-.24,.9,7.65,8.25,10.76,9.11,3.11,.86,6.32-1,7.16-4.15,.85-3.15-.99-6.41-4.1-7.27Z"></path><path fill="#fff" d="M633.52,929.62c-.31-3.25-6.12-12.39-7.03-12.3-.92,.09-4.89,10.18-4.58,13.44,.31,3.25,3.16,5.64,6.37,5.32,3.21-.31,5.56-3.21,5.25-6.46Z"></path><path fill="#fff" d="M617.62,928.92c2.85-1.52,9-10.42,8.57-11.25-.43-.83-11.14-.75-14,.77-2.85,1.52-3.95,5.1-2.45,7.99,1.5,2.89,5.02,4.01,7.88,2.49Z"></path><path fill="#ff7b35" d="M624.3,917.37c.17-1.06,1.15-1.79,2.2-1.62,1.05,.17,1.76,1.17,1.6,2.23-.17,1.06-1.15,1.79-2.2,1.62-1.05-.17-1.76-1.17-1.6-2.23Z"></path></g><path fill="#9bd399" d="M643.33,934.26c-3.17,3.95-6.59,20.55-5.48,21.47,1.11,.92,16.43-5.86,19.6-9.82,3.17-3.95,2.58-9.77-1.32-12.98-3.9-3.22-9.63-2.62-12.8,1.34Z"></path><path fill="#9bd399" d="M635.53,981.91c3.29,1.63,10.57,11.53,10.11,12.49-.46,.95-12.63,1.24-15.93-.39-3.29-1.63-4.66-5.66-3.05-9,1.61-3.34,5.58-4.73,8.87-3.1Z"></path></g><g><path fill="#9bd399" d="M680.29,1017.73l1.28-.21c5.03-65.95,24.88-113.28,25.16-113.92l-1.16-.51c-.28,.65-20.28,48.29-25.27,114.64Z"></path><g><path fill="#fff" d="M720.19,896.97c-2.45,2.81-13.91,7.34-14.7,6.63-.79-.71,2.21-12.81,4.66-15.62,2.45-2.81,6.68-3.08,9.45-.6,2.77,2.48,3.04,6.78,.59,9.59Z"></path><path fill="#fff" d="M702.63,887.16c2.21,3.01,4.22,15.32,3.37,15.96-.85,.64-11.9-4.83-14.11-7.84-2.21-3.01-1.6-7.27,1.37-9.51,2.97-2.24,7.16-1.62,9.37,1.39Z"></path><path fill="#fff" d="M689.44,900.25c3.57-.99,15.6,1.62,15.88,2.65,.28,1.03-8.79,9.47-12.36,10.46-3.57,.99-7.25-1.15-8.22-4.77-.97-3.62,1.13-7.36,4.7-8.34Z"></path><path fill="#fff" d="M697.57,916.57c.36-3.74,7.02-14.22,8.08-14.12,1.05,.1,5.62,11.69,5.26,15.43-.36,3.74-3.63,6.47-7.31,6.11-3.68-.36-6.38-3.68-6.02-7.42Z"></path><path fill="#fff" d="M715.81,915.77c-3.28-1.74-10.33-11.97-9.84-12.92,.49-.95,12.79-.86,16.07,.88,3.28,1.74,4.54,5.85,2.82,9.17-1.72,3.32-5.77,4.6-9.04,2.86Z"></path><path fill="#ff7b35" d="M708.15,902.5c-.19-1.22-1.32-2.05-2.53-1.86-1.2,.19-2.02,1.34-1.83,2.56,.19,1.22,1.32,2.05,2.53,1.86,1.2-.19,2.02-1.34,1.83-2.56Z"></path></g><path fill="#9bd399" d="M682.15,956.55c2.58,3.22,5.36,16.71,4.46,17.45-.91,.75-13.36-4.77-15.94-7.98-2.58-3.22-2.1-7.94,1.07-10.56,3.17-2.62,7.83-2.13,10.41,1.09Z"></path><path fill="#9bd399" d="M695.25,976.61c-3.78,1.87-12.14,13.24-11.61,14.34,.53,1.09,14.51,1.42,18.29-.45,3.78-1.87,5.35-6.49,3.51-10.33-1.84-3.83-6.4-5.43-10.18-3.56Z"></path></g><path fill="#9bd399" d="M620.16,1023.26s10.75-11.88,33.88-7.58c23.13,4.3,35.84-8.3,40.07,7.58h-73.95Z"></path></g></g></g></g></svg>