<svg viewBox="0 0 1620 1028" xmlns="http://www.w3.org/2000/svg"><g id="a"></g><g id="b"><g id="c"><g><path fill="#e8f2fa" d="M113.23,1024.64s-171.11-51.42-92.65-286.9c78.46-235.48,227.71-133.89,184.58-339.83C148.3,126.35,389.12-58.32,653.87,16.89c264.75,75.22,193.8,158.81,504.93,74.62,379.3-102.64,411.29,324.38,323.32,466.22-87.97,141.84,240.13,162.29,104.61,466.9H113.23Z"></path><g><path fill="#c8dffd" d="M1309.29,490.43s43.84-95.29,68.36-86.83c24.52,8.46-68.36,86.83-68.36,86.83Z"></path><path fill="#c8dffd" d="M1277.76,533.55s105.02-109.74,145.83-89.73c40.81,20.01-24.88,41.47-49.93,47.32-25.05,5.85-95.9,42.41-95.9,42.41Z"></path></g><path fill="#c8dffd" d="M1540.95,947.2c37.52-26.27,1.88-95.84,1.88-95.84,0,0-87.51-25.11-93.73-39.14-6.21-14.03,78.75,5.9,78.75,5.9-6.14-29.24-60.95-90.09-60.95-90.09,0,0-82.65,33.94-85.43,18.72-2.78-15.23,74.62-26.08,74.62-26.08-16.15-24.73-54.05-39.85-54.05-39.85-58.73-14.92-73.67,66.25-73.67,66.25,0,0-28.88,11.11-68.24,3.59h0s-7.51-2.18-19.36-2.91l2.3,7.48c2.07-.05,4.09,0,6.07,.13,.01,0,.02,0,.04,0,.03,0,.06,0,.09,0,1.24,.13,3.01,.33,5.17,.59h0s0,0,.01,0c4.9,.82,8.47,1.28,11.01,1.47,0,0,.02,0,.02,0,15.28,2.24,35.47,6.11,41.09,11.43,0,0,.84-1.21,2.73-2.73-.87,.87-1.78,1.78-2.73,2.73-21.8,21.79-6.4,87.3,11.42,120.56,17.83,33.26,22.48,14.42,31.89-10.13,9.41-24.55-7-63.37-4.65-77.36,2.35-13.98,13.69,1.29,19.29,25.66,5.59,24.37-13.05,44.05-4.67,83.66,8.38,39.6,85.13,45.18,85.13,45.18-15.87-23.82-16.77-76.16-8.75-80.99,8.01-4.83,28.81,65.88,34.75,75.95,5.95,10.07,32.44,22.08,69.95-4.19Z"></path><g><path fill="#dceaff" d="M356.12,597.18s-55.29-120.19-86.22-109.52c-30.93,10.67,86.22,109.52,86.22,109.52Z"></path><path fill="#dceaff" d="M395.89,651.55s-132.46-138.41-183.93-113.17c-51.47,25.24,31.38,52.31,62.98,59.68,31.6,7.37,120.96,53.49,120.96,53.49Z"></path></g><path fill="#c8dffd" d="M146.15,731.01c.68-42.06,65.91-46.52,65.91-46.52,0,0,58.62,57.5,71.32,55.83,12.7-1.67-41.11-59.6-41.11-59.6,23.27-8.88,91.42,5.93,91.42,5.93,0,0,15.18,81.4,27.1,76.45,11.92-4.95-16.89-71.35-16.89-71.35,24.83,1.17,53.16,24.08,53.16,24.08,37.99,39.5-11.55,89.47-11.55,89.47,0,0,5.83,28.09,29.56,55.73h0s5.04,4.92,11.13,13.97l-6.29,1.69c-.94-1.66-1.92-3.25-2.94-4.75,0-.01,0-.02-.02-.03-.01-.02-.03-.04-.04-.06-.68-.92-1.64-2.23-2.84-3.82h0s0,0,0-.01c-2.87-3.49-4.87-6.11-6.2-8.03,0,0,0-.01-.01-.02-8.74-11.04-85.1,18.92-116.65,20.43-31.56,1.51-20.61-11.03-7.92-30.02,12.69-18.99,47.45-24.24,56.09-32.67,8.64-8.43-7.33-10.24-26.95-3.22-19.61,7.02-24.57,31.04-56.1,43.01-31.53,11.97-71.49-46.19-71.49-46.19,24.06,1.38,60.95-22.51,60.55-31.12-.4-8.61-59.44,8.14-69.26,8.17-9.81,.02-30.63-15.31-29.95-57.37Z"></path><g><path fill="#ff912b" d="M809.31,1021.6H343.54c-10.12,0-18.32-8.77-18.32-19.58V338.65c0-11.1,8.63-19.99,19.01-19.57l483.4,23.77V1002.02c0,10.82-8.2,19.58-18.32,19.58Z"></path><path fill="#ff912b" d="M845.95,1021.6h465.77c10.12,0,18.32-8.77,18.32-19.58V338.65c0-11.1-8.63-19.99-19.01-19.57l-483.4,23.77V1002.02c0,10.82,8.2,19.58,18.32,19.58Z"></path><path fill="#a9c2ff" d="M360.49,347.86l-15.1,13.08c-2.13,1.85-3.38,4.66-3.38,7.63V1011.69c0,5.38,4,9.74,8.93,9.74h37.6c5.15,0,9.23-4.73,8.92-10.33l-36.97-663.24Z"></path><path fill="#a9c2ff" d="M1295.7,347.86l15.1,13.08c2.13,1.85,3.38,4.66,3.38,7.63V1011.69c0,5.38-4,9.74-8.93,9.74h-37.6c-5.15,0-9.23-4.73-8.92-10.33l36.97-663.24Z"></path><path fill="#fff6ee" d="M810.4,1021.6H372.17c-9.52,0-17.24-8.47-17.24-18.92V361.77c0-10.73,8.12-19.31,17.88-18.91l382.51,15.76c40.36,1.66,72.31,38.06,72.31,82.4V1002.68c0,10.45-7.72,18.92-17.24,18.92Z"></path><path fill="#fff6ee" d="M843.45,1021.6h441.06c8.74,0,15.82-7.77,15.82-17.36V360.15c0-9.85-7.45-17.72-16.41-17.35l-392.1,16.15c-35.83,1.48-64.19,33.79-64.19,73.15V1004.24c0,9.59,7.08,17.36,15.82,17.36Z"></path><rect fill="#fddcc3" height="416.16" width="2.38" y="470.42" x="826.44"></rect></g><g><g><path fill="#ffae73" d="M1056.98,428.87c.88,1.09,.98,2.3,.54,3.59,0,0,0,.01,0,.02-.83,2.38-3.53,5.03-6.66,7.67-.4,.34-.76,.65-1.07,.93-.08,.07-.16,.15-.24,.23-.06,.06-.12,.12-.18,.17-2.92,2.83-1.83,3.49-7.09,9.24-5.99,6.55-10.09,6.64-11.25,6.03-.98-.52,1.04-4,3.29-7.92,.11-.19,.22-.38,.33-.57,.3-.52,.6-1.05,.89-1.57,2.63-4.71,1.98-6.94,1.41-13.99-.46-5.73-8.14-32.04-8.14-32.04l11.41-2.01s3.29,20.93,7.05,24.18c2.01,1.73,4.27,1.77,6.21,3.06,.14,.09,.27,.18,.4,.28,1.1,.79,2.22,1.6,3.1,2.69Z"></path><path fill="#1e3865" d="M1056.98,428.87c.88,1.09,.98,2.3,.54,3.59,0,0,0,.01,0,.02-1.01,2.38-3.64,5.02-6.67,7.65-.4,.34-.74,.66-1.06,.96-.08,.07-.16,.15-.24,.23-.06,.06-.12,.12-.18,.17-2.92,2.83-1.83,3.49-7.09,9.24-5.99,6.55-10.09,6.64-11.25,6.03-.98-.52,1.04-4,3.29-7.92,1.16-.44,6.55-2.73,10.66-8.25,3.61-4.84,6.04-11.09,8.5-14.69,.14,.09,.27,.18,.4,.28,1.1,.79,2.22,1.6,3.1,2.69Z"></path><path fill="#ffae73" d="M965.14,420.59c-.73,3.75-5.74,3.08-11.33,1.58-5.59-1.5-4.27,.24-12.24-.76-7.97-1-10.36-4.19-10.6-5.45-.21-1.12,3.73-1.49,7.96-1.98,.53-.06,1.07-.13,1.6-.19,4.78-.6,8.29-3.86,12.64-6.52,4.12-2.52,10.32-12.88,10.32-12.88l10.93,1.01s-5.8,9.25-8.05,13.27c-1.32,2.37-1.27,5.51-1.13,7.94,.08,1.32,.15,2.67-.11,3.99Z"></path><path fill="#1e3865" d="M953.81,422.17c-5.59-1.5-4.27,.24-12.24-.76-7.97-1-10.36-4.19-10.6-5.45-.21-1.12,3.73-1.49,7.96-1.98l.04,.09s4.76,3.65,11.39,3.87c5.41,.18,11.15-1.43,14.88-1.34,.08,1.32,.15,2.67-.11,3.99-.73,3.75-5.74,3.08-11.33,1.58Z"></path><path fill="#1e3865" d="M1044.63,410.02s-.76,.53-1.9,1.2c-1.35,.79-3.24,1.79-4.98,2.31-1.86,.56-3.76,.7-5.13,.71-1.19,0-1.97-.08-1.97-.08l-13.1-38.39-2.37-6.94-2.52-7.39-.88-2.57-4.26-12.5s10.42-28.49,21.05-14.91c1.29,1.65,2.5,4.06,3.64,7.02,.78,2.01,1.51,4.28,2.21,6.74,.53,1.85,1.03,3.8,1.52,5.83,1.32,5.53,2.5,11.64,3.52,17.77,3.42,20.48,5.15,41.19,5.15,41.19Z"></path><path fill="#25468f" d="M1114.99,349.57l-53.1,2.38c-11.63-2.56-21.45-9.13-28.12-12.65-.55-.29-1.07-.57-1.56-.82-2.28-1.21-3.85-2.03-4.49-2.17-4.04-.9-6.12,6.12-9.54,14.75-.7,1.76-1.45,3.58-2.29,5.41-.6,1.31-1.72,3.01-3.23,4.97-.28,.36-.57,.73-.88,1.11-11.75,14.63-42,41.88-42,41.88,0,0-.36,0-.93-.01-1.85-.04-5.97-.22-7.95-1.03-1.14-.47-1.98-.98-2.58-1.43-.87-.66-1.23-1.17-1.23-1.17,0,0,36.2-75.45,54.94-96h0c.27-.3,.54-.59,.81-.86,2.05-2.13,3.86-3.54,5.37-4.05,6.39-2.14,47.69,.25,47.69,.25l1.32-2.28,2.21-.17,.38-.03,1.84-.14h0l2.54-.19,3.77-.29,10.21-.77,1.64-.12,18.87-1.43s.86,2.07,2.02,5.5c.45,1.34,.95,2.88,1.47,4.59,3.37,11.23,7.73,31.45,2.79,44.77Z"></path><path fill="#1e3865" d="M1127.07,219.7c-9.43-8.58-16.16-10.71-17.1-24.3-.51-7.38-9.8-31.78-25.51-29.65-1.31,.18-2.64,.3-3.96,.25-1.84-.08-4.87,.19-7.99,2.14-7.57,4.72-21.5,48.38-12.11,63.73,1.68,2.76,4.12,4.6,7.49,5.13,.4,.24,.8,.48,1.21,.73h0c1.69,1.01,3.55,2.12,5.51,3.31,11.1,6.67,25.64,15.5,33.09,19.96h0c.45,.27,.87,.53,1.27,.76,.86,.51,1.6,.95,2.17,1.28,.87,.51,1.38,.79,1.42,.79,0,0,1.92,.79,4.61,1.38,3.74,.83,8.99,1.3,12.64-1.25,1.44-1.01,2.8-2.25,4-3.7,7.56-9.01,9.55-25.75-6.75-40.58Z"></path><path fill="#ffae73" d="M1080.32,229.72c-.07,.04,7.24,2.77,12.16,.49,4.62-2.14,8.17-10.19,8.1-10.2-2.1-.12-4.38-2.09-6.07-14.92l-.89,.33-15.05,5.64s1.05,5.14,1.72,10.04c.57,4.11,.86,8.04,.03,8.62Z"></path><path fill="#f9924f" d="M1078.56,211.07s.64,3.6,1.53,8.75c8.63-1.59,12.27-9.44,13.52-14.4l-15.05,5.64Z"></path><path fill="#ffae73" d="M1076.29,216.15s20.55-2.78,18.73-16.4c-1.82-13.62-.4-23.15-13.6-21.95-13.2,1.2-15.05,6.79-15.48,11.49-.43,4.7,4.95,27.24,10.35,26.86Z"></path><path fill="#1e3865" d="M1066.74,181.83s13.07,12.18,22,13.22c8.94,1.04,12.34-1.99,12.34-1.99,0,0-5.24-4.7-8.36-12.26-.92-2.23-2.88-3.76-5.16-3.99-6.38-.64-18.48-.99-20.82,5.02Z"></path><path fill="#1e3865" d="M1074.97,180.81s-4.43,4.5-5.83,7.85c-1.36,3.23-1.81,10.99-.77,14.08,0,0-6.76-14.25-2.83-21.13,4.16-7.29,9.43-.81,9.43-.81Z"></path><path fill="#a9c2ff" d="M1062.81,261.84c.33,44.32-.06,35.06,4.46,39.29,1.09,1.02,4.17,1.65,8.22,1.96,12.74,1,35.16-1.07,36.03-3.58,3-8.67,.94-11.38,3.48-24.67,.26-1.41,.59-2.94,.97-4.61,2.11-9.12,4.12-12.21-3.04-26.95-6.49-13.35-13.26-24.19-13.87-23.8-17.43,10.86-18.77,1.61-18.77,1.61,0,0-17.63,19.12-17.47,40.73Z"></path><path fill="#25468f" d="M1044.63,410.02s-.76,.53-1.9,1.2c-1.35,.79-3.24,1.79-4.98,2.31-1.86,.56-3.76,.7-5.13,.71-1.19,0-1.97-.08-1.97-.08l-13.1-38.39,3.84-6.94,9.82-17.77,3.22-5.83c.53,1.85,1.03,3.8,1.52,5.83,1.32,5.53,2.5,11.64,3.52,17.77,3.42,20.48,5.15,41.19,5.15,41.19Z"></path><path fill="#a9c2ff" d="M1080.29,221.11s-17.88,3.09-20.04,11.28c-2.15,8.18-14.81,56.29-14.81,56.29,0,0,9.07,1.81,13.29-2.63,4.22-4.44,14.87-41.38,14.87-41.38l6.69-23.55Z"></path><path fill="#8eb2f3" d="M1075.49,303.1c12.74,1,35.16-1.07,36.03-3.58,3-8.67,.94-11.38,3.48-24.67l-6.03-18.5s.88,20.56-4.84,25.92c-5.72,5.36-23.35,10.26-26.14,14.76-1.35,2.16-2.24,4.32-2.51,6.07Z"></path><path fill="#ffae73" d="M1090.15,294.56s-12.56-3.08-14.59-1.9c-2.04,1.17-7.02,5.47-7.66,6.97-.63,1.5,4.52-1.11,6.2-1.58,1.08-.3,3.93,.78,5.33,1.29,5.92,2.15,9.56,1.1,9.56,1.1l1.15-5.88Z"></path><path fill="#a9c2ff" d="M1099.07,219.49s16.88,1.24,22.66,9.97c8.15,12.3,24.12,64.56,14.72,71.44-10.59,7.75-47.96,1.69-47.96,1.69,0,0-1.2-6.21,.55-9.2,1.75-2.99,29.93-7.62,31.24-9,1.31-1.38-16.06-27.13-16.03-31.28,.03-4.16-5.19-33.62-5.19-33.62Z"></path><path fill="#ffae73" d="M1074.92,296.39s-2.66,3.6-3.53,4.03c-.87,.43-1.42,.31-1.42,.31l1.8-3.39,3.15-.95Z"></path><path fill="#ffae73" d="M1075.56,292.66l-7.69,3.91s.32,.57,1.27,.53c.94-.04,3.33-.95,3.33-.95l3.09-3.49Z"></path></g><g><g><polygon fill="#ff912b" points="1073.04 304.24 1012.44 303.79 994.53 255.33 1055.04 255.78 1073.04 304.24"></polygon><polygon fill="#fc7600" points="1011.74 301.9 1091.76 302.5 1091.75 304.38 1012.44 303.79 1011.74 301.9"></polygon></g><path fill="#fff" d="M1027.9,279.74c-.45-1.7,.49-3.07,2.08-3.06,1.59,.01,3.25,1.4,3.69,3.1,.45,1.7-.48,3.07-2.08,3.06-1.59-.01-3.25-1.4-3.69-3.1Z"></path></g></g><g><g><path fill="#25468f" transform="translate(1158.23 1953.69) rotate(180)" d="M411.74,932.51h334.75c19.37,0,35.09,15.73,35.09,35.09v18.48c0,19.37-15.73,35.09-35.09,35.09H411.74c-19.37,0-35.09-15.73-35.09-35.09v-18.48c0-19.37,15.73-35.09,35.09-35.09Z"></path><path fill="#fddcc3" d="M600.71,965.05l-.29,19.38c-.26,17.14,12.57,31.26,28.65,31.54l214.98,3.66,.06-3.86c-12.06-6.69-20.2-20.23-19.97-35.7l.1-6.82c.23-15.48,8.78-28.73,21.03-35v-.08l-214.98-3.66c-16.08-.27-29.32,13.4-29.58,30.54Z"></path><path fill="#143674" d="M849.68,1021.18h-226.49c-14.61,0-26.05-19.49-26.05-44.36s11.44-44.36,26.05-44.36h226.49c1.88,0,3.41,1.63,3.41,3.63s-1.52,3.63-3.41,3.63h-226.49c-10.43,0-19.24,16.99-19.24,37.1s8.81,37.1,19.24,37.1h226.49c1.88,0,3.41,1.63,3.41,3.63s-1.52,3.63-3.41,3.63Z"></path><rect fill="#eec09d" height=".57" width="194.77" y="956.07" x="633.3"></rect><rect fill="#eec09d" height=".52" width="73.94" y="964.17" x="751.36"></rect><rect fill="#eec09d" height=".52" width="128.99" y="991.71" x="696.32"></rect></g><path fill="#ff7b35" d="M657.49,956.36s9.99,4.46,11.18,19.51c1.19,15.05,0,23.07,0,23.07l-12.06-6.12-12.18,6.12v-23.52s-.45-19.05-17.07-19.05h30.13Z"></path></g><g><path fill="#5c9cf4" transform="translate(1031.78 1798.28) rotate(180)" d="M391.2,865.77h249.37c14.58,0,26.42,11.84,26.42,26.42v13.91c0,14.58-11.84,26.42-26.42,26.42h-249.37c-14.58,0-26.42-11.84-26.42-26.42v-13.91c0-14.58,11.84-26.42,26.42-26.42Z"></path><path fill="#fddcc3" d="M532,890.23l-.22,14.57c-.19,12.88,9.38,23.5,21.38,23.7l160.44,2.75,.04-2.9c-9-5.03-15.08-15.2-14.91-26.83l.08-5.12c.17-11.63,6.55-21.59,15.7-26.31v-.06l-160.44-2.75c-12-.21-21.89,10.07-22.08,22.96Z"></path><path fill="#3986e3" d="M717.81,932.42h-169.03c-10.9,0-19.44-14.65-19.44-33.35s8.54-33.35,19.44-33.35h169.03c1.4,0,2.54,1.22,2.54,2.73s-1.14,2.73-2.54,2.73h-169.03c-7.78,0-14.36,12.77-14.36,27.89s6.58,27.89,14.36,27.89h169.03c1.4,0,2.54,1.22,2.54,2.73s-1.14,2.73-2.54,2.73Z"></path><rect fill="#eec09d" height=".39" width="122.05" y="883.5" x="579.64"></rect><rect fill="#eec09d" height=".39" width="55.18" y="889.57" x="644.44"></rect><rect fill="#eec09d" height=".39" width="96.26" y="910.26" x="603.36"></rect></g><g><g><path fill="#ffae73" d="M1244.42,810.43s3.11,10.21,2.84,12.54c-.27,2.33-2.22,10.31-3.61,12.36-1.39,2.04-2.08-8.32-3.19-9.88-1.1-1.56-.23,3.9-1.01,4.41-.78,.51-2.4-4.02-3.1-5.61-.7-1.59,1.71-7.48,1.71-11.58,0-4.1,6.35-2.24,6.35-2.24Z"></path><path fill="#1e3865" d="M1171.29,729.33c-.86-11.71,11.07-19.73,20.49-13.65,.19,.13,.38,.25,.57,.38,14.1,9.68,44.53,54.83,46.62,59.35,2.09,4.52,8.28,40.51,8.28,40.51,0,0-7.64,2.98-11.21-.11,0,0-12.39-34.13-14.22-35.83-1.83-1.71-49.55-30.25-49.95-40.95-.11-2.83-.32-6.23-.58-9.7Z"></path></g><g><polygon fill="#ff912b" points="1108.4 710.44 1112.54 723.14 1052.61 745.39 1048.47 732.69 1108.4 710.44"></polygon><polygon fill="#fddbba" points="1036.61 744.21 1052.61 745.39 1048.47 732.69 1036.61 744.21"></polygon><path fill="#fddbba" d="M1117.24,713.61l.27,.83c1.1,3.37-.57,7.06-3.74,8.24l-1.24,.46-4.15-12.7,1.57-.58c2.98-1.11,6.24,.57,7.28,3.75Z"></path></g><g><path fill="#154079" d="M1256.44,993.61s5.69,5.53,4.58,9.46c-1.11,3.93-6.24,6.55-6.93,11.35-.69,4.8-3.47,7.42-5.96,7.42h-11.9s-1.84-3.38,2.6-4.4c4.44-1.02,6.11-6.66,5.83-11.9-.28-5.24,.42-12.23,.42-12.23l9.43-2.33,1.94,2.62Z"></path><path fill="#154079" d="M1186.68,1007.92s1.02,12.59-1.48,13.9l-31.95-.07s0-3.93,5.13-4.8c5.13-.87,14.14-4.08,15.67-11.21,1.53-7.13,12.62,2.18,12.62,2.18Z"></path><path fill="#ff912b" d="M1159.71,830.09s1.68,22.07,3.67,48.59c2.69,36.03,5.93,80.29,6.25,88.68,.55,14.56,2.77,37.85,2.77,37.85,0,0,5.27,5.53,15.81,3.2,0,0,9.39-33.25,12.08-68.42,.04-.58,.08-1.16,.13-1.74,2.5-35.81,6.38-111.22,6.38-111.22l-47.08,3.06Z"></path><path fill="#f70" d="M1159.71,830.09s1.68,22.07,3.67,48.59l36.91,61.3c.04-.58,.08-1.16,.13-1.74,2.5-35.81,6.38-111.22,6.38-111.22l-47.08,3.06Z"></path><path fill="#ff912b" d="M1167.41,832.71s30.37,79.92,50.34,117.47c19.97,37.56,26.21,48.04,26.21,48.04,0,0,11.44-4.8,12.48-8.08,0,0-7.64-72.5-21.01-90.18-7.56-9.99-16.43-39.96-16.85-50.44-.42-10.48-2.7-31.22-2.7-31.22l-48.47,14.41Z"></path></g><path fill="#ffae73" d="M1193.59,712.83s-20.35,11-32.27,7.33c0,0,2.84-3.98,7.89-7.01-.46-2.53-.82-4.72-1.03-6.58-.58-4.29-.63-6.73-.63-6.73l7.8-6.81,7.4-6.52c-.26,17.9,10.83,26.32,10.83,26.32Z"></path><path fill="#25468f" d="M1213.81,824.62c-8.22,5.3-15.99,9.29-25.1,11.52-10.74,2.71-23.93,1.91-28.35,2.63-.45,.07-.88-.06-1.29-.35-.35-.19-2.29-14.15-4.25-31.77-.09-.71-.18-1.43-.21-2.14l-.03-.24c-.76-6.89-1.42-14.12-2-21.38-.47-5.64-.86-11.23-1.13-16.47-.34-6.56-.48-12.58-.34-17.54,.06-2.27,.19-4.3,.38-6.07,1.16-10.29,5.77-17.65,10.1-23.12l3.6-4.36c4.17,.28,8.43-.56,12.45-3.39,4.39-3.08,9.15-6.74,10.05-6.18,6.73,3.93,12.2,14.44,16.11,27.89,2.24,7.74,3.97,16.52,5.07,25.82,.35,2.89,.66,5.85,.89,8.79,.05,.55,.08,1.09,.12,1.63,.53,8.06,1.39,15.61,2.35,22.35,1.29,9.1,2.75,16.71,3.79,22.08,.52,2.73,.92,4.84,1.15,6.36,.21,1.32-2.27,3.21-3.38,3.95Z"></path><path fill="#f99352" d="M1183.02,693.35s-5,10.2-14.84,13.23c-.58-4.29-.63-6.73-.63-6.73l7.8-6.81,7.66,.32Z"></path><path fill="#ffae73" d="M1163.94,699.63s19.66,3,21.26-9.88c1.6-12.88,5.22-21.17-7.27-23.63-12.49-2.46-15.54,2.12-17.07,6.29-1.53,4.16-1.99,26.12,3.08,27.23Z"></path><path fill="#2a3967" d="M1191.85,664.28c.17-.22,.58-.41,1.49-.48,0,0-.74-.47-1.72-.48-.22-1.35-.94-3.73-3.13-4.27,0,0,1.19,.64,1.37,2.08-2.58-2.72-8.04-4.62-23.04-3.04-19.76,2.08-12.99,15.46-10.4,17.01,2.59,1.56,8.96-3,13.74-2.69,4.78,.3,5.83,7.64,7.47,8.61,1.64,.98,.97-.8,3.14-1.9,2.17-1.1,2.45,2.76,1.87,5.3-.59,2.53,2.49,5.79,2.49,5.79l2.98-3.56c2.98-3.56,5.57-18.42,4.13-21.54-.13-.28-.25-.56-.38-.84Z"></path><path fill="#1e3865" d="M1185.61,750.04s-16.58,13.45-34.15,16.39c-.34-6.56-.48-12.58-.34-17.54l34.49,1.15Z"></path><g><path fill="#ffae73" d="M1083.8,732.69c-.26-.3-3.64-12.35-9.49-11.47-3.81,.57-10.05,2.93-8.39,8.28,.65,2.11,12.27,9.36,12.27,9.36l5.61-6.18Z"></path><path fill="#25468f" d="M1187.66,724.06c9.45,6.03,8.69,21.04-1.42,25.71-.21,.1-.42,.19-.62,.28-15.56,6.66-61.88,7.39-72.39,6.17-11.4-1.33-35.77-16.26-35.77-16.26,0,0,2.14-8.36,6.57-9.68,0,0,25.75,7.78,35.64,8.38,6.26,.38,51.82-25.56,60.24-19.72,2.23,1.54,4.95,3.33,7.76,5.12Z"></path></g></g><g><g><polygon fill="#fddcc3" points="961.19 962.64 855.83 968.16 855.83 855.84 961.19 850.32 961.19 962.64"></polygon><g><polygon fill="#fff6ee" points="863.75 954.92 894.87 893.47 917.75 925.55 929.18 911.63 953.39 950.22 863.75 954.92"></polygon><path fill="#fff6ee" d="M909.7,884.11c0-4.74,3.61-8.77,8.05-9.01,4.45-.23,8.05,3.42,8.05,8.16s-3.61,8.77-8.05,9.01c-4.45,.23-8.05-3.42-8.05-8.16Z"></path></g></g><g><polygon fill="#fddcc3" points="1274.28 533.17 1122.5 541.12 1122.5 379.31 1274.28 371.36 1274.28 533.17"></polygon><g><polygon fill="#fff6ee" points="1133.9 522.04 1178.73 433.52 1211.7 479.73 1228.16 459.68 1263.04 515.27 1133.9 522.04"></polygon><path fill="#fff6ee" d="M1200.1,420.03c0-6.83,5.19-12.64,11.6-12.98,6.41-.34,11.6,4.93,11.6,11.76s-5.19,12.64-11.6,12.98c-6.41,.34-11.6-4.93-11.6-11.76Z"></path></g></g><g><polygon fill="#ff912b" points="1004.26 655.25 855.83 663.03 855.83 653.81 1004.26 646.04 1004.26 655.25"></polygon><polygon fill="#fddcc3" points="935.41 677.52 855.83 681.69 855.83 677.08 935.41 672.91 935.41 677.52"></polygon><polygon fill="#fddcc3" points="912.08 694.07 855.83 697.02 855.83 692.41 912.08 689.46 912.08 694.07"></polygon><polygon fill="#fddcc3" points="979.25 690.55 923.01 693.5 923.01 688.89 979.25 685.94 979.25 690.55"></polygon><polygon fill="#fddcc3" points="1055.81 686.54 987.27 690.13 987.27 685.52 1055.81 681.93 1055.81 686.54"></polygon><polygon fill="#fddcc3" points="904.67 709.48 855.83 712.04 855.83 707.43 904.67 704.87 904.67 709.48"></polygon><polygon fill="#fddcc3" points="962.98 706.42 914.15 708.98 914.15 704.37 962.98 701.81 962.98 706.42"></polygon><polygon fill="#fddcc3" points="1029.44 702.94 969.94 706.06 969.94 701.45 1029.44 698.33 1029.44 702.94"></polygon></g><g><polygon fill="#ff912b" points="1004.26 551.25 855.83 559.02 855.83 549.81 1004.26 542.03 1004.26 551.25"></polygon><polygon fill="#fddcc3" points="935.41 573.51 855.83 577.68 855.83 573.07 935.41 568.9 935.41 573.51"></polygon><polygon fill="#fddcc3" points="1030.43 568.53 950.86 572.7 950.86 568.09 1030.43 563.92 1030.43 568.53"></polygon><polygon fill="#fddcc3" points="912.08 590.07 855.83 593.01 855.83 588.41 912.08 585.46 912.08 590.07"></polygon><polygon fill="#fddcc3" points="979.25 586.55 923.01 589.49 923.01 584.89 979.25 581.94 979.25 586.55"></polygon><polygon fill="#fddcc3" points="1055.81 582.54 987.27 586.13 987.27 581.52 1055.81 577.93 1055.81 582.54"></polygon><polygon fill="#fddcc3" points="904.67 605.47 855.83 608.03 855.83 603.42 904.67 600.86 904.67 605.47"></polygon><polygon fill="#fddcc3" points="962.98 602.42 914.15 604.98 914.15 600.37 962.98 597.81 962.98 602.42"></polygon><polygon fill="#fddcc3" points="1029.44 598.94 969.94 602.05 969.94 597.44 1029.44 594.33 1029.44 598.94"></polygon></g><g><polygon fill="#ff912b" points="1226.05 564.07 1121.64 569.55 1121.64 563.06 1226.05 557.59 1226.05 564.07"></polygon><polygon fill="#fddcc3" points="1177.62 579.74 1121.64 582.67 1121.64 579.43 1177.62 576.49 1177.62 579.74"></polygon><polygon fill="#fddcc3" points="1244.46 576.23 1188.49 579.17 1188.49 575.92 1244.46 572.99 1244.46 576.23"></polygon><polygon fill="#fddcc3" points="1161.21 591.38 1121.64 593.45 1121.64 590.21 1161.21 588.14 1161.21 591.38"></polygon><polygon fill="#fddcc3" points="1208.46 588.91 1168.9 590.98 1168.9 587.74 1208.46 585.66 1208.46 588.91"></polygon><polygon fill="#fddcc3" points="1262.32 586.08 1214.1 588.61 1214.1 585.37 1262.32 582.84 1262.32 586.08"></polygon><polygon fill="#fddcc3" points="1156 602.22 1121.64 604.02 1121.64 600.78 1156 598.98 1156 602.22"></polygon><polygon fill="#fddcc3" points="1197.02 600.07 1162.66 601.87 1162.66 598.63 1197.02 596.83 1197.02 600.07"></polygon><polygon fill="#fddcc3" points="1243.77 597.62 1201.91 599.81 1201.91 596.57 1243.77 594.38 1243.77 597.62"></polygon></g><g><polygon fill="#ff912b" points="1004.26 763.75 855.83 771.52 855.83 762.31 1004.26 754.53 1004.26 763.75"></polygon><polygon fill="#fddcc3" points="935.41 786.01 855.83 790.18 855.83 785.57 935.41 781.4 935.41 786.01"></polygon><polygon fill="#fddcc3" points="1030.43 781.03 950.86 785.2 950.86 780.59 1030.43 776.42 1030.43 781.03"></polygon><polygon fill="#fddcc3" points="912.08 802.56 855.83 805.51 855.83 800.9 912.08 797.96 912.08 802.56"></polygon><polygon fill="#fddcc3" points="979.25 799.05 923.01 801.99 923.01 797.38 979.25 794.44 979.25 799.05"></polygon><polygon fill="#fddcc3" points="1055.81 795.03 987.27 798.63 987.27 794.02 1055.81 790.43 1055.81 795.03"></polygon><polygon fill="#fddcc3" points="904.67 817.97 855.83 820.53 855.83 815.92 904.67 813.36 904.67 817.97"></polygon><polygon fill="#fddcc3" points="962.98 814.92 914.15 817.48 914.15 812.87 962.98 810.31 962.98 814.92"></polygon><polygon fill="#fddcc3" points="1029.44 811.43 969.94 814.55 969.94 809.94 1029.44 806.83 1029.44 811.43"></polygon></g><g><polygon fill="#ff912b" points="1103.01 908.27 988.37 914.28 988.37 905.06 1103.01 899.05 1103.01 908.27"></polygon><polygon fill="#fddcc3" points="1049.83 929.71 988.37 932.93 988.37 928.32 1049.83 925.1 1049.83 929.71"></polygon><polygon fill="#fddcc3" points="1123.22 925.87 1061.76 929.09 1061.76 924.48 1123.22 921.26 1123.22 925.87"></polygon><polygon fill="#fddcc3" points="1031.81 945.99 988.37 948.26 988.37 943.66 1031.81 941.38 1031.81 945.99"></polygon><polygon fill="#fddcc3" points="1083.7 943.27 1040.25 945.55 1040.25 940.94 1083.7 938.66 1083.7 943.27"></polygon><polygon fill="#fddcc3" points="1142.83 940.17 1089.89 942.95 1089.89 938.34 1142.83 935.56 1142.83 940.17"></polygon><polygon fill="#fddcc3" points="1026.09 961.31 988.37 963.28 988.37 958.67 1026.09 956.7 1026.09 961.31"></polygon><polygon fill="#fddcc3" points="1071.13 958.95 1033.41 960.92 1033.41 956.31 1071.13 954.34 1071.13 958.95"></polygon><polygon fill="#fddcc3" points="1122.46 956.26 1076.5 958.67 1076.5 954.06 1122.46 951.65 1122.46 956.26"></polygon></g></g><g><g><polygon fill="#fddcc3" points="773.23 588.49 607.82 582.09 607.82 405.76 773.23 412.16 773.23 588.49"></polygon><g><polygon fill="#fff6ee" points="620.25 562.43 669.1 470.42 705.03 524.04 722.96 503.83 760.98 567.87 620.25 562.43"></polygon><path fill="#fff6ee" d="M692.38,457.84c0-7.44,5.66-13.26,12.64-12.99,6.98,.27,12.64,6.52,12.64,13.97s-5.66,13.26-12.64,12.99c-6.98-.27-12.64-6.52-12.64-13.97Z"></path></g></g><g><polygon fill="#ff912b" points="753.47 658.02 605.04 652.28 605.04 643.06 753.47 648.81 753.47 658.02"></polygon><polygon fill="#fddcc3" points="684.61 674.02 605.04 670.94 605.04 666.33 684.61 669.41 684.61 674.02"></polygon><polygon fill="#fddcc3" points="661.29 688.45 605.04 686.27 605.04 681.66 661.29 683.84 661.29 688.45"></polygon><polygon fill="#fddcc3" points="728.46 691.05 672.21 688.87 672.21 684.26 728.46 686.44 728.46 691.05"></polygon><polygon fill="#fddcc3" points="805.01 694.01 736.47 691.35 736.47 686.75 805.01 689.4 805.01 694.01"></polygon><polygon fill="#fddcc3" points="653.87 703.18 605.04 701.29 605.04 696.68 653.87 698.57 653.87 703.18"></polygon><polygon fill="#fddcc3" points="712.19 705.43 663.35 703.54 663.35 698.93 712.19 700.82 712.19 705.43"></polygon><polygon fill="#fddcc3" points="778.65 708.01 719.15 705.7 719.15 701.09 778.65 703.4 778.65 708.01"></polygon></g><g><polygon fill="#ff912b" points="753.47 766.52 605.04 760.77 605.04 751.56 753.47 757.3 753.47 766.52"></polygon><polygon fill="#fddcc3" points="684.61 782.51 605.04 779.43 605.04 774.82 684.61 777.9 684.61 782.51"></polygon><polygon fill="#fddcc3" points="779.63 786.19 700.06 783.11 700.06 778.5 779.63 781.58 779.63 786.19"></polygon><polygon fill="#fddcc3" points="661.29 796.94 605.04 794.76 605.04 790.15 661.29 792.33 661.29 796.94"></polygon><polygon fill="#fddcc3" points="728.46 799.54 672.21 797.36 672.21 792.75 728.46 794.93 728.46 799.54"></polygon><polygon fill="#fddcc3" points="805.01 802.5 736.47 799.85 736.47 795.24 805.01 797.89 805.01 802.5"></polygon><polygon fill="#fddcc3" points="653.87 811.67 605.04 809.78 605.04 805.17 653.87 807.06 653.87 811.67"></polygon><polygon fill="#fddcc3" points="712.19 813.93 663.35 812.04 663.35 807.43 712.19 809.32 712.19 813.93"></polygon><polygon fill="#fddcc3" points="778.65 816.5 719.15 814.2 719.15 809.59 778.65 811.89 778.65 816.5"></polygon></g><g><polygon fill="#ff912b" points="542.57 388.68 394.14 382.94 394.14 373.72 542.57 379.47 542.57 388.68"></polygon><polygon fill="#fddcc3" points="473.71 404.67 394.14 401.59 394.14 396.99 473.71 400.07 473.71 404.67"></polygon><polygon fill="#fddcc3" points="568.74 408.35 489.16 405.27 489.16 400.66 568.74 403.74 568.74 408.35"></polygon><polygon fill="#fddcc3" points="450.39 419.1 394.14 416.93 394.14 412.32 450.39 414.5 450.39 419.1"></polygon><polygon fill="#fddcc3" points="517.56 421.7 461.31 419.53 461.31 414.92 517.56 417.1 517.56 421.7"></polygon><polygon fill="#fddcc3" points="594.12 424.67 525.58 422.01 525.58 417.41 594.12 420.06 594.12 424.67"></polygon><polygon fill="#fddcc3" points="442.97 433.84 394.14 431.95 394.14 427.34 442.97 429.23 442.97 433.84"></polygon><polygon fill="#fddcc3" points="501.29 436.09 452.46 434.2 452.46 429.59 501.29 431.48 501.29 436.09"></polygon><polygon fill="#fddcc3" points="567.75 438.66 508.25 436.36 508.25 431.75 567.75 434.06 567.75 438.66"></polygon></g></g><path fill="#a8ccff" d="M466.09,202.2l13.02-3.3,42.88,61.97-14.77,3.74-9.29-13.86-27.15,6.88-2.45,16.84-14.4,3.65,12.15-75.9Zm23.84,36.52l-13.48-20.04-3.58,24.36,17.06-4.32Z"></path><path fill="#a8ccff" d="M539.14,161.64c1.85-19.9,17.45-34.71,37.62-32.58,12.38,1.31,18.86,7.05,24.36,14.09l-9.62,9.69c-4.61-5.44-8.65-8.79-16.16-9.59-11.07-1.17-19.96,7.78-21.09,19.99-1.12,12,5.74,22.83,16.99,24.02,7.51,.79,12.4-1.92,18.03-6.37l8.22,11.47c-7.47,6.99-15.37,10.39-28.03,9.05-19.33-2.05-32.2-19.47-30.31-39.77Z"></path><path fill="#a8ccff" d="M738.06,142.64l30.25-5.21c7.45-1.28,13.64-.11,17.96,3.22,3.46,2.66,5.53,6.28,6.29,11.24,1.19,7.84-2.06,12.88-6.29,16.46,8,1.78,13.36,5.64,14.81,15.17,1.92,12.7-6.79,20.72-21.5,23.25l-30.99,5.33-10.52-69.45Zm31.43,23.4c6.33-1.09,10-3.96,9.19-9.32-.69-4.56-4.43-6.57-10.48-5.53l-14.15,2.43,2.22,14.68,13.22-2.27Zm8.05,27.32c6.33-1.09,9.78-4.13,8.97-9.48-.71-4.66-4.4-6.98-11.75-5.71l-16.57,2.85,2.31,15.28,17.03-2.93Z"></path><path fill="#a8ccff" d="M624.57,258.69c1.59-19.93,17.45-34.93,37.37-33.13,11.84,1.07,18.7,5.12,25.07,11.95l-10.05,10.89c-4.71-4.97-9.01-7.98-16.62-8.67-10.52-.95-19.67,8.2-20.64,20.32-1.02,12.82,6.49,22.98,18.14,24.04,5.26,.48,10.07-.5,13.96-2.97l.8-10.01-14.56-1.32,1.06-13.32,28.56,2.59-2.43,30.44c-7.25,5.5-16.95,9.66-28.97,8.57-20.48-1.86-33.35-18.45-31.68-39.38Z"></path><path fill="#a8ccff" d="M1426.28,333.95c-6.18,2.51-13.16,3.2-20.36,1.57-19.92-4.49-31.08-23.55-27.15-43.31,3.88-19.57,21.54-32.33,41.47-27.83,19.92,4.49,31.08,23.55,27.15,43.31-1.42,7.18-4.82,13.6-9.64,18.47l5.45,7.5-11.17,8.68-5.76-8.39Zm-8.54-12.3l-8.62-11.91,11.19-8.78,8.58,12.62c1.77-2.58,2.94-5.6,3.67-9.24,2.34-11.8-3.82-23.46-15.26-26.04-11.44-2.58-21.28,5.27-23.66,17.26-2.34,11.8,3.82,23.46,15.26,26.04,3.14,.71,6.13,.66,8.86,.05Z"></path><path fill="#a8ccff" d="M1277.76,185.36l13.27-1.92,36.1,38.5-5.46-42.92,14.2-2.05,8.86,69.71-12.24,1.77-37.3-39.74,5.63,44.32-14.2,2.05-8.86-69.71Z"></path><path fill="#a8ccff" d="M847.39,222.32l15.47,1.71,8.98,48.89,19.36-45.95,12.38,1.37,10.08,49.21,18.22-45.88,15.1,1.67-29.28,67.99-12.57-1.39-10.35-47.42-19.28,44.14-12.57-1.39-15.54-72.96Z"></path><g><path fill="#ff7b35" d="M169.23,1000.93c0,.85,.05,1.69,.15,2.51,.3,2.63,1.06,5.11,2.2,7.33,.89,1.74,2.01,3.32,3.31,4.71,3.5,3.72,8.32,6.02,13.65,6.02H460.01c10.66,0,19.31-9.21,19.31-20.58,0-5.68-2.16-10.83-5.66-14.55-3.49-3.73-8.32-6.03-13.65-6.03H188.53c-10.66,0-19.3,9.21-19.3,20.58Z"></path><path fill="#ff7b35" d="M189.94,976.62h93.08c1.63,0,2.96-1.42,2.96-3.16h0c0-1.74-1.33-3.16-2.96-3.16h-93.08c-1.63,0-2.96,1.42-2.96,3.16h0c0,1.74,1.33,3.16,2.96,3.16Z"></path><rect fill="#fb5910" transform="translate(400.25 1956.97) rotate(180)" height="3.73" width="10.09" y="976.62" x="195.08"></rect><path fill="#fb5910" d="M171.57,1010.77c.89,1.74,2.01,3.32,3.31,4.71,3.5,3.72,8.32,6.02,13.65,6.02h57.5v-10.73h-74.46Z"></path><path fill="#ff912b" d="M515.25,994.9v12.06c0,1.32-.17,2.6-.48,3.82-1.57,6.19-6.87,10.73-13.17,10.73H218.82c-6.3,0-11.6-4.55-13.17-10.73-.31-1.21-.48-2.5-.48-3.82v-12.06c0-8.04,6.11-14.55,13.65-14.55H501.6c7.54,0,13.65,6.52,13.65,14.55Z"></path><path fill="#fd801a" d="M514.77,1010.77c-1.57,6.19-6.87,10.73-13.17,10.73H218.82c-6.3,0-11.6-4.55-13.17-10.73h309.13Z"></path><g><path fill="#c8dffd" d="M487.16,1001c0,6.39,2.18,12.1,5.62,15.89,.08,.08,.15,.17,.23,.25,2.66,2.82,6.02,4.51,9.69,4.51,5.72,0,19.91-9.21,28.71-15.32,4.38-3.05,7.42-5.33,7.42-5.33,0,0-3.04-2.28-7.42-5.33-8.79-6.12-22.98-15.33-28.71-15.33-1.66,0-3.25,.35-4.75,.98-2.53,1.08-4.77,3-6.55,5.51-1.96,2.75-3.35,6.22-3.93,10.07,0,.04-.02,.09-.02,.13-.19,1.28-.29,2.6-.29,3.96Z"></path><path fill="#9ec6f0" d="M487.16,1001c0,6.39,2.18,12.1,5.62,15.89l43.52-15.96-48.85-3.89c-.19,1.28-.29,2.6-.29,3.96Z"></path><path fill="#dfefff" d="M491.4,986.83l43.42,12.64-36.87-18.15c-2.53,1.08-4.77,3-6.55,5.51Z"></path><path fill="#ff912b" d="M528.57,1001c0,2.46,1.18,4.55,2.83,5.33,4.38-3.05,7.42-5.33,7.42-5.33,0,0-3.04-2.28-7.42-5.33-1.65,.77-2.83,2.86-2.83,5.33Z"></path></g></g><g><g><path fill="#1e3865" d="M402.47,1022.86h0c1.94,.01,3.98-1.5,4.55-3.37l117-383.2c.57-1.88-.54-3.4-2.48-3.42h0c-1.94-.01-3.98,1.5-4.55,3.37l-117,383.2c-.57,1.88,.54,3.4,2.48,3.42Z"></path><path fill="#1e3865" d="M308.17,1022.28h0c1.94,.01,3.98-1.5,4.55-3.37l117-383.2c.57-1.88-.54-3.4-2.48-3.42h0c-1.94-.01-3.98,1.5-4.55,3.37l-117,383.2c-.57,1.88,.54,3.41,2.48,3.42Z"></path><path fill="#1e3865" d="M409.7,689.1l94.69,.59c1.83,.01,3.76-1.42,4.3-3.18h0c.54-1.76-.52-3.21-2.34-3.23l-94.69-.59c-1.83-.01-3.76,1.42-4.3,3.18h0c-.54,1.76,.52,3.21,2.34,3.23Z"></path><path fill="#1e3865" d="M389.27,756l94.69,.59c1.83,.01,3.76-1.42,4.3-3.18h0c.54-1.76-.52-3.21-2.34-3.23l-94.69-.59c-1.83-.01-3.76,1.42-4.3,3.18h0c-.54,1.76,.52,3.21,2.34,3.23Z"></path><path fill="#1e3865" d="M369.6,820.44l94.69,.59c1.83,.01,3.76-1.42,4.3-3.18h0c.54-1.76-.52-3.21-2.34-3.23l-94.69-.59c-1.83-.01-3.76,1.42-4.3,3.18h0c-.54,1.76,.52,3.21,2.34,3.23Z"></path><path fill="#1e3865" d="M347.45,892.98l94.69,.59c1.83,.01,3.76-1.42,4.3-3.18h0c.54-1.76-.52-3.21-2.34-3.23l-94.69-.59c-1.83-.01-3.76,1.42-4.3,3.18h0c-.54,1.76,.52,3.21,2.34,3.23Z"></path><path fill="#1e3865" d="M324.27,968.91l94.69,.59c1.83,.01,3.76-1.42,4.3-3.18h0c.54-1.76-.52-3.21-2.34-3.23l-94.69-.59c-1.83-.01-3.76,1.42-4.3,3.18h0c-.54,1.76,.52,3.21,2.34,3.23Z"></path></g><g><path fill="#ffae73" d="M499.4,549.52s1.12-2.68,1.84-3.96c.73-1.27,3.82-5,4.35-4.15,.53,.84,2.64,6.52,1.52,8.11-1.12,1.59,.07,4.35-5.5,6.03l-2.21-6.03Z"></path><path fill="#f70" d="M437.47,532.57s28.53,25.39,39.65,23.04c8.7-1.84,22.05-6.72,22.05-6.72l2.67,7.28s-11.97,17.31-24.45,17.43c-19.51,.18-33.93-9-33.93-9l-5.99-32.02Z"></path><path fill="#123d76" d="M387.43,800.34s.83,14.24,3.41,14.45c.34,.03,13.11,.03,13.11,.03l16.3-.1s-.11-4.19-4.87-5.07c-4.76-.89-12.74-4.45-15.62-11.17-3.04-7.06-12.33,1.86-12.33,1.86Z"></path><path fill="#25468f" d="M386.49,801.33s4.95,1.77,8.82,1.77c4.31,0,8.24-1.25,8.24-1.25,0,0,.93-9.62,6.06-30.8,2.69-11.1,6.53-25.38,12-43.12,15.12-49.03,19.71-77.71,20.13-80.43,.02-.14,.03-.21,.03-.21l-.05-.02-46.47-21.75s5.74,67.57-1.58,93.51c-1.03,3.63-1.91,7.85-2.66,12.43-4.63,28.17-4.52,69.89-4.52,69.89Z"></path><path fill="#1e3865" d="M409.61,771.04c2.69-11.1,6.53-25.38,12-43.12,15.12-49.03,19.71-77.71,20.13-80.43,0-.08,0-.16-.02-.24l-46.47-21.75s5.74,67.57-1.58,93.51c-1.03,3.63,15.94,52.03,15.94,52.03Z"></path><path fill="#123d76" d="M423.73,800.34s.83,14.24,3.41,14.45c.34,.03,13.11,.03,13.11,.03l16.3-.1s-.11-4.19-4.87-5.07c-4.76-.89-12.74-4.45-15.62-11.17-3.04-7.06-12.33,1.86-12.33,1.86Z"></path><path fill="#25468f" d="M450.08,627.1s.6,43.79-6.5,97.55c-7.11,53.77-4.7,76.59-4.7,76.59,0,0-4.88,1.69-6.85,1.86-5.02,.44-10.17-1.25-10.17-1.25,0,0-10.17-53.79-7.26-80.7,2.92-26.91-13.93-92.34-13.93-92.34l49.41-1.71Z"></path><path fill="#ffae73" d="M417.12,524.62l9.07,6.34,8.26-2.49c1.51-2.3,1.91-6.72,1.93-10.56,.02-3.81-.32-7.03-.32-7.03l-12.24-5.76-4.57-2.15c.01,.08,.36,4,.4,4.57,.85,10.17-2.54,17.08-2.54,17.08Z"></path><path fill="#ff912b" d="M450.28,639.27c-11.29,11.62-54.02,9.67-56.65-3.14-2.63-12.8,2.87-109,22.16-115.04,4-1.25,25.4,6.12,25.4,6.12,0,0,3.36,9.36,5.56,21.28,.43,2.32,1.67,26.9,2.61,49.9,.44,10.76,.8,21.17,.99,28.79,.17,7.14,.18,11.83-.06,12.09Z"></path><path fill="#ffa05e" d="M420.58,507.73c2.48,4.48,11.19,8.39,15.81,10.19,.02-3.81-.32-7.03-.32-7.03l-12.24-5.76c-2.71-.04-4.35,.61-3.25,2.6Z"></path><path fill="#ffae73" d="M440.68,510.09s-19.72,6.56-23.36-6.6c-3.64-13.15-8.64-21.17,3.8-25.91,12.44-4.74,16.28-.5,18.5,3.58,2.22,4.08,6.1,26.88,1.06,28.93Z"></path><path fill="#0b3563" d="M438.84,479.89s-1.26,15.31-4.23,14.64c-2.97-.66-6.24-2.09-5.8,2.53,.43,4.61-2.89,12.52-7.17,12.5-9.18-.04-19.16-25.16-16.65-29.92,7.25-13.74,44.33-16.52,33.85,.25Z"></path><path fill="#f70" d="M435.94,521.43c-.25-.11-14.68-7.01-16.37-6.42-1.69,.59-3.79,6.09-3.79,6.09l25.4,6.12s-2-4.33-5.24-5.79Z"></path><g><path fill="#0b4d87" d="M525.75,595.92l-80.86,81.16c-1.59,1.59-3.58,2.1-4.44,1.13l-2.73-3.09c-.86-.97-.26-3.07,1.32-4.66l80.86-81.16c1.58-1.59,3.58-2.1,4.44-1.13l2.73,3.09c.86,.97,.26,3.07-1.32,4.66Z"></path><path fill="#ff7b35" d="M480.37,641.47l-35.48,35.62c-1.59,1.59-3.58,2.1-4.44,1.13l-2.73-3.09c-.86-.97-.26-3.07,1.32-4.66l35.48-35.61,5.85,6.62Z"></path><path fill="#0b4d87" d="M507.16,565.28c3.11,10.91,8.85,21.12,17.2,29.49,25.49,25.57,65.61,24.26,89.59-2.91,23.67-26.82,22.79-68.81-1.74-94.48-.32-.35-.66-.69-.99-1.02-25.49-25.57-65.6-24.27-89.58,2.91-16.13,18.28-20.87,43.61-14.47,66.01Zm18.12-62.36c13.96-15.82,33.85-22.12,52.52-18.67,10.88,2.01,21.35,7.32,29.99,15.99,23.48,23.55,24.61,62.93,2.51,87.96-8.13,9.22-18.28,15.2-29.02,17.91-18.45,4.65-38.66-.34-53.5-15.23-23.48-23.55-24.61-62.93-2.51-87.97Z"></path><g opacity=".5"><path fill="#accefc" d="M610.31,588.2c-8.13,9.22-18.28,15.2-29.02,17.91-18.45,4.65-38.66-.34-53.5-15.23-23.48-23.55-24.61-62.93-2.51-87.97,13.96-15.82,33.85-22.12,52.52-18.67,10.88,2.01,21.35,7.32,29.99,15.99,23.48,23.55,24.61,62.93,2.52,87.96Z"></path></g></g><path fill="#f70" d="M450.35,627.19c-44.56-33.85-40.85-79.01-40.85-79.01,16.28,9.79,32.44,31.44,39.86,50.22,.44,10.76,.8,21.17,.99,28.79Z"></path><g><path fill="#ff912b" d="M494.32,611.77c3.14-.77,5.25-3.31,5.69-3.75,0,0,1.34,.1-.22,3.14-.13,.26-.42,.91-.64,1.37-.09,.19,.03,.41,.23,.43,1.81,.15,3.64-.62,7.13,.16,.48,.11,.62,1.34,.6,1.86-.03,.89,.03,1.88-.94,3.24-.56,.79-2.13,1.64-5.63,3.14-1.33,.57-5.14,.14-8.71-1.17l-2.85-1.41,.88-5.65,.72,.16c1.14,.25,2.55-1.23,3.73-1.54Z"></path><path fill="#ff912b" d="M423.32,527.22s-40.03,8.13,11.78,69.93c8.29,9.88,53.06,22.75,53.06,22.75,0,0,4.54-4.12,2.25-7.45,0,0-30.83-23.86-37.61-27.66-3.05-1.71-11.84-38.09-16.82-46.85-4.97-8.76-12.66-10.72-12.66-10.72Z"></path></g><path fill="#ffae73" d="M500.48,550.27s1.31-2.67,1.57-4.08c.26-1.41,1.9-5.51,2.58-6.23,.27-.29,1.17,.09,1.27,1.33,.05,.54-.2,1.53-.64,2.7-.72,1.91-.6,4.5-.85,5.36-.62,2.15-3.93,.92-3.93,.92Z"></path></g></g><path fill="#2d3554" d="M1617.82,1028l-1606.61-.59c-1.2,0-2.17-1.04-2.17-2.32v-1.83c0-1.28,.98-2.32,2.18-2.32l1606.61,.59c1.2,0,2.17,1.04,2.17,2.32v1.83c0,1.27-.98,2.32-2.18,2.32Z"></path></g></g></g></svg>