<?xml version="1.0" standalone="no"?><!DOCTYPE svg PUBLIC "-//W3C//DTD SVG 1.1//EN" "http://www.w3.org/Graphics/SVG/1.1/DTD/svg11.dtd"><svg height="3500" legacy-metrics="false" node-id="1" sillyvg="true" template-height="3500" template-width="4500" version="1.1" viewBox="0 0 4500 3500" width="4500" xmlns="http://www.w3.org/2000/svg" xmlns:xlink="http://www.w3.org/1999/xlink"><defs node-id="106"></defs><path d="M 2110.98 415.53 C 1826.48 414.71 1475.78 495.36 1246.48 767.05 C 1138.88 894.54 1084.99 1014.33 1062.31 1125.04 C 931.20 1235.10 855.39 1397.44 855.16 1568.62 C 855.36 1674.48 884.52 1778.27 939.49 1868.75 C 715.08 1954.70 566.88 2170.10 566.82 2410.41 C 567.09 2572.13 634.85 2726.39 753.76 2836.01 C 757.50 2842.09 759.77 2845.43 759.77 2845.43 L 476.13 3092.90 L 3975.82 3092.90 C 3975.82 3092.90 3834.65 3054.63 3711.38 2989.26 C 3787.48 2921.98 3831.14 2825.33 3831.30 2723.76 C 3831.14 2577.32 3741.11 2445.99 3604.59 2393.03 C 3719.79 2280.69 3784.77 2126.60 3784.80 1965.69 C 3784.24 1754.06 3671.69 1558.55 3488.96 1451.79 C 3524.49 1378.37 3543.07 1297.89 3543.30 1216.33 C 3543.30 915.81 3299.68 672.19 2999.16 672.19 C 2931.65 672.19 2864.73 684.76 2801.81 709.25 C 2726.06 616.62 2634.78 554.86 2548.76 500.68 C 2480.02 457.38 2312.03 416.12 2110.98 415.53 L 2110.98 415.53 Z" fill="#f2f4ff" fill-rule="nonzero" id="path14513" node-id="4" stroke="none" target-height="2677.371" target-width="3499.6912" target-x="476.128" target-y="415.533"></path><path d="M 1800.46 1685.18 L 1483.93 1685.18 C 1483.93 1685.18 1545.08 1717.56 1557.67 1769.71 C 1570.26 1821.87 1503.71 1956.75 1503.71 2030.48 C 1503.71 2104.22 1550.47 2148.28 1550.47 2148.28 L 1814.85 2148.28 C 1814.85 2148.28 1867.00 2125.80 1867.00 2043.07 C 1867.00 1960.34 1809.45 1866.83 1804.05 1814.67 C 1798.66 1762.52 1800.46 1685.18 1800.46 1685.18 L 1800.46 1685.18 Z" fill="#e3e1ff" fill-rule="nonzero" id="path7930" node-id="5" stroke="none" target-height="463.09802" target-width="383.068" target-x="1483.931" target-y="1685.184"></path><path d="M 3629.13 1970.29 C 3475.60 1970.66 3341.15 2002.58 3264.25 2090.67 C 2990.83 2403.88 3041.02 2555.74 2706.16 2579.00 C 2371.31 2602.25 2148.38 2522.05 2024.98 2807.48 C 1922.10 3045.46 1581.69 2944.39 1409.37 3092.91 L 3975.82 3092.91 C 3975.82 3092.91 3834.64 3054.64 3711.38 2989.26 C 3787.48 2921.98 3831.13 2825.34 3831.30 2723.76 C 3831.14 2577.32 3741.11 2445.99 3604.59 2393.03 C 3716.27 2283.86 3780.72 2135.28 3784.13 1979.14 C 3731.33 1973.41 3679.21 1970.16 3629.13 1970.29 L 3629.13 1970.29 Z" fill="#e7eaff" fill-rule="nonzero" id="path14515" node-id="6" stroke="none" target-height="1122.62" target-width="2566.4531" target-x="1409.365" target-y="1970.285"></path><path d="M 962.72 2568.22 L 962.72 2969.29 C 962.99 2969.28 963.26 2969.27 963.53 2969.27 L 1082.52 2969.27 C 1082.79 2969.27 1083.06 2969.28 1083.32 2969.29 L 1083.32 2568.22 L 962.72 2568.22 Z" fill="#cecfff" fill-rule="nonzero" id="rect1767-9" node-id="7" stroke="none" target-height="401.0681" target-width="120.60101" target-x="962.722" target-y="2568.219"></path><g node-id="108"><path d="M 1165.39 407.10 L 1951.04 407.10 L 1961.39 407.43 L 1971.43 408.38 L 1981.20 409.93 L 1990.72 412.07 L 2000.13 414.82 L 2009.19 418.07 L 2017.91 421.84 L 2026.32 426.12 L 2034.47 430.93 L 2042.19 436.17 L 2049.51 441.84 L 2056.44 447.94 L 2062.98 454.48 L 2069.02 461.36 L 2074.59 468.60 L 2079.68 476.20 L 2084.26 484.13 L 2088.28 492.32 L 2091.74 500.81 L 2094.66 509.61 L 2096.54 516.75 L 2098.01 524.04 L 2099.07 531.47 L 2099.72 539.07 L 2099.96 546.85 L 2099.96 1508.51 L 2099.72 1516.29 L 2099.07 1523.89 L 2098.01 1531.32 L 2096.54 1538.61 L 2094.66 1545.75 L 2091.74 1554.55 L 2088.28 1563.04 L 2084.26 1571.23 L 2079.68 1579.16 L 2074.59 1586.76 L 2069.02 1594.00 L 2062.98 1600.88 L 2056.44 1607.42 L 2049.51 1613.52 L 2042.19 1619.19 L 2034.47 1624.43 L 2026.32 1629.24 L 2017.91 1633.52 L 2009.19 1637.29 L 2000.13 1640.54 L 1990.72 1643.29 L 1981.20 1645.43 L 1971.43 1646.98 L 1961.39 1647.93 L 1951.04 1648.26 L 1165.39 1648.26 L 1155.05 1647.93 L 1145.00 1646.98 L 1135.23 1645.43 L 1125.72 1643.29 L 1116.30 1640.54 L 1107.25 1637.29 L 1098.52 1633.52 L 1090.12 1629.24 L 1081.97 1624.43 L 1074.25 1619.19 L 1066.93 1613.52 L 1060.00 1607.42 L 1053.46 1600.88 L 1047.42 1594.00 L 1041.85 1586.76 L 1036.75 1579.16 L 1032.17 1571.23 L 1028.16 1563.04 L 1024.69 1554.55 L 1021.78 1545.75 L 1019.90 1538.61 L 1018.43 1531.32 L 1017.37 1523.89 L 1016.71 1516.29 L 1016.48 1508.51 L 1016.48 546.85 L 1016.71 539.07 L 1017.37 531.47 L 1018.43 524.04 L 1019.90 516.75 L 1021.78 509.61 L 1024.69 500.81 L 1028.16 492.32 L 1032.17 484.13 L 1036.75 476.20 L 1041.85 468.60 L 1047.42 461.36 L 1053.46 454.48 L 1060.00 447.94 L 1066.93 441.84 L 1074.25 436.17 L 1081.97 430.93 L 1090.12 426.12 L 1098.53 421.84 L 1107.25 418.07 L 1116.30 414.82 L 1125.72 412.07 L 1135.24 409.93 L 1145.00 408.38 L 1155.05 407.43 L 1165.39 407.10 Z" fill="#e3e1ff" fill-rule="nonzero" group-id="1" id="path7965" node-id="9" stroke-linecap="butt" stroke-width="1" target-height="1241.169" target-width="1083.48" target-x="1016.4787" target-y="407.09595"></path><path d="M 1195.26 521.83 L 1190.01 522.11 L 1185.01 522.87 L 1180.23 524.09 L 1175.63 525.78 L 1171.19 527.92 L 1167.06 530.42 L 1163.21 533.29 L 1159.63 536.55 L 1156.38 540.13 L 1153.50 543.97 L 1151.00 548.11 L 1148.86 552.54 L 1147.18 557.14 L 1145.95 561.93 L 1145.20 566.93 L 1144.92 572.17 L 1144.92 918.56 L 1145.20 923.80 L 1145.95 928.80 L 1147.18 933.59 L 1148.86 938.19 L 1151.00 942.62 L 1153.50 946.76 L 1156.38 950.60 L 1159.63 954.18 L 1163.21 957.44 L 1167.06 960.31 L 1171.19 962.81 L 1175.63 964.95 L 1180.23 966.64 L 1185.01 967.86 L 1190.01 968.62 L 1195.26 968.90 L 1460.83 968.90 L 1466.07 968.62 L 1471.07 967.86 L 1475.86 966.64 L 1480.46 964.95 L 1484.90 962.81 L 1489.03 960.31 L 1492.87 957.44 L 1496.46 954.18 L 1499.71 950.60 L 1502.58 946.76 L 1505.08 942.62 L 1507.22 938.19 L 1508.91 933.59 L 1510.13 928.80 L 1510.89 923.80 L 1511.17 918.56 L 1511.17 572.17 L 1510.89 566.93 L 1510.13 561.93 L 1508.91 557.14 L 1507.22 552.54 L 1505.08 548.11 L 1502.58 543.97 L 1499.71 540.13 L 1496.46 536.55 L 1492.87 533.29 L 1489.03 530.42 L 1484.90 527.92 L 1480.46 525.78 L 1475.86 524.09 L 1471.07 522.87 L 1466.07 522.11 L 1460.83 521.83 L 1195.26 521.83 Z M 1655.61 521.83 L 1650.37 522.11 L 1645.36 522.87 L 1640.58 524.09 L 1635.98 525.78 L 1631.54 527.92 L 1627.41 530.42 L 1623.56 533.29 L 1619.98 536.55 L 1616.73 540.13 L 1613.86 543.97 L 1611.35 548.11 L 1609.22 552.54 L 1607.53 557.14 L 1606.31 561.93 L 1605.55 566.93 L 1605.27 572.17 L 1605.27 918.56 L 1605.55 923.80 L 1606.31 928.80 L 1607.53 933.59 L 1609.22 938.19 L 1611.35 942.62 L 1613.86 946.76 L 1616.73 950.60 L 1619.98 954.18 L 1623.56 957.44 L 1627.41 960.31 L 1631.54 962.81 L 1635.98 964.95 L 1640.58 966.64 L 1645.36 967.86 L 1650.37 968.62 L 1655.61 968.90 L 1921.18 968.90 L 1926.42 968.62 L 1931.43 967.86 L 1936.21 966.64 L 1940.81 964.95 L 1945.25 962.81 L 1949.38 960.31 L 1953.23 957.44 L 1956.81 954.18 L 1960.06 950.60 L 1962.93 946.76 L 1965.44 942.62 L 1967.57 938.19 L 1969.26 933.59 L 1970.48 928.80 L 1971.24 923.80 L 1971.52 918.56 L 1971.52 572.17 L 1971.24 566.93 L 1970.48 561.93 L 1969.26 557.14 L 1967.57 552.54 L 1965.44 548.11 L 1962.93 543.97 L 1960.06 540.13 L 1956.81 536.55 L 1953.23 533.29 L 1949.38 530.42 L 1945.25 527.92 L 1940.81 525.78 L 1936.21 524.09 L 1931.42 522.87 L 1926.42 522.11 L 1921.18 521.83 L 1655.61 521.83 Z M 1195.26 1078.83 L 1190.01 1079.11 L 1185.01 1079.87 L 1180.23 1081.09 L 1175.63 1082.78 L 1171.19 1084.92 L 1167.06 1087.42 L 1163.21 1090.29 L 1159.63 1093.55 L 1156.38 1097.13 L 1153.50 1100.97 L 1151.00 1105.11 L 1148.86 1109.54 L 1147.18 1114.14 L 1145.95 1118.93 L 1145.20 1123.93 L 1144.92 1129.17 L 1144.92 1475.56 L 1145.20 1480.80 L 1145.95 1485.80 L 1147.18 1490.59 L 1148.86 1495.19 L 1151.00 1499.62 L 1153.50 1503.76 L 1156.38 1507.60 L 1159.63 1511.18 L 1163.21 1514.44 L 1167.06 1517.31 L 1171.19 1519.81 L 1175.63 1521.95 L 1180.23 1523.64 L 1185.01 1524.86 L 1190.01 1525.62 L 1195.26 1525.90 L 1460.83 1525.90 L 1466.07 1525.62 L 1471.07 1524.86 L 1475.86 1523.64 L 1480.46 1521.95 L 1484.90 1519.81 L 1489.03 1517.31 L 1492.87 1514.44 L 1496.46 1511.18 L 1499.71 1507.60 L 1502.58 1503.76 L 1505.08 1499.62 L 1507.22 1495.19 L 1508.91 1490.59 L 1510.13 1485.80 L 1510.89 1480.80 L 1511.17 1475.56 L 1511.17 1129.17 L 1510.89 1123.93 L 1510.13 1118.93 L 1508.91 1114.14 L 1507.22 1109.54 L 1505.08 1105.11 L 1502.58 1100.97 L 1499.71 1097.13 L 1496.46 1093.55 L 1492.87 1090.29 L 1489.03 1087.42 L 1484.90 1084.92 L 1480.46 1082.78 L 1475.86 1081.09 L 1471.07 1079.87 L 1466.07 1079.11 L 1460.83 1078.83 L 1195.26 1078.83 Z M 1655.61 1078.83 L 1650.37 1079.11 L 1645.36 1079.87 L 1640.58 1081.09 L 1635.98 1082.78 L 1631.54 1084.92 L 1627.41 1087.42 L 1623.56 1090.29 L 1619.98 1093.55 L 1616.73 1097.13 L 1613.86 1100.97 L 1611.35 1105.11 L 1609.22 1109.54 L 1607.53 1114.14 L 1606.31 1118.93 L 1605.55 1123.93 L 1605.27 1129.17 L 1605.27 1475.56 L 1605.55 1480.80 L 1606.31 1485.80 L 1607.53 1490.59 L 1609.22 1495.19 L 1611.35 1499.62 L 1613.86 1503.76 L 1616.73 1507.60 L 1619.98 1511.18 L 1623.56 1514.44 L 1627.41 1517.31 L 1631.54 1519.81 L 1635.98 1521.95 L 1640.58 1523.64 L 1645.36 1524.86 L 1650.37 1525.62 L 1655.61 1525.90 L 1921.18 1525.90 L 1926.42 1525.62 L 1931.43 1524.86 L 1936.21 1523.64 L 1940.81 1521.95 L 1945.25 1519.81 L 1949.38 1517.31 L 1953.23 1514.44 L 1956.81 1511.18 L 1960.06 1507.60 L 1962.93 1503.76 L 1965.44 1499.62 L 1967.57 1495.19 L 1969.26 1490.59 L 1970.48 1485.80 L 1971.24 1480.80 L 1971.52 1475.56 L 1971.52 1129.17 L 1971.24 1123.93 L 1970.48 1118.93 L 1969.26 1114.14 L 1967.57 1109.54 L 1965.44 1105.11 L 1962.93 1100.97 L 1960.06 1097.13 L 1956.81 1093.55 L 1953.23 1090.29 L 1949.38 1087.42 L 1945.25 1084.92 L 1940.81 1082.78 L 1936.21 1081.09 L 1931.42 1079.87 L 1926.42 1079.11 L 1921.18 1078.83 L 1655.61 1078.83 Z" fill="#ffffff" fill-rule="nonzero" group-id="1" id="path7967" node-id="10" stroke-linecap="butt" stroke-width="1" target-height="1004.0619" target-width="826.5969" target-x="1144.9207" target-y="521.834"></path></g><path d="M 575.74 1514.38 L 906.65 1514.38 C 964.44 1514.38 1023.82 1560.91 1039.79 1618.69 L 1241.57 2348.86 C 1257.53 2406.65 1223.87 2453.17 1166.08 2453.17 L 835.17 2453.17 C 777.38 2453.17 718.00 2406.65 702.03 2348.86 L 500.26 1618.69 C 484.29 1560.91 517.96 1514.38 575.74 1514.38 L 575.74 1514.38 Z" fill="#cecfff" fill-rule="nonzero" id="rect1751-7" node-id="11" stroke="none" target-height="938.7859" target-width="749.2464" target-x="496.28778" target-y="1514.385"></path><path d="M 1573.38 1909.32 C 1560.65 1953.38 1542.40 2004.14 1542.40 2038.13 C 1542.40 2095.26 1578.63 2129.40 1578.63 2129.40 L 1783.45 2129.40 C 1783.45 2129.40 1823.86 2111.98 1823.86 2047.89 C 1823.86 2011.16 1809.23 1971.72 1795.94 1937.11 C 1745.40 1963.29 1689.83 1977.69 1651.18 1946.86 C 1628.51 1928.76 1601.34 1916.92 1573.38 1909.32 L 1573.38 1909.32 Z" fill="#a5a3ff" fill-rule="nonzero" id="path7934" node-id="12" stroke="none" target-height="220.078" target-width="281.458" target-x="1542.399" target-y="1909.319"></path><path d="M 986.38 1085.34 L 984.55 1092.79 L 979.20 1113.56 L 970.55 1145.33 L 965.20 1164.15 L 958.83 1185.78 L 951.98 1208.19 L 944.23 1232.57 L 936.00 1257.40 L 926.98 1283.37 L 917.46 1309.47 L 907.30 1335.85 L 900.22 1353.37 L 892.92 1370.65 L 885.40 1387.68 L 877.57 1404.58 L 869.60 1420.85 L 861.50 1436.53 L 852.98 1452.01 L 844.42 1466.51 L 835.81 1480.08 L 828.33 1491.95 L 821.76 1503.36 L 816.04 1514.34 L 811.14 1524.91 L 806.99 1535.10 L 803.20 1545.91 L 800.16 1556.25 L 797.84 1566.14 L 796.19 1575.61 L 795.17 1584.69 L 794.71 1594.13 L 794.86 1603.10 L 795.59 1611.63 L 796.88 1619.78 L 798.71 1627.55 L 801.16 1635.31 L 804.12 1642.64 L 807.56 1649.58 L 811.51 1656.15 L 815.96 1662.38 L 820.89 1668.24 L 826.26 1673.70 L 832.10 1678.79 L 838.43 1683.51 L 845.27 1687.87 L 852.29 1691.67 L 859.74 1695.06 L 867.66 1698.04 L 876.06 1700.60 L 884.99 1702.72 L 893.79 1704.27 L 903.01 1705.36 L 912.68 1705.97 L 922.83 1706.07 L 933.47 1705.64 L 945.72 1704.64 L 959.01 1703.22 L 973.40 1701.35 L 995.13 1698.02 L 1018.44 1693.93 L 1042.06 1689.33 L 1066.42 1684.22 L 1090.83 1678.77 L 1115.13 1673.06 L 1139.23 1667.17 L 1162.38 1661.31 L 1205.96 1649.80 L 1243.69 1639.38 L 1273.35 1630.89 L 1292.76 1625.18 L 1299.72 1623.09 L 1396.22 1590.53 L 1398.29 1586.83 L 1400.39 1582.76 L 1403.43 1576.43 L 1406.55 1569.34 L 1410.09 1560.39 L 1413.42 1550.80 L 1416.69 1539.75 L 1418.59 1532.16 L 1420.25 1524.11 L 1421.66 1515.57 L 1422.69 1506.99 L 1423.29 1498.11 L 1423.44 1488.90 L 1423.07 1479.71 L 1422.08 1470.35 L 1420.45 1460.80 L 1418.81 1453.75 L 1416.72 1446.66 L 1414.16 1439.52 L 1411.13 1432.32 L 1407.71 1425.38 L 1403.71 1418.45 L 1399.12 1411.49 L 1393.90 1404.50 L 1388.65 1397.58 L 1383.67 1390.39 L 1378.96 1382.93 L 1374.52 1375.17 L 1369.05 1364.60 L 1364.02 1353.75 L 1359.42 1342.63 L 1355.24 1331.33 L 1351.47 1320.00 L 1348.08 1308.64 L 1345.02 1297.19 L 1342.31 1285.98 L 1339.95 1275.01 L 1336.89 1258.66 L 1334.50 1243.50 L 1332.58 1228.78 L 1331.20 1215.89 L 1330.15 1203.70 L 1329.50 1193.96 L 1328.88 1179.50 L 1328.79 1174.29 L 1323.42 1171.28 L 1308.39 1163.14 L 1285.34 1151.15 L 1271.64 1144.29 L 1255.90 1136.63 L 1239.52 1128.93 L 1221.71 1120.87 L 1203.46 1112.98 L 1184.40 1105.18 L 1165.07 1097.77 L 1145.59 1090.86 L 1132.50 1086.57 L 1119.61 1082.69 L 1106.93 1079.21 L 1094.15 1076.09 L 1081.86 1073.54 L 1070.04 1071.53 L 1061.04 1070.34 L 1052.48 1069.56 L 1044.33 1069.16 L 1036.57 1069.12 L 1028.67 1069.51 L 1021.33 1070.35 L 1014.49 1071.62 L 1008.13 1073.29 L 1003.08 1075.06 L 998.40 1077.16 L 994.07 1079.57 L 990.07 1082.29 L 986.38 1085.34 L 986.38 1085.34 Z" fill="#3d3d3d" fill-rule="nonzero" group-id="2" id="path4297-9" node-id="14" stroke-linecap="butt" stroke-width="1" target-height="636.94434" target-width="628.72797" target-x="794.7122" target-y="1069.1218"></path><path d="M 1167.38 1425.17 L 1154.56 1425.47 L 1143.11 1426.16 L 1132.23 1427.16 L 1123.40 1428.22 L 1110.17 1430.26 L 1105.33 1431.19 L 1099.47 1437.87 L 1093.25 1444.44 L 1086.63 1450.88 L 1079.63 1457.21 L 1070.02 1465.29 L 1059.92 1473.23 L 1049.31 1481.04 L 1033.02 1492.35 L 1016.09 1503.51 L 981.67 1525.45 L 964.50 1536.51 L 947.75 1547.70 L 936.78 1555.37 L 926.21 1563.17 L 916.06 1571.08 L 906.19 1579.34 L 896.94 1587.79 L 888.28 1596.44 L 881.66 1604.25 L 873.10 1615.47 L 864.24 1627.90 L 853.96 1643.02 L 843.43 1659.03 L 831.96 1676.95 L 820.35 1695.47 L 808.23 1715.13 L 783.87 1755.42 L 760.01 1795.69 L 737.75 1833.79 L 718.22 1867.60 L 702.53 1894.98 L 691.79 1913.79 L 689.62 1917.84 L 687.72 1921.87 L 833.61 1936.66 L 897.69 1840.57 L 847.85 2148.71 L 1233.87 2148.71 L 1320.64 1944.64 L 1330.19 1942.04 L 1338.82 1939.10 L 1346.59 1935.85 L 1353.57 1932.32 L 1359.10 1929.02 L 1364.13 1925.56 L 1368.67 1921.94 L 1372.78 1918.16 L 1376.46 1914.23 L 1379.89 1909.95 L 1382.92 1905.53 L 1385.54 1900.96 L 1387.79 1896.23 L 1389.66 1891.32 L 1462.37 1966.03 L 1463.29 1966.88 L 1465.11 1968.31 L 1466.00 1968.75 L 1466.40 1968.66 L 1478.78 1990.50 L 1617.31 1981.74 L 1609.32 1960.51 L 1601.02 1939.43 L 1592.41 1918.51 L 1579.08 1887.39 L 1565.50 1856.92 L 1551.73 1826.79 L 1538.19 1797.58 L 1512.08 1741.14 L 1503.06 1721.32 L 1492.38 1698.35 L 1486.59 1686.33 L 1480.55 1674.19 L 1474.32 1662.19 L 1468.08 1650.78 L 1461.65 1639.79 L 1455.47 1630.08 L 1451.14 1623.86 L 1447.07 1618.53 L 1443.23 1614.01 L 1431.76 1601.64 L 1420.94 1590.40 L 1410.73 1580.24 L 1395.34 1565.60 L 1381.19 1552.82 L 1367.24 1540.75 L 1354.33 1529.94 L 1329.86 1509.82 L 1318.37 1500.16 L 1307.52 1490.65 L 1297.06 1480.87 L 1287.02 1470.65 L 1282.88 1465.24 L 1278.42 1460.27 L 1273.66 1455.72 L 1268.57 1451.58 L 1263.18 1447.80 L 1257.58 1444.36 L 1251.73 1441.25 L 1245.64 1438.48 L 1237.32 1435.29 L 1228.77 1432.58 L 1219.98 1430.37 L 1211.09 1428.61 L 1202.20 1427.24 L 1193.32 1426.26 L 1184.40 1425.61 L 1175.75 1425.25 L 1167.38 1425.17 L 1167.38 1425.17 Z" fill="#ff6853" fill-rule="nonzero" group-id="2" id="path4262-71" node-id="15" stroke-linecap="butt" stroke-width="1" target-height="723.542" target-width="929.59204" target-x="687.7191" target-y="1425.167"></path><path d="M 1312.98 1203.04 L 1337.05 1263.91 L 1342.79 1262.95 L 1348.01 1261.51 L 1352.78 1259.61 L 1357.14 1257.25 L 1361.27 1254.42 L 1365.03 1251.25 L 1368.45 1247.73 L 1371.53 1243.86 L 1374.27 1239.73 L 1376.69 1235.39 L 1378.81 1230.83 L 1380.62 1226.04 L 1382.54 1219.50 L 1383.95 1212.87 L 1384.83 1206.12 L 1385.23 1199.33 L 1385.14 1192.77 L 1384.59 1186.43 L 1383.56 1180.15 L 1382.13 1174.45 L 1380.32 1169.28 L 1378.58 1165.50 L 1376.68 1162.22 L 1374.63 1159.41 L 1372.42 1157.00 L 1369.88 1154.92 L 1367.20 1153.40 L 1364.36 1152.40 L 1361.32 1151.92 L 1358.30 1152.00 L 1355.02 1152.69 L 1351.42 1154.10 L 1347.43 1156.34 L 1343.92 1158.90 L 1340.07 1162.36 L 1335.84 1166.87 L 1331.18 1172.61 L 1327.13 1178.27 L 1322.77 1185.13 L 1318.06 1193.33 L 1312.98 1203.04 Z" fill="#f69cb3" fill-rule="nonzero" group-id="2" id="path4242-8" node-id="16" stroke-linecap="butt" stroke-width="1" target-height="111.989746" target-width="72.24805" target-x="1312.9801" target-y="1151.9163"></path><path d="M 1118.95 1263.90 L 1119.28 1268.59 L 1120.11 1281.15 L 1121.20 1299.32 L 1122.32 1320.82 L 1123.23 1343.41 L 1123.69 1364.81 L 1123.67 1374.64 L 1123.46 1382.76 L 1122.87 1400.13 L 1122.60 1413.24 L 1122.57 1432.02 L 1122.71 1438.43 L 1210.94 1518.64 L 1256.99 1475.67 L 1232.09 1382.74 L 1118.95 1263.90 Z" fill="#f6c6c0" fill-rule="nonzero" group-id="2" id="path4248-13" node-id="17" stroke-linecap="butt" stroke-width="1" target-height="254.73999" target-width="138.04395" target-x="1118.9502" target-y="1263.904"></path><path d="M 1118.95 1263.90 L 1232.09 1382.74 L 1250.93 1453.03 L 1243.99 1454.24 L 1236.96 1454.92 L 1232.26 1455.03 L 1227.62 1454.82 L 1223.03 1454.28 L 1218.50 1453.38 L 1214.10 1452.06 L 1209.79 1450.31 L 1205.70 1448.14 L 1201.75 1445.45 L 1197.94 1442.20 L 1193.23 1437.21 L 1188.77 1431.58 L 1184.54 1425.27 L 1180.72 1418.69 L 1177.16 1411.76 L 1173.86 1404.45 L 1169.45 1393.30 L 1165.65 1382.11 L 1162.35 1370.95 L 1159.67 1360.61 L 1157.39 1350.63 L 1155.70 1342.32 L 1153.49 1329.60 L 1152.80 1324.84 L 1118.95 1263.90 Z" fill="#f69cb3" fill-rule="nonzero" group-id="2" id="path4250-3" node-id="18" stroke-linecap="butt" stroke-width="1" target-height="191.12634" target-width="131.97705" target-x="1118.9491" target-y="1263.905"></path><path d="M 1118.95 1263.90 L 1113.21 1262.95 L 1107.98 1261.51 L 1103.21 1259.61 L 1098.86 1257.25 L 1094.73 1254.41 L 1090.97 1251.24 L 1087.55 1247.73 L 1084.47 1243.86 L 1081.73 1239.72 L 1079.31 1235.39 L 1077.19 1230.83 L 1075.38 1226.04 L 1073.46 1219.50 L 1072.05 1212.86 L 1071.16 1206.12 L 1070.77 1199.33 L 1070.86 1192.77 L 1071.40 1186.43 L 1072.44 1180.15 L 1073.87 1174.45 L 1075.68 1169.28 L 1077.41 1165.49 L 1079.31 1162.22 L 1081.37 1159.40 L 1083.58 1157.00 L 1086.12 1154.91 L 1088.80 1153.40 L 1091.64 1152.40 L 1094.68 1151.91 L 1097.70 1151.99 L 1100.98 1152.69 L 1104.58 1154.10 L 1108.57 1156.34 L 1112.08 1158.90 L 1115.93 1162.36 L 1120.16 1166.87 L 1124.82 1172.61 L 1128.86 1178.27 L 1133.23 1185.13 L 1137.94 1193.33 L 1143.02 1203.04 L 1153.73 1186.15 L 1159.59 1176.91 L 1165.60 1166.83 L 1169.41 1159.91 L 1173.01 1152.66 L 1176.39 1145.08 L 1179.35 1137.34 L 1181.84 1129.29 L 1183.84 1120.90 L 1184.92 1114.56 L 1185.60 1108.02 L 1185.86 1101.28 L 1185.70 1094.30 L 1185.07 1087.44 L 1183.88 1080.34 L 1182.11 1072.95 L 1179.72 1065.26 L 1198.49 1071.30 L 1216.47 1076.79 L 1228.44 1080.17 L 1240.24 1083.17 L 1251.89 1085.79 L 1263.62 1087.99 L 1275.40 1089.67 L 1287.24 1090.83 L 1296.12 1091.31 L 1305.16 1091.42 L 1314.37 1091.15 L 1323.76 1090.49 L 1333.02 1089.43 L 1342.58 1087.91 L 1352.47 1085.89 L 1362.71 1083.35 L 1364.13 1101.26 L 1365.14 1118.66 L 1365.73 1135.55 L 1365.93 1151.96 L 1365.75 1167.90 L 1365.18 1184.22 L 1364.25 1199.91 L 1362.99 1214.99 L 1361.40 1229.47 L 1359.50 1243.39 L 1357.15 1257.68 L 1354.53 1271.22 L 1351.65 1284.04 L 1348.52 1296.18 L 1345.16 1307.66 L 1341.26 1319.46 L 1337.17 1330.41 L 1332.91 1340.55 L 1328.49 1349.93 L 1323.93 1358.59 L 1318.71 1367.39 L 1313.40 1375.26 L 1308.02 1382.29 L 1302.55 1388.52 L 1297.01 1394.02 L 1291.85 1398.43 L 1286.68 1402.22 L 1281.49 1405.43 L 1276.25 1408.08 L 1270.96 1410.20 L 1265.59 1411.82 L 1260.07 1412.93 L 1254.48 1413.47 L 1248.80 1413.45 L 1242.99 1412.86 L 1237.03 1411.67 L 1230.88 1409.85 L 1225.22 1407.63 L 1219.39 1404.78 L 1213.39 1401.25 L 1207.18 1396.98 L 1200.74 1391.91 L 1194.07 1385.97 L 1188.24 1380.18 L 1182.24 1373.60 L 1176.06 1366.16 L 1169.69 1357.80 L 1163.13 1348.45 L 1156.36 1338.03 L 1149.26 1326.18 L 1141.97 1312.94 L 1134.49 1298.23 L 1126.82 1281.92 L 1118.95 1263.90 L 1118.95 1263.90 Z" fill="#f6c6c0" fill-rule="nonzero" group-id="2" id="path4252-1" node-id="19" stroke-linecap="butt" stroke-width="1" target-height="348.20862" target-width="295.16235" target-x="1070.7704" target-y="1065.263"></path><path d="M 1122.71 1224.03 L 1122.71 1223.29 L 1122.33 1220.91 L 1120.62 1214.21 L 1119.28 1210.05 L 1117.46 1205.24 L 1115.31 1200.36 L 1112.68 1195.29 L 1109.66 1190.37 L 1106.16 1185.67 L 1103.49 1182.91 L 1101.13 1181.16 L 1099.01 1180.20 L 1096.73 1179.73 L 1094.65 1179.75 L 1092.72 1180.23 L 1090.02 1181.54 L 1087.72 1183.28 L 1085.75 1185.27 L 1084.41 1186.92 L 1083.22 1188.68 L 1085.08 1188.31 L 1087.00 1188.16 L 1089.66 1188.30 L 1091.47 1188.63 L 1093.39 1189.27 L 1095.44 1190.26 L 1097.28 1191.55 L 1099.10 1193.37 L 1100.90 1195.82 L 1101.71 1197.63 L 1102.10 1199.44 L 1102.09 1201.29 L 1101.56 1204.12 L 1100.57 1207.12 L 1098.26 1213.22 L 1097.41 1216.36 L 1097.08 1219.51 L 1097.24 1221.58 L 1097.85 1223.69 L 1098.94 1225.90 L 1100.42 1227.87 L 1102.64 1230.00 L 1105.79 1232.31 L 1109.19 1234.28 L 1111.87 1235.50 L 1113.96 1236.14 L 1116.11 1236.42 L 1117.76 1236.29 L 1119.03 1235.85 L 1120.16 1235.09 L 1121.05 1234.13 L 1121.72 1232.97 L 1122.40 1231.03 L 1122.75 1229.02 L 1122.84 1225.54 L 1122.71 1224.03 L 1122.71 1224.03 Z" fill="#f69cb3" fill-rule="nonzero" group-id="2" id="path4254-4" node-id="20" stroke-linecap="butt" stroke-width="1" target-height="56.688477" target-width="39.625854" target-x="1083.2161" target-y="1179.7302"></path><path d="M 1210.94 1518.64 L 1122.76 1430.47 L 1123.12 1400.29 L 1118.59 1403.74 L 1114.53 1407.27 L 1110.91 1410.88 L 1107.70 1414.58 L 1103.79 1419.87 L 1100.53 1425.18 L 1097.88 1430.50 L 1095.67 1436.03 L 1093.98 1441.42 L 1092.77 1446.68 L 1091.96 1452.03 L 1091.55 1457.04 L 1091.51 1461.76 L 1091.82 1466.48 L 1092.40 1470.66 L 1093.22 1474.36 L 1149.07 1589.97 L 1210.94 1518.64 Z" fill="#ffffff" fill-rule="nonzero" group-id="2" id="path4256-8" node-id="21" stroke-linecap="butt" stroke-width="1" target-height="189.67798" target-width="119.42529" target-x="1091.5118" target-y="1400.288"></path><path d="M 1256.99 1475.67 L 1241.81 1419.08 L 1247.09 1420.68 L 1252.33 1422.91 L 1257.54 1425.80 L 1262.48 1429.14 L 1267.26 1432.97 L 1271.88 1437.29 L 1276.18 1441.92 L 1280.18 1446.85 L 1283.87 1452.08 L 1287.21 1457.54 L 1290.10 1463.09 L 1292.56 1468.72 L 1294.59 1474.52 L 1296.06 1480.19 L 1296.99 1485.74 L 1297.34 1489.97 L 1297.31 1494.03 L 1296.94 1497.92 L 1296.22 1501.67 L 1294.51 1507.87 L 1291.49 1518.74 L 1287.63 1532.58 L 1283.41 1547.70 L 1279.30 1562.41 L 1275.77 1575.02 L 1273.31 1583.82 L 1272.38 1587.13 L 1210.94 1518.64 L 1256.99 1475.67 Z" fill="#ffffff" fill-rule="nonzero" group-id="2" id="path4258-8" node-id="22" stroke-linecap="butt" stroke-width="1" target-height="168.04907" target-width="86.3999" target-x="1210.9371" target-y="1419.08"></path><path d="M 1362.71 1097.88 L 1360.92 1103.76 L 1358.67 1109.81 L 1355.93 1116.03 L 1352.68 1122.45 L 1347.94 1130.68 L 1342.48 1139.04 L 1336.27 1147.53 L 1329.66 1155.72 L 1322.49 1163.84 L 1314.75 1171.90 L 1306.69 1179.63 L 1298.25 1187.11 L 1289.43 1194.32 L 1280.33 1201.18 L 1271.05 1207.59 L 1261.59 1213.57 L 1251.88 1219.12 L 1242.19 1224.06 L 1232.53 1228.41 L 1225.09 1231.34 L 1217.79 1233.84 L 1210.60 1235.92 L 1203.53 1237.61 L 1196.30 1238.91 L 1189.30 1239.72 L 1182.50 1240.06 L 1175.89 1239.94 L 1169.26 1239.30 L 1162.91 1238.12 L 1156.80 1236.41 L 1150.90 1234.17 L 1143.02 1203.04 L 1141.41 1199.69 L 1136.86 1191.19 L 1133.70 1185.88 L 1129.80 1179.87 L 1125.49 1173.90 L 1120.67 1168.02 L 1117.20 1164.31 L 1113.61 1160.97 L 1109.90 1157.99 L 1105.95 1155.39 L 1101.97 1153.43 L 1097.93 1152.07 L 1092.95 1150.45 L 1086.00 1147.43 L 1078.64 1143.75 L 1070.01 1139.04 L 1061.15 1133.93 L 1051.70 1128.25 L 1032.83 1116.40 L 1015.12 1104.83 L 1000.31 1094.90 L 990.15 1087.96 L 986.38 1085.34 L 987.84 1080.08 L 992.35 1065.74 L 995.66 1056.24 L 1000.08 1044.53 L 1005.10 1032.31 L 1011.23 1018.64 L 1015.67 1009.49 L 1020.57 1000.04 L 1025.98 990.28 L 1031.69 980.70 L 1037.86 971.15 L 1044.51 961.63 L 1051.55 952.39 L 1059.04 943.48 L 1067.00 934.89 L 1073.28 928.74 L 1079.80 922.92 L 1086.59 917.43 L 1093.65 912.27 L 1101.02 907.60 L 1108.57 903.55 L 1116.31 900.11 L 1124.25 897.25 L 1132.38 894.93 L 1140.67 893.10 L 1149.13 891.77 L 1157.79 890.93 L 1166.45 890.56 L 1175.23 890.59 L 1184.13 891.04 L 1193.17 891.90 L 1205.14 893.60 L 1217.18 895.88 L 1229.32 898.76 L 1241.34 902.11 L 1253.27 905.88 L 1265.13 910.08 L 1276.86 914.63 L 1288.33 919.42 L 1299.54 924.46 L 1316.00 932.42 L 1331.44 940.49 L 1346.33 948.80 L 1359.75 956.75 L 1365.27 960.51 L 1370.01 964.46 L 1374.05 968.60 L 1377.68 973.11 L 1380.74 977.68 L 1383.26 982.32 L 1385.40 987.15 L 1387.12 991.90 L 1388.43 996.56 L 1389.85 1003.58 L 1390.62 1009.98 L 1390.93 1016.15 L 1390.88 1021.24 L 1390.60 1025.89 L 1390.27 1028.98 L 1389.83 1031.86 L 1394.55 1041.63 L 1399.50 1051.14 L 1409.29 1069.84 L 1412.30 1076.08 L 1414.99 1082.31 L 1417.37 1088.54 L 1419.38 1094.88 L 1420.89 1101.30 L 1421.91 1107.82 L 1422.29 1112.73 L 1422.29 1117.76 L 1421.89 1122.93 L 1421.09 1128.26 L 1419.90 1133.43 L 1418.20 1138.83 L 1415.94 1144.49 L 1413.08 1150.45 L 1407.96 1159.64 L 1403.14 1167.43 L 1398.59 1173.97 L 1393.69 1180.31 L 1389.25 1185.51 L 1385.22 1189.71 L 1379.04 1195.36 L 1374.18 1199.12 L 1369.60 1202.11 L 1366.66 1203.70 L 1363.89 1204.89 L 1364.18 1200.27 L 1364.79 1187.73 L 1365.33 1169.24 L 1365.45 1158.57 L 1365.42 1146.79 L 1365.18 1134.76 L 1364.67 1122.34 L 1363.86 1109.94 L 1362.71 1097.88 L 1362.71 1097.88 Z" fill="#3d3d3d" fill-rule="nonzero" group-id="2" id="path4260-0" node-id="23" stroke-linecap="butt" stroke-width="1" target-height="349.49847" target-width="435.91443" target-x="986.3771" target-y="890.55865"></path><path d="M 752.59 1871.12 L 746.68 1874.59 L 741.02 1878.66 L 735.59 1883.35 L 730.55 1888.47 L 725.83 1894.02 L 721.42 1900.00 L 717.41 1906.27 L 713.82 1912.75 L 710.62 1919.46 L 707.84 1926.35 L 705.56 1933.24 L 703.75 1940.13 L 702.40 1947.12 L 701.61 1953.87 L 701.35 1960.41 L 701.64 1966.93 L 702.53 1973.00 L 703.97 1978.69 L 705.50 1982.82 L 707.37 1986.63 L 709.59 1990.14 L 712.17 1993.37 L 719.69 2000.99 L 727.59 2008.16 L 735.89 2014.91 L 744.60 2021.23 L 753.60 2027.12 L 762.92 2032.70 L 772.59 2037.97 L 782.62 2042.92 L 796.20 2049.02 L 810.23 2054.74 L 824.73 2060.07 L 839.37 2065.03 L 854.28 2069.78 L 869.47 2074.31 L 915.34 2087.25 L 938.29 2093.76 L 960.88 2100.53 L 975.82 2105.33 L 990.38 2110.41 L 1004.59 2115.76 L 1015.15 2120.09 L 1025.40 2124.67 L 1035.35 2129.50 L 1045.00 2134.58 L 1049.85 2148.71 L 1224.54 2148.71 L 1226.57 2147.81 L 1228.43 2146.80 L 1230.10 2145.57 L 1231.50 2144.07 L 1232.81 2141.83 L 1233.57 2139.70 L 1233.86 2137.64 L 1233.69 2135.60 L 1233.05 2133.52 L 1231.79 2131.15 L 1229.85 2128.64 L 1227.10 2125.96 L 1223.38 2123.08 L 1218.26 2119.82 L 1211.77 2116.30 L 1203.70 2112.52 L 1175.79 2096.68 L 1163.62 2090.17 L 1153.16 2085.02 L 1146.26 2081.96 L 1139.83 2079.45 L 1133.83 2077.44 L 1127.73 2075.79 L 1121.72 2074.59 L 1115.80 2073.84 L 1109.84 2073.51 L 1103.60 2073.60 L 1097.07 2074.13 L 1090.58 2075.04 L 1083.45 2076.39 L 1075.64 2078.23 L 1054.51 2067.55 L 1033.82 2056.61 L 1013.59 2045.41 L 983.55 2028.08 L 953.87 2010.31 L 894.54 1973.77 L 864.52 1955.32 L 833.61 1936.67 L 825.08 1931.32 L 817.12 1925.90 L 809.71 1920.40 L 798.98 1911.81 L 789.10 1903.30 L 770.50 1886.49 L 761.48 1878.50 L 752.59 1871.12 L 752.59 1871.12 Z" fill="#f6c6c0" fill-rule="nonzero" group-id="2" id="path4286-8-1" node-id="24" stroke-linecap="butt" stroke-width="1" target-height="277.588" target-width="532.5101" target-x="701.3455" target-y="1871.122"></path><path d="M 1320.64 1944.64 L 1311.87 1944.54 L 1302.53 1944.04 L 1296.28 1943.41 L 1289.81 1942.39 L 1283.09 1940.96 L 1276.50 1939.11 L 1269.67 1936.64 L 1262.57 1933.50 L 1257.47 1930.84 L 1252.21 1927.68 L 1246.79 1924.00 L 1241.19 1919.74 L 1235.97 1915.32 L 1230.57 1910.23 L 1224.99 1904.40 L 1219.20 1897.80 L 1213.90 1891.16 L 1208.41 1883.65 L 1202.72 1875.20 L 1196.85 1865.75 L 1187.82 1874.67 L 1178.31 1883.40 L 1171.72 1888.97 L 1164.80 1894.30 L 1157.55 1899.39 L 1150.03 1904.08 L 1142.04 1908.39 L 1133.54 1912.33 L 1127.05 1914.90 L 1120.19 1917.18 L 1112.94 1919.18 L 1105.28 1920.87 L 1097.67 1922.13 L 1089.56 1923.03 L 1080.93 1923.53 L 1071.74 1923.63 L 1062.77 1923.29 L 1053.17 1922.47 L 1042.90 1921.13 L 1031.92 1919.24 L 1256.24 2095.92 L 1320.64 1944.64 Z" fill="#e0523c" fill-rule="nonzero" group-id="2" id="path14884-3" node-id="25" stroke-linecap="butt" stroke-width="1" target-height="230.17297" target-width="288.724" target-x="1031.9152" target-y="1865.747"></path><path d="M 1389.66 1891.32 L 1389.66 1819.17 L 1462.37 1966.03 L 1389.66 1891.32 Z" fill="#e0523c" fill-rule="nonzero" group-id="2" id="path4200-9" node-id="26" stroke-linecap="butt" stroke-width="1" target-height="146.86304" target-width="72.708984" target-x="1389.6602" target-y="1819.167"></path><path d="M 1987.62 1685.43 L 1985.38 1685.69 L 1982.35 1686.42 L 1978.32 1687.77 L 1972.23 1690.26 L 1964.80 1693.72 L 1957.12 1697.59 L 1948.75 1702.05 L 1931.86 1711.57 L 1915.79 1721.07 L 1902.23 1729.35 L 1892.87 1735.20 L 1889.37 1737.42 L 1889.08 1736.93 L 1888.56 1735.12 L 1887.38 1730.00 L 1886.58 1726.92 L 1885.56 1723.64 L 1884.32 1720.45 L 1882.86 1717.61 L 1881.68 1715.89 L 1880.39 1714.53 L 1879.00 1713.49 L 1877.45 1712.81 L 1875.72 1712.58 L 1873.73 1712.84 L 1871.82 1713.56 L 1869.54 1714.96 L 1866.79 1717.25 L 1864.65 1719.33 L 1862.50 1721.92 L 1860.33 1725.08 L 1857.41 1730.11 L 1854.61 1735.79 L 1852.07 1741.67 L 1849.80 1747.54 L 1846.07 1758.45 L 1843.59 1766.65 L 1842.52 1770.29 L 1838.48 1779.88 L 1834.15 1789.57 L 1830.00 1798.25 L 1813.09 1806.70 L 1793.56 1816.68 L 1751.15 1838.90 L 1704.70 1863.81 L 1656.11 1890.31 L 1607.30 1917.33 L 1560.20 1943.76 L 1516.72 1968.51 L 1478.78 1990.50 L 1481.34 1996.12 L 1484.26 2001.45 L 1487.55 2006.52 L 1491.22 2011.32 L 1495.22 2015.87 L 1499.46 2020.13 L 1503.97 2024.11 L 1508.75 2027.82 L 1515.44 2032.32 L 1522.37 2036.27 L 1529.56 2039.68 L 1536.98 2042.56 L 1544.41 2044.85 L 1551.85 2046.57 L 1559.40 2047.72 L 1566.71 2048.24 L 1573.81 2048.16 L 1579.14 2047.69 L 1584.21 2046.85 L 1589.03 2045.67 L 1593.63 2044.14 L 1606.88 2038.64 L 1619.79 2032.84 L 1632.35 2026.72 L 1644.59 2020.30 L 1660.65 2011.21 L 1676.31 2001.66 L 1691.58 1991.65 L 1706.57 1981.21 L 1721.34 1970.40 L 1735.91 1959.22 L 1757.43 1941.95 L 1778.86 1924.06 L 1821.73 1887.19 L 1843.46 1868.51 L 1865.81 1849.65 L 1939.08 1821.98 L 1940.51 1820.85 L 1942.29 1818.93 L 1944.50 1815.96 L 1947.58 1811.11 L 1951.21 1804.67 L 1954.83 1797.72 L 1958.76 1789.77 L 1966.67 1772.97 L 1974.49 1755.92 L 1981.73 1740.33 L 1987.94 1727.86 L 1991.97 1719.91 L 1994.91 1713.14 L 1996.93 1707.41 L 1998.09 1702.85 L 1998.60 1699.05 L 1998.58 1695.88 L 1998.11 1693.23 L 1997.34 1691.20 L 1996.21 1689.49 L 1994.72 1688.04 L 1992.81 1686.83 L 1990.40 1685.88 L 1989.14 1685.55 L 1987.62 1685.43 L 1987.62 1685.43 Z" fill="#f6cdc1" fill-rule="nonzero" group-id="2" id="path4286-3-2" node-id="27" stroke-linecap="butt" stroke-width="1" target-height="362.813" target-width="519.8248" target-x="1478.7751" target-y="1685.427"></path><path d="M 1478.78 1990.50 L 1462.37 1966.03 L 1590.42 1865.33 L 1597.37 1922.86 L 1478.78 1990.50 Z" fill="#ffffff" fill-rule="nonzero" group-id="2" id="path4290-2" node-id="28" stroke-linecap="butt" stroke-width="1" target-height="125.16992" target-width="135.00208" target-x="1462.3691" target-y="1865.326"></path><path d="M 897.69 1840.57 L 910.38 1793.18 L 918.74 1762.00 L 800.64 1889.31 L 856.37 1904.25 L 897.69 1840.57 Z" fill="#e0523c" fill-rule="nonzero" group-id="2" id="path4231-7" node-id="29" stroke-linecap="butt" stroke-width="1" target-height="142.24805" target-width="118.09802" target-x="800.6391" target-y="1762.002"></path><path d="M 833.61 1936.67 L 856.37 1904.25 L 681.34 1843.45 L 687.72 1921.87 L 833.61 1936.67 Z" fill="#ffffff" fill-rule="nonzero" group-id="2" id="path4288-0-1" node-id="30" stroke-linecap="butt" stroke-width="1" target-height="93.212036" target-width="175.03796" target-x="681.3361" target-y="1843.454"></path><path d="M 725.30 2369.10 L 1301.32 2369.10 C 1351.81 2369.10 1392.46 2411.27 1392.46 2463.65 L 1392.46 2473.66 C 1392.46 2526.05 1351.81 2568.22 1301.32 2568.22 L 725.30 2568.22 C 674.81 2568.22 634.16 2526.05 634.16 2473.66 L 634.16 2463.65 C 634.16 2411.27 674.81 2369.10 725.30 2369.10 L 725.30 2369.10 Z" fill="#b7bbff" fill-rule="nonzero" id="rect1753-9" node-id="31" stroke="none" target-height="199.12402" target-width="758.295" target-x="634.163" target-y="2369.096"></path><path d="M 1500.08 2290.88 L 1358.01 3053.96 C 1354.06 3075.17 1375.38 3092.90 1396.95 3092.90 L 1410.07 3092.90 C 1431.65 3092.90 1454.17 3075.56 1458.46 3053.96 L 1680.01 2290.88 L 1500.08 2290.88 Z" fill="#a5a3ff" fill-rule="nonzero" id="path1703-4" node-id="32" stroke="none" target-height="802.0271" target-width="322.45398" target-x="1357.551" target-y="2290.877"></path><path d="M 836.87 2290.88 C 826.66 2337.89 818.33 2418.18 864.84 2464.69 C 933.51 2533.36 1345.54 2568.97 1345.54 2568.97 L 1285.74 2713.89 L 1191.73 2941.76 L 1298.55 2941.76 L 1472.61 2713.89 L 1550.28 2612.20 C 1656.68 2427.91 1428.08 2344.61 1223.85 2290.88 L 836.87 2290.88 Z" fill="#6584f7" fill-rule="nonzero" id="path12036-2" node-id="33" stroke="none" target-height="650.8779" target-width="748.3353" target-x="828.9171" target-y="2290.877"></path><path d="M 1472.61 2713.89 L 1285.74 2713.89 L 1191.73 2941.76 L 1298.55 2941.76 L 1472.61 2713.89 Z" fill="#3362c4" fill-rule="nonzero" id="path1792-5" node-id="34" stroke="none" target-height="227.8628" target-width="280.87793" target-x="1191.728" target-y="2713.892"></path><path d="M 933.42 2969.27 C 882.93 2969.27 842.28 3011.44 842.28 3063.83 L 842.28 3092.90 L 1203.77 3092.90 L 1203.77 3063.83 C 1203.77 3011.44 1163.12 2969.27 1112.63 2969.27 L 933.42 2969.27 Z" fill="#a5a3ff" fill-rule="nonzero" id="rect1772-1" node-id="35" stroke="none" target-height="123.63306" target-width="361.487" target-x="842.278" target-y="2969.271"></path><path d="M 2411.65 407.10 L 3197.30 407.10 L 3207.64 407.43 L 3217.69 408.38 L 3227.46 409.93 L 3236.98 412.07 L 3246.39 414.82 L 3255.45 418.07 L 3264.17 421.84 L 3272.57 426.12 L 3280.72 430.93 L 3288.45 436.17 L 3295.76 441.84 L 3302.69 447.94 L 3309.23 454.48 L 3315.28 461.36 L 3320.84 468.60 L 3325.94 476.20 L 3330.52 484.13 L 3334.54 492.32 L 3338.00 500.81 L 3340.91 509.61 L 3342.79 516.75 L 3344.26 524.04 L 3345.33 531.47 L 3345.98 539.07 L 3346.21 546.85 L 3346.21 1508.51 L 3345.98 1516.29 L 3345.33 1523.89 L 3344.26 1531.32 L 3342.79 1538.61 L 3340.91 1545.75 L 3338.00 1554.55 L 3334.54 1563.04 L 3330.52 1571.23 L 3325.94 1579.16 L 3320.84 1586.76 L 3315.28 1594.00 L 3309.23 1600.88 L 3302.69 1607.42 L 3295.76 1613.53 L 3288.45 1619.19 L 3280.72 1624.43 L 3272.57 1629.24 L 3264.17 1633.52 L 3255.45 1637.29 L 3246.39 1640.54 L 3236.98 1643.29 L 3227.46 1645.43 L 3217.69 1646.98 L 3207.64 1647.93 L 3197.30 1648.26 L 2411.65 1648.26 L 2401.31 1647.93 L 2391.26 1646.98 L 2381.49 1645.43 L 2371.97 1643.29 L 2362.56 1640.54 L 2353.50 1637.29 L 2344.78 1633.52 L 2336.38 1629.24 L 2328.23 1624.43 L 2320.50 1619.19 L 2313.18 1613.52 L 2306.26 1607.42 L 2299.72 1600.88 L 2293.67 1594.00 L 2288.11 1586.76 L 2283.01 1579.16 L 2278.43 1571.23 L 2274.41 1563.04 L 2270.95 1554.55 L 2268.04 1545.75 L 2266.16 1538.61 L 2264.69 1531.32 L 2263.62 1523.89 L 2262.97 1516.29 L 2262.74 1508.51 L 2262.74 546.85 L 2262.97 539.07 L 2263.62 531.47 L 2264.69 524.04 L 2266.16 516.75 L 2268.04 509.61 L 2270.95 500.81 L 2274.41 492.32 L 2278.43 484.13 L 2283.01 476.20 L 2288.11 468.60 L 2293.67 461.36 L 2299.72 454.48 L 2306.26 447.94 L 2313.18 441.84 L 2320.50 436.17 L 2328.23 430.93 L 2336.38 426.12 L 2344.78 421.84 L 2353.50 418.07 L 2362.56 414.82 L 2371.97 412.07 L 2381.49 409.93 L 2391.26 408.38 L 2401.31 407.43 L 2411.65 407.10 Z" fill="#e3e1ff" fill-rule="nonzero" group-id="3" id="rect13436" node-id="37" stroke-linecap="butt" stroke-width="1" target-height="1241.169" target-width="1083.478" target-x="2262.736" target-y="407.09595"></path><path d="M 2441.51 521.83 L 2436.27 522.11 L 2431.27 522.87 L 2426.48 524.09 L 2421.88 525.78 L 2417.45 527.92 L 2413.32 530.42 L 2409.47 533.29 L 2405.89 536.55 L 2402.63 540.13 L 2399.76 543.97 L 2397.26 548.11 L 2395.12 552.54 L 2393.43 557.14 L 2392.21 561.93 L 2391.46 566.93 L 2391.18 572.17 L 2391.18 918.56 L 2391.46 923.80 L 2392.21 928.80 L 2393.43 933.59 L 2395.12 938.19 L 2397.26 942.62 L 2399.76 946.76 L 2402.63 950.60 L 2405.89 954.18 L 2409.47 957.44 L 2413.32 960.31 L 2417.45 962.81 L 2421.88 964.95 L 2426.48 966.64 L 2431.27 967.86 L 2436.27 968.62 L 2441.51 968.90 L 2707.09 968.90 L 2712.33 968.62 L 2717.33 967.86 L 2722.12 966.64 L 2726.72 964.95 L 2731.15 962.81 L 2735.28 960.31 L 2739.13 957.44 L 2742.71 954.18 L 2745.97 950.60 L 2748.84 946.75 L 2751.34 942.62 L 2753.48 938.19 L 2755.17 933.59 L 2756.39 928.80 L 2757.15 923.80 L 2757.42 918.56 L 2757.42 572.17 L 2757.15 566.93 L 2756.39 561.93 L 2755.17 557.14 L 2753.48 552.54 L 2751.34 548.11 L 2748.84 543.97 L 2745.97 540.13 L 2742.71 536.55 L 2739.13 533.29 L 2735.28 530.42 L 2731.15 527.92 L 2726.72 525.78 L 2722.12 524.09 L 2717.33 522.87 L 2712.33 522.11 L 2707.09 521.83 L 2441.51 521.83 Z M 2901.86 521.83 L 2896.62 522.11 L 2891.62 522.87 L 2886.83 524.09 L 2882.23 525.78 L 2877.80 527.92 L 2873.67 530.42 L 2869.82 533.29 L 2866.24 536.55 L 2862.98 540.13 L 2860.11 543.97 L 2857.61 548.11 L 2855.47 552.54 L 2853.78 557.14 L 2852.56 561.93 L 2851.81 566.93 L 2851.53 572.17 L 2851.53 918.56 L 2851.81 923.80 L 2852.56 928.80 L 2853.78 933.59 L 2855.47 938.19 L 2857.61 942.62 L 2860.11 946.76 L 2862.98 950.60 L 2866.24 954.18 L 2869.82 957.44 L 2873.67 960.31 L 2877.80 962.81 L 2882.23 964.95 L 2886.83 966.64 L 2891.62 967.86 L 2896.62 968.62 L 2901.86 968.90 L 3167.44 968.90 L 3172.68 968.62 L 3177.68 967.86 L 3182.47 966.64 L 3187.07 964.95 L 3191.50 962.81 L 3195.63 960.31 L 3199.48 957.44 L 3203.06 954.18 L 3206.32 950.60 L 3209.19 946.75 L 3211.69 942.62 L 3213.83 938.19 L 3215.52 933.59 L 3216.74 928.80 L 3217.50 923.80 L 3217.77 918.56 L 3217.77 572.17 L 3217.50 566.93 L 3216.74 561.93 L 3215.52 557.14 L 3213.83 552.54 L 3211.69 548.11 L 3209.19 543.97 L 3206.32 540.13 L 3203.06 536.55 L 3199.48 533.29 L 3195.63 530.42 L 3191.50 527.92 L 3187.07 525.78 L 3182.47 524.09 L 3177.68 522.87 L 3172.68 522.11 L 3167.44 521.83 L 2901.86 521.83 Z M 2441.51 1078.83 L 2436.27 1079.11 L 2431.27 1079.87 L 2426.48 1081.09 L 2421.88 1082.78 L 2417.45 1084.92 L 2413.32 1087.42 L 2409.47 1090.29 L 2405.89 1093.55 L 2402.63 1097.13 L 2399.76 1100.97 L 2397.26 1105.11 L 2395.12 1109.54 L 2393.43 1114.14 L 2392.21 1118.93 L 2391.46 1123.93 L 2391.18 1129.17 L 2391.18 1475.56 L 2391.46 1480.80 L 2392.21 1485.80 L 2393.43 1490.59 L 2395.12 1495.19 L 2397.26 1499.62 L 2399.76 1503.76 L 2402.63 1507.60 L 2405.89 1511.18 L 2409.47 1514.44 L 2413.32 1517.31 L 2417.45 1519.81 L 2421.88 1521.95 L 2426.48 1523.64 L 2431.27 1524.86 L 2436.27 1525.62 L 2441.51 1525.90 L 2707.09 1525.90 L 2712.33 1525.62 L 2717.33 1524.86 L 2722.12 1523.64 L 2726.72 1521.95 L 2731.15 1519.81 L 2735.28 1517.31 L 2739.13 1514.44 L 2742.71 1511.18 L 2745.97 1507.60 L 2748.84 1503.76 L 2751.34 1499.62 L 2753.48 1495.19 L 2755.17 1490.59 L 2756.39 1485.80 L 2757.15 1480.80 L 2757.42 1475.56 L 2757.42 1129.17 L 2757.15 1123.93 L 2756.39 1118.93 L 2755.17 1114.14 L 2753.48 1109.54 L 2751.34 1105.11 L 2748.84 1100.97 L 2745.97 1097.13 L 2742.71 1093.55 L 2739.13 1090.29 L 2735.28 1087.42 L 2731.15 1084.92 L 2726.72 1082.78 L 2722.12 1081.09 L 2717.33 1079.87 L 2712.33 1079.11 L 2707.09 1078.83 L 2441.51 1078.83 Z M 2901.86 1078.83 L 2896.62 1079.11 L 2891.62 1079.87 L 2886.83 1081.09 L 2882.23 1082.78 L 2877.80 1084.92 L 2873.67 1087.42 L 2869.82 1090.29 L 2866.24 1093.55 L 2862.98 1097.13 L 2860.11 1100.97 L 2857.61 1105.11 L 2855.47 1109.54 L 2853.78 1114.14 L 2852.56 1118.93 L 2851.81 1123.93 L 2851.53 1129.17 L 2851.53 1475.56 L 2851.81 1480.80 L 2852.56 1485.80 L 2853.78 1490.59 L 2855.47 1495.19 L 2857.61 1499.62 L 2860.11 1503.76 L 2862.98 1507.60 L 2866.24 1511.18 L 2869.82 1514.44 L 2873.67 1517.31 L 2877.80 1519.81 L 2882.23 1521.95 L 2886.83 1523.64 L 2891.62 1524.86 L 2896.62 1525.62 L 2901.86 1525.90 L 3167.44 1525.90 L 3172.68 1525.62 L 3177.68 1524.86 L 3182.47 1523.64 L 3187.07 1521.95 L 3191.50 1519.81 L 3195.63 1517.31 L 3199.48 1514.44 L 3203.06 1511.18 L 3206.32 1507.60 L 3209.19 1503.76 L 3211.69 1499.62 L 3213.83 1495.19 L 3215.52 1490.59 L 3216.74 1485.80 L 3217.50 1480.80 L 3217.77 1475.56 L 3217.77 1129.17 L 3217.50 1123.93 L 3216.74 1118.93 L 3215.52 1114.14 L 3213.83 1109.54 L 3211.69 1105.11 L 3209.19 1100.97 L 3206.32 1097.13 L 3203.06 1093.55 L 3199.48 1090.29 L 3195.63 1087.42 L 3191.50 1084.92 L 3187.07 1082.78 L 3182.47 1081.09 L 3177.68 1079.87 L 3172.68 1079.11 L 3167.44 1078.83 L 2901.86 1078.83 Z" fill="#ffffff" fill-rule="nonzero" group-id="3" id="rect13445" node-id="38" stroke-linecap="butt" stroke-width="1" target-height="1004.0619" target-width="826.5969" target-x="2391.177" target-y="521.834"></path><path d="M 3896.68 1514.38 L 3565.76 1514.38 C 3507.98 1514.38 3448.60 1560.91 3432.63 1618.69 L 3230.85 2348.86 C 3214.89 2406.65 3248.55 2453.17 3306.34 2453.17 L 3637.25 2453.17 C 3695.04 2453.17 3754.42 2406.65 3770.39 2348.86 L 3972.16 1618.69 C 3988.13 1560.91 3954.47 1514.38 3896.68 1514.38 L 3896.68 1514.38 Z" fill="#cecfff" fill-rule="nonzero" id="rect1755" node-id="39" stroke="none" target-height="938.7859" target-width="749.2456" target-x="3226.8845" target-y="1514.385"></path><path d="M 3033.48 2290.88 L 3175.56 3053.96 C 3179.51 3075.17 3158.18 3092.90 3136.61 3092.90 L 3123.49 3092.90 C 3101.92 3092.90 3079.39 3075.56 3075.10 3053.96 L 2853.56 2290.88 L 3033.48 2290.88 Z" fill="#a5a3ff" fill-rule="nonzero" id="path1705" node-id="40" stroke="none" target-height="802.0271" target-width="322.45435" target-x="2853.557" target-y="2290.877"></path><path d="M 3724.23 2369.10 L 3102.43 2369.10 C 3051.94 2369.10 3011.29 2411.27 3011.29 2463.65 L 3011.29 2473.66 C 3011.29 2526.05 3051.94 2568.22 3102.43 2568.22 L 3724.23 2568.22 C 3774.72 2568.22 3815.37 2526.05 3815.37 2473.66 L 3815.37 2463.65 C 3815.36 2411.27 3774.72 2369.10 3724.23 2369.10 Z" fill="#b7bbff" fill-rule="nonzero" id="rect1757" node-id="41" stroke="none" target-height="199.12402" target-width="804.0769" target-x="3011.289" target-y="2369.096"></path><path d="M 1223.85 2290.88 C 1309.39 2313.38 1393.81 2346.47 1461.50 2384.60 C 1543.92 2431.03 1598.91 2487.54 1568.02 2574.39 L 1590.29 2593.40 L 1667.88 2723.47 L 1800.61 2946.04 L 1891.43 2903.78 C 1891.43 2903.78 1844.48 2782.43 1788.83 2653.65 C 1759.24 2585.20 1731.16 2519.89 1716.18 2483.69 C 1673.02 2379.38 1496.77 2290.88 1496.77 2290.88 L 1223.85 2290.88 Z" fill="#6584f7" fill-rule="nonzero" id="path12041-7" node-id="42" stroke="none" target-height="655.16504" target-width="667.574" target-x="1223.854" target-y="2290.877"></path><path d="M 1788.83 2653.65 L 1667.88 2723.47 L 1800.61 2946.04 L 1891.43 2903.78 C 1891.43 2903.78 1844.48 2782.43 1788.83 2653.65 Z" fill="#3362c4" fill-rule="nonzero" id="path1797-1" node-id="43" stroke="none" target-height="292.39502" target-width="223.54797" target-x="1667.879" target-y="2653.646"></path><path d="M 1167.39 3008.01 L 1191.73 2941.76 L 1279.64 2941.76 L 1298.55 2941.76 L 1246.67 3034.21 L 1167.39 3008.01 Z" fill="#f6c6c0" fill-rule="nonzero" id="path1653-9" node-id="44" stroke="none" target-height="92.4541" target-width="131.15906" target-x="1167.391" target-y="2941.755"></path><path d="M 1284.56 2966.45 L 1248.02 3056.24 L 1171.08 3049.10 L 1167.39 3008.01 L 1182.12 2967.91 L 1284.56 2966.45 Z" fill="#ffffff" fill-rule="nonzero" id="path1655-2" node-id="45" stroke="none" target-height="89.78711" target-width="117.166016" target-x="1167.391" target-y="2966.453"></path><path d="M 1415.85 3092.90 L 1134.39 3092.90 L 1167.39 3008.01 C 1209.92 3070.70 1254.29 2951.09 1285.21 2988.47 C 1285.21 2988.47 1324.87 3042.08 1348.23 3042.67 C 1395.67 3042.67 1424.48 3048.41 1415.85 3092.90 Z" fill="#3d3d3d" fill-rule="nonzero" id="path1657-8" node-id="46" stroke="none" target-height="111.80835" target-width="282.96143" target-x="1134.388" target-y="2981.0957"></path><path d="M 1223.85 2290.88 C 1290.25 2308.35 1359.21 2328.95 1418.40 2355.12 L 1362.12 2290.88 L 1223.85 2290.88 Z" fill="#3362c4" fill-rule="nonzero" id="path1669-8" node-id="47" stroke="none" target-height="64.24609" target-width="194.55103" target-x="1223.854" target-y="2290.877"></path><path d="M 1562.23 2465.70 C 1579.14 2496.90 1582.82 2532.78 1568.02 2574.39 L 1590.29 2593.40 L 1643.56 2682.70 C 1664.00 2578.27 1598.35 2499.85 1562.23 2465.70 L 1562.23 2465.70 Z" fill="#3362c4" fill-rule="nonzero" id="path1674-8" node-id="48" stroke="none" target-height="217.0061" target-width="85.15662" target-x="1562.23" target-y="2465.699"></path><path d="M 1832.10 3000.00 L 1800.61 2946.04 C 1830.66 2931.47 1861.00 2917.55 1891.43 2903.78 L 1928.17 2989.92 L 1832.10 3000.00 Z" fill="#f6c6c0" fill-rule="nonzero" id="path1691-7" node-id="49" stroke="none" target-height="96.218994" target-width="127.56409" target-x="1800.606" target-y="2903.777"></path><path d="M 1925.17 2937.09 L 1939.30 3008.98 L 1867.39 3037.27 L 1832.10 3000.00 L 1816.28 2973.08 L 1925.17 2937.09 Z" fill="#ffffff" fill-rule="nonzero" id="path1693-98" node-id="50" stroke="none" target-height="100.17798" target-width="123.0199" target-x="1816.279" target-y="2937.092"></path><path d="M 2106.54 2982.30 L 1867.85 3092.91 L 1832.10 3000.00 C 1898.30 3036.81 1880.72 2917.66 1925.17 2937.09 C 1925.17 2937.09 2001.53 2961.72 2022.65 2951.73 C 2065.01 2930.35 2094.21 2938.69 2106.54 2982.30 L 2106.54 2982.30 Z" fill="#3d3d3d" fill-rule="nonzero" id="path1695-9" node-id="51" stroke="none" target-height="157.98584" target-width="274.448" target-x="1832.095" target-y="2934.9192"></path><path d="M 836.87 2290.88 L 694.80 3053.96 C 690.85 3075.17 712.17 3092.90 733.75 3092.90 L 746.86 3092.90 C 768.44 3092.90 790.96 3075.56 795.25 3053.96 L 1016.79 2290.88 L 836.87 2290.88 Z" fill="#a5a3ff" fill-rule="nonzero" id="rect1697" node-id="52" stroke="none" target-height="802.0271" target-width="322.4541" target-x="694.3409" target-y="2290.877"></path><path d="M 3243.66 3008.01 L 3243.49 2941.76 L 3172.24 2941.76 L 3153.33 2941.76 L 3151.86 3035.11 L 3243.66 3008.01 Z" fill="#f6c6c0" fill-rule="nonzero" id="path1727" node-id="53" stroke="none" target-height="93.354004" target-width="91.796875" target-x="3151.861" target-y="2941.755"></path><path d="M 3152.22 2966.64 L 3151.86 3035.11 L 3243.66 3008.01 L 3243.00 2967.91 L 3152.22 2966.64 Z" fill="#ffffff" fill-rule="nonzero" id="path1729" node-id="54" stroke="none" target-height="68.46704" target-width="91.79883" target-x="3151.862" target-y="2966.643"></path><path d="M 2994.15 3092.90 L 3267.08 3092.90 L 3243.66 3008.01 L 3212.81 2999.57 C 3191.82 2979.30 3153.38 2974.33 3127.15 3004.20 C 3127.15 3004.20 3079.14 3038.75 3055.72 3039.33 C 3008.28 3039.33 2990.54 3048.41 2994.15 3092.90 L 2994.15 3092.90 Z" fill="#3d3d3d" fill-rule="nonzero" id="path1731" node-id="55" stroke="none" target-height="109.82153" target-width="273.34595" target-x="2993.73" target-y="2983.0825"></path><path d="M 3033.48 2290.88 L 2918.46 2382.64 C 2870.48 2416.67 2857.06 2448.54 2857.11 2521.92 L 2857.26 2732.74 L 2984.29 2709.22 L 3016.50 2529.56 C 3058.30 2519.63 3104.72 2510.96 3149.41 2498.38 C 3152.33 2441.26 3167.70 2412.79 3210.21 2382.64 L 3325.23 2290.88 L 3033.48 2290.88 Z" fill="#ff6853" fill-rule="nonzero" id="path1733" node-id="56" stroke="none" target-height="441.86694" target-width="468.11304" target-x="2857.113" target-y="2290.877"></path><path d="M 2984.29 2709.22 L 2857.26 2709.22 L 2861.59 2941.76 L 2951.74 2941.76 L 2984.29 2709.22 Z" fill="#e0523c" fill-rule="nonzero" id="path1735" node-id="57" stroke="none" target-height="232.53589" target-width="127.03296" target-x="2857.258" target-y="2709.219"></path><path d="M 2951.91 3008.01 L 2951.74 2941.76 L 2880.50 2941.76 L 2861.59 2941.76 L 2860.11 3035.11 L 2951.91 3008.01 Z" fill="#f6c6c0" fill-rule="nonzero" id="path1737" node-id="58" stroke="none" target-height="93.354004" target-width="91.79712" target-x="2860.115" target-y="2941.755"></path><path d="M 2860.47 2966.64 L 2860.12 3035.11 L 2951.91 3008.01 L 2951.25 2967.91 L 2860.47 2966.64 Z" fill="#ffffff" fill-rule="nonzero" id="path1739" node-id="59" stroke="none" target-height="68.46704" target-width="91.798096" target-x="2860.116" target-y="2966.643"></path><path d="M 2702.41 3092.90 L 2975.33 3092.90 L 2951.91 3008.01 L 2921.07 2999.57 C 2900.07 2979.30 2861.63 2974.33 2835.40 3004.20 C 2835.40 3004.20 2787.39 3038.75 2763.98 3039.33 C 2716.53 3039.33 2698.80 3048.41 2702.41 3092.90 L 2702.41 3092.90 Z" fill="#3d3d3d" fill-rule="nonzero" id="path1741" node-id="60" stroke="none" target-height="109.82202" target-width="273.3474" target-x="2701.9827" target-y="2983.082"></path><path d="M 3325.23 2290.88 L 3210.21 2382.64 C 3162.23 2416.67 3148.81 2448.54 3148.86 2521.92 L 3149.00 2732.74 L 3276.04 2709.22 L 3308.25 2529.56 C 3445.03 2497.07 3631.38 2478.12 3644.36 2290.88 L 3325.23 2290.88 Z" fill="#ff6853" fill-rule="nonzero" id="path1717" node-id="61" stroke="none" target-height="441.86694" target-width="495.49683" target-x="3148.86" target-y="2290.877"></path><path d="M 3276.04 2709.22 L 3149.01 2709.22 L 3153.33 2941.76 L 3243.49 2941.76 L 3276.04 2709.22 Z" fill="#e0523c" fill-rule="nonzero" id="path1719" node-id="62" stroke="none" target-height="232.53589" target-width="127.031006" target-x="3149.006" target-y="2709.219"></path><path d="M 3696.69 2290.88 L 3838.77 3053.96 C 3842.72 3075.17 3821.40 3092.90 3799.82 3092.90 L 3786.70 3092.90 C 3765.13 3092.90 3742.60 3075.56 3738.31 3053.96 L 3516.77 2290.88 L 3696.69 2290.88 Z" fill="#a5a3ff" fill-rule="nonzero" id="path1707" node-id="63" stroke="none" target-height="802.0271" target-width="322.45435" target-x="3516.767" target-y="2290.877"></path><path d="M 3279.82 2327.07 L 3089.43 2431.57 C 3051.44 2447.00 3040.18 2457.86 3028.20 2494.14 L 3016.50 2529.56 C 3058.30 2519.63 3104.72 2510.96 3149.41 2498.37 C 3152.33 2441.26 3167.70 2412.79 3210.21 2382.64 L 3279.82 2327.07 Z" fill="#e0523c" fill-rule="nonzero" id="path1746" node-id="64" stroke="none" target-height="202.49194" target-width="263.31494" target-x="3016.501" target-y="2327.07"></path><path d="M 3387.52 2568.22 L 3387.52 2969.29 C 3387.79 2969.28 3388.06 2969.27 3388.33 2969.27 L 3507.31 2969.27 C 3507.59 2969.27 3507.85 2969.28 3508.12 2969.29 L 3508.12 2568.22 L 3387.52 2568.22 Z" fill="#cecfff" fill-rule="nonzero" id="path1785" node-id="65" stroke="none" target-height="401.0681" target-width="120.60205" target-x="3387.52" target-y="2568.219"></path><path d="M 3358.22 2969.27 C 3307.72 2969.27 3267.08 3011.44 3267.08 3063.83 L 3267.08 3092.90 L 3628.56 3092.90 L 3628.56 3063.83 C 3628.56 3011.44 3587.92 2969.27 3537.43 2969.27 L 3358.22 2969.27 Z" fill="#a5a3ff" fill-rule="nonzero" id="path1787" node-id="66" stroke="none" target-height="123.63306" target-width="361.48804" target-x="3267.076" target-y="2969.271"></path><path d="M 774.61 2148.71 L 3701.91 2148.71 C 3724.82 2148.71 3743.27 2167.16 3743.27 2190.07 L 3743.27 2249.51 C 3743.27 2272.43 3724.82 2290.88 3701.91 2290.88 L 774.61 2290.88 C 751.69 2290.88 733.25 2272.43 733.25 2249.51 L 733.25 2190.07 C 733.25 2167.16 751.69 2148.71 774.61 2148.71 L 774.61 2148.71 Z" fill="#b7bbff" fill-rule="nonzero" id="rect1648" node-id="67" stroke="none" target-height="142.16602" target-width="3010.024" target-x="733.246" target-y="2148.71"></path><path d="M 2018.79 1887.75 C 1940.03 1887.75 1876.19 1951.60 1876.19 2030.36 L 1876.19 2030.36 C 1876.23 2044.42 1878.36 2058.40 1882.50 2071.85 L 2155.19 2071.85 C 2159.29 2058.40 2161.38 2044.42 2161.40 2030.36 C 2161.39 1951.60 2097.55 1887.75 2018.79 1887.75 L 2018.79 1887.75 Z" fill="#b7bbff" fill-rule="nonzero" id="path6435" node-id="68" stroke="none" target-height="184.09692" target-width="285.208" target-x="1876.188" target-y="1887.751"></path><path d="M 1724.55 2071.85 L 2766.53 2071.85 C 2787.82 2071.85 2804.96 2088.99 2804.96 2110.28 C 2804.96 2131.57 2787.82 2148.71 2766.53 2148.71 L 1724.55 2148.71 C 1703.26 2148.71 1686.12 2131.57 1686.12 2110.28 C 1686.12 2088.99 1703.26 2071.85 1724.55 2071.85 Z" fill="#cecfff" fill-rule="nonzero" id="rect6411" node-id="69" stroke="none" target-height="76.86304" target-width="1118.8411" target-x="1686.123" target-y="2071.848"></path><path d="M 2254.25 1680.03 C 2086.63 1680.03 1950.74 1815.92 1950.74 1983.54 L 1950.74 1983.54 C 1950.84 2013.48 1955.37 2043.23 1964.17 2071.85 L 2544.55 2071.85 C 2553.28 2043.22 2557.73 2013.46 2557.76 1983.54 C 2557.76 1815.92 2421.87 1680.03 2254.25 1680.03 L 2254.25 1680.03 Z" fill="#a5a3ff" fill-rule="nonzero" id="path6413" node-id="70" stroke="none" target-height="391.81714" target-width="607.0099" target-x="1950.745" target-y="1680.032"></path><path d="M 2679.09 1763.48 C 2666.61 1763.30 2654.43 1767.35 2644.55 1774.97 C 2620.35 1793.61 2615.85 1828.34 2634.49 1852.53 L 2634.49 1852.53 C 2636.35 1854.91 2638.40 1857.12 2640.62 1859.16 L 2413.28 2034.33 C 2401.17 2043.66 2397.36 2059.45 2403.46 2071.85 L 2460.35 2071.85 L 2676.25 1905.50 C 2677.67 1908.15 2679.31 1910.69 2681.14 1913.08 C 2699.79 1937.27 2734.51 1941.77 2758.71 1923.13 C 2758.71 1923.13 2758.71 1923.13 2758.71 1923.13 C 2782.90 1904.49 2787.40 1869.77 2768.76 1845.57 C 2760.05 1834.28 2747.32 1826.79 2733.22 1824.66 C 2734.76 1810.51 2730.78 1796.32 2722.11 1785.03 C 2711.81 1771.66 2695.97 1763.72 2679.09 1763.48 Z" fill="#a5a3ff" fill-rule="nonzero" id="rect6424" node-id="71" stroke="none" target-height="308.3661" target-width="379.63696" target-x="2400.6035" target-y="1763.483"></path><path d="M 2635.09 1951.80 C 2635.09 1994.76 2600.27 2029.59 2557.31 2029.59 C 2514.35 2029.59 2479.53 1994.76 2479.53 1951.80 C 2479.53 1908.85 2514.35 1874.02 2557.31 1874.02 C 2600.27 1874.02 2635.09 1908.85 2635.09 1951.80 Z" fill="#b7bbff" fill-rule="nonzero" id="path6422" node-id="72" stroke="none" target-height="155.56494" target-width="155.56421" target-x="2479.526" target-y="1874.02"></path><path d="M 2450.42 1887.75 C 2371.66 1887.75 2307.81 1951.60 2307.81 2030.36 L 2307.81 2030.36 C 2307.86 2044.42 2309.99 2058.40 2314.12 2071.85 L 2586.82 2071.85 C 2590.92 2058.40 2593.01 2044.42 2593.02 2030.36 C 2593.02 1951.60 2529.18 1887.75 2450.42 1887.75 L 2450.42 1887.75 Z" fill="#b7bbff" fill-rule="nonzero" id="path6418" node-id="73" stroke="none" target-height="184.09692" target-width="285.208" target-x="2307.814" target-y="1887.751"></path><path d="M 1184.88 1973.41 C 1155.08 1973.41 1130.92 1997.56 1130.92 2027.36 C 1130.92 2057.16 1155.08 2081.31 1184.88 2081.31 C 1214.67 2081.31 1238.83 2057.16 1238.83 2027.36 C 1238.83 1997.56 1214.68 1973.41 1184.88 1973.41 L 1184.88 1973.41 Z M 1184.88 2002.18 C 1198.78 2002.18 1210.06 2013.45 1210.06 2027.36 C 1210.06 2041.27 1198.78 2052.54 1184.88 2052.54 C 1170.97 2052.54 1159.70 2041.27 1159.70 2027.36 C 1159.70 2013.45 1170.97 2002.18 1184.88 2002.18 L 1184.88 2002.18 Z" fill="#cecfff" fill-rule="nonzero" id="path6443" node-id="74" stroke="none" target-height="107.90503" target-width="107.906006" target-x="1130.925" target-y="1973.406"></path><path d="M 1194.93 1948.37 L 1194.93 2018.57 C 1194.93 2077.97 1242.75 2125.80 1302.16 2125.80 C 1361.57 2125.80 1409.39 2077.97 1409.39 2018.57 L 1409.39 1948.37 L 1194.93 1948.37 Z" fill="#b7bbff" fill-rule="nonzero" id="rect6437" node-id="75" stroke="none" target-height="177.43506" target-width="214.46802" target-x="1194.927" target-y="1948.366"></path><path d="M 1212.80 2125.80 L 1396.19 2125.80 C 1402.54 2125.80 1407.65 2130.91 1407.65 2137.26 C 1407.65 2143.60 1402.54 2148.71 1396.19 2148.71 L 1212.80 2148.71 C 1206.46 2148.71 1201.35 2143.60 1201.35 2137.26 C 1201.35 2130.91 1206.46 2125.80 1212.80 2125.80 Z" fill="#cecfff" fill-rule="nonzero" id="path6447" node-id="76" stroke="none" target-height="22.907959" target-width="206.29797" target-x="1201.348" target-y="2125.802"></path><path d="M 3397.69 1447.74 C 3397.69 1447.74 3337.03 1451.05 3244.52 1487.89 C 3218.45 1498.26 3172.87 1524.56 3137.89 1544.44 C 3084.91 1575.70 3063.60 1600.92 3063.60 1600.92 L 2949.32 1776.03 L 2781.93 1599.55 L 2676.47 1695.80 C 2733.45 1759.78 2801.33 1888.90 2866.28 1942.93 C 2951.71 2009.74 3009.34 1961.84 3009.34 1961.84 L 3137.89 1841.08 L 3137.89 1841.09 L 3137.89 1841.08 C 3158.83 1942.71 3170.49 2046.15 3185.05 2148.87 L 3646.67 2148.87 C 3646.67 2148.87 3719.34 2082.07 3747.32 2027.39 C 3775.29 1972.71 3776.56 1887.50 3760.03 1823.92 C 3748.52 1779.63 3716.78 1675.86 3698.59 1616.95 C 3678.23 1548.45 3623.00 1499.85 3562.26 1486.47 L 3397.69 1447.74 Z" fill="#6584f7" fill-rule="nonzero" id="path1627-4" node-id="77" stroke="none" target-height="701.12915" target-width="1094.2737" target-x="2676.468" target-y="1447.742"></path><path d="M 3359.70 1100.33 C 3359.70 1100.33 3398.82 1098.17 3409.23 1147.10 C 3419.64 1196.02 3376.52 1289.20 3376.52 1289.20 C 3383.79 1355.75 3361.42 1408.89 3303.41 1346.94 C 3277.15 1316.78 3261.77 1150.49 3261.77 1150.49 C 3261.77 1150.49 3156.37 1166.76 3112.84 1133.55 C 3069.31 1100.35 3022.92 1001.19 3083.15 982.41 C 3143.38 963.62 3157.07 1006.50 3286.72 1001.07 C 3354.44 998.23 3382.38 1053.74 3359.70 1100.33 L 3359.70 1100.33 Z" fill="#3d3d3d" fill-rule="nonzero" id="path14526-2" node-id="78" stroke="none" target-height="396.714" target-width="356.43213" target-x="3054.38" target-y="977.64856"></path><path d="M 3338.92 1316.36 L 3397.69 1447.74 L 3309.52 1535.92 L 3263.46 1492.94 L 3245.94 1392.87 L 3338.92 1316.36 Z" fill="#f6c6c0" fill-rule="nonzero" id="path14528-51" node-id="79" stroke="none" target-height="219.55603" target-width="151.75488" target-x="3245.937" target-y="1316.36"></path><path d="M 3356.15 1314.72 L 3254.11 1380.06 L 3258.46 1480.05 C 3306.89 1482.38 3328.18 1373.37 3328.18 1373.37 L 3356.15 1314.72 Z" fill="#f69cb3" fill-rule="nonzero" id="path1603-93" node-id="80" stroke="none" target-height="165.3291" target-width="102.03296" target-x="3254.114" target-y="1314.721"></path><path d="M 3309.52 1535.92 L 3397.69 1447.74 L 3382.44 1414.08 C 3425.03 1413.98 3438.58 1455.23 3435.14 1473.74 L 3383.62 1608.78 L 3309.52 1535.92 Z" fill="#ffffff" fill-rule="nonzero" id="path1614-8" node-id="81" stroke="none" target-height="194.70203" target-width="126.11987" target-x="3309.518" target-y="1414.078"></path><path d="M 3263.46 1492.94 L 3256.09 1446.36 C 3224.57 1456.47 3203.40 1484.89 3213.06 1514.03 C 3216.10 1522.63 3260.45 1615.35 3260.45 1615.35 L 3309.52 1535.92 L 3263.46 1492.94 Z" fill="#ffffff" fill-rule="nonzero" id="path1616-6" node-id="82" stroke="none" target-height="168.99109" target-width="98.80322" target-x="3210.7148" target-y="1446.361"></path><path d="M 3162.27 1253.37 L 3138.05 1314.17 C 3053.41 1304.78 3092.83 1112.83 3162.27 1253.37 Z" fill="#f69cb3" fill-rule="nonzero" id="path14522-30" node-id="83" stroke="none" target-height="112.05066" target-width="72.23926" target-x="3090.0317" target-y="1202.1223"></path><path d="M 3125.69 1117.04 C 3125.69 1117.04 3097.84 1122.99 3082.73 1149.28 C 3067.62 1175.57 3117.06 1260.71 3117.06 1260.71 L 3125.69 1117.04 Z" fill="#3d3d3d" fill-rule="nonzero" id="path14524-69" node-id="84" stroke="none" target-height="143.66406" target-width="45.82617" target-x="3079.868" target-y="1117.043"></path><path d="M 3356.15 1314.72 C 3440.83 1305.75 3402.38 1113.61 3332.23 1253.79 C 3313.56 1222.40 3274.43 1176.37 3295.87 1115.93 C 3232.77 1136.31 3180.43 1152.08 3112.84 1133.55 C 3085.16 1428.07 3232.54 1607.54 3356.15 1314.72 Z" fill="#f6c6c0" fill-rule="nonzero" id="path14532-15" node-id="85" stroke="none" target-height="348.01843" target-width="295.042" target-x="3109.447" target-y="1115.928"></path><path d="M 3352.49 1274.84 C 3352.11 1273.34 3356.68 1251.53 3369.13 1236.52 C 3381.58 1221.50 3392.07 1239.58 3392.07 1239.58 C 3392.07 1239.58 3380.80 1236.17 3374.37 1246.69 C 3367.95 1257.20 3389.36 1270.42 3369.39 1283.16 C 3349.42 1295.90 3352.49 1274.84 3352.49 1274.84 L 3352.49 1274.84 Z" fill="#f69cb3" fill-rule="nonzero" id="path14534-21" node-id="86" stroke="none" target-height="56.638794" target-width="39.718018" target-x="3352.352" target-y="1230.6044"></path><path d="M 3481.99 2035.02 C 3446.72 2035.06 3428.39 2063.91 3406.49 2088.40 C 3388.80 2108.18 3364.09 2120.42 3362.74 2148.87 L 3601.33 2148.87 C 3598.29 2085.16 3545.77 2035.05 3481.99 2035.02 Z" fill="#f6cdc1" fill-rule="nonzero" id="path10389" node-id="87" stroke="none" target-height="113.851074" target-width="238.5918" target-x="3362.736" target-y="2035.02"></path><path d="M 3443.38 2155.19 L 3436.39 2107.51 L 3408.10 2148.87 L 3443.38 2155.19 Z" fill="#f69cb3" fill-rule="nonzero" id="path10810-6" node-id="88" stroke="none" target-height="47.688232" target-width="35.286133" target-x="3408.098" target-y="2107.505"></path><path d="M 3550.67 2018.97 L 3514.88 2039.63 C 3562.96 2053.40 3598.84 2096.54 3601.33 2148.87 L 3635.97 2148.87 C 3636.69 2136.30 3635.16 2121.24 3628.37 2105.28 C 3610.39 2063.02 3550.67 2018.97 3550.67 2018.97 L 3550.67 2018.97 Z" fill="#ffffff" fill-rule="nonzero" id="path10391" node-id="89" stroke="none" target-height="129.89807" target-width="121.248535" target-x="3514.881" target-y="2018.972"></path><path d="M 3550.67 2018.97 L 3635.92 1938.03 L 3589.16 1761.78 L 3550.67 2018.97 Z" fill="#3362c4" fill-rule="nonzero" id="path10393" node-id="90" stroke="none" target-height="257.193" target-width="85.25391" target-x="3550.666" target-y="1761.779"></path><path d="M 3274.38 1973.41 L 3268.78 1973.71 L 3263.43 1974.52 L 3258.31 1975.83 L 3253.38 1977.65 L 3248.63 1979.94 L 3244.20 1982.63 L 3240.07 1985.71 L 3236.23 1989.21 L 3232.73 1993.05 L 3229.65 1997.18 L 3226.96 2001.61 L 3224.67 2006.36 L 3222.85 2011.29 L 3221.54 2016.41 L 3220.73 2021.76 L 3220.43 2027.36 L 3220.73 2032.96 L 3221.54 2038.31 L 3222.85 2043.43 L 3224.67 2048.36 L 3226.96 2053.11 L 3229.65 2057.54 L 3232.73 2061.67 L 3236.23 2065.51 L 3240.07 2069.00 L 3244.20 2072.09 L 3248.63 2074.77 L 3253.38 2077.07 L 3258.31 2078.89 L 3263.43 2080.20 L 3268.78 2081.01 L 3274.38 2081.31 L 3279.98 2081.01 L 3285.33 2080.20 L 3290.45 2078.89 L 3295.38 2077.07 L 3300.13 2074.77 L 3304.56 2072.09 L 3308.69 2069.00 L 3312.53 2065.51 L 3316.02 2061.67 L 3319.11 2057.54 L 3321.80 2053.11 L 3324.09 2048.36 L 3325.91 2043.43 L 3327.22 2038.31 L 3328.03 2032.96 L 3328.33 2027.36 L 3328.03 2021.76 L 3327.22 2016.41 L 3325.91 2011.29 L 3324.09 2006.36 L 3321.80 2001.61 L 3319.11 1997.18 L 3316.02 1993.05 L 3312.53 1989.21 L 3308.69 1985.71 L 3304.56 1982.63 L 3300.13 1979.94 L 3295.38 1977.65 L 3290.45 1975.83 L 3285.33 1974.52 L 3279.98 1973.71 L 3274.38 1973.41 Z M 3274.38 2002.18 L 3277.84 2002.42 L 3281.09 2003.08 L 3284.18 2004.16 L 3287.10 2005.63 L 3289.76 2007.42 L 3292.18 2009.55 L 3294.31 2011.98 L 3296.11 2014.64 L 3297.58 2017.56 L 3298.66 2020.64 L 3299.32 2023.90 L 3299.56 2027.36 L 3299.32 2030.82 L 3298.66 2034.07 L 3297.58 2037.16 L 3296.11 2040.08 L 3294.32 2042.74 L 3292.18 2045.16 L 3289.76 2047.29 L 3287.10 2049.09 L 3284.18 2050.56 L 3281.09 2051.64 L 3277.84 2052.30 L 3274.38 2052.54 L 3270.92 2052.30 L 3267.66 2051.64 L 3264.58 2050.56 L 3261.66 2049.09 L 3259.00 2047.29 L 3256.58 2045.16 L 3254.44 2042.74 L 3252.65 2040.08 L 3251.18 2037.16 L 3250.10 2034.07 L 3249.44 2030.82 L 3249.20 2027.36 L 3249.44 2023.90 L 3250.10 2020.64 L 3251.18 2017.56 L 3252.65 2014.64 L 3254.44 2011.98 L 3256.58 2009.55 L 3259.00 2007.42 L 3261.66 2005.63 L 3264.58 2004.16 L 3267.66 2003.08 L 3270.92 2002.42 L 3274.38 2002.18 Z" fill="#cecfff" fill-rule="nonzero" group-id="4" id="circle6454" node-id="92" stroke-linecap="butt" stroke-width="1" target-height="107.90503" target-width="107.906006" target-x="3220.426" target-y="1973.4067"></path><path d="M 3264.33 1948.37 L 3264.33 2018.57 L 3264.08 2025.74 L 3263.41 2032.71 L 3262.31 2039.49 L 3260.80 2046.09 L 3258.88 2052.53 L 3256.54 2058.89 L 3253.85 2065.00 L 3250.82 2070.88 L 3247.43 2076.53 L 3243.69 2081.98 L 3238.56 2088.45 L 3232.99 2094.46 L 3226.98 2100.03 L 3220.51 2105.16 L 3215.06 2108.90 L 3209.41 2112.29 L 3203.53 2115.32 L 3197.42 2118.01 L 3191.06 2120.35 L 3184.62 2122.28 L 3178.01 2123.79 L 3171.24 2124.88 L 3164.27 2125.55 L 3157.10 2125.80 L 3149.92 2125.55 L 3142.96 2124.88 L 3136.18 2123.79 L 3129.58 2122.28 L 3123.13 2120.35 L 3116.78 2118.01 L 3110.66 2115.32 L 3104.79 2112.29 L 3099.13 2108.90 L 3093.69 2105.16 L 3087.21 2100.03 L 3081.20 2094.46 L 3075.64 2088.45 L 3070.50 2081.98 L 3066.76 2076.53 L 3063.38 2070.88 L 3060.34 2065.00 L 3057.66 2058.89 L 3055.31 2052.53 L 3053.39 2046.09 L 3051.88 2039.49 L 3050.79 2032.71 L 3050.11 2025.74 L 3049.86 2018.57 L 3049.86 1948.37 L 3264.33 1948.37 Z" fill="#b7bbff" fill-rule="nonzero" group-id="4" id="path6458" node-id="93" stroke-linecap="butt" stroke-width="1" target-height="177.43506" target-width="214.46606" target-x="3049.864" target-y="1948.3667"></path><path d="M 3246.46 2125.80 L 3063.07 2125.80 C 3056.72 2125.80 3051.61 2130.91 3051.61 2137.26 C 3051.61 2143.60 3056.72 2148.71 3063.07 2148.71 L 3246.46 2148.71 C 3252.80 2148.71 3257.91 2143.60 3257.91 2137.26 C 3257.91 2130.91 3252.80 2125.80 3246.46 2125.80 Z" fill="#cecfff" fill-rule="nonzero" id="path6462" node-id="94" stroke="none" target-height="22.907959" target-width="206.29688" target-x="3051.613" target-y="2125.802"></path><path d="M 2713.10 1473.07 C 2710.51 1463.56 2707.37 1455.24 2703.61 1449.90 C 2688.57 1428.54 2653.01 1462.34 2653.01 1462.34 C 2653.01 1462.34 2626.18 1432.33 2616.30 1422.01 C 2606.45 1415.49 2592.47 1411.81 2575.00 1421.72 C 2527.35 1448.62 2515.59 1544.44 2553.46 1589.27 C 2566.35 1602.59 2661.72 1647.00 2661.72 1647.00 L 2663.99 1648.90 L 2730.42 1585.99 C 2727.22 1575.62 2726.71 1562.66 2723.99 1542.59 C 2723.75 1540.86 2720.87 1501.60 2713.10 1473.07 L 2713.10 1473.07 Z" fill="#f6cdc1" fill-rule="nonzero" id="path6361-5" node-id="95" stroke="none" target-height="233.26782" target-width="199.38965" target-x="2531.0264" target-y="1415.6282"></path><path d="M 2646.54 1665.43 L 2744.76 1572.41 L 2781.93 1599.55 L 2680.84 1701.58 L 2646.54 1665.43 Z" fill="#ffffff" fill-rule="nonzero" id="path6363-9" node-id="96" stroke="none" target-height="129.17004" target-width="135.3938" target-x="2646.538" target-y="1572.407"></path><path d="M 2661.72 1647.00 L 2723.83 1540.50 L 2730.42 1585.99 L 2663.99 1648.90 L 2661.72 1647.00 Z" fill="#f69cb3" fill-rule="nonzero" id="path6365-7" node-id="97" stroke="none" target-height="108.401" target-width="68.693115" target-x="2661.723" target-y="1540.497"></path><path d="M 3137.89 1841.09 L 3105.26 1719.31 L 3076.13 1899.11 L 3137.89 1841.09 Z" fill="#3362c4" fill-rule="nonzero" id="path7918" node-id="98" stroke="none" target-height="179.79492" target-width="61.762207" target-x="3076.129" target-y="1719.31"></path><path d="M 2470.30 1641.11 C 2468.73 1628.73 2471.40 1616.18 2477.87 1605.50 C 2493.71 1579.39 2527.72 1571.05 2553.83 1586.88 C 2556.40 1588.46 2558.83 1590.26 2561.11 1592.23 L 2720.23 1310.85 C 2728.16 1297.77 2743.43 1292.23 2756.42 1296.91 L 2762.75 1353.45 L 2611.11 1622.49 C 2613.91 1623.61 2616.61 1624.95 2619.19 1626.51 C 2645.31 1642.34 2653.65 1676.35 2637.81 1702.47 C 2621.98 1728.59 2587.97 1736.92 2561.85 1721.09 C 2549.66 1713.69 2540.80 1701.88 2537.12 1688.10 C 2523.23 1691.20 2508.68 1688.82 2496.49 1681.46 C 2482.06 1672.71 2472.41 1657.86 2470.30 1641.11 L 2470.30 1641.11 Z" fill="#a5a3ff" fill-rule="nonzero" id="path7920" node-id="99" stroke="none" target-height="433.8324" target-width="292.8423" target-x="2469.9106" target-y="1295.2722"></path><path d="M 2703.26 1487.57 C 2745.95 1482.76 2776.65 1444.25 2771.84 1401.57 C 2767.03 1358.88 2728.53 1328.17 2685.84 1332.98 C 2643.15 1337.79 2612.45 1376.30 2617.26 1418.98 C 2622.06 1461.67 2660.57 1492.38 2703.26 1487.57 Z" fill="#b7bbff" fill-rule="nonzero" id="circle7922" node-id="100" stroke="none" target-height="155.48999" target-width="155.49023" target-x="2616.8042" target-y="1332.5295"></path><path d="M 2794.73 1432.02 C 2880.85 1422.31 2942.79 1344.64 2933.09 1258.52 C 2923.39 1172.40 2845.71 1110.46 2759.59 1120.16 C 2673.48 1129.86 2611.53 1207.54 2621.23 1293.66 L 2621.23 1293.66 C 2630.94 1379.77 2708.61 1441.72 2794.73 1432.02 L 2794.73 1432.02 Z" fill="#b7bbff" fill-rule="nonzero" id="circle7926" node-id="101" stroke="none" target-height="313.84436" target-width="313.84375" target-x="2620.2393" target-y="1119.1672"></path><path d="M 2655.14 1468.13 C 2654.17 1464.45 2653.01 1462.34 2653.01 1462.34 L 2616.30 1422.01 C 2606.45 1415.49 2592.47 1411.81 2575.00 1421.72 C 2527.35 1448.62 2515.59 1544.44 2553.46 1589.27 C 2606.03 1605.55 2605.89 1547.10 2636.75 1518.06 C 2658.94 1497.19 2657.63 1477.54 2655.14 1468.13 L 2655.14 1468.13 Z" fill="#f6cdc1" fill-rule="nonzero" id="path6370-6" node-id="102" stroke="none" target-height="176.45215" target-width="125.413574" target-x="2531.0264" target-y="1415.6282"></path><path d="M 2834.35 1971.27 L 2834.35 2109.85 C 2834.35 2131.14 2851.49 2148.28 2872.78 2148.28 L 2945.98 2148.28 C 2967.27 2148.28 2984.41 2131.14 2984.41 2109.85 L 2984.41 1971.27 L 2834.35 1971.27 Z" fill="#b7bbff" fill-rule="nonzero" id="rect7989" node-id="103" stroke="none" target-height="177.00793" target-width="150.05884" target-x="2834.35" target-y="1971.274"></path><path d="M 2854.92 2052.92 L 2854.92 2103.76 C 2854.92 2119.21 2867.36 2131.65 2882.81 2131.65 L 2935.95 2131.65 C 2951.40 2131.65 2963.84 2119.21 2963.84 2103.76 L 2963.84 2063.12 C 2941.32 2070.66 2919.02 2072.81 2901.11 2063.47 C 2886.79 2056.01 2870.86 2053.07 2854.92 2052.92 Z" fill="#f9f8ff" fill-rule="nonzero" id="path7994" node-id="104" stroke="none" target-height="78.729004" target-width="108.926025" target-x="2854.916" target-y="2052.923"></path></svg>