<svg xml:space="preserve" viewBox="2238.5 1762.5 4500 3500" height="3500px" width="4500px" y="0px" x="0px" xmlns:xlink="http://www.w3.org/1999/xlink" xmlns="http://www.w3.org/2000/svg" id="svg8" version="1.1">
<defs>
	
	
		
		
</defs>

	
	
	
		
	

<g id="layer2">
	<path d="M4579.894,2180.99
		c284.078-0.823,634.254,79.709,863.214,350.998c107.438,127.301,161.246,246.904,183.902,357.449
		c130.908,109.899,206.605,272,206.832,442.924c-0.199,105.705-29.314,209.341-84.195,299.684
		c224.076,85.822,372.054,300.899,372.113,540.85c-0.272,161.48-67.934,315.52-186.664,424.971c-3.731,6.072-6.004,9.41-6.004,9.41
		l283.223,247.102H2717.833c0,0,140.962-38.213,264.042-103.494c-75.987-67.18-119.574-163.678-119.742-265.104
		c0.163-146.223,90.054-277.355,226.38-330.237c-115.036-112.174-179.918-266.034-179.941-426.707
		c0.558-211.311,112.942-406.533,295.395-513.132c-35.48-73.314-54.022-153.666-54.257-235.112
		c0-300.072,243.256-543.328,543.329-543.327c67.411,0.002,134.232,12.551,197.053,37.002
		c75.64-92.493,166.781-154.153,252.679-208.256C4211.402,2222.78,4379.144,2181.572,4579.894,2180.99L4579.894,2180.99z" fill="#F2F4FF" id="path20057-5"></path>
	<path d="M3064.003,3733.428
		c153.307,0.373,287.549,32.244,364.335,120.204c273.013,312.745,222.904,464.382,557.259,487.603
		c334.355,23.219,556.957-56.867,680.17,228.138c102.731,237.628,442.625,136.711,614.698,285.005H2717.833
		c0,0,140.962-38.213,264.042-103.494c-75.987-67.18-119.574-163.678-119.742-265.104c0.163-146.223,90.054-277.355,226.38-330.237
		c-111.515-109.005-175.875-257.366-179.281-413.27C2961.961,3736.546,3013.997,3733.306,3064.003,3733.428L3064.003,3733.428z" fill="#E7EAFF" id="path20059-6"></path>
	<path d="M5004.419,3513.684
		c0,0,97.323,24.369,116.03,39.857c18.706,15.489-10.143,119.217-24.102,140.643c-13.957,21.425-80.689,1.698-86.66,1.019
		c-24.137-7.498-3.348-47.718-11.816-62.468s-44.178-43.077-44.178-43.077L5004.419,3513.684z" fill="#F6CDC1" id="path16738"></path>
	<path d="M5601.648,4606.379
		c0,136.967-111.033,248.002-248.002,248.002h-0.001c-136.968,0-248.001-111.035-248.001-248.002
		c0-136.969,111.033-248.002,248.001-248.002C5490.614,4358.377,5601.648,4469.41,5601.648,4606.379
		C5601.648,4606.378,5601.648,4606.378,5601.648,4606.379z" fill="#CECFFF" id="path16781"></path>
	<path d="M5236.783,4426.455c0,0-57.377,113.57-100.314,125.074
		c-42.936,11.506-110.472,20.952-128.249,8.889c-17.777-12.063-41.903-41.268-1.905-117.455
		c39.999-76.188,60.951-195.549,252.69-260.309s331.417,113.012,340.306,162.533c8.889,49.522-62.902,50.277-187.637,50.277
		C5286.94,4395.465,5258.919,4388.115,5236.783,4426.455L5236.783,4426.455z" fill="#A5A3FF" id="path16785"></path>
	<path d="M5008.854,3801.715c0,0,203.168,294.593,228.563,331.417
		c25.396,36.824-2.539,81.267-130.789,151.106c-128.25,69.838-162.534,96.504-162.534,96.504s107.933-209.517,110.473-351.734
		C5057.107,3886.791,5008.854,3801.715,5008.854,3801.715z" fill="#CECFFF" id="path16777"></path>
	<path d="M4985.998,4031.548
		c-1.27-5.079-63.489-157.454-62.22-190.47c1.27-33.015,85.076-39.363,85.076-39.363s76.188,149.836,29.206,218.404
		c-46.983,68.57-52.063,3.811-52.063,3.811V4031.548z" fill="#CECFFF" id="path16779"></path>
	<path d="M5045.679,3965.519c0,0-109.202,8.889-130.789,60.95
		s-66.029,269.197-68.569,298.402c-2.539,29.205,82.537,100.314,82.537,100.314S5044.409,4084.879,5045.679,3965.519
		L5045.679,3965.519z" fill="#A5A3FF" id="path16775"></path>
	<g transform="translate(-43.845954)" id="g16835">
		<path d="M4442.042,4480.143
			l11.811-89.332l74.733,26.411l17.802,6.291l-29.512,88.437L4442.042,4480.143z" fill="#F6C6C0" id="path16817"></path>
		<path d="M4477.932,3725.252l-66.771,253.174
			c30.13,0.461,61.925,0.989,97.436,2.381c-13.577,71.805-30.591,253.915-54.743,410.004l92.535,32.703
			c35.323-108.48,83.403-265.975,109.524-359.594c26.859-113.613,64.352-226.475-10.26-272.672
			C4593.282,3759.309,4536.546,3737.967,4477.932,3725.252z" fill="#FF6853" id="path16819"></path>
		<path d="M4536.762,4452.318
			l-86.585-35.555l-8.135,63.379c0,0,51.16,137.16,85.943-0.364C4528.521,4478.879,4536.762,4452.318,4536.762,4452.318
			L4536.762,4452.318z" fill="#FFFFFF" id="path16821"></path>
		<path d="M4691.695,4563.375
			l-258.583,1.594l8.93-84.826l62.149-22.139c20.842-20.369,34.959-17.446,61.334,12.223c0,0,40.975,39.594,64.361,40.035
			C4677.261,4509.971,4695.025,4518.928,4691.695,4563.375z" fill="#3D3D3D" id="path16823"></path>
		<path d="M4493.101,4089.482
			c-10.725,86.209-23.453,199.242-39.249,301.328l92.536,32.701c28.901-88.758,66.326-210.282,93.292-302.83L4493.101,4089.482z" fill="#E0523C" id="path16825"></path>
	</g>
	<path d="M5158.81,3551.152c-57.977-0.952-165.521,54.026-204.103,77.175c-44.894,26.937-8.979,104.155-8.979,104.155
		s73.627,102.356,75.423,217.286c0,109.192-57.975,414.593-149.435,508.431c-43.809,43.809-91.426,41.904-91.426,41.904h-97.774
		c0,0-97.774,1.27-167.613,0c-69.839-1.271-124.44-40.634-154.915-133.329s8.889-159.995,69.839-199.358
		s59.681-77.021,59.681-77.021h-693.31c0,0-76.188,66.863-144.757,145.591c-68.569,78.728-120.63,214.596-120.63,214.596
		s-25.396,5.079-33.015,26.665c-7.619,21.587,34.285,71.109,34.285,71.109h537.124l25.396,70.365h588.829
		c0,0,143.844-1.797,206.555-55.346c62.71-53.549,84.586-177.898,84.586-177.898s77.109-196.871,93.271-322.574
		s-3.592-242.429-19.754-274.752c-16.161-32.324,158.027,14.366,170.598-35.915s8.979-170.599-35.916-195.739
		C5176.456,3552.961,5168.297,3551.308,5158.81,3551.152z" fill="#B7BBFF" id="path16620"></path>
	<path d="M3611.133,3738.635
		c-12.334,0-24.668,4.726-34.12,14.177c-18.902,18.901-18.902,49.337,0,68.239l179.948,179.947
		c54.249,54.011,120.011-7.58,78.233-58.246l-189.942-189.94C3635.801,3743.36,3623.466,3738.635,3611.133,3738.635
		L3611.133,3738.635z" fill="#A5A3FF" id="path16805"></path>
	<path d="M4489.508,4097.577c0,0,72.379-2.539,107.933-60.95
		c35.554-58.41-5.079-138.408-130.789-129.52s-255.725,6.928-347.924-17.777c-92.2-24.704-332.863-24.091-374.59,0
		c-41.727,24.092-12.366,209.133,56.037,209.133S4489.508,4097.577,4489.508,4097.577L4489.508,4097.577z" fill="#CECFFF" id="path16622"></path>
	<path d="M4132.494,4606.379
		c0,136.967-111.035,248.002-248.003,248.002l0,0c-136.968,0-248.002-111.035-248.002-248.002
		c0-136.969,111.034-248.002,248.002-248.002S4132.493,4469.41,4132.494,4606.379L4132.494,4606.379z" fill="#CECFFF" id="path12123"></path>
	<path d="M3984.748,4606.379
		c0,55.369-44.886,100.256-100.256,100.256h0c-55.37-0.001-100.255-44.887-100.255-100.256c0-55.371,44.886-100.257,100.255-100.257
		C3939.861,4506.122,3984.748,4551.008,3984.748,4606.379C3984.748,4606.378,3984.748,4606.378,3984.748,4606.379z" fill="#F2F4FF" id="path12138"></path>
	<path d="M4220.311,4549.625h-524.426
		c0,0-110.473-3.809-107.933-109.203c2.539-105.393,189.199-264.117,417.763-288.243s327.608,147.296,308.561,276.815
		C4295.229,4558.514,4220.311,4549.625,4220.311,4549.625L4220.311,4549.625z" fill="#A5A3FF" id="path16618"></path>
	<path d="M3945.488,4328.675h168.802c13.927,0,25.141,11.214,25.141,25.142v4.488
		c0,13.928-11.213,25.141-25.141,25.141h-168.802c-13.928,0-25.141-11.213-25.141-25.141v-4.488
		C3920.348,4339.889,3931.561,4328.675,3945.488,4328.675z" fill="#B7BBFF" id="rect16624"></path>
	<path d="M4034.379,4421.156
		h79.013c13.928,0,25.141,11.213,25.141,25.142v4.489c0,13.928-11.213,25.141-25.141,25.141h-79.013
		c-13.928,0-25.141-11.213-25.141-25.141v-4.489C4009.238,4432.369,4020.451,4421.156,4034.379,4421.156z" fill="#B7BBFF" id="rect16626"></path>
	<path d="M4938.941,3614.053
		l81.885-121.938l-38.95-22.144l-84.116,116.15L4938.941,3614.053z" fill="#FFFFFF" id="path16740"></path>
	<path d="M5024.891,3617.334
		c8.006,11.061,2.117,40.555-26.212,42.125c1.244-10.51,2.638-20.727-0.808-26.725c-8.469-14.75-44.178-43.077-44.178-43.077
		S5016.375,3605.569,5024.891,3617.334L5024.891,3617.334z" fill="#F69CB3" id="path16742"></path>
	<path d="M4981.876,3469.971
		l-201.168-158.651l-50.819-267.207l-197.363,202.746l100.087,149.79l265.146,189.473L4981.876,3469.971z" fill="#3362C4" id="path16746"></path>
	<path d="M4488.922,3610.023
		l-1.782,27.207l-376.885,2.127l9.787-53.079L4488.922,3610.023z" fill="#FFFFFF" id="path927-1-4"></path>
	<path d="M4110.253,3639.357
		l376.886-2.127l113.53,138.416l-140.326-27.562L4110.253,3639.357z" fill="#FF6853" id="path125212-1"></path>
	<path d="M4621.721,2748.858c-40.922,19.925-96.979,28.125-148.984,48.343c-285.03,146.197-325.108,489.999-352.696,789.077l368.881,23.744
		c11.789-31.649,22.775-60.97,33.818-88.584c11.16,16.041,28.058,29.542,53.955,38.262l291.158,104.396l49.258-134.686
		l-234.121-130.221l-47.764-80.905l4.619-7.363c53.154-63.829,124.367-165.586,147.532-204.271l0,0
		c0.017-0.02,20.837-25.058,16-103.062c-4.838-78.032-26.453-146.541-26.453-146.541l-13.772-9.603
		C4676.702,2777.019,4621.721,2748.858,4621.721,2748.858L4621.721,2748.858z" fill="#6584F7" id="path125241-8"></path>
	<path d="M4846.197,2587.427
		l23.117,61.131C4953.979,2640.658,4917.979,2448.333,4846.197,2587.427z" fill="#F69CB3" id="path883-9-75"></path>
	<path d="M4885.1,2451.968
		c0,0,27.699,6.425,42.326,32.938s-36.218,110.641-36.218,110.641L4885.1,2451.968z" fill="#3D3D3D" id="path876-7-1"></path>
	<path d="M4651.773,2431.187
		c0,0-39.022-2.838-50.27,45.823c-11.248,48.663,30.166,142.438,30.166,142.438c-8.416,66.319,12.984,119.761,71.986,58.926
		c26.738-29.648,45.002-195.399,45.002-195.399s104.947,18.087,148.984-14.299c44.036-32.387,92.086-130.572,32.284-150.379
		s-74.213,22.761-203.563,15.066C4658.813,2329.344,4629.939,2384.282,4651.773,2431.187L4651.773,2431.187z" fill="#3D3D3D" id="path874-7-4"></path>
	<path d="M4665.227,2635.254
		l-43.506,113.604l74.932,155l37.373-41.859l14.141-85.453L4665.227,2635.254z" fill="#F6C6C0" id="path885-8-8"></path>
	<path d="M4668.381,2632.446
		l79.785,144.101l-6.242,36.96l-2.598,20.208c-54.373-17.963-61.252-84.831-54.67-133.596L4668.381,2632.446z" fill="#F69CB3" id="path887-3-5"></path>
	<path d="M4651.565,2645.289
		c-84.39-10.438-42.632-201.595,24.942-60.41c19.193-31.016,59.064-76.281,38.71-137.002c62.64,21.45,114.619,38.111,182.424,20.799
		C4920.122,2763.193,4769.848,2939.788,4651.565,2645.289z" fill="#F6C6C0" id="path870-4-0"></path>
	<path d="M4655.918,2605.539
		c0.398-1.497-3.781-23.346-15.949-38.554c-12.167-15.207-22.952,2.661-22.952,2.661s11.316-3.211,17.543,7.4
		c6.226,10.611-15.377,23.433,4.335,36.5S4655.918,2605.539,4655.918,2605.539L4655.918,2605.539z" fill="#F69CB3" id="path894-3-47"></path>
	<path d="M4696.652,2903.858
		l-74.932-155l11.921-30.665c-34.932,14.083-53.409,31.806-52.843,50.59l34.721,163.745L4696.652,2903.858z" fill="#FFFFFF" id="path881-1-4"></path>
	<path d="M4734.025,2861.999
		l7.898-48.492c29.562,14.8,57.038,41.253,43.057,68.531c-4.322,8.024-44.184,102.391-44.184,102.391l-44.145-80.571
		L4734.025,2861.999z" fill="#FFFFFF" id="path884-3-6"></path>
	<path d="M4611.6,4480.143
		l11.81-89.332l74.733,26.411l17.803,6.291l-29.512,88.437L4611.6,4480.143z" fill="#F6C6C0" id="path125199-9"></path>
	<path d="M4110.253,3639.357
		c-68.974,218.35,67.372,280.781,129.741,300.205c188.144,46.604,275.168,34.854,438.158,41.244
		c-13.577,71.806-30.592,253.915-54.743,410.004l92.536,32.702c35.323-108.481,83.402-265.974,109.524-359.594
		c26.86-113.613,64.353-226.473-10.259-272.671c-62.771-38.282-131.813-61.353-202.848-72.573L4110.253,3639.357z" fill="#FF6853" id="path125201-3"></path>
	<path d="M4706.318,4452.318
		l-86.585-35.555l-8.134,63.379c0,0,51.16,137.16,85.941-0.364C4698.078,4478.879,4706.318,4452.318,4706.318,4452.318z" fill="#FFFFFF" id="path125205-5"></path>
	<path d="M4861.252,4563.375
		l-258.582,1.594l8.93-84.826l62.148-22.139c20.842-20.369,34.959-17.446,61.334,12.223c0,0,40.975,39.594,64.362,40.035
		C4846.818,4509.971,4864.583,4518.928,4861.252,4563.375z" fill="#3D3D3D" id="path125207-2"></path>
	<path d="M4662.658,4089.482
		c-10.725,86.209-23.453,199.242-39.25,301.328l92.537,32.701c28.901-88.758,66.325-210.282,93.292-302.83L4662.658,4089.482z" fill="#E0523C" id="path125233-1"></path>
	<path d="M4950.719,3565.32
		c0,0,100.28-3.094,122.502,6.707c22.222,9.802,22.751,117.465,15.163,141.885c-7.586,24.418-77.169,23.637-83.098,24.611
		c-25.268-0.633-16.232-44.998-28.402-56.879c-12.171-11.882-54.25-29.399-54.25-29.399L4950.719,3565.32z" fill="#F6CDC1" id="path912-0"></path>
	<path d="M4915.092,3679.74
		l45.531-139.646l-43.512-10.684l-49.258,134.686L4915.092,3679.74z" fill="#FFFFFF" id="path897-59"></path>
	<path d="M4998.679,3659.459
		c10.719,8.459,13.096,38.441-13.731,47.678c-1.668-10.451-3.115-20.661-8.064-25.492c-12.17-11.882-54.249-29.398-54.249-29.398
		S4987.277,3650.463,4998.679,3659.459z" fill="#F69CB3" id="path914-0"></path>
	<path d="M5031.027,3677.71c0,23.308-18.894,42.201-42.199,42.201
		c-23.308,0-42.201-18.894-42.201-42.201c0-23.306,18.894-42.2,42.201-42.2C5012.134,3635.51,5031.027,3654.404,5031.027,3677.71z" fill="#A5A3FF" id="path16731"></path>
	<path d="M4522.74,3521.438l-95.228-164.938l61.409,253.524
		L4522.74,3521.438z" fill="#3362C4" id="path16749"></path>
	<path d="M5453.902,4606.379
		c0,55.369-44.886,100.256-100.256,100.256h-0.001c-55.369-0.001-100.255-44.887-100.255-100.256
		c0-55.371,44.886-100.257,100.255-100.257C5409.016,4506.122,5453.902,4551.008,5453.902,4606.379
		C5453.902,4606.378,5453.902,4606.378,5453.902,4606.379z" fill="#F2F4FF" id="path16783"></path>
	<path d="M5394.643,4606.379c0,22.641-18.354,40.995-40.996,40.995
		l0,0c-22.641,0-40.996-18.354-40.996-40.995c0-22.643,18.355-40.996,40.996-40.996
		C5376.288,4565.383,5394.643,4583.736,5394.643,4606.379C5394.643,4606.379,5394.643,4606.379,5394.643,4606.379z" fill="#A5A3FF" id="path16787"></path>
	<path d="M5165.523,4274.181l6.221-3.592c12.063-6.964,27.379-2.859,34.344,9.202l175.984,304.814
		c6.964,12.063,2.859,27.379-9.201,34.344l-6.222,3.591c-12.063,6.964-27.38,2.86-34.343-9.202l-175.984-304.814
		C5149.357,4296.461,5153.461,4281.145,5165.523,4274.181L5165.523,4274.181z" fill="#A5A3FF" id="rect16789"></path>
	<path d="M3920.32,4606.379c0,22.641-18.355,40.995-40.996,40.995
		l0,0c-22.642,0-40.996-18.354-40.996-40.995c0-22.643,18.354-40.996,40.996-40.996
		C3901.965,4565.383,3920.32,4583.736,3920.32,4606.379C3920.32,4606.379,3920.32,4606.379,3920.32,4606.379z" fill="#A5A3FF" id="path16791"></path>
	<path d="M3352.872,3736.881h517.482
		c26.732,0,48.252,21.52,48.252,48.252c0,26.731-21.521,48.252-48.252,48.252h-517.482c-26.731,0-48.252-21.521-48.252-48.252
		S3326.141,3736.881,3352.872,3736.881z" fill="#B7BBFF" id="rect16793"></path>
	<path d="M3871.518,3738.635
		c-12.333,0-24.668,4.726-34.12,14.177c-18.901,18.901-18.901,49.337,0,68.239l179.948,179.947
		c54.249,54.011,120.012-7.58,78.233-58.246l-189.941-189.94C3896.187,3743.36,3883.853,3738.635,3871.518,3738.635
		L3871.518,3738.635z" fill="#B7BBFF" id="rect16797"></path>
	<g transform="translate(219.03954,-371.95999)" id="g17038">
		<path d="M2655.16,3141.584
			c-23.566,0-37.245,19.138-34.457,42.539l41.903,351.734c2.788,23.4,18.972,42.538,42.538,42.538h220.427
			c23.566,0,39.75-19.138,42.539-42.538l41.903-351.734c2.788-23.401-10.89-42.539-34.456-42.539H2655.16z" fill="#B7BBFF" id="path4631-8-9"></path>
		<path d="M2815.358,2859.689
			c23.565,0,42.538,18.973,42.538,42.538v85.077c0,23.566-18.973,42.539-42.538,42.539c-23.567,0-42.538-18.973-42.538-42.539
			v-85.077C2772.82,2878.662,2791.791,2859.689,2815.358,2859.689L2815.358,2859.689z" fill="#CECFFF" id="rect4624-7-1"></path>
		<path d="M2815.358,2933.339
			c-99.188,0-179.042,79.852-179.042,179.041v21.586h358.083v-21.586C2994.399,3013.19,2914.546,2933.339,2815.358,2933.339
			L2815.358,2933.339z" fill="#B7BBFF" id="rect4619-6-3"></path>
		<path d="M2619.174,3099.681
			h392.367c28.842,0,52.062,23.22,52.062,52.063c0,28.842-23.22,52.062-52.062,52.062h-392.367
			c-28.842,0-52.062-23.22-52.062-52.062C2567.112,3122.901,2590.332,3099.681,2619.174,3099.681z" fill="#A5A3FF" id="rect4617-5"></path>
		<path d="M2698.313,3251.199
			h65.565c14.773,0,26.667,11.893,26.667,26.667v156.141c0,14.773-11.894,26.667-26.667,26.667h-34.23
			c-14.773,0-24.215-12.099-26.667-26.667l-26.27-156.141C2674.26,3263.297,2683.54,3251.199,2698.313,3251.199z" fill="#E3E1FF" id="rect4626-4-2"></path>
		<path d="M2937.184,3251.199
			h-65.564c-14.774,0-26.667,11.893-26.667,26.667v156.141c0,14.773,11.893,26.667,26.667,26.667h34.23
			c14.773,0,24.216-12.099,26.667-26.667l26.27-156.141C2961.236,3263.297,2951.958,3251.199,2937.184,3251.199z" fill="#E3E1FF" id="path4629-7-9"></path>
		<path d="M2807.104,3550.46
			c-23.566,0-42.537,18.972-42.537,42.537v1633.34h111.742V3592.998c-0.001-23.566-18.973-42.538-42.539-42.538H2807.104z" fill="#B7BBFF" id="rect4640-8-8"></path>
	</g>
	<path d="M3394.735,2982.482h548.961c57.393,0,103.596,46.204,103.596,103.595v548.96
		c0,57.393-46.203,103.597-103.596,103.597h-548.961c-57.392,0-103.596-46.204-103.596-103.597v-548.96
		C3291.139,3028.686,3337.343,2982.482,3394.735,2982.482z" fill="#CECFFF" id="rect16803"></path>
	<path d="M3579.359,2982.481v91.933
		c0,37.095,29.863,66.958,66.958,66.958h45.795c37.095,0,66.96-29.863,66.96-66.958v-91.933H3579.359z" fill="#F2F4FF" id="rect16807"></path>
	<path d="M3425.983,3525.468h141.129c11.645,0,21.019,9.375,21.019,21.02v3.754
		c0,11.645-9.374,21.019-21.019,21.019h-141.129c-11.645,0-21.019-9.375-21.019-21.019v-3.754
		C3404.964,3534.843,3414.338,3525.468,3425.983,3525.468L3425.983,3525.468z" fill="#F2F4FF" id="rect16813"></path>
	<path d="M3500.301,3602.789
		h66.061c11.645,0,21.019,9.374,21.019,21.02v3.754c0,11.644-9.375,21.019-21.019,21.019h-66.061
		c-11.645,0-21.019-9.375-21.019-21.019v-3.754C3479.282,3612.163,3488.656,3602.789,3500.301,3602.789z" fill="#F2F4FF" id="path16815"></path>
	<ellipse ry="52.706" rx="53.787" cy="3534.694" cx="5545.221" fill="#CECFFF"></ellipse>
	<path d="M5543.639,3295.558
		c-68.238,0-136.479,28.799-185.292,86.393c-22.294,25.578-19.632,64.386,5.945,86.68c25.578,22.294,64.386,19.632,86.681-5.946
		c0.374-0.429,0.741-0.863,1.104-1.302c55.276-65.218,127.85-65.218,183.127,0c21.575,26.188,60.294,29.926,86.481,8.351
		c26.187-21.575,29.925-60.295,8.35-86.482c-0.361-0.439-0.729-0.873-1.103-1.301
		C5680.117,3324.357,5611.878,3295.558,5543.639,3295.558z" fill="#CECFFF" id="path16845"></path>
	<path d="M5544.953,3064.805
		c-104.977,0-208.731,51.221-284.013,145.44c-21.553,26.207-17.78,64.922,8.427,86.475c26.206,21.552,64.922,17.779,86.475-8.427
		c0.367-0.447,0.729-0.899,1.083-1.356c55.069-68.922,122.159-99.272,188.028-99.272s132.958,30.35,188.027,99.272
		c20.804,26.805,59.397,31.67,86.202,10.866c26.805-20.803,31.67-59.397,10.865-86.202c-0.354-0.457-0.715-0.909-1.082-1.356
		C5753.684,3116.026,5649.929,3064.805,5544.953,3064.805z" fill="#B7BBFF" id="path16847"></path>
	<path d="M5543.639,2843.794
		c-157.631,0-314.521,73.012-430.977,212.522c-22.13,25.72-19.221,64.509,6.5,86.641c25.72,22.13,64.51,19.22,86.641-6.5
		c0.398-0.464,0.791-0.934,1.176-1.41c95.523-114.433,216.462-168.393,336.66-168.393c120.199,0,241.139,53.96,336.66,168.393
		c21.352,26.37,60.038,30.438,86.408,9.085c26.369-21.352,30.438-60.038,9.085-86.407c-0.385-0.476-0.776-0.946-1.176-1.409
		C5858.161,2916.806,5701.27,2843.794,5543.639,2843.794z" fill="#A5A3FF" id="path16849"></path>
	<g transform="translate(954.21305,1e-5)" id="g10415-1-0">
		<path d="M4796.539,4626.217
			l28.786,174.854c3.996,29.259,23.773,53.306,53.305,53.306h236.837c29.531,0,48.775-24.123,53.305-53.306l27.138-174.854H4796.539
			z" fill="#CECFFF" id="path36271-3-3-82"></path>
		<path d="M4796.539,4626.217l6.575,39.943h386.595
			l6.2-39.943H4796.539z" fill="#B7BBFF" id="path36273-9-4-4"></path>
		<path d="M5210.011,4254.594
			c-26.162,0.26-96.705,24.289-116.073,56.936c-18.97,31.973-12.992,63.549,4.809,86.193c-1.446,4.32-2.874,8.865-4.254,13.657
			c-12.561,43.64-22.004,107.832-10.628,190.622c1.224,9.406,9.841,16.04,19.247,14.816c9.406-1.225,16.039-9.842,14.815-19.247
			c-0.011-0.083-0.021-0.165-0.033-0.247c-1.709-12.434-2.91-24.385-3.688-35.855c13.042,6.572,29.207,6.759,44.304-4.574
			c19.289-14.483,28.332-65.233,23.217-72.047c-5.262-7.008-43.344-11.057-66.105-2.76c2.605-23.705,6.951-43.973,11.746-60.726
			c32.947,17.153,76.149,13.364,101.683-29.673c22.136-37.311,4.898-126.381-10.821-135.707
			C5216.58,4255.006,5213.748,4254.557,5210.011,4254.594L5210.011,4254.594z" fill="#CECFFF" id="path36277-4-09-1"></path>
		<path d="M4750.57,4302.948
			c-15.008,0.164-26.644,2.347-30.707,6.361c-10.903,10.769-8.239,103.443,22.246,134.31c26.447,26.777,58.982,28.728,85.582,16.76
			c5.113,5.975,10.436,12.705,15.697,20.205c-21.973,2.297-46.316,12.5-49.029,19.113c-3.235,7.882,18.298,54.719,40.613,63.877
			c17.376,7.129,32.903,2.955,43.861-6.586c1.782,7.209,3.224,14.679,4.236,22.407c1.018,9.43,9.486,16.25,18.916,15.233
			c9.43-1.018,16.251-9.488,15.233-18.918c-0.028-0.26-0.062-0.52-0.102-0.777c-7.747-59.156-36.327-104.863-61.355-134.674
			c25.794-27.475,33.782-70.934-1.878-107.038C4832.927,4312.001,4783.586,4302.586,4750.57,4302.948z" fill="#A5A3FF" id="path36281-2-68-7"></path>
		<path d="M5165.216,4041.353
			c-31.694-0.498-91.094,13.872-112.601,40.066c-31.566,38.442-20.729,80.085,6.271,105.261c-0.682,1.82-1.359,3.684-2.034,5.596
			c-21.988,62.243-40.88,173.855-33.474,378.15c0.217,9.482,8.079,16.993,17.562,16.776c9.483-0.218,16.994-8.079,16.777-17.563
			c-0.004-0.151-0.01-0.304-0.017-0.455c-2.767-76.323-1.743-139.2,1.662-190.93c19.204,10.474,45.501,8.394,59.286-16.151
			c11.813-21.032-0.377-71.119-7.806-75.291c-5.478-3.076-25.786,2.045-43.289,11.369c5.921-40.729,13.506-70.936,21.219-93.102
			c27.925,10.221,60.919,5.678,85.259-23.965c27.53-33.527,21.695-126.058,9.852-135.782
			C5180.793,4042.796,5174.09,4041.491,5165.216,4041.353z" fill="#A5A3FF" id="path36283-0-6-7"></path>
		<path d="M4917.043,3899.787
			c-0.662,0.023-1.272,0.1-1.828,0.23c-14.917,3.512-60.922,84.004-50.98,126.232c8.667,36.816,35.644,55.44,64.748,58.95
			c12.192,96.069,35.099,303.019,30.608,471.885c-0.36,9.479,7.032,17.454,16.51,17.813c9.479,0.361,17.454-7.031,17.813-16.51
			c0.005-0.131,0.008-0.261,0.011-0.391c3.011-113.211-5.911-241.727-15.886-344.084c16.896,3.855,35.704-1.469,46.641-20.939
			c11.811-21.031-0.377-71.119-7.807-75.291c-5.938-3.336-29.294,2.962-47.62,13.803c-2.138-18.456-4.146-34.744-5.956-48.98
			c36.191-10.111,65.455-43,53.859-92.258C5007.524,3949.339,4937.581,3899.08,4917.043,3899.787z" fill="#A5A3FF" id="path36285-3-8-38"></path>
		<path d="M4783.516,4519.607h426.8
			c29.531,0,53.305,23.773,53.305,53.305c0,29.53-23.773,53.305-53.305,53.305h-426.8c-29.531,0-53.306-23.774-53.306-53.305
			C4730.21,4543.381,4753.984,4519.607,4783.516,4519.607z" fill="#CECFFF" id="rect36299-9-19-9-59"></path>
		<path d="M4768.222,4088.535
			c-3.912-0.027-6.995,0.491-8.987,1.609c-13.361,7.504-35.283,97.588-14.039,135.414c22.965,40.888,65.227,47.101,98.784,32.83
			c34.226,62.979,84.808,185.773,72.721,346.116c-0.776,9.454,6.258,17.746,15.712,18.522c9.453,0.776,17.746-6.258,18.522-15.711
			c0.006-0.078,0.012-0.155,0.017-0.232c5.834-77.393-2.358-146.721-16.453-205.598c18.932,8.986,43.594,6.084,56.792-17.415
			c11.812-21.032-0.377-71.118-7.806-75.291c-8.574-4.815-53.481,10.438-67.09,30.479c-14.264-41.464-30.423-75.279-44.042-100.133
			c21.172-21.678,29.965-54.633,9.82-90.502C4863.584,4115.528,4795.604,4088.724,4768.222,4088.535z" fill="#CECFFF" id="path36279-3-6-3"></path>
	</g>
	<path d="M3219.761,4039.468
		c19.888,3.443,40.591,26.863,51.063,57.769c8.39,24.815,8.736,50.301,0.914,67.105c4.136,11.047,11.284,32.008,18.09,60.895
		c0.401-0.461,0.805-0.919,1.213-1.373c28.088-30.01,64.696-41.386,81.766-25.408h0c17.07,15.977,8.137,53.256-19.951,83.266h-0.001
		c-14.634,15.615-32.378,26.886-48.703,30.936c1.841,19.238,2.97,39.885,3.048,61.715c2.91-3.928,6.081-7.728,9.466-11.346
		c28.088-30.01,64.695-41.385,81.766-25.408v0.001c17.07,15.977,8.138,53.255-19.95,83.265c-0.001,0-0.001,0.001-0.001,0.001
		c-24.565,26.222-56.27,38.706-75.355,29.673c-4.721,42.546-13.907,88.05-29.525,135.395c-2.949,9.016-12.648,13.933-21.664,10.984
		c-9.015-2.949-13.933-12.648-10.984-21.664c0.009-0.027,0.018-0.053,0.027-0.08c12.998-39.398,21.333-77.371,26.253-113.232
		c-14.549,0.943-31.167-1.877-47.076-7.988c-38.364-14.756-62.659-44.408-54.266-66.229c8.393-21.821,46.297-27.55,84.661-12.794
		l0,0c7.964,3.082,15.563,6.92,22.465,11.344c0.426-26.045-0.777-50.383-2.981-72.65c-15.875,11.98-46.111,12.447-75.505,1.166
		c-38.362-14.756-62.658-44.406-54.266-66.229c8.393-21.821,46.297-27.549,84.66-12.793l0,0
		c14.272,5.496,27.231,13.359,37.115,22.521c-6.766-35.322-15.079-61.584-20.287-76.125c-19.902-3.408-40.633-26.84-51.116-57.774
		c-13.192-38.93-5.935-76.57,16.209-84.073C3210.862,4038.973,3215.216,4038.682,3219.761,4039.468L3219.761,4039.468z" fill="#CECFFF" id="path7274-27"></path>
	<path d="M2840.198,4160.096
		c-4.384,1.432-8.096,3.727-11.009,6.808c-16.061,16.991-4.865,53.653,25.005,81.89l0,0c23.737,22.437,53.021,33.447,72.207,27.148
		c11.406,10.416,31.04,29.738,53.543,57.791c-13.021-3.473-28.154-4.359-43.34-2.543c-40.81,4.904-71.631,27.699-68.841,50.913
		v0.001c2.791,23.213,38.135,38.054,78.945,33.148h0c31.257-3.781,57.762-18.338,66.189-36.353
		c12.364,18.649,24.813,39.597,36.621,62.815c-8.17-0.682-16.682-0.52-25.163,0.482c-40.81,4.904-71.632,27.699-68.841,50.912v0.001
		c2.791,23.213,38.135,38.054,78.945,33.149c0,0,0,0,0.001,0c16.92-2.041,32.927-7.324,45.344-14.965
		c12.428,33.997,22.825,71.459,29.77,112.361c1.57,9.354,10.426,15.665,19.78,14.096c9.354-1.571,15.666-10.426,14.096-19.781
		c-0.004-0.022-0.008-0.045-0.012-0.066c-8.345-49.151-21.513-93.666-37.243-133.478c21.093-0.945,43.274-26.812,52.718-61.479
		c10.786-39.662,1.242-76.789-21.319-82.924l0,0c-22.561-6.137-49.594,21.041-60.381,60.705l0,0.001
		c-1.3,4.782-2.325,9.625-3.06,14.458c-10.282-19.258-20.937-36.979-31.565-53.121c12.534-11.217,22.945-29.479,28.573-50.126
		c10.786-39.663,1.241-76.79-21.319-82.925v-0.001c-22.561-6.136-49.594,21.043-60.38,60.706c-0.001,0.001-0.001,0.001-0.001,0.002
		c-0.147,0.592-0.291,1.186-0.429,1.781c-19.529-22.347-35.654-37.53-44.479-45.359c-0.947-18.51-13.175-40.871-32.198-58.88
		C2888.641,4164.849,2859.387,4153.834,2840.198,4160.096L2840.198,4160.096z" fill="#CECFFF" id="path7276-94"></path>
	<path d="M2934.116,4626.217
		l28.787,174.855c3.996,29.259,23.773,53.305,53.304,53.305h236.838c29.531,0,48.776-24.123,53.304-53.305l27.138-174.855H2934.116z" fill="#CECFFF" id="path7278-8"></path>
	<path d="M3004.164,3961.822c-1.402,0.257-2.767,0.632-4.09,1.124
		c-21.917,8.14-28.083,45.975-13.772,84.506c10.007,26.88,27.903,48.081,46.003,54.501c2.824,7.283,5.882,15.23,9.163,23.84
		c-4.736-1.691-9.702-3.041-14.766-4.012c-31.546-5.97-59.872,3.738-63.268,21.683l0,0c-3.396,17.944,19.424,37.329,50.972,43.298
		c0,0,0,0,0.001,0.002c18.009,3.39,35.866,1.75,48.182-4.426c5.727,15.641,11.737,32.328,17.903,49.791
		c-4.931-1.797-10.117-3.224-15.412-4.235c-31.546-5.969-59.873,3.739-63.268,21.683l-0.001,0.002
		c-3.394,17.944,19.427,37.328,50.973,43.297c17.558,3.307,34.997,1.837,47.293-3.988c5.991,17.771,12.003,36.013,17.953,54.601
		c-5.136-1.913-10.562-3.419-16.104-4.472c-31.546-5.969-59.873,3.738-63.268,21.682l0,0c-3.395,17.944,19.426,37.329,50.973,43.298
		c16.966,3.206,33.863,1.956,46.115-3.411c15.378,51.319,29.51,103.556,40.414,153.051c1.932,9.286,11.026,15.247,20.313,13.314
		s15.247-11.027,13.315-20.313c-0.027-0.131-0.056-0.261-0.086-0.391c-11.336-51.461-25.986-105.527-41.867-158.4
		c14.773-2.252,31.596-15.593,43.366-34.391c17.017-27.227,18.258-57.144,2.771-66.822c0,0,0,0-0.001,0
		c-15.486-9.68-41.834,4.543-58.852,31.769c-2.097,3.358-3.993,6.83-5.659,10.36c-5.713-17.791-11.474-35.217-17.209-52.221
		c14.504-2.817,30.699-15.975,42.102-34.207c17.017-27.226,18.258-57.143,2.771-66.822l0,0
		c-15.487-9.678-41.835,4.545-58.852,31.771c-2.27,3.649-4.302,7.431-6.06,11.272c-5.988-16.93-11.827-33.129-17.397-48.324
		c14.285-3.199,30.021-16.201,41.16-34.01c17.017-27.225,18.258-57.143,2.772-66.822l0,0c-15.486-9.68-41.835,4.543-58.853,31.768
		c0,0.001-0.001,0.002-0.001,0.002c-2.421,3.898-4.57,7.943-6.403,12.052c-2.984-7.817-5.772-15.05-8.384-21.783
		c10.791-16.3,11.013-45.279,0.563-73.461C3052.362,3982.14,3025.774,3957.866,3004.164,3961.822L3004.164,3961.822z" fill="#A5A3FF" id="path7280-9"></path>
	<path d="M2934.116,4626.217l6.575,39.943h386.595l6.2-39.943
		H2934.116z" fill="#B7BBFF" id="path7282-1"></path>
	<path d="M2921.093,4519.607h426.8
		c29.532,0,53.306,23.773,53.306,53.305c0,29.53-23.774,53.305-53.306,53.305h-426.8c-29.531,0-53.305-23.774-53.305-53.305
		C2867.788,4543.381,2891.562,4519.607,2921.093,4519.607z" fill="#CECFFF" id="path7286-5"></path>
</g>
</svg>
