<svg width="33" height="34" viewBox="0 0 33 34" fill="none" xmlns="http://www.w3.org/2000/svg">
<path d="M26.5833 17C25.854 17 25.1545 16.7103 24.6388 16.1945C24.1231 15.6788 23.8333 14.9793 23.8333 14.25C23.8333 13.5207 24.1231 12.8212 24.6388 12.3055C25.1545 11.7897 25.854 11.5 26.5833 11.5C27.3127 11.5 28.0122 11.7897 28.5279 12.3055C29.0436 12.8212 29.3333 13.5207 29.3333 14.25C29.3333 14.9793 29.0436 15.6788 28.5279 16.1945C28.0122 16.7103 27.3127 17 26.5833 17ZM21.0833 9.66667C20.354 9.66667 19.6545 9.37694 19.1388 8.86121C18.6231 8.34549 18.3333 7.64601 18.3333 6.91667C18.3333 6.18732 18.6231 5.48785 19.1388 4.97212C19.6545 4.4564 20.354 4.16667 21.0833 4.16667C21.8127 4.16667 22.5122 4.4564 23.0279 4.97212C23.5436 5.48785 23.8333 6.18732 23.8333 6.91667C23.8333 7.64601 23.5436 8.34549 23.0279 8.86121C22.5122 9.37694 21.8127 9.66667 21.0833 9.66667ZM11.9167 9.66667C11.1873 9.66667 10.4878 9.37694 9.97212 8.86121C9.4564 8.34549 9.16667 7.64601 9.16667 6.91667C9.16667 6.18732 9.4564 5.48785 9.97212 4.97212C10.4878 4.4564 11.1873 4.16667 11.9167 4.16667C12.646 4.16667 13.3455 4.4564 13.8612 4.97212C14.3769 5.48785 14.6667 6.18732 14.6667 6.91667C14.6667 7.64601 14.3769 8.34549 13.8612 8.86121C13.3455 9.37694 12.646 9.66667 11.9167 9.66667ZM6.41667 17C5.68732 17 4.98785 16.7103 4.47212 16.1945C3.9564 15.6788 3.66667 14.9793 3.66667 14.25C3.66667 13.5207 3.9564 12.8212 4.47212 12.3055C4.98785 11.7897 5.68732 11.5 6.41667 11.5C7.14601 11.5 7.84549 11.7897 8.36121 12.3055C8.87694 12.8212 9.16667 13.5207 9.16667 14.25C9.16667 14.9793 8.87694 15.6788 8.36121 16.1945C7.84549 16.7103 7.14601 17 6.41667 17ZM16.5 0.5C12.1239 0.5 7.92709 2.23839 4.83274 5.33274C1.73839 8.42709 0 12.6239 0 17C0 21.3761 1.73839 25.5729 4.83274 28.6673C7.92709 31.7616 12.1239 33.5 16.5 33.5C17.2293 33.5 17.9288 33.2103 18.4445 32.6945C18.9603 32.1788 19.25 31.4793 19.25 30.75C19.25 30.035 18.975 29.3933 18.535 28.9167C18.1133 28.4217 17.8383 27.78 17.8383 27.0833C17.8383 26.354 18.1281 25.6545 18.6438 25.1388C19.1595 24.6231 19.859 24.3333 20.5883 24.3333H23.8333C26.2645 24.3333 28.5961 23.3676 30.3151 21.6485C32.0342 19.9294 33 17.5978 33 15.1667C33 7.06333 25.6117 0.5 16.5 0.5Z" fill="#9EC785"/>
</svg>
