<svg width="60" height="45" viewBox="0 0 60 45" fill="none" xmlns="http://www.w3.org/2000/svg">
<path d="M24.8653 2.93375C22.3921 0.56961 18.3785 0.56961 15.9053 2.93375L3.68865 14.6114C1.2154 16.9755 1.2154 20.812 3.68865 23.1761L15.9053 34.8538C18.3785 37.2179 22.3921 37.2179 24.8653 34.8538L37.0819 23.1761C39.5552 20.812 39.5552 16.9755 37.0819 14.6114L24.8653 2.93375ZM18.2729 18.8938C18.2729 18.3583 18.4955 17.8447 18.8916 17.466C19.2878 17.0873 19.8251 16.8746 20.3853 16.8746C20.9455 16.8746 21.4828 17.0873 21.879 17.466C22.2751 17.8447 22.4977 18.3583 22.4977 18.8938C22.4977 19.4293 22.2751 19.9429 21.879 20.3216C21.4828 20.7002 20.9455 20.913 20.3853 20.913C19.8251 20.913 19.2878 20.7002 18.8916 20.3216C18.4955 19.9429 18.2729 19.4293 18.2729 18.8938ZM9.11924 16.8746C9.67948 16.8746 10.2168 17.0873 10.6129 17.466C11.0091 17.8447 11.2316 18.3583 11.2316 18.8938C11.2316 19.4293 11.0091 19.9429 10.6129 20.3216C10.2168 20.7002 9.67948 20.913 9.11924 20.913C8.559 20.913 8.02171 20.7002 7.62556 20.3216C7.22941 19.9429 7.00685 19.4293 7.00685 18.8938C7.00685 18.3583 7.22941 17.8447 7.62556 17.466C8.02171 17.0873 8.559 16.8746 9.11924 16.8746ZM20.3853 31.682C19.8251 31.682 19.2878 31.4693 18.8916 31.0906C18.4955 30.7119 18.2729 30.1983 18.2729 29.6628C18.2729 29.1273 18.4955 28.6137 18.8916 28.235C19.2878 27.8563 19.8251 27.6436 20.3853 27.6436C20.9455 27.6436 21.4828 27.8563 21.879 28.235C22.2751 28.6137 22.4977 29.1273 22.4977 29.6628C22.4977 30.1983 22.2751 30.7119 21.879 31.0906C21.4828 31.4693 20.9455 31.682 20.3853 31.682ZM31.6513 16.8746C32.2116 16.8746 32.7489 17.0873 33.145 17.466C33.5412 17.8447 33.7637 18.3583 33.7637 18.8938C33.7637 19.4293 33.5412 19.9429 33.145 20.3216C32.7489 20.7002 32.2116 20.913 31.6513 20.913C31.0911 20.913 30.5538 20.7002 30.1577 20.3216C29.7615 19.9429 29.539 19.4293 29.539 18.8938C29.539 18.3583 29.7615 17.8447 30.1577 17.466C30.5538 17.0873 31.0911 16.8746 31.6513 16.8746ZM20.3853 10.1439C19.8251 10.1439 19.2878 9.93121 18.8916 9.55254C18.4955 9.17387 18.2729 8.66028 18.2729 8.12475C18.2729 7.58923 18.4955 7.07564 18.8916 6.69697C19.2878 6.3183 19.8251 6.10556 20.3853 6.10556C20.9455 6.10556 21.4828 6.3183 21.879 6.69697C22.2751 7.07564 22.4977 7.58923 22.4977 8.12475C22.4977 8.66028 22.2751 9.17387 21.879 9.55254C21.4828 9.93121 20.9455 10.1439 20.3853 10.1439ZM28.8348 37.7396C28.8348 40.7095 31.3609 43.1241 34.4679 43.1241H51.3669C54.4739 43.1241 57 40.7095 57 37.7396V21.586C57 18.6161 54.4739 16.2015 51.3669 16.2015H41.3067C42.3277 19.2303 41.5796 22.6798 39.0711 25.0775L28.8348 34.8622V37.7396ZM42.9174 27.6436C43.4776 27.6436 44.0149 27.8563 44.4111 28.235C44.8072 28.6137 45.0298 29.1273 45.0298 29.6628C45.0298 30.1983 44.8072 30.7119 44.4111 31.0906C44.0149 31.4693 43.4776 31.682 42.9174 31.682C42.3572 31.682 41.8199 31.4693 41.4237 31.0906C41.0276 30.7119 40.805 30.1983 40.805 29.6628C40.805 29.1273 41.0276 28.6137 41.4237 28.235C41.8199 27.8563 42.3572 27.6436 42.9174 27.6436Z" fill="#FFFFFF"/>
</svg>
