<svg width="37" height="40" viewBox="0 0 37 40" fill="none" xmlns="http://www.w3.org/2000/svg">
<path d="M2.91669 4.50004H5.66669V2.30004C5.66669 1.49337 6.32669 0.833374 7.13335 0.833374H15.2C16.0067 0.833374 16.6667 1.49337 16.6667 2.30004V4.50004H19.4167C20.146 4.50004 20.8455 4.78977 21.3612 5.3055C21.877 5.82122 22.1667 6.5207 22.1667 7.25004V8.16671H36.8334V35.6667H22.1667V36.5834C22.1667 37.3127 21.877 38.0122 21.3612 38.5279C20.8455 39.0436 20.146 39.3334 19.4167 39.3334H2.91669C2.18734 39.3334 1.48787 39.0436 0.972143 38.5279C0.456418 38.0122 0.166687 37.3127 0.166687 36.5834V7.25004C0.166687 6.5207 0.456418 5.82122 0.972143 5.3055C1.48787 4.78977 2.18734 4.50004 2.91669 4.50004ZM29.5 11.8334V15.5H33.1667V11.8334H29.5ZM22.1667 11.8334V15.5H25.8334V11.8334H22.1667ZM14.8334 11.8334V15.5H18.5V11.8334H14.8334ZM22.1667 28.3334V32H25.8334V28.3334H22.1667ZM29.5 28.3334V32H33.1667V28.3334H29.5ZM14.8334 28.3334V32H18.5V28.3334H14.8334Z" fill="#FFFFFF"/>
</svg>
