<svg width="44" height="40" viewBox="0 0 44 40" fill="none" xmlns="http://www.w3.org/2000/svg">
<path d="M38.5 17.875H37.0614C36.7159 14.1193 34.9797 10.6282 32.1933 8.08638C29.407 5.54458 25.7715 4.1355 22 4.1355C18.2284 4.1355 14.593 5.54458 11.8066 8.08638C9.02024 10.6282 7.28405 14.1193 6.93856 17.875H5.49997C5.1353 17.875 4.78556 18.0198 4.5277 18.2777C4.26984 18.5356 4.12497 18.8853 4.12497 19.25C4.13101 22.5199 5.03091 25.726 6.72735 28.5215C8.42378 31.317 10.8522 33.5955 13.75 35.1106V35.75C13.75 36.4793 14.0397 37.1788 14.5554 37.6945C15.0712 38.2102 15.7706 38.5 16.5 38.5H27.5C28.2293 38.5 28.9288 38.2102 29.4445 37.6945C29.9602 37.1788 30.25 36.4793 30.25 35.75V35.1106C33.1477 33.5955 35.5762 31.317 37.2726 28.5215C38.969 25.726 39.8689 22.5199 39.875 19.25C39.875 18.8853 39.7301 18.5356 39.4722 18.2777C39.2144 18.0198 38.8646 17.875 38.5 17.875ZM29.8168 9.66451C30.1319 9.92232 30.4339 10.1945 30.7226 10.4809C27.0623 11.7685 24.0376 14.4148 22.275 17.8715H17.2047C18.064 15.4626 19.6462 13.3777 21.735 11.9017C23.8238 10.4257 26.3173 9.6306 28.875 9.62498C29.1895 9.62498 29.504 9.64045 29.8168 9.66451ZM25.4581 17.875C27.1251 15.374 29.6472 13.567 32.5514 12.7926C33.5009 14.3372 34.0967 16.0729 34.2959 17.875H25.4581ZM22 6.87498C23.1034 6.87571 24.2017 7.02427 25.2656 7.3167C22.6745 7.95946 20.2985 9.2739 18.3773 11.1275C16.4561 12.9812 15.0574 15.3085 14.3223 17.875H9.70403C10.0451 14.8515 11.4869 12.0592 13.7546 10.0305C16.0223 8.00181 18.9573 6.8786 22 6.87498Z" fill="#FF7E20"/>
</svg>
