<svg width="36" height="40" viewBox="0 0 36 40" fill="none" xmlns="http://www.w3.org/2000/svg">
<path d="M11.0846 20.1693C16.1021 20.1693 20.1693 16.1021 20.1693 11.0847C20.1693 6.06721 16.1021 2 11.0846 2C6.06718 2 1.99997 6.06721 1.99997 11.0847C1.99997 16.1021 6.06718 20.1693 11.0846 20.1693Z" fill="#9B7342" stroke="#9B7342" stroke-width="3" stroke-linejoin="round"/>
<path d="M20.1693 12.1765C20.182 12.1892 24.46 17.5692 33.0023 28.3145C33.147 28.4887 33.2214 28.7106 33.211 28.9368C33.2006 29.163 33.1061 29.3772 32.946 29.5373L29.2358 33.2475C29.0756 33.4076 28.8615 33.5021 28.6353 33.5125C28.4091 33.5229 28.1872 33.4485 28.013 33.3038L12.7398 20.1692M20.5963 20.5962L23.1663 23.1662" stroke="#9B7342" stroke-width="3" stroke-linecap="round" stroke-linejoin="round"/>
<path d="M11.9932 38.4168C13.7347 36.1475 15.8515 35.0128 18.3434 35.0128C22.0826 35.0128 26.4951 39.7096 30.2588 39.0637C34.0235 38.4169 35.101 34.7049 32.7844 32.6499" stroke="#9B7342" stroke-width="3" stroke-linecap="round" stroke-linejoin="round"/>
</svg>
