<svg width="45" height="44" viewBox="0 0 45 44" fill="none" xmlns="http://www.w3.org/2000/svg">
<path d="M22.5 3.05554C11.72 3.05554 2.94446 10.7311 2.94446 20.1667C2.94446 29.6022 11.72 37.2778 22.5 37.2778C24.517 37.2768 26.5241 36.9971 28.4645 36.4467L35.2233 40.7489C35.4958 40.9235 35.8263 40.9829 36.1425 40.9142C36.4586 40.8454 36.7347 40.6541 36.91 40.3822C37.0588 40.1924 37.1481 39.9627 37.1667 39.7222V31.4967C38.696 30.0296 39.9163 28.2714 40.7559 26.3256C41.5956 24.3799 42.0374 22.2858 42.0556 20.1667C42.0556 10.7311 33.28 3.05554 22.5 3.05554ZM36.9711 22H26.79C26.7214 22.0006 26.6536 22.015 26.5906 22.0423C26.5276 22.0696 26.4707 22.1092 26.4233 22.1589L19.9456 29.0522C19.901 29.1021 19.8463 29.142 19.7853 29.1694C19.7242 29.1968 19.658 29.211 19.5911 29.2111H16.6211C16.5376 29.2105 16.4555 29.1889 16.3824 29.1485C16.3092 29.1081 16.2474 29.05 16.2024 28.9795C16.1575 28.9091 16.1309 28.8285 16.125 28.7451C16.1192 28.6618 16.1342 28.5783 16.1689 28.5022L19.1878 22H9.61779C9.52725 21.998 9.43886 21.972 9.36158 21.9248C9.2843 21.8776 9.22089 21.8107 9.17779 21.7311L5.87779 15.62H8.12668C8.21709 15.6214 8.3062 15.6416 8.3883 15.6795C8.47039 15.7174 8.54365 15.7721 8.60335 15.84L10.51 17.9055C10.558 17.965 10.6199 18.0118 10.6902 18.0416C10.7606 18.0715 10.8372 18.0835 10.9133 18.0767L18.4667 17.6122L16.0222 13.2733H19.5545C19.6928 13.271 19.8274 13.3188 19.9333 13.4078L24.4922 17.1111L32.6689 16.6833C33.0705 16.6557 33.4736 16.7097 33.8538 16.842C34.234 16.9744 34.5834 17.1823 34.8811 17.4533L37.9 20.1789C38.0336 20.3477 38.1159 20.5514 38.1371 20.7656C38.1584 20.9798 38.1177 21.1957 38.0198 21.3874C37.922 21.5792 37.7712 21.7389 37.5853 21.8475C37.3994 21.9561 37.1862 22.009 36.9711 22Z" fill="#FFFFFF"/>
</svg>
