<svg width="45" height="44" viewBox="0 0 45 44" fill="none" xmlns="http://www.w3.org/2000/svg">
<path fill-rule="evenodd" clip-rule="evenodd" d="M34.7302 5.88137C35.2553 5.79379 35.7933 5.82163 36.3066 5.96296C36.82 6.10429 37.2963 6.35572 37.7027 6.69978C38.109 7.04383 38.4356 7.47226 38.6596 7.95526C38.8836 8.43827 38.9998 8.96427 39 9.4967V31.1667C38.9996 32.781 38.4666 34.35 37.4837 35.6305C36.5008 36.9109 35.1228 37.8313 33.5635 38.2488C32.0042 38.6664 30.3506 38.5577 28.8594 37.9398C27.3681 37.3218 26.1224 36.2291 25.3154 34.831C24.5084 33.4329 24.1853 31.8077 24.3961 30.2073C24.607 28.6068 25.34 27.1207 26.4815 25.9793C27.623 24.8379 29.1092 24.1051 30.7097 23.8944C32.3101 23.6838 33.9353 24.0071 35.3333 24.8142V16.83L17 19.8862V33C17 33.11 16.9908 33.2145 16.9725 33.319C17.1041 34.7288 16.7657 36.1426 16.0101 37.34C15.2544 38.5374 14.1239 39.4513 12.7947 39.9392C11.4655 40.4271 10.0123 40.4617 8.66137 40.0375C7.31047 39.6133 6.13781 38.7543 5.32608 37.5941C4.51435 36.434 4.10914 35.0379 4.17358 33.6235C4.23803 32.209 4.76851 30.8556 5.68237 29.7741C6.59623 28.6926 7.84216 27.9437 9.22603 27.6441C10.6099 27.3445 12.054 27.5111 13.3333 28.1179V12.5529C13.3332 11.6849 13.641 10.845 14.202 10.1827C14.7629 9.52035 15.5407 9.07849 16.3968 8.93571L34.7302 5.88137ZM17 16.17L35.3333 13.1139V9.4967L17 12.5529V16.17Z" fill="#E3B9C2"/>
</svg>
