<svg width="41" height="40" viewBox="0 0 41 40" fill="none" xmlns="http://www.w3.org/2000/svg">
<path d="M2.16669 37.5L15 8.16663L24.1667 30.1666L27.8334 19.1666L38.8334 37.5H2.16669ZM32.4167 11.8333C33.6323 11.8333 34.7981 11.3504 35.6576 10.4909C36.5171 9.63132 37 8.46553 37 7.24996C37 6.03438 36.5171 4.86859 35.6576 4.00905C34.7981 3.14951 33.6323 2.66663 32.4167 2.66663C31.2011 2.66663 30.0353 3.14951 29.1758 4.00905C28.3162 4.86859 27.8334 6.03438 27.8334 7.24996C27.8334 8.46553 28.3162 9.63132 29.1758 10.4909C30.0353 11.3504 31.2011 11.8333 32.4167 11.8333Z" stroke="#FFFFFF" stroke-width="4" stroke-linejoin="round"/>
</svg>
