<svg width="40" height="38" viewBox="0 0 40 38" fill="none" xmlns="http://www.w3.org/2000/svg">
<path d="M37.875 11.5051C35.0107 11.3475 32.169 12.092 29.75 13.6338C29.165 12.9676 28.5637 12.3013 27.93 11.6676L27.4587 11.2288L27.6862 11.0338C28.4809 10.3517 29.0472 9.44216 29.3087 8.42803C29.5702 7.4139 29.5144 6.34396 29.1487 5.36257C28.6204 4.25461 27.7818 3.3239 26.7347 2.6835C25.6875 2.04309 24.4769 1.72056 23.25 1.75507V5.00507C23.8281 4.99702 24.398 5.14337 24.9007 5.42902C25.4035 5.71467 25.8209 6.12928 26.11 6.63007C26.3862 7.28007 26.11 7.99507 25.3462 8.75882L24.9725 9.10007C23.2775 7.68771 21.4167 6.48719 19.4312 5.52507C15.32 3.67257 13.2075 4.53382 12.1675 5.52507C11.8506 5.84274 11.5969 6.21772 11.42 6.63007L11.1275 7.49132L8.78746 14.5438C10.64 19.1588 15.125 27.3651 24.875 30.9076L33 28.2101C33.274 28.1081 33.5154 27.934 33.6987 27.7063L34.04 27.4138C36.3637 25.0738 34.8687 20.5726 31.7487 16.2013C33.6013 15.1201 35.7344 14.6166 37.875 14.7551V11.5051ZM31.7162 25.1063H31.6187C30.4975 25.7076 25.85 24.1801 20.585 18.9151C20.0325 18.3626 19.5125 17.8263 19.0412 17.2901C18.8787 17.1113 18.7325 16.9163 18.57 16.7213L17.7087 15.6813L17.2537 15.0476C17.0262 14.7388 16.7987 14.4301 16.6037 14.1376C16.4087 13.8451 16.3437 13.7151 16.2137 13.5038C16.0837 13.2926 15.8562 12.9513 15.71 12.6751C15.5637 12.3988 15.4987 12.2851 15.4012 12.0738C15.3037 11.8626 15.125 11.6188 15.0275 11.3913C14.93 11.1638 14.8812 11.0176 14.8 10.8388C14.7187 10.6601 14.6212 10.4001 14.5562 10.1888C14.4912 9.97757 14.475 9.88007 14.4425 9.71757C14.41 9.55507 14.345 9.32757 14.3125 9.16507C14.3047 9.03519 14.3047 8.90495 14.3125 8.77507C14.2965 8.63469 14.2965 8.49295 14.3125 8.35257L14.4912 7.84882C14.7675 7.55632 15.97 7.47507 18.115 8.45007C19.5485 9.13872 20.9048 9.97759 22.1612 10.9526C21.4763 11.2549 20.746 11.4416 20 11.5051V14.7551C21.7263 14.6571 23.4014 14.1323 24.875 13.2276L25.6712 13.9751C26.3862 14.6738 27.02 15.3726 27.605 16.0388C26.6252 17.7095 26.236 19.6613 26.5 21.5801L29.75 20.9463C29.6401 20.3337 29.6401 19.7064 29.75 19.0938C31.8462 22.2951 32.2362 24.6026 31.7162 25.1063ZM7.64996 18.0051L4.02621 28.8926C3.76466 29.6919 3.69599 30.5418 3.82581 31.3728C3.95562 32.2037 4.28024 32.9922 4.77313 33.6737C5.26602 34.3552 5.91318 34.9103 6.66172 35.2938C7.41026 35.6773 8.23892 35.8782 9.07996 35.8801C9.63284 35.8747 10.1814 35.7814 10.705 35.6038L21.3 32.0776C15.3202 29.0236 10.5203 24.0751 7.64996 18.0051Z" fill="#FFFFFF"/>
</svg>
