<svg width="42" height="40" viewBox="0 0 42 40" fill="none" xmlns="http://www.w3.org/2000/svg">
<path d="M9.88676 8.46502C12.4146 6.22911 15.5594 4.80972 18.9084 4.39312C19.0386 5.29612 19.2024 6.30202 19.4124 7.34992C19.7904 9.23992 20.3154 11.2979 21.042 13.1816C21.6216 14.6915 22.3503 16.1405 23.2722 17.3081L21 19.5803L9.88676 8.46502ZM8.39996 9.95392C6.16318 12.4814 4.74302 15.6263 4.32596 18.9755C5.22896 19.1057 6.23276 19.2695 7.28066 19.4795C9.17066 19.8575 11.2287 20.3825 13.1124 21.1091C14.6223 21.6887 16.0734 22.4174 17.2389 23.3393L19.5153 21.065L8.39996 9.95392ZM15.7416 24.8387C14.8386 24.1667 13.6794 23.5766 12.3606 23.0684C10.6239 22.4006 8.69186 21.905 6.86906 21.5396C5.98344 21.3623 5.09345 21.2076 4.19996 21.0755C4.19644 25.1653 5.69049 29.1148 8.39996 32.1782L15.7416 24.8387ZM9.88256 33.665L17.2263 26.3234C17.8983 27.2264 18.4863 28.3856 18.9945 29.7044C19.6623 31.439 20.1579 33.3731 20.5233 35.1938C20.7123 36.1346 20.8635 37.0418 20.9853 37.8671C16.8962 37.8701 12.9476 36.3761 9.88466 33.6671M18.7257 24.8261L21 22.5518L32.1132 33.665C29.5855 35.9016 26.4407 37.3217 23.0916 37.739C22.9593 36.836 22.7934 35.8301 22.5855 34.7822C22.2075 32.8922 21.6825 30.8342 20.958 28.9505C20.3763 27.4427 19.6497 25.9937 18.7257 24.8261ZM33.6 32.1803C35.8367 29.6528 37.2569 26.508 37.674 23.1587C36.771 23.0285 35.7651 22.8647 34.7172 22.6547C32.8272 22.2767 30.7692 21.7517 28.8855 21.0272C27.3777 20.4455 25.9266 19.7189 24.759 18.7949L22.4847 21.065L33.6 32.1803ZM26.2563 17.2976C27.1593 17.9696 28.3206 18.5576 29.6373 19.0658C31.374 19.7336 33.3081 20.2292 35.1288 20.5946C36.0696 20.7836 36.9768 20.9348 37.8021 21.0566C37.8056 16.9669 36.3115 13.0174 33.6021 9.95392L26.2563 17.2976ZM32.1132 8.46502C29.0497 5.75555 25.1002 4.26151 21.0105 4.26502C21.1323 5.09032 21.2835 5.99752 21.4725 6.93832C21.8379 8.76112 22.3335 10.6931 23.0013 12.4277C23.5095 13.7465 24.0975 14.9057 24.7695 15.8087L32.1132 8.46502Z" fill="#9EC785"/>
</svg>
