<svg width="31" height="36" viewBox="0 0 31 36" fill="none" xmlns="http://www.w3.org/2000/svg">
<g clip-path="url(#clip0_529_15362)">
<path d="M6.64283 0C2.97542 0 -3.05176e-05 3.02344 -3.05176e-05 6.75V29.25C-3.05176e-05 32.9766 2.97542 36 6.64283 36H28.7857C30.0105 36 31 34.9945 31 33.75C31 32.5055 30.0105 31.5 28.7857 31.5V27C30.0105 27 31 25.9945 31 24.75V2.25C31 1.00547 30.0105 0 28.7857 0H26.5714H6.64283ZM6.64283 27H24.3571V31.5H6.64283C5.41805 31.5 4.42854 30.4945 4.42854 29.25C4.42854 28.0055 5.41805 27 6.64283 27ZM8.85711 10.125C8.85711 9.50625 9.35533 9 9.96425 9H23.25C23.8589 9 24.3571 9.50625 24.3571 10.125C24.3571 10.7437 23.8589 11.25 23.25 11.25H9.96425C9.35533 11.25 8.85711 10.7437 8.85711 10.125ZM9.96425 13.5H23.25C23.8589 13.5 24.3571 14.0063 24.3571 14.625C24.3571 15.2437 23.8589 15.75 23.25 15.75H9.96425C9.35533 15.75 8.85711 15.2437 8.85711 14.625C8.85711 14.0063 9.35533 13.5 9.96425 13.5Z" fill="#FFFFFF"/>
</g>
<defs>
<clipPath id="clip0_529_15362">
<rect width="31" height="36" fill="white"/>
</clipPath>
</defs>
</svg>
