<svg width="37" height="38" viewBox="0 0 37 38" fill="none" xmlns="http://www.w3.org/2000/svg">
<path d="M11.8634 34.708L2.79386 25.6366C1.13469 23.9793 0.306023 23.1506 0.18869 22.1386C0.162282 21.9127 0.162282 21.6844 0.18869 21.4585C0.306023 20.4465 1.13469 19.616 2.79202 17.9586C4.45119 16.3013 5.27986 15.4726 6.29186 15.3553C6.51736 15.3278 6.74652 15.3278 6.97019 15.3553C7.98402 15.4726 8.81269 16.3013 10.4719 17.9586L11.8157 19.3043L18.8044 12.3138L17.4605 10.97C15.8014 9.31262 14.9727 8.48395 14.8554 7.47195C14.8289 7.246 14.8289 7.01774 14.8554 6.79179C14.9727 5.77979 15.8014 4.95112 17.4587 3.29195C19.1179 1.63462 19.9465 0.805953 20.9585 0.688619C21.1839 0.662387 21.4115 0.662387 21.6369 0.688619C22.6507 0.805953 23.4794 1.63462 25.1385 3.29195L34.2099 12.367C35.869 14.0243 36.6977 14.853 36.815 15.865C36.8425 16.0905 36.8425 16.3196 36.815 16.5433C36.6977 17.5571 35.869 18.3858 34.2117 20.045C32.5525 21.7005 31.7239 22.5291 30.7119 22.6483C30.4865 22.6746 30.2589 22.6746 30.0335 22.6483C29.0197 22.5291 28.191 21.7005 26.5319 20.045L24.495 18.0045L17.5064 24.995L19.5432 27.0336C21.2024 28.691 22.031 29.5196 22.1484 30.5316C22.1759 30.7571 22.1759 30.9863 22.1484 31.21C22.031 32.2238 21.2024 33.0525 19.545 34.7116C17.8859 36.3671 17.0572 37.1958 16.0452 37.315C15.8198 37.3412 15.5922 37.3412 15.3669 37.315C14.353 37.1958 13.5244 36.3671 11.8652 34.7116" fill="#9B7342"/>
</svg>
