<svg width="30" height="27" viewBox="0 0 30 27" fill="none" xmlns="http://www.w3.org/2000/svg">
<path fill-rule="evenodd" clip-rule="evenodd" d="M14.1526 1.17511L13.7599 1.02773C10.1083 -0.342575 6.03795 -0.342576 2.38641 1.02773C1.10944 1.50693 0.219238 2.69364 0.219238 4.0691V22.9876C0.219238 25.0568 2.38052 26.2842 4.2054 25.5993C6.68726 24.668 9.459 24.668 11.9409 25.5993L14.1526 26.4293V1.17511ZM15.6526 26.4293L17.8643 25.5993C20.3462 24.668 23.1179 24.668 25.5998 25.5993C27.4247 26.2842 29.586 25.0568 29.586 22.9876V4.0691C29.586 2.69364 28.6958 1.50693 27.4188 1.02773C23.7673 -0.342576 19.6969 -0.342575 16.0454 1.02773L15.6526 1.17512V26.4293Z" fill="#7F0019"/>
</svg>
