<svg width="33" height="31" viewBox="0 0 33 31" fill="none" xmlns="http://www.w3.org/2000/svg">
<path d="M16.6289 7.9812V7.34082C16.6289 6.10668 15.6284 5.1062 14.3943 5.1062V5.1062C13.1601 5.1062 12.1597 4.10573 12.1597 2.87158V1.51245" stroke="#7F0019" stroke-width="1.5" stroke-linecap="round"/>
<path fill-rule="evenodd" clip-rule="evenodd" d="M9.18006 7.9812C4.44916 7.9812 0.614014 11.6818 0.614014 16.2468V21.9968C0.614014 26.5618 4.44916 30.2625 9.18006 30.2625H24.0775C28.8084 30.2625 32.6436 26.5618 32.6436 21.9968V16.2468C32.6436 11.6818 28.8084 7.9812 24.0775 7.9812H9.18006ZM27.0571 16.9655C27.0571 17.7594 26.3901 18.403 25.5673 18.403C24.7446 18.403 24.0776 17.7594 24.0776 16.9655C24.0776 16.1715 24.7446 15.528 25.5673 15.528C26.3901 15.528 27.0571 16.1715 27.0571 16.9655ZM22.5879 22.7154C23.4107 22.7154 24.0776 22.0718 24.0776 21.2779C24.0776 20.484 23.4107 19.8404 22.5879 19.8404C21.7651 19.8404 21.0981 20.484 21.0981 21.2779C21.0981 22.0718 21.7651 22.7154 22.5879 22.7154ZM10.6698 15.4968C11.084 15.4968 11.4198 15.8326 11.4198 16.2468V18.3717H13.6493C14.0635 18.3717 14.3993 18.7075 14.3993 19.1217C14.3993 19.5359 14.0635 19.8717 13.6493 19.8717H11.4198V21.9968C11.4198 22.411 11.084 22.7468 10.6698 22.7468C10.2556 22.7468 9.9198 22.411 9.9198 21.9968V19.8717H7.6903C7.27609 19.8717 6.9403 19.5359 6.9403 19.1217C6.9403 18.7075 7.27609 18.3717 7.6903 18.3717H9.9198V16.2468C9.9198 15.8326 10.2556 15.4968 10.6698 15.4968Z" fill="#7F0019"/>
</svg>
