<svg width="33" height="31" viewBox="0 0 33 31" fill="none" xmlns="http://www.w3.org/2000/svg">
<path fill-rule="evenodd" clip-rule="evenodd" d="M0.0231276 0.948205C0.150854 0.309572 0.772111 -0.104599 1.41074 0.0231276L3.06068 0.353116C4.92429 0.725836 6.32604 2.27173 6.51514 4.16281L6.6492 5.50338H27.9943C31.1142 5.50338 33.4034 8.43536 32.6467 11.4621L30.8814 18.5235C30.1377 21.4983 27.4648 23.5852 24.3985 23.5852H10.2587C8.06989 23.5852 6.22633 21.9496 5.96555 19.7764L4.40976 6.81156L4.16835 4.39749C4.0824 3.53791 3.44524 2.83523 2.59815 2.66581L0.948205 2.33582C0.309572 2.20809 -0.104599 1.58684 0.0231276 0.948205ZM12.1856 16.9386C11.7713 16.9386 11.4356 17.2744 11.4356 17.6886C11.4356 18.1028 11.7713 18.4386 12.1856 18.4386H18.4749C18.8891 18.4386 19.2249 18.1028 19.2249 17.6886C19.2249 17.2744 18.8891 16.9386 18.4749 16.9386H12.1856Z" fill="#7F0019"/>
<circle cx="11.3995" cy="27.909" r="2.35849" fill="#7F0019"/>
<circle cx="25.5506" cy="27.909" r="2.35849" fill="#7F0019"/>
</svg>
