<svg width="31" height="32" viewBox="0 0 31 32" fill="none" xmlns="http://www.w3.org/2000/svg">
<path d="M27.2995 0H11.6061C9.85924 0 8.44571 1.41352 8.44571 3.16038V12.0236L1.05262 19.3224C0.831102 19.5414 0.679665 19.8214 0.617527 20.1267C0.555389 20.432 0.585352 20.7489 0.703613 21.0371C0.821874 21.3253 1.0231 21.572 1.28176 21.7456C1.54041 21.9193 1.84484 22.0122 2.15639 22.0126V29.8743C2.15639 30.2913 2.32205 30.6912 2.61692 30.9861C2.91179 31.2809 3.31172 31.4466 3.72872 31.4466H28.886C29.303 31.4466 29.7029 31.2809 29.9978 30.9861C30.2927 30.6912 30.4583 30.2913 30.4583 29.8743V3.15881C30.4583 1.41352 29.0464 0 27.2995 0ZM14.6124 20.6148V28.3019H5.30105V19.5472L9.9976 14.9104L14.6124 19.6321V20.6148ZM17.8797 11.0063H14.735V7.86165H17.8797V11.0063ZM24.169 23.5849H21.0243V20.4403H24.169V23.5849ZM24.169 17.2956H21.0243V14.151H24.169V17.2956ZM24.169 11.0063H21.0243V7.86165H24.169V11.0063Z" fill="#7F0019"/>
<path d="M8.44556 20.4402H11.5902V23.5848H8.44556V20.4402Z" fill="#7F0019"/>
</svg>
