<svg width="29" height="29" viewBox="0 0 29 29" fill="none" xmlns="http://www.w3.org/2000/svg">
<rect width="28.3521" height="28.3521" rx="8" fill="#ECBC04"/>
<g clip-path="url(#clip0_1082_35583)">
<path d="M12.3018 8.87092C11.5554 8.15745 10.3442 8.15745 9.59775 8.87092L5.91088 12.3951C5.16447 13.1086 5.16447 14.2664 5.91088 14.9799L9.59775 18.5041C10.3442 19.2176 11.5554 19.2176 12.3018 18.5041L15.9887 14.9799C16.7351 14.2664 16.7351 13.1086 15.9887 12.3951L12.3018 8.87092ZM10.3123 13.6875C10.3123 13.5259 10.3794 13.3709 10.499 13.2566C10.6186 13.1424 10.7807 13.0781 10.9498 13.0781C11.1189 13.0781 11.281 13.1424 11.4006 13.2566C11.5201 13.3709 11.5873 13.5259 11.5873 13.6875C11.5873 13.8491 11.5201 14.0041 11.4006 14.1184C11.281 14.2327 11.1189 14.2969 10.9498 14.2969C10.7807 14.2969 10.6186 14.2327 10.499 14.1184C10.3794 14.0041 10.3123 13.8491 10.3123 13.6875ZM7.54979 13.0781C7.71886 13.0781 7.88101 13.1424 8.00057 13.2566C8.12012 13.3709 8.18729 13.5259 8.18729 13.6875C8.18729 13.8491 8.12012 14.0041 8.00057 14.1184C7.88101 14.2327 7.71886 14.2969 7.54979 14.2969C7.38071 14.2969 7.21856 14.2327 7.099 14.1184C6.97945 14.0041 6.91229 13.8491 6.91229 13.6875C6.91229 13.5259 6.97945 13.3709 7.099 13.2566C7.21856 13.1424 7.38071 13.0781 7.54979 13.0781ZM10.9498 17.5469C10.7807 17.5469 10.6186 17.4827 10.499 17.3684C10.3794 17.2541 10.3123 17.0991 10.3123 16.9375C10.3123 16.7759 10.3794 16.6209 10.499 16.5066C10.6186 16.3924 10.7807 16.3281 10.9498 16.3281C11.1189 16.3281 11.281 16.3924 11.4006 16.5066C11.5201 16.6209 11.5873 16.7759 11.5873 16.9375C11.5873 17.0991 11.5201 17.2541 11.4006 17.3684C11.281 17.4827 11.1189 17.5469 10.9498 17.5469ZM14.3498 13.0781C14.5189 13.0781 14.681 13.1424 14.8006 13.2566C14.9201 13.3709 14.9873 13.5259 14.9873 13.6875C14.9873 13.8491 14.9201 14.0041 14.8006 14.1184C14.681 14.2327 14.5189 14.2969 14.3498 14.2969C14.1807 14.2969 14.0186 14.2327 13.899 14.1184C13.7795 14.0041 13.7123 13.8491 13.7123 13.6875C13.7123 13.5259 13.7795 13.3709 13.899 13.2566C14.0186 13.1424 14.1807 13.0781 14.3498 13.0781ZM10.9498 11.0469C10.7807 11.0469 10.6186 10.9827 10.499 10.8684C10.3794 10.7541 10.3123 10.5991 10.3123 10.4375C10.3123 10.2759 10.3794 10.1209 10.499 10.0066C10.6186 9.89235 10.7807 9.82815 10.9498 9.82815C11.1189 9.82815 11.281 9.89235 11.4006 10.0066C11.5201 10.1209 11.5873 10.2759 11.5873 10.4375C11.5873 10.5991 11.5201 10.7541 11.4006 10.8684C11.281 10.9827 11.1189 11.0469 10.9498 11.0469ZM13.4998 19.375C13.4998 20.2713 14.2621 21 15.1998 21H20.2998C21.2374 21 21.9998 20.2713 21.9998 19.375V14.5C21.9998 13.6037 21.2374 12.875 20.2998 12.875H17.2637C17.5718 13.7891 17.346 14.8301 16.589 15.5537L13.4998 18.5067V19.375ZM17.7498 16.3281C17.9189 16.3281 18.081 16.3924 18.2006 16.5066C18.3201 16.6209 18.3873 16.7759 18.3873 16.9375C18.3873 17.0991 18.3201 17.2541 18.2006 17.3684C18.081 17.4827 17.9189 17.5469 17.7498 17.5469C17.5807 17.5469 17.4186 17.4827 17.299 17.3684C17.1795 17.2541 17.1123 17.0991 17.1123 16.9375C17.1123 16.7759 17.1795 16.6209 17.299 16.5066C17.4186 16.3924 17.5807 16.3281 17.7498 16.3281Z" fill="white"/>
</g>
<defs>
<clipPath id="clip0_1082_35583">
<rect width="17" height="13" fill="white" transform="translate(5 8)"/>
</clipPath>
</defs>
</svg>
