<svg width="18" height="18" viewBox="0 0 18 18" fill="none" xmlns="http://www.w3.org/2000/svg">
<path d="M11.43 1.5H8.5095C7.1865 1.5 6.138 1.5 5.31825 1.611C4.47375 1.725 3.7905 1.965 3.252 2.50575C2.71275 3.0465 2.4735 3.73275 2.36025 4.58025C2.25 5.40375 2.25 6.456 2.25 7.78425V12.1627C2.25 13.2937 2.94 14.2627 3.92025 14.6693C3.87 13.9867 3.87 13.0305 3.87 12.234V8.4765C3.87 7.51575 3.87 6.687 3.9585 6.024C4.05375 5.313 4.26825 4.632 4.81875 4.07925C5.36925 3.5265 6.048 3.31125 6.756 3.21525C7.416 3.12675 8.241 3.12675 9.19875 3.12675H11.5013C12.4583 3.12675 13.2817 3.12675 13.9425 3.21525C13.7445 2.71003 13.3989 2.27617 12.9507 1.97022C12.5026 1.66426 11.9726 1.50041 11.43 1.5Z" fill="#7F0019"/>
<path d="M4.94238 8.54776C4.94238 6.50326 4.94238 5.48101 5.57538 4.84576C6.20763 4.21051 7.22538 4.21051 9.26238 4.21051H11.4224C13.4586 4.21051 14.4771 4.21051 15.1101 4.84576C15.7424 5.48101 15.7424 6.50326 15.7424 8.54776V12.1628C15.7424 14.2073 15.7424 15.2295 15.1101 15.8648C14.4771 16.5 13.4586 16.5 11.4224 16.5H9.26238C7.22613 16.5 6.20763 16.5 5.57538 15.8648C4.94238 15.2295 4.94238 14.2073 4.94238 12.1628V8.54776Z" fill="#7F0019"/>
</svg>
