<svg width="38" height="38" viewBox="0 0 38 38" fill="none" xmlns="http://www.w3.org/2000/svg">
<path d="M18.8765 3.53912C10.4197 3.53912 3.53931 10.4195 3.53931 18.8763C3.53931 27.3332 10.4197 34.2135 18.8765 34.2135C27.3334 34.2135 34.2137 27.3332 34.2137 18.8763C34.2137 10.4195 27.3334 3.53912 18.8765 3.53912ZM21.2361 25.955H16.5169C16.204 25.955 15.904 25.8307 15.6827 25.6095C15.4615 25.3882 15.3372 25.0882 15.3372 24.7753C15.3372 24.4624 15.4615 24.1623 15.6827 23.941C15.904 23.7198 16.204 23.5955 16.5169 23.5955H21.2361C21.549 23.5955 21.8491 23.7198 22.0703 23.941C22.2916 24.1623 22.4159 24.4624 22.4159 24.7753C22.4159 25.0882 22.2916 25.3882 22.0703 25.6095C21.8491 25.8307 21.549 25.955 21.2361 25.955ZM24.7754 21.2359H12.9776C12.6647 21.2359 12.3646 21.1116 12.1434 20.8904C11.9221 20.6691 11.7978 20.369 11.7978 20.0561C11.7978 19.7432 11.9221 19.4431 12.1434 19.2219C12.3646 19.0006 12.6647 18.8763 12.9776 18.8763H24.7754C25.0883 18.8763 25.3884 19.0006 25.6097 19.2219C25.8309 19.4431 25.9552 19.7432 25.9552 20.0561C25.9552 20.369 25.8309 20.6691 25.6097 20.8904C25.3884 21.1116 25.0883 21.2359 24.7754 21.2359ZM27.135 16.5168H10.618C10.3051 16.5168 10.005 16.3925 9.78379 16.1712C9.56253 15.95 9.43823 15.6499 9.43823 15.337C9.43823 15.0241 9.56253 14.724 9.78379 14.5027C10.005 14.2815 10.3051 14.1572 10.618 14.1572H27.135C27.4479 14.1572 27.748 14.2815 27.9693 14.5027C28.1905 14.724 28.3148 15.0241 28.3148 15.337C28.3148 15.6499 28.1905 15.95 27.9693 16.1712C27.748 16.3925 27.4479 16.5168 27.135 16.5168Z" fill="#7F0019"/>
</svg>
