<svg width="29" height="29" viewBox="0 0 29 29" fill="none" xmlns="http://www.w3.org/2000/svg">
<rect width="28.3521" height="28.3521" rx="8" fill="#FF7E20"/>
<path d="M21.625 12.7188H21.0038C20.8546 11.097 20.1049 9.58946 18.9017 8.49186C17.6985 7.39427 16.1286 6.7858 14.5 6.7858C12.8714 6.7858 11.3015 7.39427 10.0983 8.49186C8.89512 9.58946 8.1454 11.097 7.99621 12.7188H7.375C7.21753 12.7188 7.06651 12.7813 6.95516 12.8927C6.84381 13.004 6.78125 13.155 6.78125 13.3125C6.78386 14.7245 7.17245 16.109 7.905 17.3161C8.63756 18.5233 9.68619 19.5072 10.9375 20.1614V20.4375C10.9375 20.7524 11.0626 21.0545 11.2853 21.2772C11.508 21.4999 11.8101 21.625 12.125 21.625H16.875C17.1899 21.625 17.492 21.4999 17.7147 21.2772C17.9374 21.0545 18.0625 20.7524 18.0625 20.4375V20.1614C19.3138 19.5072 20.3624 18.5233 21.095 17.3161C21.8275 16.109 22.2161 14.7245 22.2188 13.3125C22.2188 13.155 22.1562 13.004 22.0448 12.8927C21.9335 12.7813 21.7825 12.7188 21.625 12.7188ZM17.8755 9.17332C18.0115 9.28465 18.1419 9.40217 18.2666 9.52586C16.686 10.0819 15.3799 11.2246 14.6188 12.7173H12.4293C12.8004 11.677 13.4836 10.7768 14.3856 10.1394C15.2876 9.50203 16.3643 9.15868 17.4688 9.15625C17.6046 9.15625 17.7404 9.16293 17.8755 9.17332ZM15.9933 12.7188C16.7131 11.6388 17.8022 10.8585 19.0563 10.5241C19.4663 11.1911 19.7236 11.9406 19.8096 12.7188H15.9933ZM14.5 7.96875C14.9765 7.96907 15.4507 8.03322 15.9102 8.1595C14.7913 8.43705 13.7653 9.00465 12.9357 9.80509C12.1061 10.6055 11.5021 11.6105 11.1846 12.7188H9.19039C9.33767 11.4131 9.96028 10.2074 10.9395 9.33137C11.9187 8.45534 13.1861 7.97032 14.5 7.96875Z" fill="white"/>
</svg>
