<svg width="29" height="29" viewBox="0 0 29 29" fill="none" xmlns="http://www.w3.org/2000/svg">
<rect width="28.3521" height="28.3521" rx="8" fill="#9B7342"/>
<path d="M11.6197 14.2394C13.6188 14.2394 15.2394 12.6188 15.2394 10.6197C15.2394 8.62053 13.6188 7 11.6197 7C9.62053 7 8 8.62053 8 10.6197C8 12.6188 9.62053 14.2394 11.6197 14.2394Z" fill="white" stroke="white" stroke-linejoin="round"/>
<path d="M15.2394 11.0547C15.2444 11.0598 16.9489 13.2033 20.3525 17.4847C20.4102 17.5541 20.4398 17.6425 20.4357 17.7326C20.4315 17.8228 20.3939 17.9081 20.3301 17.9719L18.8518 19.4502C18.788 19.514 18.7027 19.5516 18.6125 19.5558C18.5224 19.5599 18.434 19.5303 18.3646 19.4726L12.2792 14.2393M15.4095 14.4094L16.4335 15.4334" stroke="white" stroke-linecap="round" stroke-linejoin="round"/>
<path d="M11.9817 21.5099C12.6756 20.6057 13.519 20.1536 14.5118 20.1536C16.0017 20.1536 17.7598 22.025 19.2594 21.7677C20.7594 21.5099 21.1887 20.0309 20.2657 19.2122" stroke="white" stroke-linecap="round" stroke-linejoin="round"/>
</svg>
