<svg width="22" height="22" viewBox="0 0 22 22" fill="none" xmlns="http://www.w3.org/2000/svg">
<rect width="22" height="22" rx="11" fill="#7F0019"/>
<path d="M16.9556 16.1205L14.5448 9.83351C14.5003 9.71741 14.4248 9.61814 14.3278 9.5483C14.2308 9.47845 14.1168 9.44117 14.0001 9.44117C13.8835 9.44117 13.7694 9.47845 13.6725 9.5483C13.5755 9.61814 13.5 9.71741 13.4554 9.83351L11.0446 16.1205C11.0147 16.1976 10.9991 16.2804 10.9989 16.3639C10.9987 16.4475 11.0139 16.5303 11.0435 16.6076C11.0731 16.6848 11.1166 16.755 11.1715 16.8141C11.2264 16.8732 11.2916 16.9201 11.3634 16.952C11.4351 16.9839 11.512 17.0002 11.5897 17C11.6673 16.9998 11.7441 16.9831 11.8157 16.9508C11.8874 16.9185 11.9523 16.8714 12.007 16.812C12.0616 16.7526 12.1048 16.6822 12.134 16.6047L12.625 15.3246H15.3752L15.8662 16.6047C15.9107 16.7209 15.9863 16.8202 16.0833 16.8901C16.1803 16.96 16.2943 16.9973 16.4111 16.9973C16.5079 16.9972 16.6032 16.9714 16.6886 16.9223C16.774 16.8731 16.8468 16.802 16.9006 16.7154C16.9544 16.6287 16.9876 16.5291 16.9971 16.4253C17.0067 16.3216 16.9926 16.2169 16.9556 16.1205ZM13.1118 14.0556L14.0003 11.7384L14.8888 14.0556H13.1118ZM11.3173 13.5054C11.4089 13.3692 11.4465 13.1995 11.422 13.0335C11.3974 12.8675 11.3127 12.7188 11.1863 12.62C11.181 12.6157 10.7845 12.299 10.2089 11.6184C11.271 10.0703 11.8726 8.30905 12.118 7.4802H12.9824C13.1387 7.4802 13.2886 7.41336 13.3991 7.29437C13.5096 7.17538 13.5717 7.014 13.5717 6.84573C13.5717 6.67746 13.5096 6.51608 13.3991 6.39709C13.2886 6.27811 13.1387 6.21126 12.9824 6.21126H9.87514V5.63447C9.87514 5.4662 9.81306 5.30482 9.70254 5.18583C9.59203 5.06685 9.44213 5 9.28584 5C9.12955 5 8.97966 5.06685 8.86914 5.18583C8.75862 5.30482 8.69654 5.4662 8.69654 5.63447V6.21126H5.5893C5.43301 6.21126 5.28312 6.27811 5.1726 6.39709C5.06209 6.51608 5 6.67746 5 6.84573C5 7.014 5.06209 7.17538 5.1726 7.29437C5.28312 7.41336 5.43301 7.4802 5.5893 7.4802H10.8729C10.6179 8.25743 10.1484 9.48455 9.4321 10.6053C8.59073 9.40322 8.27813 8.62542 8.27572 8.61908C8.21413 8.46582 8.0989 8.34489 7.95502 8.2825C7.81115 8.22012 7.65024 8.22132 7.50718 8.28585C7.36412 8.35037 7.25046 8.47301 7.19085 8.62717C7.13123 8.78134 7.13047 8.95459 7.18873 9.10935C7.20426 9.14915 7.57847 10.0965 8.60466 11.5299C8.6293 11.5642 8.65368 11.5976 8.67806 11.6311C7.62695 12.9101 6.59567 13.7035 6.16414 13.9596C6.02692 14.0402 5.92506 14.1761 5.88095 14.3376C5.83685 14.499 5.85411 14.6727 5.92896 14.8204C6.0038 14.9682 6.13009 15.0779 6.28004 15.1253C6.42999 15.1728 6.59132 15.1542 6.72853 15.0737C6.78639 15.0396 8.03036 14.2982 9.45085 12.6053C10.0541 13.2997 10.4687 13.6274 10.4936 13.6464C10.5563 13.6954 10.6274 13.7306 10.7027 13.7501C10.778 13.7695 10.8562 13.7727 10.9327 13.7596C11.0092 13.7465 11.0826 13.7172 11.1486 13.6736C11.2146 13.6299 11.2719 13.5729 11.3173 13.5054Z" fill="white"/>
</svg>
