<svg width="29" height="29" viewBox="0 0 29 29" fill="none" xmlns="http://www.w3.org/2000/svg">
<rect width="28.3521" height="28.3521" rx="8" fill="#E3B9C2"/>
<path d="M21.3335 10.6667C20.1584 10.602 18.9926 10.9075 18.0001 11.54C17.7601 11.2667 17.5135 10.9933 17.2535 10.7333L17.0601 10.5533L17.1535 10.4733C17.4795 10.1935 17.7118 9.82035 17.8191 9.4043C17.9264 8.98825 17.9035 8.5493 17.7535 8.14668C17.5367 7.69213 17.1927 7.3103 16.7631 7.04757C16.3335 6.78484 15.8368 6.65252 15.3335 6.66668V8.00001C15.5707 7.99671 15.8045 8.05675 16.0107 8.17394C16.217 8.29113 16.3882 8.46122 16.5068 8.66668C16.6201 8.93334 16.5068 9.22668 16.1935 9.54001L16.0401 9.68001C15.3448 9.10058 14.5813 8.60806 13.7668 8.21334C12.0801 7.45334 11.2135 7.80668 10.7868 8.21334C10.6568 8.34367 10.5527 8.49751 10.4801 8.66668L10.3601 9.02001L9.40013 11.9133C10.1601 13.8067 12.0001 17.1733 16.0001 18.6267L19.3335 17.52C19.4459 17.4782 19.5449 17.4068 19.6201 17.3133L19.7601 17.1933C20.7135 16.2333 20.1001 14.3867 18.8201 12.5933C19.5802 12.1498 20.4553 11.9432 21.3335 12V10.6667ZM18.8068 16.2467H18.7668C18.3068 16.4933 16.4001 15.8667 14.2401 13.7067C14.0135 13.48 13.8001 13.26 13.6068 13.04C13.5401 12.9667 13.4801 12.8867 13.4135 12.8067L13.0601 12.38L12.8735 12.12C12.7801 11.9933 12.6868 11.8667 12.6068 11.7467C12.5268 11.6267 12.5001 11.5733 12.4468 11.4867C12.3935 11.4 12.3001 11.26 12.2401 11.1467C12.1801 11.0333 12.1535 10.9867 12.1135 10.9C12.0735 10.8133 12.0001 10.7133 11.9601 10.62C11.9201 10.5267 11.9001 10.4667 11.8668 10.3933C11.8335 10.32 11.7935 10.2133 11.7668 10.1267C11.7401 10.04 11.7335 10 11.7201 9.93334C11.7068 9.86668 11.6801 9.77334 11.6668 9.70668C11.6636 9.65339 11.6636 9.59996 11.6668 9.54668C11.6602 9.48909 11.6602 9.43094 11.6668 9.37334L11.7401 9.16668C11.8535 9.04668 12.3468 9.01334 13.2268 9.41334C13.8149 9.69587 14.3714 10.04 14.8868 10.44C14.6058 10.564 14.3062 10.6406 14.0001 10.6667V12C14.7084 11.9598 15.3956 11.7445 16.0001 11.3733L16.3268 11.68C16.6201 11.9667 16.8801 12.2533 17.1201 12.5267C16.7182 13.2121 16.5585 14.0128 16.6668 14.8L18.0001 14.54C17.9551 14.2887 17.9551 14.0313 18.0001 13.78C18.8601 15.0933 19.0201 16.04 18.8068 16.2467ZM8.93347 13.3333L7.4468 17.8C7.3395 18.1279 7.31133 18.4766 7.36458 18.8175C7.41784 19.1584 7.55102 19.4819 7.75323 19.7615C7.95544 20.0411 8.22094 20.2688 8.52804 20.4262C8.83513 20.5835 9.17509 20.6659 9.52013 20.6667C9.74696 20.6645 9.97199 20.6262 10.1868 20.5533L14.5335 19.1067C12.0802 17.8538 10.111 15.8236 8.93347 13.3333Z" fill="white"/>
</svg>
