<svg width="29" height="29" viewBox="0 0 29 29" fill="none" xmlns="http://www.w3.org/2000/svg">
<rect width="28.3521" height="28.3521" rx="8" fill="#9EC785"/>
<path d="M9.23701 8.59999C10.3204 7.64174 11.6681 7.03343 13.1034 6.85489C13.1592 7.24189 13.2294 7.67299 13.3194 8.12209C13.4814 8.93209 13.7064 9.81409 14.0178 10.6214C14.2662 11.2685 14.5785 11.8895 14.9736 12.3899L13.9998 13.3637L9.23701 8.59999ZM8.59981 9.23809C7.64119 10.3213 7.03255 11.6691 6.85381 13.1045C7.24081 13.1603 7.67101 13.2305 8.12011 13.3205C8.93011 13.4825 9.81211 13.7075 10.6194 14.0189C11.2665 14.2673 11.8884 14.5796 12.3879 14.9747L13.3635 14L8.59981 9.23809ZM11.7462 15.6173C11.3592 15.3293 10.8624 15.0764 10.2972 14.8586C9.55291 14.5724 8.72491 14.36 7.94371 14.2034C7.56415 14.1274 7.18273 14.0611 6.79981 14.0045C6.7983 15.7572 7.43861 17.4499 8.59981 18.7628L11.7462 15.6173ZM9.23521 19.4L12.3825 16.2536C12.6705 16.6406 12.9225 17.1374 13.1403 17.7026C13.4265 18.446 13.6389 19.2749 13.7955 20.0552C13.8765 20.4584 13.9413 20.8472 13.9935 21.2009C12.2411 21.2022 10.5488 20.5619 9.23611 19.4009M13.0251 15.6119L13.9998 14.6372L18.7626 19.4C17.6793 20.3585 16.3316 20.9671 14.8962 21.146C14.8395 20.759 14.7684 20.3279 14.6793 19.8788C14.5173 19.0688 14.2923 18.1868 13.9818 17.3795C13.7325 16.7333 13.4211 16.1123 13.0251 15.6119ZM19.3998 18.7637C20.3584 17.6805 20.9671 16.3327 21.1458 14.8973C20.7588 14.8415 20.3277 14.7713 19.8786 14.6813C19.0686 14.5193 18.1866 14.2943 17.3793 13.9838C16.7331 13.7345 16.1112 13.4231 15.6108 13.0271L14.6361 14L19.3998 18.7637ZM16.2525 12.3854C16.6395 12.6734 17.1372 12.9254 17.7015 13.1432C18.4458 13.4294 19.2747 13.6418 20.055 13.7984C20.4582 13.8794 20.847 13.9442 21.2007 13.9964C21.2022 12.2436 20.5619 10.551 19.4007 9.23809L16.2525 12.3854ZM18.7626 8.59999C17.4497 7.43879 15.7571 6.79849 14.0043 6.79999C14.0565 7.15369 14.1213 7.54249 14.2023 7.94569C14.3589 8.72689 14.5713 9.55489 14.8575 10.2983C15.0753 10.8635 15.3273 11.3603 15.6153 11.7473L18.7626 8.59999Z" fill="white"/>
</svg>
