<svg width="29" height="29" viewBox="0 0 29 29" fill="none" xmlns="http://www.w3.org/2000/svg">
<rect width="28.3521" height="28.3521" rx="8" fill="#BCDBED"/>
<g clip-path="url(#clip0_509_6385)">
<path d="M10.5714 7C9.15179 7 8 8.17578 8 9.625V18.375C8 19.8242 9.15179 21 10.5714 21H19.1429C19.617 21 20 20.609 20 20.125C20 19.641 19.617 19.25 19.1429 19.25V17.5C19.617 17.5 20 17.109 20 16.625V7.875C20 7.39102 19.617 7 19.1429 7H18.2857H10.5714ZM10.5714 17.5H17.4286V19.25H10.5714C10.0973 19.25 9.71429 18.859 9.71429 18.375C9.71429 17.891 10.0973 17.5 10.5714 17.5ZM11.4286 10.9375C11.4286 10.6969 11.6214 10.5 11.8571 10.5H17C17.2357 10.5 17.4286 10.6969 17.4286 10.9375C17.4286 11.1781 17.2357 11.375 17 11.375H11.8571C11.6214 11.375 11.4286 11.1781 11.4286 10.9375ZM11.8571 12.25H17C17.2357 12.25 17.4286 12.4469 17.4286 12.6875C17.4286 12.9281 17.2357 13.125 17 13.125H11.8571C11.6214 13.125 11.4286 12.9281 11.4286 12.6875C11.4286 12.4469 11.6214 12.25 11.8571 12.25Z" fill="white"/>
</g>
<defs>
<clipPath id="clip0_509_6385">
<rect width="12" height="14" fill="white" transform="translate(8 7)"/>
</clipPath>
</defs>
</svg>
