<?xml version="1.0" standalone="no"?><!DOCTYPE svg PUBLIC "-//W3C//DTD SVG 1.1//EN" "http://www.w3.org/Graphics/SVG/1.1/DTD/svg11.dtd"><svg t="1682451975760" class="icon" viewBox="0 0 1024 1024" version="1.1" xmlns="http://www.w3.org/2000/svg" p-id="4230" xmlns:xlink="http://www.w3.org/1999/xlink" width="200" height="200"><path d="M490.816 698.133333a21.354667 21.354667 0 0 1-4.906667 2.986667l-176.938666 78.442667c-50.133333 19.797333-89.109333-18.773333-70.549334-69.802667l0.917334-2.176 84.138666-170.090667a21.333333 21.333333 0 0 1 3.434667-5.013333c0.896-1.493333 1.984-2.88 3.264-4.16l422.378667-422.4a64 64 0 0 1 90.496 0l75.434666 75.434667a64 64 0 0 1 0 90.517333L496.106667 694.250667a21.333333 21.333333 0 0 1-5.290667 3.882666z m-130.24-139.413333l-82.432 166.656c-5.461333 15.829333-0.234667 20.586667 14.336 14.826667l172.928-76.650667-104.832-104.832z m135.530667 75.178667l316.8-316.778667-105.6-105.6-316.8 316.8 105.6 105.6z m346.944-346.944l45.269333-45.269334a21.333333 21.333333 0 0 0 0-30.165333L812.885333 136.106667a21.333333 21.333333 0 0 0-30.165333 0L737.472 181.333333l105.6 105.6zM896 454.272a21.333333 21.333333 0 0 1 42.666667 0V789.333333a149.333333 149.333333 0 0 1-149.333334 149.333334H234.666667a149.333333 149.333333 0 0 1-149.333334-149.333334V234.666667a149.333333 149.333333 0 0 1 149.333334-149.333334h338.496a21.333333 21.333333 0 1 1 0 42.666667H234.666667a106.666667 106.666667 0 0 0-106.666667 106.666667v554.666666a106.666667 106.666667 0 0 0 106.666667 106.666667h554.666666a106.666667 106.666667 0 0 0 106.666667-106.666667V454.272z" fill="#222222" p-id="4231"></path></svg>