<?xml version="1.0" standalone="no"?><!DOCTYPE svg PUBLIC "-//W3C//DTD SVG 1.1//EN" "http://www.w3.org/Graphics/SVG/1.1/DTD/svg11.dtd"><svg t="1663952497173" class="icon" viewBox="0 0 1024 1024" version="1.1" xmlns="http://www.w3.org/2000/svg" p-id="1891" xmlns:xlink="http://www.w3.org/1999/xlink" width="200" height="200"><path d="M540.6208 524.288m-248.3712 0a248.3712 248.3712 0 1 0 496.7424 0 248.3712 248.3712 0 1 0-496.7424 0Z" fill="#88DEF9" p-id="1892"></path><path d="M174.6432 236.4928m-62.5664 0a62.5664 62.5664 0 1 0 125.1328 0 62.5664 62.5664 0 1 0-125.1328 0Z" fill="#88DEF9" p-id="1893"></path><path d="M890.5216 397.056m-33.7408 0a33.7408 33.7408 0 1 0 67.4816 0 33.7408 33.7408 0 1 0-67.4816 0Z" fill="#88DEF9" p-id="1894"></path><path d="M539.6992 866.7136c-18.7392 0-37.5296-1.536-55.9104-4.5568a20.5056 20.5056 0 0 1-16.896-23.552c1.8432-11.1616 12.3392-18.7904 23.552-16.896 16.128 2.6624 32.7168 3.9936 49.2544 3.9936 165.6832 0 300.4416-134.7584 300.4416-300.4416 0-15.3088-1.1776-30.72-3.4304-45.6704a20.54656 20.54656 0 0 1 17.152-23.3472 20.54656 20.54656 0 0 1 23.3472 17.152c2.6112 17.0496 3.8912 34.5088 3.8912 51.8656 0 188.2624-153.1904 341.4528-341.4016 341.4528zM292.0448 749.9264c-5.888 0-11.776-2.56-15.8208-7.424-50.2784-60.928-77.9776-138.0352-77.9776-217.1904 0-188.2624 153.1392-341.4016 341.4016-341.4016 78.1824 0 151.7056 25.7024 212.736 74.3424a20.44416 20.44416 0 0 1 3.2256 28.7744 20.44416 20.44416 0 0 1-28.7744 3.2256c-53.6576-42.8032-118.3744-65.4336-187.1872-65.4336-165.6832 0-300.4416 134.7584-300.4416 300.4416 0 69.632 24.3712 137.5232 68.608 191.1296a20.4288 20.4288 0 0 1-2.7648 28.8256c-3.7888 3.1744-8.3968 4.7104-13.0048 4.7104z" fill="#55524F" p-id="1895"></path><path d="M226.7136 882.5344c-24.4736 0-43.9808-7.0144-58.112-21.1456-39.424-39.424-22.8864-122.7264 46.4896-234.6496a20.45952 20.45952 0 0 1 28.2112-6.6048 20.45952 20.45952 0 0 1 6.6048 28.2112c-66.816 107.7248-69.9904 166.5024-52.3776 184.1152 15.0016 15.0016 60.7744 15.2064 144.2304-29.3376 79.872-42.5984 171.8784-114.0224 258.9696-201.1648s158.5664-179.0976 201.1648-258.9696c44.4928-83.456 44.3392-129.2288 29.3376-144.2304-15.872-15.872-68.0448-14.9504-162.9184 39.68-9.8304 5.632-22.3232 2.2528-27.9552-7.5264a20.4544 20.4544 0 0 1 7.5264-27.9552c101.888-58.7264 175.3088-70.1952 212.3264-33.1776 34.3552 34.3552 26.6752 100.9152-22.1184 192.4608-44.4416 83.3536-118.4256 178.7904-208.3328 268.6976-89.9072 89.9072-185.2928 163.8912-268.6464 208.3328-54.016 28.7744-99.2768 43.264-134.4 43.264z" fill="#55524F" p-id="1896"></path></svg>