<?xml version="1.0" standalone="no"?><!DOCTYPE svg PUBLIC "-//W3C//DTD SVG 1.1//EN" "http://www.w3.org/Graphics/SVG/1.1/DTD/svg11.dtd"><svg t="1663953293089" class="icon" viewBox="0 0 1024 1024" version="1.1" xmlns="http://www.w3.org/2000/svg" p-id="2483" xmlns:xlink="http://www.w3.org/1999/xlink" width="200" height="200"><path d="M756.8384 707.1232H503.808c-6.6048 0-13.0048 2.4064-17.9712 6.7584L361.472 822.5792c-11.7248 10.2912-30.1056 1.9456-30.208-13.6192l-0.3072-74.5984a27.2896 27.2896 0 0 0-27.2896-27.1872H227.9936V313.6c0-30.1568 24.4736-54.6304 54.6304-54.6304h583.4752v338.8928c0 60.3648-48.9472 109.2608-109.2608 109.2608z" fill="#88def9" p-id="2484"></path><path d="M284.8256 879.5648a47.104 47.104 0 0 1-19.3536-4.1984c-16.8448-7.6288-27.392-23.8592-27.4944-42.3424l-0.3584-86.4256c0-3.328-2.7136-5.9904-6.0416-5.9904H143.9744c-14.1312 0-25.6-11.4688-25.6-25.6V259.2256c0-48.9984 39.8848-88.8832 88.8832-88.8832h675.6352c14.1312 0 25.6 11.4688 25.6 25.6v392.448c0 83.8656-68.2496 152.1152-152.1152 152.1152H463.4112c-1.4848 0-2.8672 0.512-3.9936 1.4848l-144.0256 125.952c-8.7552 7.6288-19.5584 11.6224-30.5664 11.6224z m-115.2512-190.208h62.0032c31.4368 0 57.088 25.5488 57.2416 56.9856l0.3072 76.544 136.6016-119.3984c10.4448-9.1136 23.808-14.1312 37.6832-14.1312h292.9664c55.6544 0 100.9152-45.2608 100.9152-100.9152V221.5936H207.2576c-20.7872 0-37.6832 16.896-37.6832 37.6832v430.08z" fill="#55524F" p-id="2485"></path><path d="M706.56 411.3408H310.8864c-14.1312 0-25.6-11.4688-25.6-25.6s11.4688-25.6 25.6-25.6H706.56c14.1312 0 25.6 11.4688 25.6 25.6s-11.4688 25.6-25.6 25.6zM566.5792 540.5696H310.8864c-14.1312 0-25.6-11.4688-25.6-25.6s11.4688-25.6 25.6-25.6h255.744c14.1312 0 25.6 11.4688 25.6 25.6s-11.4688 25.6-25.6512 25.6z" fill="#55524F" p-id="2486"></path></svg>