<?xml version="1.0" standalone="no"?><!DOCTYPE svg PUBLIC "-//W3C//DTD SVG 1.1//EN" "http://www.w3.org/Graphics/SVG/1.1/DTD/svg11.dtd"><svg t="1663953307402" class="icon" viewBox="0 0 1024 1024" version="1.1" xmlns="http://www.w3.org/2000/svg" p-id="3071" xmlns:xlink="http://www.w3.org/1999/xlink" width="200" height="200"><path d="M525.5168 636.5184m-258.816 0a258.816 258.816 0 1 0 517.632 0 258.816 258.816 0 1 0-517.632 0Z" fill="#96e9ff" p-id="3072"></path><path d="M559.0528 710.4512H340.8384c-16.9472 0-30.72-13.7728-30.72-30.72s13.7728-30.72 30.72-30.72h218.2144c16.9472 0 30.72 13.7728 30.72 30.72s-13.7216 30.72-30.72 30.72z" fill="#55524f" p-id="3073"></path><path d="M792.4736 929.9456H227.2768c-39.5264 0-71.68-32.1536-71.68-71.68V160.6144c0-39.5264 32.1536-71.68 71.68-71.68h372.3264c18.7904 0 36.5568 7.2192 49.9712 20.3264L842.4448 296.96c13.7728 13.4144 21.6576 32.1536 21.6576 51.3536v509.9008c0.0512 39.5776-32.1024 71.7312-71.6288 71.7312zM227.2768 150.3744c-5.632 0-10.24 4.608-10.24 10.24v697.6c0 5.632 4.608 10.24 10.24 10.24h565.1456c5.632 0 10.24-4.608 10.24-10.24V348.3648c0-2.7648-1.1264-5.4272-3.072-7.3216L606.72 153.344c-1.9456-1.8944-4.4544-2.9184-7.1168-2.9184H227.2768z" fill="#55524f" p-id="3074"></path><path d="M822.0672 392.6016h-207.5136c-39.5264 0-71.68-32.1536-71.68-71.68V124.7232c0-16.9472 13.7728-30.72 30.72-30.72s30.72 13.7728 30.72 30.72v196.1984c0 5.632 4.608 10.24 10.24 10.24h207.5136c16.9472 0 30.72 13.7728 30.72 30.72s-13.7728 30.72-30.72 30.72z" fill="#55524f" p-id="3075"></path></svg>