<?xml version="1.0" standalone="no"?><!DOCTYPE svg PUBLIC "-//W3C//DTD SVG 1.1//EN" "http://www.w3.org/Graphics/SVG/1.1/DTD/svg11.dtd"><svg t="1663953288304" class="icon" viewBox="0 0 1024 1024" version="1.1" xmlns="http://www.w3.org/2000/svg" p-id="2335" xmlns:xlink="http://www.w3.org/1999/xlink" width="200" height="200"><path d="M736.9216 781.9264l-208.384-89.344a38.2976 38.2976 0 0 0-32.4608 0l-208.384 89.344c-25.4464 11.8784-54.5792-6.7072-54.5792-34.7648V322.048c0-56.576 45.824-102.4 102.4-102.4h353.5872c56.576 0 102.4 45.824 102.4 102.4v425.1136c0 28.0576-29.184 46.6432-54.5792 34.7648z" fill="#96e9ff" p-id="2336"></path><path d="M203.4176 914.688c-13.9776 0-27.8528-3.9424-40.0896-11.7248-21.6576-13.824-34.6112-37.376-34.6112-63.0784V313.6512c0-111.7184 90.88-202.5984 202.5984-202.5984h361.9328c111.7184 0 202.5984 90.88 202.5984 202.5984v526.2336c0 25.7024-12.9536 49.2544-34.6112 63.0784a74.4192 74.4192 0 0 1-71.3728 4.864l-266.8544-114.3808c-0.256-0.1024-0.512-0.2048-0.768-0.3584a23.49056 23.49056 0 0 0-19.968 0c-0.256 0.1024-0.512 0.2048-0.768 0.3584L234.7008 907.776c-9.984 4.608-20.6336 6.912-31.2832 6.912zM331.3152 162.2016c-83.5072 0-151.3984 67.9424-151.3984 151.3984v526.2336c0 11.6736 7.6288 17.8176 10.9056 19.8656 3.2768 2.0992 12.032 6.4 22.6304 1.4848 0.256-0.1024 0.512-0.2048 0.768-0.3584l266.8544-114.3808c19.8656-9.1648 42.5984-9.1136 62.464 0l266.8544 114.3808c0.256 0.1024 0.512 0.2048 0.768 0.3584 10.5984 4.9152 19.3536 0.6144 22.6304-1.4848 3.2768-2.0992 10.9056-8.192 10.9056-19.8656V313.6512c0-83.5072-67.9424-151.3984-151.3984-151.3984h-361.984z" fill="#55524F" p-id="2337"></path><path d="M655.8208 506.9824H368.1792c-14.1312 0-25.6-11.4688-25.6-25.6s11.4688-25.6 25.6-25.6h287.5904c14.1312 0 25.6 11.4688 25.6 25.6s-11.4176 25.6-25.5488 25.6z" fill="#55524F" p-id="2338"></path><path d="M512 650.8032c-14.1312 0-25.6-11.4688-25.6-25.6V337.6128c0-14.1312 11.4688-25.6 25.6-25.6s25.6 11.4688 25.6 25.6v287.5904c0 14.1312-11.4688 25.6-25.6 25.6z" fill="#55524F" p-id="2339"></path></svg>