<?xml version="1.0" standalone="no"?><!DOCTYPE svg PUBLIC "-//W3C//DTD SVG 1.1//EN" "http://www.w3.org/Graphics/SVG/1.1/DTD/svg11.dtd"><svg t="1664141120752" class="icon" viewBox="0 0 1024 1024" version="1.1" xmlns="http://www.w3.org/2000/svg" p-id="783" xmlns:xlink="http://www.w3.org/1999/xlink" width="200" height="200"><path d="M300.405 497.966c-13.512 1.463-27.65 2.18-42.405 2.159v259.099c14.52 0.455 28.655 0.872 42.405 1.25V497.967z m60-12.778v276.755c149.358 3.149 244.098 1.017 282.13-6.157 1.037-0.196 2.756-0.89 5.045-2.256 3.06-1.825 6.576-4.535 10.415-8.106 8.362-7.778 17.597-19.016 27.129-33.081 18.943-27.955 37.928-65.408 53.078-104.379 14.995-38.572 25.012-75.535 27.758-102.5 1.118-10.976 0.936-19.58-0.19-24.99a492.532 492.532 0 0 0-29.215-5.303c-22.718-3.415-46.233-5.328-75.792-6.288-24.12-0.784-44.942-0.928-101.984-0.928-22.237 0-36.746-23.347-26.899-43.285 1.878-3.802 3.883-7.65 6.283-12.101 1.514-2.808 7.437-13.594 8.858-16.227 9.308-17.25 14.832-29.828 19.276-45.438 3.353-11.78 4.042-22.136 2.658-32.07-1.104-7.929-3.374-15.22-7.528-25.22C552.331 271.717 537.931 261 523.778 261c-4.559 0-8.458 1.664-11.393 4.822-3.888 4.182-6.387 11.091-6.387 21.014 0 2.623 0.033 4.84 0.126 9.4 0.161 7.929 0.19 11.232 0.065 15.813-1.053 38.388-16.493 70.058-61.786 119.602-22.348 24.445-50.431 42.228-83.998 53.537z m248.044-77.154c23.668 0.11 38.164 0.357 54.261 0.88 31.74 1.031 57.519 3.129 82.765 6.924a557.094 557.094 0 0 1 39.059 7.319c19.727 4.414 32.684 19.07 38.408 38.766 4.003 13.774 4.675 30.32 2.71 49.62-3.362 33.004-14.731 74.955-31.527 118.161-16.693 42.94-37.687 84.357-59.331 116.297-26.328 38.852-52.697 63.38-81.137 68.745-54.424 10.266-195.228 11.271-426.663 3.503-16.168-0.543-28.994-13.806-28.994-29.983V469.054c0-17.365 14.7-31.104 32.026-29.931 80.543 5.45 136.43-11.133 170.093-47.956 20.264-22.165 32.62-39.097 39.245-52.685 4.854-9.957 6.56-17.6 6.848-28.078 0.09-3.292 0.066-5.995-0.076-12.946-0.1-4.953-0.138-7.469-0.138-10.622 0-49.937 33.37-85.836 77.78-85.836 39.703 0 75.088 26.335 93.059 69.597 5.945 14.313 9.614 26.096 11.545 39.96 2.526 18.138 1.277 36.908-4.378 56.774-4.167 14.64-9.022 27.155-15.555 40.703z" p-id="784"></path></svg>