<?xml version="1.0" standalone="no"?><!DOCTYPE svg PUBLIC "-//W3C//DTD SVG 1.1//EN" "http://www.w3.org/Graphics/SVG/1.1/DTD/svg11.dtd"><svg t="1663953730598" class="icon" viewBox="0 0 1024 1024" version="1.1" xmlns="http://www.w3.org/2000/svg" p-id="1100" xmlns:xlink="http://www.w3.org/1999/xlink" width="200" height="200"><path d="M536.2176 218.624H301.824c-33.9456 0-61.44 27.4944-61.44 61.44v460.1344c0 33.9456 27.4944 61.44 61.44 61.44h411.2384c33.9456 0 61.44-27.4944 61.44-61.44V456.9088c-0.0512-131.584-106.7008-238.2848-238.2848-238.2848z" fill="#96e9ff" p-id="1101"></path><path d="M716.8 909.6192H298.0352c-87.5008 0-158.72-71.2192-158.72-158.72V269.4144c0-87.5008 71.2192-158.72 158.72-158.72H563.2c172.2368 0 312.32 140.0832 312.32 312.32v327.8848c0 87.5008-71.2192 158.72-158.72 158.72zM298.0352 161.8944c-59.2896 0-107.52 48.2304-107.52 107.52v481.4848c0 59.2896 48.2304 107.52 107.52 107.52H716.8c59.2896 0 107.52-48.2304 107.52-107.52V423.0144c0-143.9744-117.1456-261.12-261.12-261.12H298.0352z" fill="#55524F" p-id="1102"></path><path d="M647.68 729.344H421.4784c-14.1312 0-25.6-11.4688-25.6-25.6s11.4688-25.6 25.6-25.6h226.2016c27.4944 0 49.8176-25.4464 49.8176-56.7296s-22.3232-56.7296-49.8176-56.7296H352.8704c-59.5456 0-107.9808-48.4352-107.9808-107.9296 0-59.5456 48.4352-107.9808 107.9808-107.9808h144.128c14.1312 0 25.6 11.4688 25.6 25.6s-11.4688 25.6-25.6 25.6H352.8704c-31.2832 0-56.7808 25.4464-56.7808 56.7808 0 31.2832 25.4464 56.7296 56.7808 56.7296h294.8608c55.7056 0 101.0176 48.4352 101.0176 107.9296s-45.3632 107.9296-101.0688 107.9296z" fill="#55524F" p-id="1103"></path></svg>