<?xml version="1.0" standalone="no"?><!DOCTYPE svg PUBLIC "-//W3C//DTD SVG 1.1//EN" "http://www.w3.org/Graphics/SVG/1.1/DTD/svg11.dtd"><svg t="1663953272416" class="icon" viewBox="0 0 1024 1024" version="1.1" xmlns="http://www.w3.org/2000/svg" p-id="2040" xmlns:xlink="http://www.w3.org/1999/xlink" width="200" height="200"><path d="M702.3104 774.7072l-187.9552-77.4144a26.0864 26.0864 0 0 0-20.0192 0l-187.9552 77.4144c-17.3056 7.1168-36.352-5.5808-36.352-24.32V250.5216c0-14.5408 11.776-26.3168 26.3168-26.3168h416c14.5408 0 26.3168 11.776 26.3168 26.3168v499.8656c0 18.7392-18.9952 31.488-36.352 24.32z" fill="#96e9ff" p-id="2041"></path><path d="M242.1248 879.4624c-10.4448 0-20.8384-3.072-29.8496-9.0624a53.5552 53.5552 0 0 1-23.808-44.5952V195.584c0-29.5936 24.064-53.6576 53.6576-53.6576h524.4416c29.5936 0 53.6576 24.064 53.6576 53.6576v630.1696c0 17.92-8.9088 34.6112-23.808 44.5952a53.58592 53.58592 0 0 1-50.2784 5.0176l-236.9536-97.5872c-3.1232-1.28-6.5536-1.28-9.6768 0l-236.9536 97.5872c-6.6048 2.7136-13.5168 4.096-20.4288 4.096z m0-696.576a12.6976 12.6976 0 0 0-12.6976 12.6976v630.1696c0 6.0928 3.9424 9.4208 5.632 10.5472 1.6896 1.1264 6.2464 3.5328 11.8784 1.1776l236.9536-97.5872a53.2992 53.2992 0 0 1 40.8576 0l236.9536 97.5872c5.632 2.3552 10.1888-0.0512 11.8784-1.1776 1.6896-1.1264 5.632-4.4544 5.632-10.5472V195.584a12.6976 12.6976 0 0 0-12.6976-12.6976H242.1248z" fill="#55524F" p-id="2042"></path><path d="M412.2624 633.6512c-6.3488 0-12.6976-1.9456-18.1248-5.888-10.8544-7.8848-15.36-21.7088-11.2128-34.4576l28.2624-86.9376-73.9328-53.76c-10.8544-7.8848-15.36-21.7088-11.2128-34.4576a30.73536 30.73536 0 0 1 29.2864-21.2992h91.392l28.2624-86.9376c4.1472-12.7488 15.9232-21.2992 29.3376-21.2992s25.1904 8.5504 29.3376 21.2992l28.2624 86.9376h91.392c13.4144 0 25.1904 8.5504 29.3376 21.2992 4.1472 12.7488-0.3584 26.5728-11.2128 34.4576l-73.984 53.76 28.2624 86.9376c4.1472 12.7488-0.3584 26.5728-11.2128 34.4576a30.73024 30.73024 0 0 1-36.2496 0l-73.9328-53.76-73.9328 53.7088c-5.4272 3.9424-11.776 5.9392-18.1248 5.9392z m92.0576-103.0144c6.3488 0 12.6976 1.9456 18.1248 5.9392l54.6816 39.7312-20.8896-64.3072c-4.1472-12.7488 0.3584-26.5728 11.2128-34.4576l54.6816-39.7312h-67.584c-13.4144 0-25.1904-8.5504-29.2864-21.2992L504.32 352.256l-20.8896 64.256a30.75072 30.75072 0 0 1-29.3376 21.2992h-67.584l54.6816 39.7312c10.8544 7.8848 15.36 21.7088 11.2128 34.4576l-20.8896 64.256 54.6816-39.7312c5.4272-3.8912 11.776-5.888 18.1248-5.888z m148.992-92.8256z m-158.6176-115.2z" fill="#55524F" p-id="2043"></path></svg>