<?xml version="1.0" standalone="no"?><!DOCTYPE svg PUBLIC "-//W3C//DTD SVG 1.1//EN" "http://www.w3.org/Graphics/SVG/1.1/DTD/svg11.dtd"><svg t="1663953296999" class="icon" viewBox="0 0 1024 1024" version="1.1" xmlns="http://www.w3.org/2000/svg" p-id="2630" xmlns:xlink="http://www.w3.org/1999/xlink" width="200" height="200"><path d="M817.3568 224.1024H355.584c-33.9456 0-61.44 27.4944-61.44 61.44v585.4208h400.3328c67.84 0 122.88-55.04 122.88-122.88V224.1024z" fill="#88def9" p-id="2631"></path><path d="M689.152 886.2208H211.968c-14.1312 0-25.6-11.4688-25.6-25.6V224c0-47.9744 39.0656-87.04 87.04-87.04h538.624c14.1312 0 25.6 11.4688 25.6 25.6v575.1808c0 81.8688-66.6112 148.48-148.48 148.48z m-451.584-51.2h451.5328c53.6576 0 97.28-43.6224 97.28-97.28V188.16H273.408c-19.7632 0-35.84 16.0768-35.84 35.84v611.0208z" fill="#55524F" p-id="2632"></path><path d="M674.6624 370.4832H353.1776c-14.1312 0-25.6-11.4688-25.6-25.6s11.4688-25.6 25.6-25.6h321.4848c14.1312 0 25.6 11.4688 25.6 25.6s-11.4688 25.6-25.6 25.6zM555.776 588.1344H353.1776c-14.1312 0-25.6-11.4688-25.6-25.6s11.4688-25.6 25.6-25.6h202.6496c14.1312 0 25.6 11.4688 25.6 25.6s-11.4688 25.6-25.6512 25.6z" fill="#55524F" p-id="2633"></path></svg>