<?xml version="1.0" standalone="no"?><!DOCTYPE svg PUBLIC "-//W3C//DTD SVG 1.1//EN" "http://www.w3.org/Graphics/SVG/1.1/DTD/svg11.dtd"><svg t="1663953281673" class="icon" viewBox="0 0 1024 1024" version="1.1" xmlns="http://www.w3.org/2000/svg" p-id="2187" xmlns:xlink="http://www.w3.org/1999/xlink" width="200" height="200"><path d="M661.9648 534.4256c-8.0896 0-15.2576 4.7616-18.7904 12.032-24.7296 50.944-76.9536 86.1184-137.4208 86.1184s-112.6912-35.1232-137.4208-86.1184c-3.5328-7.2704-10.7008-12.032-18.7904-12.032H143.0528v209.3568c0 41.3184 33.4848 74.8544 74.8544 74.8544h575.8464c41.3184 0 74.8544-33.4848 74.8544-74.8544v-209.3568h-206.6432zM200.3968 256.8704h612.096c25.5488 0 46.2336 20.6848 46.2336 46.2336v94.6176s9.1648 67.4816-69.2736 67.4816H596.48s-17.4592-83.3536-89.856-83.3536-98.4064 63.2832-102.2976 83.3536H228.6592S154.1632 466.3808 154.1632 384V303.104c0-25.5488 20.6848-46.2336 46.2336-46.2336z" fill="#88def9" p-id="2188"></path><path d="M782.4384 499.0464h-176.5888c-11.3152 0-20.48-9.1648-20.48-20.48s9.1648-20.48 20.48-20.48h176.5888c36.1984 0 65.6384-29.44 65.6384-65.6384V261.9392c0-24.32-19.7632-44.0832-44.0832-44.0832H207.616c-24.32 0-44.0832 19.7632-44.0832 44.0832v130.5088c0 36.1984 29.44 65.6384 65.6384 65.6384h176.9984c11.3152 0 20.48 9.1648 20.48 20.48s-9.1648 20.48-20.48 20.48H229.12c-58.7776 0-106.5984-47.8208-106.5984-106.5984V261.9392c0-46.8992 38.144-85.0432 85.0432-85.0432h596.3264c46.8992 0 85.0432 38.144 85.0432 85.0432v130.5088c0.1024 58.7776-47.7184 106.5984-106.496 106.5984z" fill="#55524F" p-id="2189"></path><path d="M505.8048 591.0016c-61.2864 0-111.1552-49.8688-111.1552-111.1552s49.8688-111.1552 111.1552-111.1552 111.1552 49.8688 111.1552 111.1552-49.8688 111.1552-111.1552 111.1552z m0-181.3504c-38.7072 0-70.1952 31.488-70.1952 70.1952 0 38.7072 31.488 70.1952 70.1952 70.1952s70.1952-31.488 70.1952-70.1952c0-38.7072-31.488-70.1952-70.1952-70.1952z" fill="#55524F" p-id="2190"></path><path d="M782.4384 850.5856H229.12c-58.7776 0-106.5984-47.8208-106.5984-106.5984v-209.5616c0-11.3152 9.1648-20.48 20.48-20.48s20.48 9.1648 20.48 20.48v209.5616c0 36.1984 29.44 65.6384 65.6384 65.6384h553.3184c36.1984 0 65.6384-29.44 65.6384-65.6384v-209.5616c0-11.3152 9.1648-20.48 20.48-20.48s20.48 9.1648 20.48 20.48v209.5616c0 58.7776-47.8208 106.5984-106.5984 106.5984z" fill="#55524F" p-id="2191"></path></svg>