<?xml version="1.0" standalone="no"?><!DOCTYPE svg PUBLIC "-//W3C//DTD SVG 1.1//EN" "http://www.w3.org/Graphics/SVG/1.1/DTD/svg11.dtd"><svg t="1663953300766" class="icon" viewBox="0 0 1024 1024" version="1.1" xmlns="http://www.w3.org/2000/svg" p-id="2777" xmlns:xlink="http://www.w3.org/1999/xlink" width="200" height="200"><path d="M634.1632 517.0176m-258.816 0a258.816 258.816 0 1 0 517.632 0 258.816 258.816 0 1 0-517.632 0Z" fill="#96e9ff" p-id="2778"></path><path d="M631.8592 547.7376H390.656c-16.9472 0-30.72-13.7728-30.72-30.72s13.7728-30.72 30.72-30.72h241.2032c16.9472 0 30.72 13.7728 30.72 30.72s-13.7728 30.72-30.72 30.72z" fill="#55524f" p-id="2779"></path><path d="M840.0384 877.3632c-9.7792 0-19.6096-1.9968-28.8768-6.0928l-180.3776-79.2576c-1.28-0.5632-2.7136-0.8704-4.096-0.8704H182.528c-39.5264 0-71.68-32.1536-71.68-71.68V206.6432c0-39.5264 32.1536-71.68 71.68-71.68h657.5104c39.5264 0 71.68 32.1536 71.68 71.68v598.9888c0 24.32-12.1344 46.7456-32.512 60.0064a71.28064 71.28064 0 0 1-39.168 11.7248z m-4.1472-62.3616c4.4544 1.9456 7.9872 0.3072 9.728-0.8192 1.7408-1.1264 4.6592-3.7376 4.6592-8.5504V206.6432c0-5.632-4.608-10.24-10.24-10.24H182.528c-5.632 0-10.24 4.608-10.24 10.24v512.8192c0 5.632 4.608 10.24 10.24 10.24h444.16c9.984 0 19.6608 2.048 28.8256 6.0416l180.3776 79.2576z" fill="#55524f" p-id="2780"></path></svg>