<?xml version="1.0" standalone="no"?><!DOCTYPE svg PUBLIC "-//W3C//DTD SVG 1.1//EN" "http://www.w3.org/Graphics/SVG/1.1/DTD/svg11.dtd"><svg t="1663953303599" class="icon" viewBox="0 0 1024 1024" version="1.1" xmlns="http://www.w3.org/2000/svg" p-id="2924" xmlns:xlink="http://www.w3.org/1999/xlink" width="200" height="200"><path d="M581.5808 621.4656m-258.816 0a258.816 258.816 0 1 0 517.632 0 258.816 258.816 0 1 0-517.632 0Z" fill="#96e9ff" p-id="2925"></path><path d="M619.2128 676.9664H412.7232c-16.9472 0-30.72-13.7728-30.72-30.72s13.7728-30.72 30.72-30.72h206.4896c16.9472 0 30.72 13.7728 30.72 30.72s-13.7728 30.72-30.72 30.72z" fill="#55524f" p-id="2926"></path><path d="M521.0112 929.5872c-228.864 0-415.0272-186.2144-415.0272-415.0272 0-228.864 186.2144-415.0272 415.0272-415.0272s415.0272 186.2144 415.0272 415.0272c0.0512 228.864-186.1632 415.0272-415.0272 415.0272z m0-768.6144c-194.9696 0-353.5872 158.6176-353.5872 353.5872s158.6176 353.5872 353.5872 353.5872 353.5872-158.6176 353.5872-353.5872-158.5664-353.5872-353.5872-353.5872z" fill="#55524f" p-id="2927"></path></svg>